<svg width="337" height="145" viewBox="0 0 337 145" fill="none" xmlns="http://www.w3.org/2000/svg">
<path d="M148.564 67.5778C148.554 67.3292 148.439 67.1732 148.282 67.0852C148.153 66.7411 147.806 66.5005 147.393 66.7278C127.717 77.5582 113.033 96.646 108.065 118.612C106.961 123.492 106.24 129.338 109.655 133.534C112.568 137.113 117.439 137.671 121.637 136.361C128.217 134.308 133.64 129.372 137.753 123.575C138.062 123.482 138.303 123.216 138.238 122.878C140.531 119.524 142.396 115.917 143.8 112.431C149.512 98.2417 149.099 82.5918 148.564 67.5778Z" fill="#5D6266"/>
<path d="M147.148 68.8467C147.76 86.4902 147.731 107.019 137.471 121.947C132.355 113.238 124.628 106.554 115.222 102.789C117.353 98.4239 119.891 94.2566 122.785 90.3566C129.315 81.5596 137.618 74.2329 147.148 68.8467Z" fill="#E9FFE4"/>
<path d="M129.551 130.197C125.056 133.84 117.621 138.16 112.09 133.966C106.723 129.896 108.606 121.83 110.06 116.339C111.212 111.986 112.763 107.746 114.664 103.667C123.996 107.386 131.682 114.063 136.626 122.807C134.638 125.483 132.304 127.966 129.551 130.197Z" fill="white"/>
<path d="M227.387 117.071C227.01 105.787 220.218 94.1148 213.132 85.6817C205.032 76.0435 194.372 68.7657 182.427 64.7995C181.889 64.6207 181.48 65.0683 181.461 65.4965C181.361 65.5946 181.284 65.7231 181.27 65.9072C179.53 89.2861 187.952 115.37 208.569 128.492C212.612 131.066 217.265 132.517 221.584 129.716C225.804 126.98 227.549 121.912 227.387 117.071Z" fill="#5D6266"/>
<path d="M182.65 66.3674C196.724 71.2314 208.904 80.8375 216.975 93.2473C208.385 98.5389 200.993 105.377 195.037 113.52C192.709 110.29 190.695 106.83 189.018 103.23C183.654 91.7161 181.755 78.9865 182.65 66.3674Z" fill="#E9FFE4"/>
<path d="M225.036 123.216C224.019 125.888 221.849 128.337 219.164 129.396C215.195 130.962 211.183 128.633 208.004 126.425C203.362 123.2 199.32 119.2 195.911 114.709C201.815 106.545 209.172 99.7295 217.729 94.4362C219.797 97.7687 221.575 101.291 223.014 104.973C225.214 110.599 227.286 117.3 225.036 123.216Z" fill="white"/>
<path d="M201.41 117.36C200.76 106.513 199.887 95.318 197.356 84.7235C195.461 76.79 191.815 69.1296 184.282 65.2035C179.849 62.8937 174.855 62.062 169.896 62.0916C164.365 62.1251 158.735 63.0472 153.295 63.996C149.404 64.675 145.906 66.8542 143.411 69.8887C141.818 71.8265 140.621 74.0675 139.743 76.4112C137.636 82.0391 137.351 87.8294 136.66 93.7193C135.725 108.891 135.115 124.082 134.811 139.28C134.78 140.837 134.861 142.425 134.72 143.978C134.485 146.567 136.515 147.172 138.387 148.208C139.819 149.002 141.279 149.746 142.764 150.439C145.702 151.813 148.735 152.986 151.832 153.948C157.968 155.852 164.359 156.921 170.781 157.113C175.864 157.264 180.962 156.867 185.959 155.931C188.452 155.464 190.919 154.864 193.347 154.134C194.603 153.757 195.849 153.345 197.082 152.898C198.237 152.481 199.383 152.029 200.542 151.614C202.204 151.019 201.533 149.005 201.595 147.593C201.661 146.075 201.719 144.558 201.766 143.04C201.858 140.08 201.91 137.119 201.909 134.158C201.909 131.357 201.868 128.556 201.785 125.757C201.705 123.076 201.099 120.01 201.41 117.36Z" fill="#5D6266"/>
<path d="M136.171 145.163C135.661 144.206 136.205 141.753 136.237 140.751C136.297 138.844 136.356 136.937 136.415 135.03C136.531 131.217 136.647 127.403 136.77 123.59C137.016 115.962 137.291 108.334 137.66 100.711C137.981 94.0959 135.501 87.7606 136.597 81.1971C137.701 74.5877 144.435 68.9648 150.755 66.035C152.588 65.1852 154.678 65.125 156.673 64.907C158.607 64.6959 160.507 64.322 162.434 64.0639C164.969 63.7242 167.524 63.493 170.083 63.4893C175.159 63.4812 187.481 67.7603 191.888 70.3771C200.055 75.2268 195.525 81.4155 197.013 90.2108C199.483 104.817 200.563 119.645 200.522 134.453C200.514 137.339 200.463 140.227 200.371 143.112C200.326 144.516 200.271 145.92 200.207 147.324C200.171 148.119 200.433 149.163 200.04 149.9C199.462 150.983 197.648 151.299 196.585 151.703C195.04 152.291 193.468 152.808 191.879 153.261C188.666 154.177 185.38 154.826 182.065 155.237C175.469 156.053 168.747 155.938 162.179 154.916C161.987 154.886 161.794 154.855 161.601 154.823C152.737 153.369 144.547 149.985 136.732 145.647C136.541 145.541 136.342 145.427 136.221 145.245C136.202 145.22 136.186 145.191 136.171 145.163Z" fill="#E9FFE4"/>
<path d="M186.73 73.4637C185.742 68.7804 183.829 61.9679 178.72 60.2146C174.526 58.7757 170.95 62.0001 169.678 65.7898C168.581 69.0571 168.709 72.7695 168.507 76.1653C168.275 80.0779 168.042 83.9898 167.81 87.9024C167.792 87.908 167.773 87.9122 167.756 87.9187C166.894 88.1968 167.462 89.4865 168.319 89.2093C168.339 89.203 168.357 89.1989 168.377 89.1926C168.609 89.2384 168.846 89.1797 169.004 89.011C174.546 87.4574 180.233 88.727 184.672 92.4351C185 92.709 185.619 92.5632 185.749 92.1375C187.61 86.0652 188.046 79.6993 186.73 73.4637Z" fill="#5D6266"/>
<path d="M169.244 87.5061C169.519 82.8703 169.792 78.2344 170.07 73.599C170.226 71.0005 170.215 68.1916 171.204 65.7454C172.656 62.1554 176.363 59.8637 179.966 62.479C183.892 65.3277 185.278 72.1394 185.837 76.6235C186.43 81.3661 185.989 86.0929 184.707 90.6714C180.209 87.2995 174.673 86.2015 169.244 87.5061Z" fill="white"/>
<path d="M165.698 89.3648C164.867 82.9012 162.961 76.6396 159.832 70.9081C157.695 66.9939 154.807 62.4065 149.69 63.4074C149.672 63.411 149.662 63.4218 149.645 63.4262C149.413 63.0111 148.825 62.8081 148.51 63.317C142.281 73.3936 140.019 85.2177 142.16 96.8761C142.273 97.4906 143.028 97.6558 143.419 97.1933C148.713 90.927 156.959 88.2842 164.92 90.171C165.383 90.2807 165.75 89.7729 165.698 89.3648Z" fill="#5D6266"/>
<path d="M143.32 95.2131C141.71 84.6006 143.799 73.8798 149.348 64.6543C149.481 64.7777 149.665 64.8469 149.903 64.8004C155.653 63.676 158.83 71.5743 160.646 75.813C162.398 79.9069 163.523 84.195 164.163 88.5886C156.499 87.0997 148.706 89.6184 143.32 95.2131Z" fill="white"/>
<path d="M175.326 63.011C171.719 60.5321 167.143 60.0906 162.899 60.6062C159.225 61.0526 152.201 61.5566 151.022 66.0111C150.31 68.7018 151.034 71.5937 151.612 74.2316C152.39 77.785 154.504 81.0506 157.666 82.9447C163.612 86.5064 171.239 85.3948 175.921 80.2682C180.279 75.4958 181.194 67.0435 175.326 63.011Z" fill="#5D6266"/>
<path d="M175.462 78.645C171.294 83.8893 163.724 85.1893 158.073 81.5587C155.056 79.6206 153.061 76.4788 152.45 72.9599C152.062 70.7249 151.908 68.0191 152.964 65.9346C154.299 63.3022 157.719 63.055 160.304 62.5133C163.388 61.8671 166.592 61.7456 169.696 62.3234C177.834 63.8376 180.514 72.2872 175.462 78.645Z" fill="white"/>
<path d="M145.501 47.2788C144.587 46.2676 143.337 45.5799 141.858 45.514C137.685 45.3296 134.403 50.222 136.408 53.9472C136.704 54.4966 137.097 54.9915 137.542 55.4273C139.732 57.5703 143.227 57.5135 145.484 55.4898C147.818 53.3965 147.501 49.4925 145.501 47.2788Z" fill="#5D6266"/>
<path d="M145.027 53.9388C143.6 55.7607 140.76 56.2073 138.918 54.7744C136.872 53.1828 136.746 50.4072 138.378 48.4619C141.736 44.4576 148.302 49.7575 145.027 53.9388Z" fill="white"/>
<path d="M190.053 46.8448C189.14 45.8336 187.89 45.1458 186.411 45.0807C182.238 44.8964 178.955 49.7887 180.961 53.5138C181.257 54.0633 181.65 54.5582 182.095 54.994C184.284 57.137 187.78 57.0801 190.037 55.0565C192.371 52.9625 192.054 49.0592 190.053 46.8448Z" fill="#5D6266"/>
<path d="M189.579 53.5049C188.152 55.3268 185.313 55.7733 183.471 54.3404C181.425 52.7489 181.299 49.9733 182.93 48.0279C186.289 44.0236 192.854 49.3235 189.579 53.5049Z" fill="white"/>
<path d="M185.073 46.5254C185.809 39.0277 185.758 31.0356 183.581 23.7681C182.554 20.3416 180.93 16.8781 178.129 14.545C172.153 9.56675 163.295 11.545 156.555 13.511C156.367 13.5655 156.258 13.6739 156.193 13.7996C144.807 17.8589 141.183 30.8305 141.886 41.9195C142.177 46.5189 142.643 51.1317 143.721 55.6207C144.804 60.1272 146.527 64.76 149.791 68.16C150.837 69.2498 152.039 70.1886 153.37 70.9071C154.057 71.2778 154.776 71.5897 155.516 71.8396C159.525 73.1965 164.155 73.9337 168.314 72.8352C169.787 72.4459 171.209 71.867 172.541 71.1287C173.189 70.7701 173.815 70.3729 174.416 69.94C174.722 69.7193 176.067 68.9278 176.111 68.553C176.205 68.4655 176.298 68.3772 176.391 68.2881C182.269 62.6087 184.299 54.4001 185.073 46.5254Z" fill="#5D6266"/>
<path d="M177.173 65.3775C175.144 67.878 172.454 69.8672 169.417 70.9612C162.932 73.2975 154.785 71.8752 150.182 66.5164C148.281 64.3046 147.009 61.6079 146.08 58.8634C144.215 53.3575 143.634 47.4791 143.292 41.7068C142.907 35.2097 143.916 28.217 147.463 22.6404C150.796 17.4002 156.741 14.5553 162.717 13.5957C168.477 12.6711 175.92 12.9245 179.598 18.2001C182.443 22.2827 183.384 27.5546 183.821 32.4135C184.237 37.046 184.141 41.7368 183.689 46.3637C183.031 53.08 181.524 60.0172 177.173 65.3775Z" fill="white"/>
<path d="M187.677 20.4648C185.758 14.0592 181.257 8.95853 174.737 7.08416C165.174 4.33574 141.077 7.25381 143.272 21.624C138.495 22.479 136.979 27.5971 136.994 32.0514C137.013 37.5745 138.909 42.7991 142.106 47.2617C142.366 47.6248 142.763 47.5955 143.039 47.3869C143.388 47.4257 143.767 47.2426 143.832 46.7965C144.65 41.1824 145.469 35.5683 146.288 29.9541C148.53 33.9092 151.981 37.0922 156.31 39.0389C156.927 39.317 157.384 38.6468 157.22 38.1042C156.462 35.6054 155.703 33.1057 154.945 30.6069C157.488 32.8949 160.15 35.0373 162.973 36.981C165.368 38.6297 168.742 41.4336 171.716 41.9289C177.751 42.9337 173.865 35.5428 171.777 31.8733C173.786 32.4573 175.795 33.0419 177.804 33.6259C180.39 37.5134 182.347 41.6909 183.71 46.1567C183.946 46.9309 184.996 46.5529 185.027 45.8497C185.274 45.8545 185.509 45.729 185.604 45.4119C188.027 37.377 190.16 28.7544 187.677 20.4648Z" fill="#5D6266"/>
<path d="M142.6 45.4874C140.578 42.4283 139.188 39.0533 138.651 35.3935C138.004 30.9871 138.307 23.9235 143.662 23.0067C143.706 23.0508 143.747 23.0982 143.8 23.1292C144.098 24.7345 144.571 26.2712 145.189 27.7298C144.326 33.6485 143.463 39.568 142.6 45.4874Z" fill="#5D6266"/>
<path d="M184.524 44.123C183.155 40.1033 181.282 36.3243 178.925 32.7755C178.878 32.5977 178.754 32.4428 178.51 32.3724C175.933 31.6232 173.357 30.8733 170.78 30.1241C170.387 29.5058 169.414 29.8403 169.444 30.4579C169.307 30.7856 169.387 31.1779 169.825 31.3052C169.832 31.3074 169.839 31.3089 169.846 31.3112C170.924 33.1379 172.878 35.7516 173.088 37.5502C174.016 38.8184 173.385 39.7333 171.193 40.2942C170.923 40.1646 170.652 40.0357 170.381 39.906C168.989 39.5774 167.096 38.0073 165.843 37.2016C161.576 34.4567 157.632 31.2882 153.956 27.7958C153.38 27.2497 152.71 28.0601 152.887 28.6402C153.735 31.4361 154.583 34.2313 155.431 37.0271C151.47 34.8739 148.417 31.542 146.622 27.5154C146.623 27.305 146.542 27.1431 146.409 27.0331C145.801 25.5701 145.356 24.0211 145.094 22.405C145.067 22.2388 144.986 22.1258 144.89 22.0351C144.855 21.9282 144.802 21.8298 144.726 21.745C142.303 7.69689 167.684 5.49258 176.367 9.13665C190.392 15.0258 187.958 32.3578 184.524 44.123Z" fill="#5D6266"/>
<path d="M174.987 49.5351C173.123 48.7674 171.016 49.0837 169.469 50.3796C168.774 50.9617 169.645 52.0678 170.341 51.4845C171.517 50.5002 173.037 50.2555 174.458 50.8398C175.297 51.1858 175.826 49.8802 174.987 49.5351Z" fill="#5D6266"/>
<path d="M156.37 50.0087C154.885 48.8006 152.969 48.3375 151.098 48.7502C150.218 48.944 150.423 50.3385 151.312 50.1429C152.844 49.8053 154.302 50.1417 155.522 51.1336C156.227 51.7069 157.072 50.5796 156.37 50.0087Z" fill="#5D6266"/>
<path d="M162.192 55.5647C160.56 54.055 160.299 51.5174 161.533 49.6864C162.039 48.9361 160.916 48.086 160.408 48.8383C158.715 51.3506 159.13 54.6416 161.344 56.6896C162.011 57.3053 162.852 56.1746 162.192 55.5647Z" fill="#5D6266"/>
<path d="M170.64 55.483C169.436 55.4431 168.451 56.0825 167.426 56.6052C165.376 57.6514 164.072 58.6823 161.701 58.2933C160.198 58.0467 158.479 57.6612 157.006 58.2469C154.997 59.0454 154.766 61.6976 155.61 63.4359C156.431 65.1275 158.101 66.4084 159.856 67.0093C164.137 68.4761 169.245 67.0304 172.205 63.6422C174.311 61.2322 175.282 55.6366 170.64 55.483Z" fill="#5D6266"/>
<path d="M186.037 101.201C186.316 100.492 186.484 99.7082 186.465 98.9437C186.445 98.1552 185.688 97.09 186.021 96.3882C186.121 96.1766 186.304 96.018 186.482 95.8659C187.769 94.7684 188.913 93.8542 188.779 91.9788C188.752 91.4445 188.612 90.9184 188.35 90.448C187.464 88.8587 185.303 88.127 183.635 88.8522C182.696 85.4154 179.659 82.8291 176.287 81.6816C172.914 80.5348 169.239 80.6429 165.712 81.1491C162.109 81.6669 158.537 82.5961 155.281 84.2252C150.58 86.5773 144.864 91.2117 146.117 97.142C146.166 97.3746 146.225 97.6197 146.149 97.8448C146.059 98.1093 145.806 98.2774 145.586 98.4501C144.629 99.2035 144.058 100.483 144.311 101.675C144.527 102.693 145.413 103.549 146.421 103.705C146.106 104.401 146.16 105.256 146.613 105.889C146.871 106.249 147.233 106.491 147.632 106.627C147.409 107.083 147.36 107.616 147.588 108.135C147.733 108.466 147.964 108.715 148.236 108.892C147.465 118.745 164.091 117.044 169.882 115.862C174.606 114.897 192.288 109.597 185.795 101.731C185.885 101.554 185.968 101.378 186.037 101.201Z" fill="#5D6266"/>
<path d="M154.574 86.1854C154.603 86.1731 154.631 86.1637 154.66 86.1473C156.452 85.1261 158.338 84.3124 160.323 83.75C160.432 83.7195 160.523 83.67 160.598 83.6079C166.627 82.1249 173.657 80.7474 178.997 84.7342C181.827 86.8467 183.582 90.663 182.408 94.1659C181.248 97.6292 177.405 99.161 174.268 100.283C168.253 102.435 161.617 103.036 155.322 101.918C151.514 101.241 146.82 99.6484 147.36 94.8304C147.815 90.7638 151.459 88.2862 154.574 86.1854Z" fill="white"/>
<path d="M146.268 102.186C145.783 101.993 145.588 101.43 145.646 100.941C145.738 100.161 146.321 99.573 146.913 99.0718C147.499 100.026 148.34 100.852 149.421 101.49C156.477 105.65 167.527 104.205 174.833 101.573C178.219 100.353 182.067 98.6806 183.536 95.1287C184.183 93.5627 184.286 91.8413 183.985 90.1853C184.005 90.179 184.021 90.1824 184.041 90.174C185.664 89.4833 187.262 90.4998 187.436 92.243C187.858 93.4249 185.91 94.2986 185.268 94.9897C184.696 95.6053 184.21 96.6209 184.571 97.4531C184.996 98.4339 185.39 99.1544 184.989 100.253C184.66 101.157 183.894 101.825 182.97 102.075C182.947 102.081 182.933 102.096 182.912 102.104C182.799 102.145 181.724 101.42 181.493 101.338C180.962 101.147 180.403 101.056 179.84 101.128C178.071 101.354 177.061 102.867 176.718 104.497C176.469 105.686 175.67 107.029 174.272 106.884C172.662 106.717 172.668 104.641 171.106 104.24C169.724 103.885 168.152 104.635 167.11 105.498C166.015 106.404 165.115 107.178 163.62 107.228C162.124 107.278 160.983 106.423 159.616 105.978C158.879 105.738 158.111 105.678 157.347 105.576C157.143 105.549 156.936 105.522 156.733 105.555C156.048 105.666 155.747 106.403 155.101 106.552C154.159 106.771 152.493 106.805 151.902 105.852C151.125 104.6 150.841 103.315 149.432 102.549C148.349 101.961 147.295 102.592 146.268 102.186Z" fill="white"/>
<path d="M183.222 103.707C182.918 103.991 182.44 104.081 182.002 103.882C181.652 103.722 181.364 103.871 181.201 104.117C181.062 104.212 180.947 104.352 180.9 104.553C180.646 105.622 179.529 106.225 178.49 105.906C178.086 105.782 177.76 106.007 177.611 106.305C177.568 106.325 177.529 106.356 177.489 106.383C178.123 105.077 178.102 103.21 179.443 102.664C180.914 102.065 181.636 103.539 182.882 103.705C183.001 103.72 183.11 103.709 183.222 103.707Z" fill="#5D6266"/>
<path d="M147.885 104.018C148.03 103.857 148.075 103.687 148.052 103.529C148.17 103.519 148.289 103.519 148.408 103.536C149.559 103.706 149.897 105.155 150.469 106.168C151.354 107.734 153.411 108.522 155.116 107.95C156.114 107.615 157.016 106.87 158.069 106.911C158.69 106.936 159.262 107.236 159.814 107.524C160.89 108.085 162.024 108.633 163.238 108.661C164.444 108.689 165.614 108.233 166.6 107.565C167.485 106.966 168.15 105.927 169.191 105.581C169.806 105.376 170.483 105.689 170.968 106.12C171.453 106.55 171.824 107.099 172.325 107.513C172.527 107.68 172.749 107.814 172.984 107.919C172.832 107.975 172.694 108.081 172.602 108.261C171.903 109.626 170.268 109.761 169.181 108.783C169.138 108.744 169.094 108.712 169.05 108.687C168.737 108.306 168.068 108.23 167.875 108.824C167.476 110.056 166.025 110.533 165.089 109.511C164.993 109.406 164.884 109.351 164.772 109.315C164.526 108.839 163.592 108.863 163.422 109.567C163.151 110.69 161.632 110.913 161.047 109.915C160.655 109.245 159.628 109.573 159.662 110.184C159.109 110.942 157.973 110.789 157.565 109.941C157.378 109.553 156.986 109.479 156.67 109.595C156.472 109.584 156.27 109.653 156.117 109.868C155.507 110.725 154.144 110.701 153.821 109.579C153.792 109.479 153.746 109.395 153.69 109.323C153.467 108.908 152.868 108.698 152.532 109.198C151.94 110.08 150.737 109.57 150.93 108.533C151.007 108.117 150.741 107.868 150.421 107.803C150.167 107.595 149.826 107.607 149.547 107.784C149.342 107.913 148.977 107.78 148.877 107.57C148.781 107.368 148.927 106.988 149.156 106.925C149.522 106.824 149.807 106.53 149.745 106.122C149.73 106.028 149.689 105.935 149.632 105.849C149.548 105.455 149.165 105.106 148.679 105.3C147.829 105.64 147.332 104.634 147.885 104.018Z" fill="#5D6266"/>
<path d="M168.493 114.69C163.848 115.501 149.621 116.97 149.616 109.455C149.81 110.098 150.254 110.663 150.893 110.923C151.557 111.193 152.302 111.095 152.901 110.742C153.814 111.974 155.568 112.288 156.774 111.234C157.779 112.31 159.413 112.308 160.479 111.314C161.706 112.302 163.487 112.04 164.376 110.742C165.753 111.835 167.739 111.611 168.739 110.221C170.372 111.333 172.49 110.853 173.611 109.27C175.483 109.907 177.545 109.05 178.478 107.315C180.032 107.565 181.454 106.789 182.078 105.373C183.545 105.635 184.881 104.474 184.912 102.952C184.918 102.946 184.924 102.938 184.93 102.932C189.53 109.393 172.163 114.05 168.493 114.69Z" fill="white"/>
<path d="M156.035 87.5653C155.702 87.4304 155.236 87.5891 155.118 87.9525C154.96 88.436 154.804 88.9195 154.646 89.403C154.529 89.7643 154.664 90.1708 155.033 90.3205C155.366 90.4553 155.833 90.2967 155.951 89.9334C156.108 89.4499 156.265 88.9663 156.423 88.4828C156.541 88.1217 156.406 87.7151 156.035 87.5653Z" fill="#5D6266"/>
<path d="M161.474 88.5256C161.256 88.0988 161.037 87.6718 160.819 87.245C160.409 86.4417 159.115 86.9987 159.529 87.8088C159.746 88.2357 159.965 88.6626 160.183 89.0895C160.593 89.8935 161.888 89.3357 161.474 88.5256Z" fill="#5D6266"/>
<path d="M160.311 91.3629C160.315 90.9827 160.1 90.6292 159.693 90.5815C159.346 90.5407 158.916 90.8164 158.912 91.1987C158.908 91.4996 158.905 91.8005 158.902 92.1015C158.897 92.4817 159.113 92.8352 159.519 92.8829C159.866 92.9237 160.296 92.648 160.3 92.2657C160.304 91.9648 160.307 91.6638 160.311 91.3629Z" fill="#5D6266"/>
<path d="M167.472 89.0037C167.159 88.8025 166.847 88.6014 166.534 88.4002C166.215 88.1946 165.788 88.2197 165.548 88.5389C165.332 88.8256 165.366 89.3187 165.687 89.5251C165.999 89.7263 166.312 89.9275 166.624 90.1286C166.944 90.3342 167.37 90.3091 167.61 89.9899C167.826 89.7033 167.793 89.2101 167.472 89.0037Z" fill="#5D6266"/>
<path d="M172.789 85.0134C172.116 84.767 171.441 84.5205 170.768 84.274C169.917 83.9629 169.385 85.2674 170.237 85.5794C170.911 85.8258 171.585 86.0723 172.259 86.3187C173.11 86.6293 173.642 85.3247 172.789 85.0134Z" fill="#5D6266"/>
<path d="M176.827 88.0172C176.672 87.6303 176.516 87.2441 176.361 86.8572C176.023 86.0157 174.733 86.5795 175.07 87.4211C175.226 87.808 175.381 88.1942 175.536 88.5811C175.874 89.4226 177.165 88.8595 176.827 88.0172Z" fill="#5D6266"/>
<path d="M175.126 90.6113C174.966 89.7218 173.572 89.9296 173.734 90.825C173.799 91.1829 173.733 91.5708 173.462 91.8367C173.191 92.1026 173.093 92.5052 173.346 92.8256C173.563 93.0999 174.062 93.2096 174.335 92.9417C174.966 92.3238 175.287 91.4965 175.126 90.6113Z" fill="#5D6266"/>
<path d="M151.796 92.4455C151.462 92.1936 151.074 92.3083 150.81 92.5843C150.58 92.8245 150.35 93.0642 150.12 93.3044C149.856 93.5791 149.98 94.0807 150.259 94.2906C150.593 94.5425 150.981 94.4272 151.245 94.1519C151.475 93.9116 151.705 93.672 151.935 93.4317C152.198 93.1571 152.074 92.6554 151.796 92.4455Z" fill="#5D6266"/>
<path d="M157.438 96.3906C157.274 96.2126 157.099 96.0581 156.918 95.9162C158.678 94.59 157.52 92.5583 155.762 91.5762C157.47 90.3056 156.742 87.4025 154.512 86.4622C155.177 84.6565 154.22 82.8852 152.218 82.2567C149.343 81.354 145.476 83.205 143.101 84.6476C136.56 88.6221 133.336 95.9191 134.172 103.277C127.682 109.032 118.76 111.105 112.561 117.244C107.272 122.481 105.32 130.587 110.539 136.661C115.373 142.288 123.392 142.121 129.013 137.859C136.17 132.432 141.1 123.558 144.175 115.291C144.216 115.183 144.228 115.08 144.222 114.985C147.85 112.132 150.268 108.262 151.285 103.742C154.273 102.776 160.751 100.009 157.438 96.3906Z" fill="#5D6266"/>
<path d="M154.009 101.009C152.782 101.645 151.495 102.113 150.17 102.499C149.67 102.646 149.657 103.133 149.894 103.474C148.897 107.85 146.451 111.528 142.823 114.187C142.468 114.448 142.495 114.838 142.695 115.114C140.154 121.786 136.53 128.054 131.695 133.336C128.967 136.316 125.672 138.945 121.549 139.471C116.87 140.067 111.996 137.415 110 133.141C106.529 125.71 108.928 116.139 115.703 114.189C124.695 111.602 129.848 108.473 134.439 104.78C134.52 105.189 134.602 105.598 134.708 106.005C134.934 106.873 136.329 106.671 136.1 105.791C134.733 100.53 135.424 95.0076 138.636 90.5246C139.948 88.6948 141.631 87.1143 143.53 85.9015C144.673 85.1715 145.929 84.5631 147.21 84.1172C147.836 83.9384 148.463 83.7596 149.09 83.5808C150.794 83.0194 152.11 83.8198 153.044 85.9621C149.1 85.4877 144.279 88.5985 141.557 90.8257C140.855 91.3998 141.727 92.5061 142.43 91.9306C144.082 90.5783 145.848 89.4457 147.826 88.6187C148.839 88.1952 149.88 87.8311 150.956 87.6028C151.369 87.4976 151.79 87.4271 152.216 87.3907C154.823 87.1629 155.462 88.2375 154.134 90.6155C153.934 90.6445 153.797 90.7426 153.703 90.867C149.176 90.5538 144.659 93.0418 141.673 96.2418C141.054 96.9051 142.186 97.7462 142.798 97.09C144.354 95.4228 146.181 94.1045 148.311 93.2649C149.36 92.852 150.46 92.5608 151.577 92.4104C151.872 92.3784 152.168 92.3465 152.463 92.3145C154.235 91.8682 155.306 92.7355 155.675 94.9165C155.597 94.9533 155.542 95.005 155.487 95.056C151.9 94.0032 146.611 96.9704 144.224 98.8256C143.507 99.3824 144.38 100.487 145.096 99.9306C147.452 98.0994 150.607 96.4293 153.681 96.4541C154.229 96.3384 154.756 96.4137 155.259 96.6798C156.325 96.6964 156.581 97.2675 156.027 98.3928C155.899 100.152 155.474 100.251 154.009 101.009Z" fill="white"/>
<path d="M224.044 112.478C221.791 109.115 218.241 106.976 214.788 105.024C210.317 102.496 205.694 100.277 200.959 98.2951C200.978 98.2463 201.005 98.2055 201.015 98.1485C202.281 90.4855 198.132 82.8574 190.591 80.4506C185.355 78.7794 175.104 79.895 176.196 87.5316C176.232 87.7789 176.366 87.9343 176.536 88.0216C175.706 89.2153 175.585 90.595 177.258 91.6861C176.521 92.517 176.221 93.5701 176.926 94.8248C176.988 94.9356 177.068 95.0166 177.157 95.0775C174.189 98.6184 182.749 100.179 184.943 100.734C185.649 103.965 187.99 106.467 191.107 107.432C193.49 115.497 197.692 123.865 203.995 129.594C209.369 134.479 217.21 135.149 222.616 129.837C227.214 125.317 227.572 117.744 224.044 112.478Z" fill="#5D6266"/>
<path d="M221.016 129.396C207.557 140.871 195.683 117.606 192.484 107.157C192.572 106.788 192.412 106.323 191.934 106.212C189.078 105.549 186.876 103.232 186.3 100.371C186.269 100.212 186.189 100.1 186.095 100.01C186.088 99.7769 185.964 99.561 185.659 99.4762C184.274 99.0931 182.89 98.7094 181.505 98.3263C181.013 98.1899 179.649 98.0957 179.292 97.6901C179.073 96.9809 178.854 96.2718 178.636 95.5633C179.158 95.2035 179.727 94.9605 180.343 94.835C183.569 93.8624 186.994 94.6013 189.749 96.4576C190.499 96.9632 191.349 95.84 190.596 95.3326C187.46 93.2196 181.628 91.6678 178.164 94.1531C176.758 91.3505 183.093 90.699 184.282 90.7605C186.15 90.8573 187.858 91.4661 189.427 92.4635C190.188 92.9478 191.039 91.8255 190.274 91.3386C187.393 89.5058 183.962 88.8301 180.635 89.7695C179.894 89.9789 179.065 90.3211 178.343 90.7809C178.296 90.7108 178.233 90.6446 178.145 90.5881C175.24 88.7341 180.362 86.7986 181.387 86.5744C182.359 86.3617 183.377 86.2955 184.366 86.384C186.688 86.5906 188.724 87.5315 190.476 89.0567C191.161 89.6533 192.004 88.5236 191.324 87.9318C188.19 85.2036 183.827 84.1866 179.85 85.5553C179.113 85.809 178.267 86.2968 177.551 86.9117C176.856 79.1412 189.372 80.8282 193.307 83.257C197.279 85.7077 199.622 90.0673 199.818 94.6917C199.844 95.296 199.834 95.9025 199.791 96.5057C199.742 97.1827 199.522 97.9133 199.615 98.5907C199.709 99.2696 200.135 99.4721 200.703 99.709C201.358 99.9822 202.012 100.256 202.665 100.533C203.988 101.095 205.306 101.669 206.615 102.265C209.244 103.464 211.836 104.754 214.325 106.225C215.969 107.196 219.935 106.926 221.455 108.082C227.698 112.83 227.611 123.773 221.016 129.396Z" fill="white"/>
<path d="M281.339 75.5803C273.411 71.6817 265.043 76.553 260.643 83.3472C254.718 92.497 252.112 104.694 250.166 115.271C249.194 120.555 248.066 126.23 248.225 131.625C248.318 134.758 249.628 138.364 253.025 139.198C256.139 139.964 258.883 137.621 260.328 135.112C263.237 130.06 264.627 123.721 266.563 118.23C271.392 104.526 276.22 90.8216 281.049 77.1178C281.06 77.0878 281.054 77.0605 281.061 77.0312C281.728 76.9978 282.087 75.9479 281.339 75.5803Z" fill="#5D6266"/>
<path d="M259.251 133.946C257.998 136.278 255.558 138.272 252.656 137.474C250.096 136.77 249.762 133.106 249.758 130.982C249.746 125.003 250.602 118.805 251.946 112.699C256.414 114.36 260.984 115.49 265.718 116.083C264.5 119.539 263.282 122.996 262.063 126.453C261.194 128.92 260.494 131.632 259.251 133.946Z" fill="white"/>
<path d="M267.841 110.056C267.305 111.577 266.769 113.099 266.232 114.62C261.438 114.041 256.809 112.918 252.287 111.213C253.592 105.615 255.278 100.114 257.057 94.9587C260.234 85.751 267.863 71.6884 279.665 76.4983C275.724 87.6842 271.782 98.8701 267.841 110.056Z" fill="#E9FFE4"/>
<path d="M269.286 94.183C269.337 93.8999 269.403 93.6216 269.457 93.3392C270.21 93.6202 270.976 93.8767 271.756 94.1039C272.696 94.3774 273.097 92.9128 272.16 92.64C271.343 92.4019 270.546 92.129 269.764 91.8296C270.237 89.6105 270.807 87.4195 271.481 85.2557C272.205 85.3505 272.509 84.315 271.922 83.8886C272.187 83.0898 272.455 82.2917 272.748 81.4991C273.088 80.5816 271.621 80.1859 271.284 81.0952C271.015 81.8224 270.772 82.5564 270.526 83.289C268.693 82.4698 267.072 81.3128 265.699 79.8844C263.483 82.0993 261.618 84.9276 260.108 87.8274C262.484 89.8534 265.143 91.5028 268.032 92.7443C267.965 93.0902 267.885 93.4313 267.823 93.7785C267.65 94.7342 269.113 95.1442 269.286 94.183Z" fill="#E9FFE4"/>
<path d="M336.286 126.643C334.304 113.684 329.461 100.987 324.429 88.9318C320.598 79.7568 310.769 67.8901 299.997 75.6557C299.203 76.2274 300.229 77.3488 301.013 76.7833C301.177 76.6646 301.343 76.5555 301.509 76.4484C295.981 85.0708 299.431 95.7165 303.668 104.466C306.595 110.51 309.891 116.382 313.5 122.046C316.806 127.233 320.27 132.963 324.553 137.401C327.064 140.002 331.003 141.927 334.215 139.27C337.87 136.245 336.91 130.717 336.286 126.643Z" fill="#5D6266"/>
<path d="M309.354 112.113C303.578 101.701 294.715 86.3258 304.134 75.4147C304.199 75.3397 304.235 75.2592 304.267 75.1787C309.792 73.579 315.56 77.176 318.938 81.8345C322.484 86.7248 324.351 92.7653 326.475 98.361C328.287 103.135 330.02 107.947 331.496 112.837C326.441 116.639 320.813 119.418 314.715 121.12C312.843 118.17 311.049 115.169 309.354 112.113Z" fill="#E9FFE4"/>
<path d="M303.948 99.8106C310.13 95.7088 316.043 91.2421 321.67 86.4172C320.868 84.8196 319.982 83.2745 318.938 81.8352C318.14 80.7349 317.206 79.6973 316.176 78.7703C311.263 83.0371 305.935 86.7446 300.226 89.9016C300.676 93.309 301.805 96.7634 303.222 100.1C303.459 99.9927 303.702 99.8952 303.948 99.8106Z" fill="#E9FFE4"/>
<path d="M329.176 138.811C327.125 138.241 325.696 136.461 324.421 134.882C322.597 132.624 320.895 130.258 319.225 127.885C317.967 126.099 316.757 124.279 315.568 122.445C321.493 120.725 326.975 118.019 331.945 114.379C332.133 115.028 332.336 115.673 332.512 116.326C333.966 121.692 336.676 129.641 335.044 135.161C334.286 137.721 332.081 139.618 329.176 138.811Z" fill="white"/>
<path d="M317.932 152.894C317.936 152.787 317.934 152.673 317.926 152.551C317.833 151.238 317.448 149.941 317.409 148.621C317.36 146.944 317.312 145.267 317.264 143.591C317.139 139.273 317.014 134.954 316.889 130.635C316.627 121.614 316.815 112.581 315.955 103.587C315.195 95.6449 314.872 86.0777 311.127 78.8735C309.36 75.473 306.281 73.4954 302.399 74.0575C298.889 74.5657 296.018 77.0399 292.67 78.0529C289.079 79.1396 286.002 76.6934 282.785 75.5774C279.039 74.2779 274.976 74.4859 271.803 77.0979C266.489 81.4718 266.392 89.4523 265.915 95.7213C265.163 105.604 264.765 115.513 264.708 125.423C264.68 130.457 264.739 135.49 264.884 140.522C264.957 143.037 265.051 145.552 265.167 148.066C265.261 150.12 264.843 153.374 267.053 154.561C270 156.144 275.065 155.214 278.319 155.467C282.643 155.803 286.98 155.981 291.318 155.998C296.464 156.02 301.612 155.815 306.742 155.389C309.384 155.169 312.021 154.889 314.652 154.554C316.05 154.378 317.862 154.695 317.932 152.894Z" fill="#5D6266"/>
<path d="M266.921 152.682C266.077 137.686 265.975 122.659 266.695 107.655C267.036 100.547 267.59 93.0656 268.583 85.9923C269.1 82.3067 268.751 78.1824 271.819 76.3999C275.854 74.056 281.826 76.7962 285.616 78.7063C290.118 80.9744 293.828 79.0221 298.057 77.1967C301.896 75.5404 307.732 72.8616 310.693 76.6625C313.691 80.5119 312.904 88.0067 313.178 93.2218C313.699 103.075 314.94 112.68 315.112 122.518C315.157 125.097 316.539 152.773 316.015 152.845C299.701 155.092 283.224 155.026 266.921 152.682Z" fill="#E9FFE4"/>
<path d="M296.323 69.3531C296.257 69.0393 295.909 68.7753 295.589 68.7903C291.048 69.0004 286.508 69.2112 281.968 69.4213C281.503 69.4431 281.266 69.8019 281.245 70.1648C281.178 70.2651 281.126 70.379 281.111 70.5202C280.455 76.4509 281.614 87.336 290.23 86.2977C298.377 85.3161 297.523 75.017 296.323 69.3531Z" fill="#5D6266"/>
<path d="M284.588 82.2335C281.929 79.1366 282.177 74.7333 282.588 70.9043C286.043 70.7065 289.69 70.2167 293.115 70.4234C295.737 70.5824 295.515 72.169 295.718 74.8567C295.877 76.9428 295.763 79.1761 294.774 81.0684C292.546 85.3271 287.709 85.866 284.588 82.2335Z" fill="white"/>
<path d="M275.236 61.6238C275.124 60.2841 274.282 59.4941 273.079 59.3584C272.967 59.1476 272.765 58.9907 272.448 59.0037C266.679 59.2404 261.331 61.8271 258.051 66.682C256.676 68.7175 252.423 77.7301 256.339 79.1981C258.128 79.8687 260.077 77.2635 261.12 76.3106C264.426 73.2873 267.733 70.2633 271.04 67.2393C272.555 65.8532 275.437 64.0175 275.236 61.6238Z" fill="#5D6266"/>
<path d="M271.068 65.1577L264.456 71.2049C263.353 72.2132 262.252 73.2207 261.149 74.2282L258.945 76.244C256.918 77.4078 256.124 77.1472 256.562 75.4629C256.022 72.1149 258.915 67.5275 261.132 65.2798C264.067 62.3035 267.921 60.811 272.023 60.5552C272.142 60.7312 272.332 60.8581 272.613 60.8512C273.07 62.796 272.555 64.2313 271.068 65.1577Z" fill="#5D6266"/>
<path d="M307.311 66.3689C311.093 68.7708 314.876 71.1726 318.657 73.5745C319.85 74.3317 322.224 76.5576 323.868 75.5855C327.469 73.4585 321.713 65.3239 320.004 63.5585C315.929 59.3489 310.212 57.7322 304.489 58.5037C304.175 58.546 304.003 58.7356 303.93 58.9628C302.769 59.3066 302.078 60.2309 302.201 61.5693C302.42 63.9616 305.577 65.2679 307.311 66.3689Z" fill="#5D6266"/>
<path d="M304.649 60.3533C304.928 60.311 305.093 60.1527 305.18 59.959C309.264 59.4965 313.319 60.296 316.727 62.7156C319.301 64.5424 322.949 68.5568 322.999 71.9478C323.724 73.5297 322.988 73.9247 320.789 73.1314L318.267 71.5303C317.007 70.7295 315.745 69.9293 314.485 69.1285L306.92 64.3248C305.294 63.6706 304.538 62.3472 304.649 60.3533Z" fill="#5D6266"/>
<path d="M269.659 48.6236C268.651 47.5553 267.287 46.8431 265.692 46.8077C261.191 46.7074 257.768 52.0568 260.017 56.0235C260.349 56.6081 260.784 57.1334 261.273 57.5918C263.683 59.8497 267.449 59.7065 269.834 57.4724C272.301 55.162 271.867 50.9627 269.659 48.6236Z" fill="#5D6266"/>
<path d="M269.304 55.8116C267.809 57.8083 264.76 58.3561 262.741 56.8553C260.499 55.1882 260.298 52.2003 262.01 50.0659C265.536 45.6714 272.736 51.2289 269.304 55.8116Z" fill="white"/>
<path d="M317.661 47.1092C316.653 46.0409 315.289 45.3287 313.694 45.2933C309.193 45.193 305.77 50.5424 308.019 54.5091C308.351 55.0937 308.786 55.619 309.275 56.0774C311.685 58.3353 315.451 58.1921 317.836 55.958C320.302 53.6476 319.868 49.4483 317.661 47.1092Z" fill="#5D6266"/>
<path d="M317.306 54.2976C315.811 56.2942 312.762 56.842 310.743 55.3412C308.501 53.6741 308.3 50.6862 310.012 48.5518C313.538 44.158 320.738 49.7149 317.306 54.2976Z" fill="white"/>
<path d="M312.286 46.8811C312.903 38.7839 312.66 30.1725 310.143 22.3918C308.956 18.7232 307.125 15.0293 304.051 12.5804C297.494 7.35581 287.995 9.69627 280.777 11.9726C280.576 12.0361 280.461 12.1554 280.395 12.2925C268.22 16.9353 264.619 30.9992 265.637 42.9321C266.059 47.8818 266.67 52.8418 267.937 57.6537C269.209 62.484 271.175 67.4371 274.772 71.0239C275.925 72.174 277.243 73.1576 278.693 73.8998C279.442 74.2832 280.225 74.6024 281.028 74.8548C285.38 76.2232 290.388 76.9081 294.843 75.6263C296.421 75.172 297.94 74.5144 299.358 73.6877C300.047 73.2859 300.713 72.8432 301.35 72.3622C301.674 72.1173 303.105 71.2326 303.144 70.8281C303.243 70.7319 303.342 70.6343 303.439 70.5361C309.643 64.2794 311.637 55.3855 312.286 46.8811Z" fill="#5D6266"/>
<path d="M304.216 67.3836C302.088 70.1258 299.236 72.3326 295.989 73.583C289.056 76.2529 280.243 74.9118 275.156 69.2452C273.056 66.9061 271.622 64.0301 270.555 61.0948C268.416 55.2051 267.652 48.8843 267.147 42.6719C266.58 35.6792 267.503 28.1195 271.195 22.0266C274.663 16.3013 281.003 13.0958 287.42 11.9211C293.606 10.7895 301.633 10.8877 305.72 16.4861C308.883 20.8185 310.02 26.4783 310.605 31.7036C311.162 36.686 311.169 41.7435 310.79 46.7396C310.24 53.9929 308.779 61.5041 304.216 67.3836Z" fill="white"/>
<path d="M300.325 57.6407C300.305 56.5964 299.226 53.1324 297.569 54.4244C296.685 55.114 296.638 57.0964 296.865 58.0487C297.097 59.0166 297.8 60.2425 298.989 59.9744C300.035 59.7383 300.344 58.576 300.325 57.6407Z" fill="#5D6266"/>
<path d="M284.181 57.5758C284.16 56.5314 283.082 53.0674 281.425 54.3594C280.541 55.0491 280.494 57.0314 280.721 57.9837C280.952 58.9517 281.655 60.1775 282.844 59.9094C283.891 59.6734 284.199 58.511 284.181 57.5758Z" fill="#5D6266"/>
<path d="M289.476 61.4643C290.892 59.9028 291.374 57.8304 290.793 55.8031C290.524 54.8631 291.976 54.4197 292.246 55.3597C292.976 57.9075 292.358 60.5454 290.579 62.508C289.92 63.2338 288.819 62.1887 289.476 61.4643Z" fill="#5D6266"/>
<path d="M291.813 65.1821C291.495 64.2905 290.652 64.165 289.827 64.0491C288.259 63.8287 286.72 63.708 285.192 63.2509C285.004 63.1943 284.811 63.1343 284.614 63.1384C283.445 63.165 283.506 65.0852 283.533 65.8622C283.578 67.1699 283.724 68.509 284.579 69.5595C285.76 71.0111 287.767 71.5643 289.391 70.507C290.757 69.6175 292.413 66.8657 291.813 65.1821Z" fill="#5D6266"/>
<path d="M314.207 22.603C313.01 16.6491 310.131 10.6469 303.512 9.7403C303.436 9.73007 303.374 9.74508 303.308 9.75395C300.468 5.79746 294.707 5.76131 290.203 6.16855C283.724 6.75452 277.364 9.29486 272.399 13.5228C262.808 21.6889 259.904 35.965 266.134 46.9763C265.966 47.4442 266.33 47.7915 266.761 47.8399C267.356 48.1673 268.258 47.6189 267.84 46.9169C268.903 44.8671 269.966 42.8172 271.029 40.7667C275.846 38.3307 279.941 34.8845 283.091 30.5971C281.808 35.1696 280.526 39.7421 279.244 44.3145C279.076 44.9128 279.635 45.5929 280.273 45.2736C286.893 41.9604 291.906 36.5332 294.691 29.8952C295.166 34.1648 296.925 38.1779 299.855 41.5689C300.331 42.12 301.355 41.7196 301.187 40.9542C300.239 36.626 299.959 32.3127 300.311 27.9947C301.726 35.3217 305.559 41.9113 311.419 46.8528C312.088 47.417 312.859 46.4899 312.487 45.8391C315.049 38.3587 315.772 30.385 314.207 22.603Z" fill="#5D6266"/>
<path d="M301.204 22.0179C301.204 21.9572 301.182 21.9094 301.17 21.8548C301.167 21.8357 301.163 21.8166 301.159 21.7982C300.938 21.041 299.686 20.9783 299.693 21.8733C299.693 21.8855 299.695 21.8971 299.695 21.9094C299.685 21.9401 299.665 21.9626 299.657 21.996C298.498 27.3605 298.332 32.682 299.122 38.0266C296.714 34.2018 295.731 29.8094 296.227 25.2294C296.319 24.8515 296.414 24.4757 296.493 24.0923C296.597 23.5861 296.221 23.318 295.817 23.3105C295.417 23.228 294.937 23.4156 294.852 23.9368C294.783 24.3665 294.727 24.7956 294.683 25.2233C292.77 32.8041 287.923 39.1774 281.165 43.0711C282.682 37.6617 284.199 32.2515 285.716 26.842C285.786 26.5937 285.732 26.3761 285.618 26.2036C285.486 25.5985 284.674 25.2049 284.31 25.8693C281.116 31.714 276.395 36.3212 270.471 39.3418C270.268 39.3657 270.08 39.4646 269.939 39.6522C269.741 39.7907 269.646 39.981 269.634 40.1843C268.747 41.8951 267.86 43.6053 266.973 45.3161C262.249 35.9188 264.059 24.2096 271.404 16.5559C275.194 12.6069 280.15 9.85031 285.451 8.51602C290.267 7.30315 299.54 5.89109 302.444 11.2051C302.749 11.7644 303.447 11.6833 303.76 11.319C310.849 12.5735 312.682 20.715 313.313 26.8427C313.937 32.9078 313.152 38.923 311.263 44.6899C304.908 38.835 301.277 30.7146 301.204 22.0179Z" fill="#5D6266"/>
<path d="M311.365 90.5242C310.465 80.592 297.327 79.0961 289.606 79.9863C283.455 80.6957 275.883 83.1037 275.391 90.3857C274.733 100.121 287.408 102.156 294.491 102.477C301.649 102.801 312.195 99.6759 311.365 90.5242Z" fill="#5D6266"/>
<path d="M294.495 101.149C290.997 100.99 287.434 100.565 284.111 99.4187C280.91 98.3136 277.631 96.2896 276.871 92.7438C276.757 92.2151 276.717 91.6838 276.696 91.1449C276.695 91.1101 276.694 91.0725 276.713 91.0439C276.732 91.0159 276.765 91.0016 276.798 90.9914C277.184 90.8672 277.62 91.0371 277.907 91.3236C279.146 92.559 278.608 94.9976 280.401 95.8265C281.41 96.2931 282.539 96.2965 283.584 96.6341C284.334 96.8763 284.957 97.4193 285.543 97.9323C286.813 99.0435 288.001 99.8273 289.769 99.491C291.391 99.1827 292.657 98.2058 294.094 97.4561C296.448 96.2276 297.716 96.8845 300.004 97.5469C300.472 97.6826 300.654 97.9125 301.069 98.0087C305.472 99.0237 306.244 92.4232 310.155 92.3952C309.636 99.0449 300.228 101.409 294.495 101.149Z" fill="white"/>
<path d="M303.801 88.058C303.552 88.2142 303.282 88.3642 303.007 88.5123C302.657 87.9379 302.127 87.5525 301.419 87.371C300.549 87.1493 299.599 87.4133 298.711 87.2278C297.432 86.9597 297.682 85.8485 296.962 85.0326C296.47 84.4739 295.782 84.1022 295.038 84.0326C294.066 83.9412 293.121 84.3443 292.286 84.7979C291.57 85.1868 290.896 85.8178 290.071 86.0224C289.009 86.2857 287.786 85.83 286.724 85.7277C286.248 85.682 285.759 85.6663 285.289 85.7734C285.168 85.8007 283.986 86.2455 284.079 86.4017C283.651 85.6813 282.514 86.326 282.933 87.0661C286.986 94.2273 298.59 92.8855 304.454 89.2156C305.177 88.7619 304.528 87.6036 303.801 88.058Z" fill="#5D6266"/>
<path d="M287.48 89.628C290.899 88.7882 294.349 89.0563 297.584 90.4493C294.134 91.1737 290.352 91.1089 287.48 89.628Z" fill="white"/>
<path d="M299.272 89.7792C295.108 87.6536 290.531 87.2369 286.066 88.6407C286.044 88.6475 286.026 88.6585 286.004 88.6673C285.583 88.3262 285.197 87.9374 284.845 87.507C285.745 86.4599 287.116 86.8603 288.265 87.1618C288.868 87.3201 289.498 87.5043 290.128 87.4606C290.88 87.4087 291.301 86.9449 291.92 86.5813C292.52 86.2293 293.138 85.8869 293.797 85.6577C294.714 85.3384 295.858 85.3637 296.278 86.3951C296.738 87.5281 297.351 88.4443 298.669 88.5507C299.593 88.625 301.177 88.2089 301.83 89.093C301.1 89.417 300.314 89.709 299.493 89.9593C299.441 89.8897 299.368 89.8283 299.272 89.7792Z" fill="white"/>
<path d="M280.139 86.7039C279.938 86.8191 279.736 86.9344 279.534 87.0497C278.686 87.534 279.45 88.8465 280.3 88.3601C280.502 88.2449 280.704 88.1296 280.905 88.0143C281.753 87.53 280.989 86.2175 280.139 86.7039Z" fill="white"/>
<path d="M282.028 89.6544C281.884 89.885 281.74 90.1155 281.596 90.3454C281.077 91.1763 282.389 91.9389 282.907 91.1115C283.051 90.8809 283.195 90.6503 283.339 90.4205C283.857 89.5896 282.545 88.8269 282.028 89.6544Z" fill="white"/>
<path d="M286.157 92.8025V93.4935C286.157 94.4704 287.675 94.4717 287.675 93.4935V92.8025C287.676 91.8256 286.157 91.8236 286.157 92.8025Z" fill="white"/>
<path d="M300.155 92.5247C299.838 92.2369 299.521 91.9483 299.205 91.6604C298.483 91.0042 297.407 92.0752 298.131 92.7341C298.448 93.022 298.765 93.3099 299.081 93.5984C299.804 94.254 300.88 93.1837 300.155 92.5247Z" fill="white"/>
<path d="M305.802 85.4716C305.515 85.3256 305.229 85.1797 304.942 85.033C304.073 84.591 303.304 85.9 304.176 86.3441C304.463 86.4901 304.749 86.636 305.036 86.7827C305.905 87.2247 306.674 85.9157 305.802 85.4716Z" fill="white"/>
<path d="M301.303 83.3852C301.039 83.1205 300.487 83.0632 300.23 83.3852C299.975 83.7051 299.719 84.0257 299.464 84.3457C299.209 84.6663 299.152 85.1063 299.464 85.4194C299.729 85.684 300.281 85.7413 300.538 85.4194C300.793 85.0994 301.048 84.7788 301.303 84.4589C301.559 84.139 301.617 83.6983 301.303 83.3852Z" fill="white"/>
<path d="M290.063 82.5693C289.891 82.8572 289.717 83.1457 289.545 83.4336C289.041 84.2733 290.353 85.0374 290.856 84.1997C291.029 83.9118 291.202 83.6239 291.374 83.3354C291.878 82.4957 290.566 81.7316 290.063 82.5693Z" fill="white"/>
<path d="M286.828 83.8022C286.71 83.4577 286.592 83.1126 286.474 82.7681C286.341 82.3806 285.953 82.1248 285.54 82.238C285.163 82.3417 284.876 82.7824 285.01 83.1719C285.128 83.5164 285.246 83.8609 285.364 84.2061C285.497 84.5935 285.885 84.8493 286.298 84.7361C286.675 84.6324 286.962 84.1917 286.828 83.8022Z" fill="white"/>
<path d="M333.766 129.039C331.55 126.151 328.84 123.651 326.57 120.795C323.78 117.286 321.329 113.546 319.122 109.649C319.172 109.551 319.206 109.438 319.202 109.298C319.063 104.42 317.493 99.6764 314.371 95.8789C313.245 94.5098 311.605 92.9211 309.647 93.2819C308.187 93.5514 307.272 94.6838 307.241 96.1149C306.216 96.4137 305.461 97.2753 305.697 98.3797C304.415 98.6273 304.121 100.092 304.463 101.389C304.211 101.466 303.964 101.598 303.731 101.818C301.501 103.915 304.874 107.752 306.602 109.549C305.816 113.59 307.428 117.524 310.925 119.729C312.709 128.235 321.467 148.884 333.313 141.342C337.916 138.413 336.597 132.727 333.766 129.039Z" fill="#5D6266"/>
<path d="M325.531 140.484C322.639 139.346 320.568 136.986 318.806 134.515C315.517 129.9 313.435 124.638 312.342 119.093C312.291 118.834 312.143 118.676 311.961 118.592C308.928 116.779 307.385 113.467 308.053 109.99C308.35 109.739 308.479 109.301 308.127 108.943C307.516 108.319 303.067 103.214 305.236 102.839C305.964 102.713 307.687 104.734 308.153 105.185C308.987 105.996 309.763 106.856 310.509 107.748C311.138 108.499 312.263 107.479 311.637 106.731C310.243 105.065 308.705 103.422 306.957 102.119C306.672 101.907 306.361 101.718 306.039 101.571C306.048 101.456 306.037 101.335 305.983 101.208C306.461 100.264 306.951 100.024 307.453 100.484C307.708 100.655 307.958 100.833 308.202 101.019C308.802 101.472 309.376 101.961 309.921 102.478C310.815 103.325 311.604 104.261 312.343 105.243C312.932 106.026 314.054 105.002 313.471 104.227C312.482 102.913 311.386 101.713 310.138 100.64C309.344 99.9581 308.368 99.0563 307.327 98.6156C307.329 98.5031 307.31 98.385 307.247 98.2616C307.489 97.5658 307.865 97.342 308.375 97.5897C308.784 97.6661 309.164 97.8216 309.516 98.0549C309.99 98.3155 310.451 98.6238 310.875 98.9601C311.927 99.7937 312.734 100.834 313.383 102C313.858 102.854 315.208 102.159 314.732 101.303C313.499 99.0877 311.407 96.8386 308.871 96.1292C310.701 95.0746 312.072 95.2151 312.976 96.5671C313.482 97.1626 313.95 97.7868 314.381 98.4396C314.999 99.3803 315.537 100.379 315.991 101.41C317.05 103.82 317.569 106.356 317.672 108.973C317.422 109.173 317.288 109.498 317.491 109.862C319.831 114.048 322.456 118.056 325.442 121.812C328.621 125.81 338.674 124.907 334.568 137.001C333.236 140.923 329.056 141.871 325.531 140.484Z" fill="white"/>
<path d="M250.777 137.699C261.933 146.23 272.43 126.408 274.937 118.086C278.611 116.189 280.555 112.408 280.117 108.315C281.994 106.673 285.683 103.139 283.641 100.858C283.428 100.62 283.194 100.466 282.949 100.368C283.401 99.1056 283.234 97.6205 281.978 97.2645C282.308 96.1839 281.629 95.261 280.633 94.8756C280.726 93.4471 279.911 92.2404 278.48 91.8468C276.56 91.3195 274.79 92.7616 273.551 94.029C270.115 97.5448 268.143 102.136 267.586 106.984C267.569 107.124 267.594 107.239 267.635 107.341C265.103 111.034 262.339 114.55 259.259 117.807C256.752 120.458 253.838 122.717 251.382 125.403C248.246 128.833 246.444 134.385 250.777 137.699Z" fill="#5D6266"/>
<path d="M249.9 133.266C248.559 125.062 252.203 122.965 255.713 119.254C259.01 115.767 253.788 128.923 269.242 107.692C269.487 107.355 269.37 107.011 269.138 106.791C269.465 104.192 270.2 101.71 271.462 99.3995C272.001 98.4118 272.623 97.4622 273.32 96.5788C273.805 95.9649 274.325 95.3837 274.88 94.8339C275.897 93.5644 277.275 93.5419 279.007 94.75C276.42 95.2391 274.142 97.2999 272.724 99.4016C272.176 100.213 273.461 101.021 274.008 100.212C274.755 99.1055 275.648 98.1382 276.768 97.3981C277.219 97.0993 277.706 96.8319 278.2 96.613C278.571 96.4104 278.962 96.2882 279.376 96.2473C279.906 96.044 280.261 96.2998 280.442 97.0141C280.369 97.1321 280.34 97.2474 280.332 97.3599C279.258 97.7099 278.208 98.5243 277.358 99.1362C276.023 100.098 274.828 101.2 273.73 102.424C273.083 103.147 274.113 104.263 274.766 103.533C275.587 102.618 276.453 101.753 277.416 100.986C278.004 100.517 278.618 100.079 279.255 99.6792C279.514 99.5155 279.778 99.3593 280.047 99.2106C280.586 98.7945 281.054 99.0769 281.449 100.058C281.385 100.18 281.363 100.299 281.362 100.415C281.029 100.533 280.702 100.696 280.401 100.883C278.547 102.031 276.873 103.535 275.342 105.076C274.654 105.767 275.688 106.88 276.378 106.186C277.197 105.361 278.045 104.57 278.946 103.835C279.448 103.425 281.338 101.559 282.052 101.747C284.182 102.307 279.311 107.012 278.648 107.581C278.268 107.907 278.358 108.354 278.633 108.63C279 112.152 277.178 115.319 274.001 116.865C273.813 116.934 273.652 117.078 273.579 117.332C272.014 122.763 269.488 127.826 265.814 132.143C263.848 134.454 261.582 136.627 258.602 137.513C254.974 138.591 250.568 137.353 249.9 133.266Z" fill="white"/>
<path d="M273.581 117.331C272.016 122.761 269.49 127.825 265.816 132.141Z" fill="white"/>
<path d="M79.0343 50.8735C77.6483 50.0594 75.8926 50.1549 74.3826 49.7243C71.9581 49.0333 69.9157 47.4735 68.2389 45.6333C65.2522 42.3565 63.6121 38.1977 61.8563 34.1988C58.7616 27.1495 54.5938 21.1684 47.0073 18.5923C39.7247 16.12 31.9214 17.9491 26.0415 22.7324C26.0117 22.7566 26.0014 22.785 25.9778 22.81C13.4495 25.5149 15.7611 42.7082 10.0612 51.2412C8.11575 54.1538 5.53545 55.1314 2.65952 56.8089C1.45487 57.5116 0.294529 58.4857 0.145678 59.9728C-0.271103 64.1414 3.97217 64.3442 7.15342 63.69C6.14885 65.5586 6.18762 67.9471 7.92744 69.5277C9.55233 71.0044 11.7761 70.9553 13.5145 69.9728C13.1829 71.7238 13.4024 73.4899 15.2211 74.4723C17.5473 75.7289 19.7441 74.4342 21.459 72.8079C21.801 76.982 27.4442 78.6083 29.9566 75.0186C31.8134 78.6415 36.695 78.8444 38.9077 75.5551C41.1682 78.3909 45.3858 77.8405 46.837 74.5201C50.327 78.1867 56.1411 77.2299 58.205 72.4715C62.8726 75.1556 68.18 71.6698 67.9294 66.4378C72.3361 67.1938 75.9009 63.5342 75.0071 59.1268C77.3714 58.9849 79.7959 58.1174 80.6454 55.6659C81.2733 53.8492 80.7299 51.8684 79.0343 50.8735Z" fill="#5D6266"/>
<path d="M74.1168 57.7653C73.6841 57.7604 73.3082 58.2146 73.4494 58.6418C74.7842 62.6884 71.3877 66.1508 67.3161 64.8665C66.7761 64.6962 66.3711 65.2279 66.4645 65.7181C67.4324 70.815 62.2282 73.7297 58.214 70.8371C57.836 70.5651 57.3182 70.86 57.197 71.2512C55.7168 76.0324 49.9913 76.9525 47.1596 72.7549C46.8557 72.3049 46.0138 72.2924 45.8941 72.9204C45.8615 74.7093 44.8466 75.3408 42.8499 74.8153C41.2243 75.7541 40.1367 75.545 39.5738 74.2136C39.6361 74.0412 39.7053 73.8758 39.7552 73.6916C39.9878 72.8304 38.6523 72.4627 38.4197 73.3233C38.3692 73.5095 38.3006 73.6757 38.2355 73.8453C38.2023 73.9062 38.1808 73.9706 38.167 74.0399C36.5947 77.694 31.6113 77.1948 30.7224 73.0969C30.5694 72.3914 29.5884 72.4877 29.3869 73.0969C27.879 77.6628 21.6467 75.4017 23.0763 70.9694C23.2826 70.3304 22.3702 69.7675 21.9194 70.2957C20.899 71.4921 19.9186 72.8234 18.2916 73.1675C16.3393 74.2406 15.2198 73.0934 14.9332 69.7266C15.1208 69.0682 15.3562 68.4271 15.638 67.8034C15.9398 67.0653 14.7566 66.6077 14.3724 67.2696C13.4592 68.8439 11.1496 69.9565 9.39108 68.8896C7.22618 67.5763 7.60142 64.3452 9.50116 62.9868C10.0848 62.5693 9.75317 61.4076 8.96738 61.7212C7.93997 62.1318 6.15237 62.9875 5.08481 62.8497C2.15003 60.4536 1.5747 58.8391 3.35745 58.0062C3.72369 57.7923 4.10239 57.6026 4.49286 57.4357C5.79928 56.8036 7.07594 56.2394 8.21621 55.3262C10.773 53.2797 12.4228 50.3373 13.5437 47.3055C16.547 39.1845 16.2569 25.6086 27.2884 23.965C27.7461 23.8972 27.8582 23.5032 27.7426 23.1592C33.2992 19.0052 40.5264 17.651 47.1368 20.0977C53.8738 22.5908 57.6249 28.074 60.4302 34.3749C62.5986 39.2447 64.5738 44.3888 68.6682 48.0152C70.2155 49.386 72.0149 50.4882 74.0123 51.0587C75.1041 51.3709 76.6943 51.2449 77.6816 51.7995C83.3234 54.9717 76.4043 57.793 74.1168 57.7653Z" fill="#5D6266"/>
<path d="M90.9776 115.241C89.91 108.307 87.5769 101.682 84.2738 95.5082C87.9238 91.7149 91.7336 86.0925 90.7942 80.9395C90.2458 77.9334 87.4904 75.808 84.9661 76.3473C84.6435 75.414 83.8023 74.7729 82.8012 74.6192C81.2206 74.3769 79.6684 75.3503 78.4769 76.2808C76.6146 77.7347 75.5588 80.3995 77.2938 82.2058C76.9628 82.5575 76.715 82.9971 76.6007 83.5198C76.5959 83.5427 76.6028 83.5607 76.6 83.5828C76.2594 83.5856 75.9063 83.6334 75.5456 83.7441C72.3132 84.7342 72.1366 88.8065 74.6338 90.6882C73.5704 93.1273 73.9616 95.9389 75.826 98.0034C76.0725 100.512 76.2386 103.021 76.337 105.53C74.9232 102.052 73.5095 98.5745 72.0958 95.0963C70.5685 91.3383 69.2877 87.0438 66.8445 83.7497C63.2167 78.8591 56.5087 77.9313 51.6257 81.5238C51.1992 81.8375 51.2788 82.3941 51.5655 82.6759C52.2294 83.3308 51.7766 88.29 51.8659 89.3811C52.066 91.8236 52.3658 94.2572 52.7632 96.6755C53.5559 101.495 54.7405 106.249 56.3017 110.877C57.8297 115.406 59.719 119.812 61.9448 124.042C65.4252 130.654 70.6986 137.898 78.623 139.064C83.9013 139.841 88.4485 137.17 90.3801 132.225C92.4454 126.939 91.8195 120.71 90.9776 115.241Z" fill="#5D6266"/>
<path d="M79.5029 77.229C80.5289 76.4688 83.1424 75.044 83.6755 76.8904C83.168 77.2193 82.6876 77.6686 82.2653 78.291C82.1919 78.3997 82.1579 78.5063 82.1503 78.6088C80.6743 78.6413 79.4295 79.7227 79.3132 81.2632C79.0245 81.2867 78.7434 81.3511 78.4748 81.4466C78.4623 81.4363 78.4533 81.4245 78.4394 81.4141C76.8021 80.1645 78.3315 78.0965 79.5029 77.229Z" fill="white"/>
<path d="M52.9423 82.3266C52.9423 82.3176 52.9375 82.3121 52.9375 82.3031C55.8148 80.4732 59.4198 80.0786 62.538 81.7146C65.5656 83.3028 67.0458 86.4841 68.3162 89.4749C71.0924 96.0105 73.6776 102.633 76.3493 109.213C72.2908 114.009 67.448 117.901 61.8844 120.825C56.0717 108.866 52.9964 95.7454 52.9423 82.3266Z" fill="#E9FFE4"/>
<path d="M90.1949 126.697C89.6375 132.608 86.4321 138.28 79.6971 137.803C73.9674 137.398 69.7982 132.97 66.3123 128.86C64.9394 126.644 63.6794 124.372 62.5107 122.06C67.7953 119.294 72.4533 115.66 76.4148 111.232C76.3898 116.031 76.1129 120.829 75.5376 125.62C75.4317 126.502 76.817 126.495 76.9222 125.62C77.5668 120.254 77.8576 114.879 77.814 109.503C77.8375 109.42 77.8375 109.327 77.814 109.225C77.778 105.745 77.6035 102.265 77.2829 98.7855C77.6886 98.5972 77.9296 98.0724 77.4983 97.7041C77.3764 97.6003 77.2649 97.4909 77.1542 97.3815C77.1417 97.2583 77.1334 97.1357 77.1202 97.0125C77.0718 96.5535 76.6702 96.3382 76.3109 96.3589C74.9484 94.2577 75.1263 91.5673 76.9949 89.5596C77.6014 88.9081 76.6245 87.9264 76.016 88.5806C75.7515 88.8645 75.5224 89.1656 75.3105 89.4737C73.7548 88.2677 73.9348 85.7241 75.9142 85.0802C77.7537 84.4813 79.4368 86.3921 78.5734 88.1424C78.1802 88.9385 79.3745 89.6413 79.7691 88.8416C80.7598 86.8325 79.7338 84.6122 77.9469 83.8555C78.3422 82.1724 80.3167 82.4653 81.2784 83.4546C82.2989 84.5042 82.5571 86.0529 82.8236 87.4341C82.9926 88.3078 84.3274 87.9381 84.1585 87.0658C83.7382 84.8905 83.0576 82.3524 80.7633 81.4621C80.73 81.4489 80.6954 81.4461 80.6622 81.4344C80.6691 81.3991 80.6864 81.3714 80.6878 81.3326C80.7903 79.3491 83.156 79.9895 84.0643 80.8757C84.8134 81.6061 85.2482 82.6065 85.6843 83.5391C86.0617 84.3456 87.2552 83.6436 86.88 82.8405C86.1586 81.298 85.235 79.6184 83.6371 78.924C86.9437 77.6598 88.8621 78.3037 89.3855 80.8653C89.632 82.1087 89.5731 83.3397 89.209 84.5575C88.8351 86.0785 88.1449 87.5262 87.4062 88.9005C85.9481 91.6137 84.0276 93.9427 81.7706 96.0225C81.1136 96.6276 82.0953 97.6051 82.7496 97.0014C82.9136 96.8505 83.0812 96.6878 83.2487 96.5279C88.023 105.565 91.1641 116.425 90.1949 126.697Z" fill="white"/>
<path d="M33.0237 82.7955C32.4082 82.2146 31.5912 81.7916 30.6047 81.5071C28.95 81.0294 27.2808 80.4596 25.5943 80.1162C23.1649 79.6212 20.6192 79.5803 18.2736 80.4769C14.508 81.9162 12.6014 85.427 11.2624 89.0085C6.91805 100.633 3.28263 113.041 2.08906 125.425C1.62174 130.275 0.552783 137.341 3.03201 141.817C4.92414 145.233 8.5194 145.611 11.5843 143.442C15.4261 140.722 18.5187 136.314 21.1565 132.465C24.193 128.033 26.7089 123.257 28.6918 118.265C30.9633 112.545 32.4996 106.536 33.2556 100.428C33.7347 96.5556 33.7319 92.6792 34.166 88.8091C34.391 86.7999 34.6264 84.3082 33.0237 82.7955Z" fill="#5D6266"/>
<path d="M20.8781 130.397C19.3127 132.8 17.5985 135.11 15.7403 137.296C14.796 138.407 13.8302 139.529 12.7862 140.55C12.0751 141.301 11.2949 141.973 10.4454 142.567C9.17982 143.699 7.89348 143.665 6.58775 142.466C4.8687 142.298 3.89459 141.383 3.66474 139.722C3.39335 138.601 3.23896 137.466 3.20157 136.317C3.07211 134.614 3.08734 132.883 3.12611 131.178C3.20157 127.822 3.5055 124.474 3.99359 121.153C4.26775 119.289 4.60354 117.436 4.98016 115.59C11.1391 119.634 18.0908 121.884 25.4447 122.244C24.1009 125.057 22.5798 127.784 20.8781 130.397Z" fill="white"/>
<path d="M32.4648 91.0101C32.2232 93.5524 32.2523 96.1098 32.0023 98.6555C31.463 104.15 30.3096 109.586 28.504 114.806C27.7902 116.869 26.9816 118.899 26.0816 120.888C18.5636 120.631 11.5205 118.332 5.28125 114.134C6.10097 110.362 7.10208 106.628 8.19872 102.93C9.82639 97.4433 11.1702 90.9402 14.134 85.9755C15.9943 82.8593 19.1174 81.3314 22.6975 81.3916C24.9835 81.4304 27.4406 81.78 29.6013 82.5312C30.4868 82.8393 31.6299 83.2567 32.0259 84.1865C32.9238 86.294 32.6753 88.7933 32.4648 91.0101Z" fill="#E9FFE4"/>
<path d="M68.2004 152.57C68.2018 152.473 68.1977 152.369 68.1873 152.257C68.0751 151.062 67.6957 149.888 67.6327 148.684C67.5517 147.156 67.4728 145.628 67.3925 144.101C67.1862 140.165 66.9798 136.23 66.7735 132.294C66.3429 124.074 66.3207 115.833 65.3439 107.649C64.4812 100.423 63.9827 91.7056 60.4138 85.2164C58.7294 82.1535 55.8791 80.4158 52.3516 81.0112C49.1614 81.5498 46.5956 83.867 43.5646 84.8626C40.3135 85.9302 37.4548 83.7652 34.4979 82.8161C31.0543 81.7111 27.3545 81.9874 24.5166 84.4375C19.7645 88.5396 19.8462 95.8187 19.545 101.546C19.0701 110.574 18.9191 119.618 19.0791 128.657C19.1608 133.247 19.3221 137.836 19.5623 142.422C19.6821 144.714 19.8219 147.005 19.9812 149.295C20.1113 151.166 19.7998 154.142 21.8408 155.177C24.5616 156.557 29.1601 155.601 32.1329 155.763C36.0833 155.977 40.0421 156.047 43.9973 155.97C48.6913 155.879 53.3811 155.583 58.0495 155.084C60.4547 154.827 62.8529 154.516 65.2456 154.154C66.516 153.963 68.1755 154.215 68.2004 152.57Z" fill="#5D6266"/>
<path d="M21.6797 153.467C20.5893 139.81 20.1753 126.109 20.5111 112.411C20.6703 105.922 20.4481 98.9963 21.7697 92.6165C22.415 89.5045 22.5161 84.798 25.2757 83.1074C28.9056 80.8836 33.6501 83.9478 37.1463 85.6087C41.2996 87.5805 44.6415 85.7216 48.459 83.9665C51.9241 82.3742 57.2598 79.087 60.0409 82.4905C62.8573 85.9362 62.228 93.5075 62.5908 98.2576C63.2762 107.232 64.6124 115.964 64.98 124.931C65.0762 127.283 66.9275 152.491 66.4512 152.567C51.6229 154.964 36.5959 155.256 21.6797 153.467Z" fill="#E9FFE4"/>
<path d="M60.166 92.8987C59.1095 83.384 50.9615 75.4783 41.2537 75.6389C32.5428 75.7836 24.4647 83.3113 25.3772 92.378C25.7324 95.9041 27.754 99.6752 31.3859 100.676C36.2288 102.012 40.2408 98.1908 43.2227 94.9036C47.4473 96.5168 50.7199 101.369 55.67 100.685C59.5865 100.145 60.5433 96.3015 60.166 92.8987Z" fill="#5D6266"/>
<path d="M57.4078 97.8416C55.9726 99.4028 54.9195 99.6292 52.9152 99.0248C52.0671 98.7686 51.2481 98.3283 50.4942 97.8692C48.017 96.3607 46.0487 94.3702 43.2393 93.4342C43.2005 93.421 43.1687 93.428 43.132 93.421C43.0759 93.4065 43.0212 93.3982 42.963 93.401C42.9471 93.4023 42.9326 93.4065 42.9173 93.4093C42.7837 93.4266 42.6494 93.4792 42.5303 93.6114C39.7112 96.7518 35.7005 100.998 31.0162 99.0171C27.1399 97.3784 26.2004 92.305 26.9661 88.5927C28.5605 80.8615 36.1755 76.1502 43.7945 77.1942C51.2308 78.2133 57.0678 84.2338 58.5321 91.5206C59.0347 94.0247 59.1995 95.8933 57.4078 97.8416Z" fill="white"/>
<path d="M29.4919 108.064C26.1687 100.177 22.8449 92.2889 19.5217 84.4012C22.1138 81.2192 18.5877 74.91 14.3874 76.4421C12.4316 77.1552 11.4498 79.1859 11.7593 81.1881C12.102 83.4063 13.9083 84.8976 15.9943 85.4161C18.8183 93.8916 22.0729 102.202 25.7533 110.343C25.79 110.424 25.8399 110.48 25.8904 110.532C25.9728 110.824 26.2387 111.006 26.5461 111.039C27.9944 111.196 29.4331 110.103 29.6747 108.667C29.7155 108.416 29.6297 108.215 29.4919 108.064Z" fill="#5D6266"/>
<path d="M26.949 109.646L26.9483 109.644C23.2436 101.45 19.9835 93.082 17.1588 84.5456C17.1574 84.5414 17.1539 84.5393 17.1525 84.5352C17.1352 84.4888 17.1089 84.4479 17.0791 84.4071C16.9164 84.1336 16.6243 84.0388 16.3515 84.0886C15.1953 83.8006 14.1187 83.2045 13.5143 82.1273C12.7286 80.7274 12.9826 78.7639 14.4538 77.9304C17.3727 76.2771 20.3961 81.347 18.4423 83.5465C18.4409 83.5479 18.4409 83.5493 18.4403 83.5507C18.0955 83.6345 17.8331 83.9308 18.0096 84.3496C21.4041 92.4063 24.7993 100.464 28.1938 108.52C28.2097 108.558 28.2305 108.592 28.2505 108.625C28.038 109.194 27.5471 109.573 26.949 109.646Z" fill="white"/>
<path d="M25.9557 101.35C26.0194 101.195 26.0894 101.044 26.1461 100.886C26.5955 99.6322 26.3511 97.7497 25.1277 97.38C26.0707 95.8541 26.2008 94.5463 24.2519 94.1905C22.3376 93.8409 19.8723 95.4367 18.4059 96.4772C18.1996 96.6233 18.0147 96.7902 17.8174 96.9453C18.5423 95.0171 19.4063 92.5109 18.2841 91.2889C17.0337 89.9271 15.3957 91.1422 14.4929 92.227C10.3431 97.2139 11.1732 104.731 14.7026 109.719C10.5535 118.491 0.830471 125.787 1.34695 136.223C1.50203 139.357 2.80915 142.874 5.86924 144.235C9.00756 145.63 12.6409 143.774 14.9138 141.599C17.1604 139.45 18.3962 136.43 19.1515 133.468C21.0194 126.147 22.2961 118.628 23.8393 111.231C23.8504 111.18 23.84 111.135 23.84 111.087C25.7564 109.542 27.1639 107.459 27.6229 105.003C27.8797 103.632 27.4442 101.454 25.9557 101.35Z" fill="#5D6266"/>
<path d="M25.4654 107.056C24.823 108.295 23.9119 109.336 22.7958 110.172C22.5556 110.352 22.4801 110.61 22.5037 110.863C21.299 116.636 20.0944 122.408 18.8897 128.18C18.367 130.683 17.9142 133.227 17.0218 135.633C15.9397 138.55 13.3698 141.726 10.3616 142.8C6.11489 144.318 2.93641 140.068 2.73078 136.222C2.52655 132.398 4.09883 128.711 6.00688 125.492C9.22828 120.057 13.7076 115.533 16.236 109.674C16.4631 109.148 16.0394 108.674 15.6178 108.625C13.5076 105.476 12.5535 101.829 13.3809 98.0259C13.5359 97.3135 15.1664 91.4377 17.2828 93.1263C17.5362 93.3284 15.9882 97.8514 15.8504 98.3533C15.8109 98.498 15.8269 98.622 15.8636 98.7355C15.1193 99.5525 14.4554 100.444 13.8683 101.398C13.3996 102.159 14.5973 102.856 15.0639 102.097C16.6805 99.4708 18.9603 97.3834 21.8016 96.1476C22.1603 95.978 22.5279 95.8326 22.9059 95.7121C23.7416 95.2531 24.0143 95.4656 23.7263 96.3484C23.8212 97.4464 22.9758 97.8936 22.2669 98.6088C21.0221 99.8647 19.7773 101.12 18.5325 102.376C17.9045 103.009 18.8828 103.989 19.5114 103.355C20.0127 102.849 22.4033 100.827 24.0863 98.8006C24.159 98.8013 24.2331 98.8006 24.3162 98.7736C25.723 98.307 24.6028 101.017 24.492 101.246C24.2435 101.758 23.9527 102.249 23.6266 102.716C22.8941 103.764 21.9893 104.633 20.9494 105.372C20.2287 105.884 20.9196 107.085 21.648 106.568C23.0326 105.584 24.2476 104.352 25.147 102.916C25.2121 102.91 25.2799 102.896 25.3533 102.866C27.3202 102.041 25.7244 106.557 25.4654 107.056Z" fill="white"/>
<path d="M26.4923 52.926C25.4843 52.0433 24.1848 51.5151 22.733 51.621C18.6372 51.9194 15.9925 57.0731 18.3783 60.4807C18.73 60.9834 19.1703 61.4216 19.6549 61.7962C22.0386 63.6378 25.4455 63.1815 27.4173 60.9467C29.4569 58.6343 28.6995 54.8583 26.4923 52.926Z" fill="#5D6266"/>
<path d="M26.7922 59.4831C25.6076 61.4258 22.8861 62.1874 20.9226 60.9993C18.7418 59.6798 18.3008 56.9838 19.6709 54.8971C22.4922 50.6019 29.511 55.0245 26.7922 59.4831Z" fill="white"/>
<path d="M62.9065 52.0511C61.8985 51.1684 60.599 50.6402 59.1472 50.7461C55.0507 51.0445 52.4067 56.1982 54.7924 59.6058C55.1441 60.1085 55.5845 60.5467 56.0691 60.9213C58.4528 62.7629 61.8597 62.3066 63.8315 60.0718C65.8711 57.7601 65.1137 53.9841 62.9065 52.0511Z" fill="#5D6266"/>
<path d="M63.2065 58.6089C62.022 60.5515 59.3004 61.3131 57.3377 60.1251C55.1569 58.8055 54.7158 56.1096 56.086 54.0229C58.9065 49.7277 65.9253 54.1503 63.2065 58.6089Z" fill="white"/>
<path d="M51.3768 69.9225C59.3531 64.9557 61.7894 55.6092 61.5852 46.701C61.3754 37.5277 59.9194 26.5293 52.3212 20.3586C45.9227 15.1619 36.777 16.0454 30.5059 21.0087C23.764 26.3452 20.7752 35.3807 20.8029 43.7503C20.8362 53.634 24.9666 63.1543 31.9986 70.0471C31.9868 70.1267 31.9806 70.2098 31.9992 70.3012C32.5393 72.9376 32.4756 75.6051 32.092 78.2574C31.6531 81.2891 30.4997 84.1575 31.4052 87.2203C32.2519 90.0845 34.2099 92.903 36.6067 94.6892C40.0822 97.2792 45.517 97.329 48.413 93.7068C50.5516 91.0316 51.221 87.2591 51.3969 83.929C51.4994 81.9842 50.501 79.712 50.4595 77.6219C50.4103 75.0312 50.7233 72.4405 51.3768 69.9225Z" fill="#5D6266"/>
<path d="M41.5004 95.1234C35.9577 94.5266 33.3337 89.2628 32.2295 84.3957C32.2509 84.3583 32.28 84.3306 32.2966 84.2863C34.0136 79.5902 35.8019 72.1345 31.9103 67.9882C30.6884 66.6859 29.5647 65.2916 28.5491 63.8224C24.4893 57.9522 22.2122 50.8952 22.1886 43.7504C22.1547 33.4409 27.1623 21.6935 37.9253 18.7822C50.3588 15.4189 57.5971 26.6762 59.3397 37.3893C60.2819 43.182 60.7125 49.2378 59.5356 55.0298C58.9464 57.9293 57.9301 60.7665 56.2962 63.2478C55.4986 64.4587 54.5633 65.5768 53.5019 66.5654C52.6213 67.3865 50.3158 68.378 50.0313 69.4829C48.8654 74.0156 48.7775 78.7871 49.7294 83.3662C49.771 83.5649 49.8762 83.6909 50.005 83.7698C49.8084 89.0246 48.2396 95.8482 41.5004 95.1234Z" fill="white"/>
<path d="M54.2547 8.17275C48.5679 5.05035 41.925 5.38405 36.3428 8.59092C30.1153 12.1689 26.2916 18.3562 23.5306 24.7928C23.3367 24.7492 23.1277 24.7901 22.9504 24.9915C15.942 32.9872 15.7405 44.2452 22.3931 52.4957C22.4644 53.1569 23.5375 53.366 23.7452 52.6003C25.6041 45.7531 26.5415 38.789 26.5568 31.7237C28.3076 33.3424 30.2572 34.7008 32.445 35.7254C34.4929 36.6843 37.9968 38.2683 40.2905 37.7159C41.5283 37.4182 42.1057 36.7923 41.8309 35.4949C41.538 34.1144 39.9734 32.4078 39.2291 31.2273C38.2675 29.7008 37.3051 28.1735 36.3428 26.6469C47.832 28.4546 57.0171 36.55 60.323 47.7713C60.4206 48.1022 60.6816 48.2462 60.9495 48.2531C61.2874 48.5093 61.9036 48.4698 62.1036 47.9409C67.0725 34.8088 68.7195 16.1145 54.2547 8.17275Z" fill="#5D6266"/>
<path d="M61.2729 46.1854C57.3716 34.6214 47.454 26.5876 35.2538 25.1088C34.9132 25.0673 34.7083 25.25 34.6314 25.4944C34.4078 25.6869 34.2956 25.9929 34.5006 26.3183C35.7848 28.3572 37.0698 30.3961 38.3541 32.435C38.7923 33.1308 39.8779 34.2213 39.9596 34.9835C40.6644 35.7285 40.2462 36.1404 38.7051 36.22C38.2094 36.1439 37.7185 36.0449 37.2325 35.923C33.0841 34.9524 29.4798 32.7708 26.5277 29.7481C26.5215 29.4566 26.525 29.1666 26.5153 28.8751C26.4862 27.9861 25.1015 27.982 25.1306 28.8751C25.1354 29.0226 25.1327 29.1693 25.1368 29.3175C24.8994 29.5633 24.8107 29.9641 25.1105 30.2861C25.1244 30.3006 25.1382 30.3144 25.1521 30.3283C25.2545 37.2287 24.4667 44.0378 22.7891 50.7319C17.3295 43.2638 17.6742 33.3648 23.7106 26.2428C24.0367 26.3128 24.4272 26.1944 24.5892 25.806C27.2235 19.4912 30.9275 13.27 37.0421 9.78547C42.8757 6.4609 49.7069 6.56406 55.2759 10.4293C67.0012 18.5677 65.4538 34.3099 61.2729 46.1854Z" fill="#5D6266"/>
<path d="M38.8319 44.297C37.4411 43.2904 35.6375 43.0522 34.032 43.6601C33.2068 43.973 33.5647 45.312 34.4004 44.9956C35.7033 44.502 37.0028 44.6751 38.1334 45.4927C38.8562 46.0161 39.5478 44.8156 38.8319 44.297Z" fill="#5D6266"/>
<path d="M53.2258 43.0392C51.5559 42.4466 49.7177 42.6923 48.2652 43.708C47.5404 44.2148 48.2313 45.416 48.9638 44.9036C50.1456 44.0777 51.497 43.8915 52.8574 44.3747C53.6986 44.6731 54.0607 43.3355 53.2258 43.0392Z" fill="#5D6266"/>
<path d="M44.9398 42.0623C44.5597 41.2571 43.3654 41.9591 43.7441 42.7609C44.4704 44.2985 44.4829 45.9546 43.8861 47.5338C43.5704 48.368 44.9086 48.7287 45.2209 47.9021C45.9541 45.9643 45.8197 43.9254 44.9398 42.0623Z" fill="#5D6266"/>
<path d="M47.6082 51.646C47.0163 51.0728 46.2381 51.0271 45.4606 51.0333C44.2103 51.043 42.9564 51.1143 41.7054 51.1683C41.6299 50.773 41.5213 50.3784 41.3544 49.992C41.002 49.1765 39.8084 49.8806 40.1587 50.6906C40.7327 52.0192 40.4488 53.5659 39.4927 54.6362C38.9389 55.2565 39.7551 56.1393 40.3498 55.7059C40.6988 57.2013 41.4049 58.7286 43.0894 58.9951C44.994 59.2963 46.3461 57.6942 47.2143 56.2362C47.9952 54.9242 48.9652 52.9594 47.6082 51.646Z" fill="#5D6266"/>
</svg>
