<svg width="57" height="36" viewBox="0 0 57 36" fill="none" xmlns="http://www.w3.org/2000/svg">
<ellipse cx="28.8972" cy="27.707" rx="28" ry="8" fill="#E9FFE4"/>
<g filter="url(#filter0_f_2_490)">
<ellipse cx="29" cy="27" rx="20" ry="4" fill="url(#paint0_radial_2_490)" fill-opacity="0.55"/>
</g>
<path d="M39.0044 22.353V21.4118C39.9778 21.4118 40.7668 20.5691 40.7668 19.5295V17.1766H39.0044V16.2354H41.2074C41.4508 16.2354 41.648 16.4461 41.648 16.706V19.5295C41.6466 21.0882 40.4639 22.3514 39.0044 22.353Z" fill="#F15A24"/>
<path d="M16.5334 9.64706H24.4643V26.1175H16.5334V9.64706Z" fill="#E6E6E6"/>
<path d="M24.4644 9.64706H27.108V26.1175H24.4644V9.64706Z" fill="#29ABE2"/>
<path d="M24.4644 9.64724L25.7862 6.35315L27.108 9.64724H24.4644Z" fill="#0071BC"/>
<path d="M25.7861 6.35315H17.8552L16.5334 9.64724H24.4643L25.7861 6.35315Z" fill="#CCCCCC"/>
<path d="M17.8552 4H25.7862V6.35292H17.8552V4Z" fill="#29ABE2"/>
<path d="M20.4988 15.7645C21.2288 15.7645 21.8206 15.1324 21.8206 14.3527C21.8206 13.573 21.2288 12.941 20.4988 12.941C19.7688 12.941 19.177 13.573 19.177 14.3527C19.177 15.1324 19.7688 15.7645 20.4988 15.7645Z" fill="#29ABE2"/>
<path d="M18.7365 17.1762H22.2613V18.1173H18.7365V17.1762Z" fill="#0071BC"/>
<path d="M18.7365 19.0586H22.2613V19.9998H18.7365V19.0586Z" fill="#0071BC"/>
<path d="M19.3308 23.9145L16.4012 26.1502C16.0596 26.4098 15.9165 26.8772 16.0488 27.3022C16.1787 27.7189 16.5439 27.9999 16.9551 27.9996H20.6751L19.3308 23.9145Z" fill="#C69C6D"/>
<path d="M22.65 22.1529L19.7583 23.0353C19.2794 23.1816 18.9858 23.6957 19.0833 24.2174L19.794 27.9999H24.1533L22.65 22.1529Z" fill="#A67C52"/>
<path d="M30.6329 28H22.8293L22.1411 22.5685C22.0703 22.0104 22.4365 21.4967 22.959 21.421C23.0016 21.4149 23.0446 21.4118 23.0875 21.4118H30.6329V28Z" fill="#8C6239"/>
<path d="M31.0734 15.2943H30.1922C30.1936 13.9955 31.1792 12.9429 32.3952 12.9414H38.784C39.149 12.9414 39.4449 12.6253 39.4449 12.2355C39.4449 11.8457 39.149 11.5296 38.784 11.5296H33.4968C32.6451 11.5296 31.9546 10.7922 31.9546 9.88256C31.9546 8.97292 32.6451 8.23551 33.4968 8.23551H35.4795C36.2095 8.23551 36.8013 7.60346 36.8013 6.82376H37.6825C37.6811 8.12257 36.6956 9.17515 35.4795 9.17668H33.4968C33.1318 9.17668 32.8358 9.49274 32.8358 9.88256C32.8358 10.2724 33.1318 10.5884 33.4968 10.5884H38.784C39.6357 10.5884 40.3262 11.3258 40.3262 12.2355C40.3262 13.1451 39.6357 13.8825 38.784 13.8825H32.3952C31.6652 13.8825 31.0734 14.5146 31.0734 15.2943Z" fill="#B3B3B3"/>
<path d="M35.0315 26.5882H32.8359C30.3995 26.5854 28.425 24.4766 28.4224 21.8744V16.706C28.4224 16.4461 28.6196 16.2354 28.863 16.2354H39.0044C39.2477 16.2354 39.445 16.4461 39.445 16.706V21.8744C39.4424 24.4766 37.4679 26.5854 35.0315 26.5882Z" fill="#F7931E"/>
<path d="M33.7095 24.7064H33.2689C31.5665 24.704 30.1869 23.2306 30.1847 21.4123V20.9417H31.0659V21.4123C31.0673 22.7111 32.0529 23.7637 33.2689 23.7652H33.7095V24.7064Z" fill="#FBB03B"/>
<path d="M30.1847 19.0591H31.0659V20.0003H30.1847V19.0591Z" fill="#FBB03B"/>
<path d="M38.5638 28H29.7516L28.8704 26.1176H39.445L38.5638 28Z" fill="#F7931E"/>
<path d="M26.6674 25.647H41.6481V26.5882H26.6674V25.647Z" fill="#F15A24"/>
<defs>
<filter id="filter0_f_2_490" x="5.5" y="19.5" width="47" height="15" filterUnits="userSpaceOnUse" color-interpolation-filters="sRGB">
<feFlood flood-opacity="0" result="BackgroundImageFix"/>
<feBlend mode="normal" in="SourceGraphic" in2="BackgroundImageFix" result="shape"/>
<feGaussianBlur stdDeviation="1.75" result="effect1_foregroundBlur_2_490"/>
</filter>
<radialGradient id="paint0_radial_2_490" cx="0" cy="0" r="1" gradientUnits="userSpaceOnUse" gradientTransform="translate(29 27) scale(20 4)">
<stop/>
<stop offset="1" stop-opacity="0"/>
</radialGradient>
</defs>
</svg>
