<svg width="21" height="20" viewBox="0 0 21 20" fill="none" xmlns="http://www.w3.org/2000/svg">
<path d="M8.93133 19.4139C9.79788 19.4139 10.5004 18.7115 10.5004 17.8449C10.5004 16.9784 9.79788 16.2759 8.93133 16.2759C8.06478 16.2759 7.3623 16.9784 7.3623 17.8449C7.3623 18.7115 8.06478 19.4139 8.93133 19.4139Z" stroke="white" stroke-width="1.2" stroke-miterlimit="10" stroke-linecap="round" stroke-linejoin="round"/>
<path d="M15.8346 19.4139C16.7012 19.4139 17.4037 18.7115 17.4037 17.8449C17.4037 16.9784 16.7012 16.2759 15.8346 16.2759C14.9681 16.2759 14.2656 16.9784 14.2656 17.8449C14.2656 18.7115 14.9681 19.4139 15.8346 19.4139Z" stroke="white" stroke-width="1.2" stroke-miterlimit="10" stroke-linecap="round" stroke-linejoin="round"/>
<path d="M15.8346 16.2762H8.3034C7.43699 16.2762 6.73438 15.5736 6.73438 14.7072C6.73438 13.8408 7.43699 13.1382 8.3034 13.1382" stroke="white" stroke-width="1.2" stroke-miterlimit="10" stroke-linecap="round" stroke-linejoin="round"/>
<path d="M19.9141 5.60693H4.85156C4.85156 5.60693 5.76379 9.25615 6.31828 11.4744C6.56273 12.4522 7.44137 13.1382 8.4493 13.1382C10.5781 13.1382 14.1875 13.1382 16.3163 13.1382C17.3243 13.1382 18.2029 12.4522 18.4473 11.4744C19.0018 9.25615 19.9141 5.60693 19.9141 5.60693Z" stroke="white" stroke-width="1.2" stroke-miterlimit="10" stroke-linecap="round" stroke-linejoin="round"/>
<path d="M4.85156 5.60676C4.85156 5.60676 4.5252 4.30102 4.20512 3.02133C3.84738 1.59012 2.56145 0.585938 1.08594 0.585938" stroke="white" stroke-width="1.2" stroke-miterlimit="10" stroke-linecap="round" stroke-linejoin="round"/>
</svg>
