<svg width="21" height="20" viewBox="0 0 21 20" fill="none" xmlns="http://www.w3.org/2000/svg">
<g clip-path="url(#clip0_8_376)">
<mask id="mask0_8_376" style="mask-type:luminance" maskUnits="userSpaceOnUse" x="0" y="0" width="21" height="20">
<path d="M0.710938 1.90735e-06H20.7109V20H0.710938V1.90735e-06Z" fill="white"/>
</mask>
<g mask="url(#mask0_8_376)">
<path d="M10.7109 5.39063V10L13.7839 13.0729M1.49219 10H3.02863M1.49219 10C1.49219 15.0914 5.61957 19.2188 10.7109 19.2188M1.49219 10C1.49219 4.90863 5.61957 0.781252 10.7109 0.781252M18.3932 10H19.9297M19.9297 10C19.9297 15.0914 15.8023 19.2188 10.7109 19.2188M19.9297 10C19.9297 4.90863 15.8023 0.781252 10.7109 0.781252M10.7109 19.2188V17.6823M10.7109 2.3177V0.781252" stroke="#8638E5" stroke-width="1.2" stroke-miterlimit="10" stroke-linecap="round" stroke-linejoin="round"/>
</g>
<path d="M17.7098 13.5C18.3835 13.5 18.9303 14.0461 18.9305 14.7197V15.7803H19.991C20.6647 15.7804 21.2107 16.3264 21.2108 17C21.2108 17.6737 20.6647 18.2196 19.991 18.2197H18.9305V19.2803C18.9303 19.9539 18.3835 20.5 17.7098 20.5C17.0362 20.4999 16.4902 19.9538 16.4901 19.2803V18.2197H15.4305C14.7568 18.2196 14.2108 17.6737 14.2108 17C14.2108 16.3264 14.7569 15.7804 15.4305 15.7803H16.4901V14.7197C16.4902 14.0462 17.0362 13.5001 17.7098 13.5Z" fill="#8638E5" stroke="white"/>
</g>
<defs>
<clipPath id="clip0_8_376">
<rect width="20" height="20" fill="white" transform="translate(0.710938)"/>
</clipPath>
</defs>
</svg>
