<svg width="57" height="57" viewBox="0 0 57 57" fill="none" xmlns="http://www.w3.org/2000/svg">
<g clip-path="url(#clip0_1_20159)">
<path d="M34.5389 41.6815L34.4528 41.7677L27.3881 44.783L23.1666 46.5923L16.4466 49.4353L12.9143 50.9L6.53891 53.6569L3.35122 55.0353L0.766602 56.1553L1.62814 54.0877L2.66199 51.6753L4.81583 46.5923L5.84968 44.18L8.17583 38.7523L9.29583 36.1677L11.7943 30.223L13.0866 27.1215L15.0681 22.5553C15.1543 22.383 15.3266 22.383 15.4989 22.4692L34.5389 41.5092C34.5389 41.423 34.5389 41.5953 34.5389 41.6815Z" fill="#FF8025"/>
<path d="M34.5386 41.6813C31.437 41.6813 27.8186 40.5613 26.8709 40.2167C22.3047 38.7521 17.3939 36.2536 14.0339 32.9798C13.1724 32.1182 12.397 31.1705 11.7939 30.1367L13.0863 27.0352C14.8093 31.9459 21.2709 35.6505 27.0432 37.6321C28.8524 38.2352 30.5755 38.6659 31.9539 38.9244L34.5386 41.509C34.5386 41.4228 34.5386 41.5952 34.5386 41.6813Z" fill="#F1B974"/>
<path d="M27.3881 44.6969L23.1666 46.5061C22.2189 46.2477 21.5296 46.0754 21.0989 45.9031C16.5327 44.4384 11.6219 41.94 8.26194 38.6661L8.17578 38.58L9.29578 35.9954C12.0527 39.2692 16.8773 41.8538 21.3573 43.3184C23.6835 44.0938 25.7512 44.5246 27.3881 44.6969Z" fill="#F1B974"/>
<path d="M16.3603 49.3491L12.828 50.8137C9.98488 49.6937 7.1418 48.2291 4.72949 46.4199L5.76334 44.0076C8.52026 46.2476 12.0526 47.9706 15.4126 49.0906C15.7572 49.1768 16.1018 49.263 16.3603 49.3491Z" fill="#F1B974"/>
<path d="M6.45276 53.6568L3.26507 55.0353C2.66199 54.6907 2.05892 54.4322 1.54199 54.0876L2.57584 51.6753C3.78199 52.3645 5.16045 53.0538 6.45276 53.6568Z" fill="#F1B974"/>
<path d="M34.6329 41.6054C35.6084 40.6298 32.036 35.4757 26.6535 30.0933C21.2711 24.7109 16.117 21.1384 15.1414 22.114C14.1658 23.0895 17.7383 28.2437 23.1207 33.6261C28.5031 39.0085 33.6573 42.581 34.6329 41.6054Z" fill="#D95B00"/>
<path d="M29.0246 33.1521L28.1631 32.9798C28.3354 31.946 28.5077 30.826 29.0246 29.7921C29.4554 28.7583 30.1446 27.9829 30.92 27.5521C31.0923 26.6906 31.5231 25.8291 32.1262 25.1398C33.9354 23.2444 37.1231 22.8137 39.2769 24.2783L38.76 24.9675C36.9508 23.7614 34.1939 24.106 32.7292 25.6567C32.2985 26.0875 32.04 26.6044 31.8677 27.0352C32.4708 26.8629 33.16 26.8629 33.6769 26.8629C34.3662 26.8629 35.1415 26.9491 35.6585 27.3798C36.1754 27.8106 36.52 28.586 36.52 29.6198C36.52 29.9644 36.52 30.3952 36.1754 30.7398C35.9169 31.0844 35.4862 31.1706 35.2277 31.1706C33.9354 31.4291 32.6431 31.1706 31.8677 30.3952C31.3508 29.8783 31.0062 29.1891 30.8339 28.4137C30.4031 28.7583 29.9723 29.2752 29.7139 29.9644C29.3692 31.0844 29.1969 32.1183 29.0246 33.1521ZM31.6954 28.1552C31.6954 28.8444 31.9539 29.5337 32.4708 30.0506C33.0739 30.5675 34.1077 30.826 35.1415 30.6537C35.3139 30.6537 35.4862 30.5675 35.5723 30.4814C35.6585 30.3952 35.6585 30.1367 35.6585 29.9644C35.6585 29.4475 35.5723 28.7583 35.1415 28.4137C34.7969 28.0691 34.1939 28.0691 33.6769 28.0691C33.0739 27.8967 32.2985 27.9829 31.6954 28.1552Z" fill="#D08230"/>
<path d="M22.9941 27.6382L22.2188 27.3798C23.0803 25.0536 24.9757 22.9859 27.4741 21.5213C29.4557 20.3152 31.9541 19.5398 34.9695 19.1952C35.3141 19.109 35.7449 19.109 36.0895 19.0229C38.6741 18.6782 41.3449 18.3336 43.068 16.6105C44.3603 15.3182 45.0495 13.2505 45.2218 10.4075H46.0834C45.9111 13.509 45.1357 15.749 43.6711 17.2136C41.6895 19.1952 38.9326 19.5398 36.1757 19.8844C35.8311 19.9705 35.4003 19.9705 35.0557 20.0567C32.1264 20.4875 29.8003 21.1767 27.9049 22.2967C25.5787 23.589 23.8557 25.4844 22.9941 27.6382Z" fill="#FF8025"/>
<path d="M26.3542 19.3677L26.0957 18.5923C27.7326 17.9892 29.1972 16.5246 29.9726 14.7154C30.6619 13.0785 30.8342 11.1831 30.4895 9.02924L31.3511 8.85693C31.6957 11.0969 31.5234 13.2508 30.8342 14.9739C29.8003 17.0415 28.1634 18.6785 26.3542 19.3677Z" fill="#7DA4C3"/>
<path d="M19.2897 26.5183L18.5143 26.0875C19.8066 24.0198 20.4097 21.4352 20.3236 18.4198C20.3236 17.9891 20.3236 17.386 20.1512 16.8691C19.8928 15.5767 19.0312 14.3706 18.2559 13.3367L18.9451 12.8198C19.7205 13.9398 20.6682 15.146 20.9266 16.6106C21.0128 17.2137 21.0989 17.8167 21.0989 18.3337C21.2712 21.5214 20.6682 24.2783 19.2897 26.5183Z" fill="#92CEBE"/>
<path d="M34.6254 15.5768L34.4531 14.7152C35.7454 14.4568 36.9516 13.8537 37.8993 12.9922C37.4685 12.906 37.1239 12.6476 36.8654 12.3891C36.1762 11.786 35.9177 10.8383 35.8316 10.2352C35.7454 9.80448 35.6593 9.28756 35.8316 8.77063C36.09 8.25371 36.4347 7.90909 37.0377 7.65063C37.6408 7.39217 38.33 7.47832 38.9331 7.73679C39.8808 8.25371 40.3977 9.45986 40.3116 10.666C40.2254 11.0968 40.1393 11.6137 39.8808 12.0445C40.57 11.6999 41.1731 11.0106 41.5177 10.0629C41.8624 9.2014 41.9485 8.16756 42.0347 7.30602C42.1208 6.35832 42.1208 5.23832 41.69 4.20448L42.4654 3.85986C42.9824 4.97986 42.9824 6.18602 42.8962 7.30602C42.81 8.33986 42.7239 9.37371 42.3793 10.3214C41.9485 11.4414 41.1731 12.3029 40.3116 12.7337C39.967 12.906 39.5362 12.9922 39.1916 13.0783C39.1054 13.1645 39.0193 13.2506 38.9331 13.3368C37.6408 14.5429 36.1762 15.3183 34.6254 15.5768ZM37.8993 8.33986C37.727 8.33986 37.5547 8.33986 37.3824 8.42602C37.0377 8.51217 36.8654 8.77063 36.7793 9.02909C36.6931 9.37371 36.6931 9.71833 36.7793 10.0629C36.9516 10.8383 37.21 11.4414 37.5547 11.786C37.8131 12.0445 38.2439 12.2168 38.6747 12.2168C39.0193 11.786 39.3639 11.1829 39.45 10.4937C39.5362 9.63217 39.1916 8.77063 38.5024 8.42602C38.33 8.42602 38.0716 8.33986 37.8993 8.33986Z" fill="#F1B974"/>
<path d="M32.4715 38.0629L31.7822 37.546C33.333 35.6506 35.573 34.2721 37.9853 33.8414C38.5022 33.7552 39.0192 33.6691 39.4499 33.6691C40.2253 33.5829 41.0007 33.4968 41.7761 33.2383C43.7576 32.6352 45.3084 30.826 45.5668 28.7583L46.4284 28.8445C46.0838 31.2568 44.2745 33.3245 42.0345 34.0137C41.2592 34.2721 40.3976 34.3583 39.5361 34.4445C39.0191 34.5306 38.5884 34.5306 38.0715 34.6168C35.9176 35.0475 33.8499 36.3398 32.4715 38.0629Z" fill="#7DA4C3"/>
<path d="M23.167 0.930664L24.0285 3.77374H26.9577L24.6316 5.49682L25.4931 8.25374L23.167 6.53066L20.7547 8.25374L21.6162 5.49682L19.29 3.77374H22.2193L23.167 0.930664Z" fill="#FF8025"/>
<path d="M48.0653 17.989C48.6839 17.989 49.1853 17.4876 49.1853 16.869C49.1853 16.2505 48.6839 15.749 48.0653 15.749C47.4468 15.749 46.9453 16.2505 46.9453 16.869C46.9453 17.4876 47.4468 17.989 48.0653 17.989Z" fill="#D3D3D3"/>
<path d="M29.37 25.3984C29.9886 25.3984 30.49 24.897 30.49 24.2784C30.49 23.6599 29.9886 23.1584 29.37 23.1584C28.7514 23.1584 28.25 23.6599 28.25 24.2784C28.25 24.897 28.7514 25.3984 29.37 25.3984Z" fill="#FF8025"/>
<path d="M52.287 11.5276C52.9056 11.5276 53.407 11.0262 53.407 10.4076C53.407 9.78904 52.9056 9.2876 52.287 9.2876C51.6684 9.2876 51.167 9.78904 51.167 10.4076C51.167 11.0262 51.6684 11.5276 52.287 11.5276Z" fill="#92CEBE"/>
<path d="M49.1854 26.1738C49.804 26.1738 50.3054 25.6724 50.3054 25.0538C50.3054 24.4353 49.804 23.9338 49.1854 23.9338C48.5669 23.9338 48.0654 24.4353 48.0654 25.0538C48.0654 25.6724 48.5669 26.1738 49.1854 26.1738Z" fill="#D08230"/>
<path d="M38.4159 4.03224C39.0345 4.03224 39.5359 3.5308 39.5359 2.91224C39.5359 2.29368 39.0345 1.79224 38.4159 1.79224C37.7973 1.79224 37.2959 2.29368 37.2959 2.91224C37.2959 3.5308 37.7973 4.03224 38.4159 4.03224Z" fill="#7DA4C3"/>
<path d="M32.6434 5.75538C33.262 5.75538 33.7634 5.25394 33.7634 4.63538C33.7634 4.01682 33.262 3.51538 32.6434 3.51538C32.0249 3.51538 31.5234 4.01682 31.5234 4.63538C31.5234 5.25394 32.0249 5.75538 32.6434 5.75538Z" fill="#D3D3D3"/>
<path d="M51.2524 0.930664L51.08 3.34297L53.32 4.20451L50.9939 4.89374L50.9077 7.30605L49.5293 5.23836L47.2031 5.84143L48.7539 4.0322L47.3754 1.96451L49.7016 2.82605L51.2524 0.930664Z" fill="#FF8025"/>
<path d="M54.957 20.4014L54.5262 21.866L55.8185 22.7275L54.2678 22.8137L53.9232 24.2783L53.4062 22.8137L51.8555 22.8998L53.0616 21.9521L52.4585 20.5737L53.7509 21.3491L54.957 20.4014Z" fill="#FF8025"/>
<path d="M42.3791 25.7429L42.7237 26.9491H44.016L42.9822 27.7245L43.3268 28.9306L42.3791 28.1552L41.3453 28.9306L41.6899 27.7245L40.7422 26.9491H41.9483L42.3791 25.7429Z" fill="#FF8025"/>
<path d="M22.9081 12.0444L23.9419 13.1644L25.3204 12.4752L24.6312 13.8537L25.665 14.8875L24.2004 14.629L23.5112 16.0075L23.2527 14.4567L21.7881 14.1983L23.1665 13.5952L22.9081 12.0444Z" fill="#FF8025"/>
<path d="M39.708 21.7799C39.708 21.7799 43.6711 19.5399 45.9972 20.746L45.5665 22.2107C45.6526 22.2107 44.2742 21.0907 39.708 21.7799Z" fill="#7DA4C3"/>
<path d="M43.7578 36.4261C43.7578 36.4261 47.7209 34.1861 50.047 35.3923L49.6163 36.8569C49.6163 36.8569 48.324 35.7369 43.7578 36.4261Z" fill="#EEEEEF"/>
<path d="M49.1855 32.0321C49.1855 32.0321 53.1486 29.7921 55.4748 30.9982L55.044 32.4629C55.044 32.4629 53.7517 31.3429 49.1855 32.0321Z" fill="#92CEBE"/>
<path d="M35.3145 37.3736C35.3145 37.3736 39.2775 35.1336 41.6037 36.3398L41.1729 37.8044C41.1729 37.8044 39.8806 36.6844 35.3145 37.3736Z" fill="#F1B974"/>
<path d="M31.0928 22.7277C31.0928 22.7277 34.7112 19.9708 37.2097 20.8323L37.0374 22.2969C36.9512 22.2969 35.4866 21.4354 31.0928 22.7277Z" fill="#F1B974"/>
<path d="M36.0039 31.86C36.0039 31.86 39.6224 29.1031 42.1208 29.9646L41.9485 31.4292C41.9485 31.4292 40.4839 30.5677 36.0039 31.86Z" fill="#909192"/>
<path d="M48.668 14.1122C48.668 14.1122 52.631 11.8722 54.9572 13.0783L54.5264 14.5429C54.6126 14.5429 53.3203 13.4229 48.668 14.1122Z" fill="#7DA4C3"/>
<path d="M26.3545 10.5799C26.3545 10.5799 29.456 7.2199 28.853 4.72144L27.3022 4.80759C27.3022 4.72144 28.0776 6.2722 26.3545 10.5799Z" fill="#F1B974"/>
<path d="M44.0156 7.56452C44.0156 7.56452 47.1172 4.20452 46.5141 1.70605L44.9633 1.79221C44.9633 1.70605 45.7387 3.25682 44.0156 7.56452Z" fill="#92CEBE"/>
<path d="M22.1328 23.3306C22.1328 23.3306 25.2344 19.9706 24.6313 17.4722L23.0805 17.5583C23.0805 17.5583 23.8559 19.1091 22.1328 23.3306Z" fill="#92CEBE"/>
<path d="M37.21 17.4721C37.21 17.4721 41.69 16.869 42.8961 14.4567L41.69 13.509C41.69 13.5952 41.3453 15.3183 37.21 17.4721Z" fill="#EEEEEF"/>
</g>
<defs>
<clipPath id="clip0_1_20159">
<rect width="56" height="56" fill="white" transform="translate(0.25 0.5)"/>
</clipPath>
</defs>
</svg>
