<svg width="91" height="91" viewBox="0 0 91 91" fill="none" xmlns="http://www.w3.org/2000/svg">
<path d="M79.2383 35.6777L83.3668 35.7231L85.2572 50.3942C85.2572 50.4568 85.2262 50.5197 85.1645 50.5553L84.0603 51.1949C83.9581 51.2542 83.832 51.2542 83.7298 51.1949L82.5444 50.508C82.48 50.4706 82.4499 50.4043 82.4524 50.3389H82.4515L79.2383 35.6777Z" fill="url(#paint0_linear_2262_11488)"/>
<path d="M70.7651 42.9126L66.6364 42.9579L65.4092 60.2735C65.4092 60.3361 65.4402 60.3988 65.5019 60.4348L66.6061 61.0744C66.7083 61.1335 66.8344 61.1335 66.9366 61.0744L68.122 60.3875C68.1864 60.3501 68.2165 60.2838 68.2138 60.2184H68.2147L70.7651 42.9126Z" fill="url(#paint1_linear_2262_11488)"/>
<path d="M57.3998 35.1655L53.2713 35.2109L52.0439 52.5264C52.0439 52.5891 52.0748 52.6517 52.1366 52.6877L53.2409 53.3273C53.3431 53.3865 53.4691 53.3865 53.5713 53.3273L54.7568 52.6404C54.8212 52.6031 54.8512 52.5367 54.8487 52.4713H54.8497L57.3998 35.1655Z" fill="url(#paint2_linear_2262_11488)"/>
<path d="M85.0406 29.4277L84.3698 34.049C84.1751 34.9863 83.5912 35.7958 82.7649 36.2745L79.536 38.145L69.4147 44.0083C68.0982 44.7711 66.4758 44.7711 65.1592 44.0083L54.186 37.6253C53.4105 37.176 53.0223 36.3903 53.0207 35.6041H53.0205V30.5421L85.0406 29.4277Z" fill="url(#paint3_linear_2262_11488)"/>
<path d="M63.4641 23.5648L67.2392 4.66435C67.7694 2.94906 68.9227 1.49647 70.4704 0.594365C70.7332 0.441225 71.0229 0.486564 71.2273 0.643596L71.2275 0.643206L87.238 9.91821L79.5362 32.8793L63.4629 23.5677L63.4641 23.5648Z" fill="url(#paint4_linear_2262_11488)"/>
<path d="M85.0406 29.4276L87.5475 10.6634C87.6937 10.0765 87.0648 9.60189 86.5435 9.90564C84.9958 10.8075 83.8425 12.2603 83.3123 13.9756L79.5361 32.8792L85.0406 29.4276Z" fill="url(#paint5_linear_2262_11488)"/>
<path d="M79.5368 32.8795L69.4156 38.7428C68.0988 39.5055 66.4766 39.5055 65.16 38.7428L53.9248 32.234C52.7204 31.5362 52.7204 29.7915 53.9248 29.0938L63.4635 23.5679L79.5368 32.8795Z" fill="url(#paint6_linear_2262_11488)"/>
<path d="M60.139 66.5664L52.2852 66.6935V88.1339C52.2852 88.3094 52.3717 88.4849 52.5448 88.5851L55.6356 90.3757C55.9219 90.5415 56.2744 90.5415 56.5607 90.3757L59.8791 88.4532C60.0595 88.3487 60.1437 88.1629 60.1361 87.9801H60.1388V66.5664H60.139Z" fill="url(#paint7_linear_2262_11488)"/>
<path d="M90.3167 49.001L82.4629 49.128V70.5684C82.4629 70.744 82.5494 70.9195 82.7226 71.0197L85.8134 72.8103C86.0996 72.9761 86.4524 72.9761 86.7384 72.8103L90.0571 70.8878C90.2374 70.7833 90.3216 70.5974 90.314 70.4147H90.3167V49.001Z" fill="url(#paint8_linear_2262_11488)"/>
<path d="M21.6615 44.1519L13.8076 44.2789V65.7193C13.8076 65.8948 13.8941 66.0703 14.0673 66.1706L17.1581 67.9611C17.4443 68.1269 17.7971 68.1269 18.0831 67.9611L21.4018 66.0386C21.5822 65.9341 21.6663 65.7483 21.6588 65.5656L21.6615 65.5654V44.1519Z" fill="url(#paint9_linear_2262_11488)"/>
<path d="M83.9959 35.443L51.4561 16.5922C49.4841 15.4497 47.0543 15.4497 45.0823 16.5922L24.257 28.7455L13.9921 30.086V50.8132C13.9306 51.7578 14.3615 52.7305 15.2949 53.2715L53.0252 75.1291C54.9972 76.2715 57.4269 76.2715 59.399 75.1291L89.1864 57.7839C90.0621 57.2765 90.5 56.3888 90.5 55.5009V34.5938L83.9959 35.443Z" fill="url(#paint10_linear_2262_11488)"/>
<path d="M15.295 27.7981L45.0824 10.453C47.0544 9.31059 49.4841 9.31059 51.4562 10.453L89.1864 32.3106C90.938 33.3252 90.938 35.862 89.1864 36.8766L59.399 54.2217C57.427 55.3641 54.9973 55.3641 53.0252 54.2217L15.295 32.3641C13.5436 31.3493 13.5436 28.8127 15.295 27.7981Z" fill="#E9E5F6"/>
<path d="M34.1279 63.7817L38.2566 63.8273L40.147 78.4984C40.147 78.561 40.116 78.6239 40.0543 78.6595L38.9501 79.2991C38.8479 79.3584 38.7219 79.3584 38.6197 79.2991L37.4342 78.6122C37.3696 78.5748 37.3397 78.5085 37.3425 78.4433H37.3415L34.1279 63.7817Z" fill="url(#paint11_linear_2262_11488)"/>
<path d="M25.6547 71.0166L21.526 71.0619L20.2988 88.3775C20.2988 88.4401 20.3297 88.5028 20.3915 88.5388L21.4957 89.1784C21.5979 89.2376 21.724 89.2376 21.8262 89.1784L23.0117 88.4915C23.0761 88.4541 23.1061 88.3878 23.1034 88.3224H23.1044L25.6547 71.0166Z" fill="url(#paint12_linear_2262_11488)"/>
<path d="M12.2895 63.2695L8.16096 63.3149L6.93359 80.6304C6.93359 80.6931 6.96443 80.7557 7.02629 80.7917L8.13051 81.4313C8.23271 81.4905 8.35876 81.4905 8.46096 81.4313L9.64644 80.7444C9.71082 80.7071 9.74088 80.6407 9.73817 80.5753H9.73914L12.2895 63.2695Z" fill="url(#paint13_linear_2262_11488)"/>
<path d="M38.7373 60.5855L27.466 67.1417L11.3926 57.8301L23.7015 50.6705C25.2335 49.7793 27.1234 49.7777 28.6569 50.6662L38.7338 56.5038C40.2988 57.4102 40.3007 59.6762 38.7373 60.5855Z" fill="url(#paint14_linear_2262_11488)"/>
<path d="M19.9858 49.263C19.9858 49.263 4.18872 40.0551 3.85032 39.9288L3.835 39.9199L3.83538 39.9224C3.67617 39.8638 3.51288 39.8144 3.34339 39.7817C1.3855 39.4029 0.173846 41.0125 0.577408 42.4865L5.56366 60.7C5.87686 61.8442 6.64287 62.709 7.59466 63.1948L7.59505 63.197L23.5399 72.45L19.9858 49.263Z" fill="#7CD47F"/>
<path d="M19.3776 49.079C20.584 49.3123 21.5486 50.2271 21.9535 51.3909L27.4283 67.1285L38.1633 60.9095C39.0548 60.3931 39.6885 59.5237 39.909 58.5148V63.8036C39.909 64.6061 39.4839 65.3483 38.7928 65.752L27.4283 72.3941C25.1717 73.7058 22.2888 72.5206 21.598 69.9973L16.6116 51.7836C16.208 50.3098 17.4197 48.7004 19.3776 49.079Z" fill="url(#paint15_linear_2262_11488)"/>
<defs>
<linearGradient id="paint0_linear_2262_11488" x1="84.0275" y1="42.7132" x2="81.0358" y2="43.6223" gradientUnits="userSpaceOnUse">
<stop stop-color="#CC8241"/>
<stop offset="1" stop-color="#DEA861"/>
</linearGradient>
<linearGradient id="paint1_linear_2262_11488" x1="69.2418" y1="52.0158" x2="66.2652" y2="52.0158" gradientUnits="userSpaceOnUse">
<stop stop-color="#CC8241"/>
<stop offset="1" stop-color="#DEA861"/>
</linearGradient>
<linearGradient id="paint2_linear_2262_11488" x1="55.8765" y1="44.2685" x2="52.9001" y2="44.2685" gradientUnits="userSpaceOnUse">
<stop stop-color="#CC8241"/>
<stop offset="1" stop-color="#DEA861"/>
</linearGradient>
<linearGradient id="paint3_linear_2262_11488" x1="70.0233" y1="37.0042" x2="64.4515" y2="37.0042" gradientUnits="userSpaceOnUse">
<stop stop-color="#AB2C37"/>
<stop offset="1" stop-color="#FF4757"/>
</linearGradient>
<linearGradient id="paint4_linear_2262_11488" x1="87.238" y1="16.6898" x2="63.4629" y2="16.6898" gradientUnits="userSpaceOnUse">
<stop stop-color="#38963B"/>
<stop offset="1" stop-color="#7CD47F"/>
</linearGradient>
<linearGradient id="paint5_linear_2262_11488" x1="87.569" y1="21.3452" x2="79.5361" y2="21.3452" gradientUnits="userSpaceOnUse">
<stop stop-color="#7CD47F"/>
<stop offset="1" stop-color="#38963B"/>
</linearGradient>
<linearGradient id="paint6_linear_2262_11488" x1="54.8805" y1="37.8517" x2="74.3677" y2="26.639" gradientUnits="userSpaceOnUse">
<stop stop-color="#FF4757"/>
<stop offset="1" stop-color="#FF7A85"/>
</linearGradient>
<linearGradient id="paint7_linear_2262_11488" x1="55.0893" y1="78.5333" x2="56.9594" y2="78.5333" gradientUnits="userSpaceOnUse">
<stop stop-color="#CC8241"/>
<stop offset="1" stop-color="#DEA861"/>
</linearGradient>
<linearGradient id="paint8_linear_2262_11488" x1="85.2671" y1="60.9679" x2="87.1371" y2="60.9679" gradientUnits="userSpaceOnUse">
<stop stop-color="#CC8241"/>
<stop offset="1" stop-color="#DEA861"/>
</linearGradient>
<linearGradient id="paint9_linear_2262_11488" x1="16.6118" y1="56.1188" x2="18.4818" y2="56.1188" gradientUnits="userSpaceOnUse">
<stop stop-color="#CC8241"/>
<stop offset="1" stop-color="#DEA861"/>
</linearGradient>
<linearGradient id="paint10_linear_2262_11488" x1="13.9865" y1="45.8606" x2="90.5" y2="45.8606" gradientUnits="userSpaceOnUse">
<stop stop-color="#D7D1EB"/>
<stop offset="1" stop-color="#D7D1EB"/>
</linearGradient>
<linearGradient id="paint11_linear_2262_11488" x1="38.9173" y1="70.8172" x2="35.9255" y2="71.7263" gradientUnits="userSpaceOnUse">
<stop stop-color="#CC8241"/>
<stop offset="1" stop-color="#DEA861"/>
</linearGradient>
<linearGradient id="paint12_linear_2262_11488" x1="24.1316" y1="80.1198" x2="21.155" y2="80.1198" gradientUnits="userSpaceOnUse">
<stop stop-color="#CC8241"/>
<stop offset="1" stop-color="#DEA861"/>
</linearGradient>
<linearGradient id="paint13_linear_2262_11488" x1="10.7664" y1="72.3725" x2="7.78978" y2="72.3725" gradientUnits="userSpaceOnUse">
<stop stop-color="#CC8241"/>
<stop offset="1" stop-color="#DEA861"/>
</linearGradient>
<linearGradient id="paint14_linear_2262_11488" x1="39.9087" y1="58.5714" x2="11.3926" y2="58.5714" gradientUnits="userSpaceOnUse">
<stop stop-color="#38963B"/>
<stop offset="1" stop-color="#7CD47F"/>
</linearGradient>
<linearGradient id="paint15_linear_2262_11488" x1="39.909" y1="60.9786" x2="16.5342" y2="60.9786" gradientUnits="userSpaceOnUse">
<stop stop-color="#7CD47F"/>
<stop offset="1" stop-color="#38963B"/>
</linearGradient>
</defs>
</svg>
