<svg width="13" height="14" viewBox="0 0 13 14" fill="none" xmlns="http://www.w3.org/2000/svg">
<path d="M6.5 4.65625V8.40625" stroke="#797979" stroke-width="1.2" stroke-miterlimit="10" stroke-linecap="round"/>
<path d="M11.8835 10.4969L7.75855 2.24695C7.52785 1.78556 7.05092 1.46875 6.5 1.46875C5.94905 1.46875 5.47212 1.78556 5.24145 2.24695L1.11645 10.4969C1.02193 10.686 0.96875 10.8993 0.96875 11.125C0.96875 11.9016 1.59835 12.5312 2.375 12.5312H10.625C11.4016 12.5312 12.0312 11.9016 12.0312 11.125C12.0312 10.8993 11.978 10.686 11.8835 10.4969Z" stroke="#797979" stroke-width="1.2" stroke-miterlimit="10"/>
<path d="M6.96875 9.8125C6.96875 10.0714 6.75889 10.2812 6.5 10.2812C6.24111 10.2812 6.03125 10.0714 6.03125 9.8125C6.03125 9.55361 6.24111 9.34375 6.5 9.34375C6.75889 9.34375 6.96875 9.55361 6.96875 9.8125Z" fill="#797979"/>
</svg>
