<svg width="57" height="36" viewBox="0 0 57 36" fill="none" xmlns="http://www.w3.org/2000/svg">
<ellipse cx="28.3971" cy="27.707" rx="28" ry="8" fill="#E9FFE4"/>
<g filter="url(#filter0_f_2_496)">
<ellipse cx="28.4999" cy="27" rx="20" ry="4" fill="url(#paint0_radial_2_496)" fill-opacity="0.55"/>
</g>
<path d="M33.6012 8.20526C33.5644 8.16711 33.5204 8.13677 33.4716 8.11605C33.4229 8.09532 33.3705 8.08465 33.3175 8.08466H23.4679C23.4146 8.08466 23.3619 8.09548 23.3129 8.11646C23.2639 8.13744 23.2196 8.16815 23.1828 8.20672C23.1461 8.24529 23.1175 8.29093 23.0988 8.34087C23.0802 8.39081 23.0719 8.44401 23.0744 8.49725L23.3357 14.0017C23.3391 14.0721 23.3612 14.1403 23.3999 14.1992C23.4385 14.2581 23.4923 14.3056 23.5555 14.3366L32.7709 18.8647C32.825 18.8913 32.8844 18.9051 32.9446 18.9051C33.0466 18.9051 33.1446 18.8656 33.218 18.7949C33.2914 18.7241 33.3345 18.6277 33.3383 18.5258L33.7111 8.49324C33.7131 8.44031 33.7044 8.38753 33.6855 8.33805C33.6666 8.28857 33.6379 8.24341 33.6012 8.20526Z" fill="#EB5764"/>
<path opacity="0.1" d="M33.6012 8.20526C33.5644 8.16711 33.5204 8.13677 33.4716 8.11605C33.4229 8.09532 33.3705 8.08465 33.3175 8.08466H23.4679C23.4146 8.08466 23.3619 8.09548 23.3129 8.11646C23.2639 8.13744 23.2196 8.16815 23.1828 8.20672C23.1461 8.24529 23.1175 8.29093 23.0988 8.34087C23.0802 8.39081 23.0719 8.44401 23.0744 8.49725L23.1249 9.56192C23.1249 9.56192 29.7592 8.95565 29.7718 11.6447L29.8284 17.4189L32.7709 18.8647C32.8249 18.8913 32.8843 18.9051 32.9445 18.9051C33.0465 18.9051 33.1445 18.8656 33.2179 18.7949C33.2914 18.7241 33.3345 18.6277 33.3382 18.5258L33.7111 8.49324C33.7131 8.44031 33.7044 8.38753 33.6855 8.33805C33.6666 8.28857 33.6379 8.2434 33.6012 8.20526Z" fill="black"/>
<path d="M28.3969 6.89177L27.583 3.85426C27.3875 3.12469 26.8827 2.52857 26.1981 2.21881C25.5278 1.91554 24.7661 1.92814 24.1084 2.25329C23.0326 2.78522 20.5925 4.202 20.4891 4.26203C19.9257 4.58941 19.7335 5.31411 20.0608 5.87752C20.3882 6.44093 21.113 6.63294 21.6768 6.30555C21.7011 6.29143 24.1485 4.87013 25.1561 4.37202C25.1665 4.36689 25.2752 4.3546 25.2999 4.46596L26.0016 7.08489L28.3969 6.89177Z" fill="#E2F2F6"/>
<path opacity="0.1" d="M25.1735 4.0068C25.0627 3.72364 24.6789 3.8411 24.6688 3.84679C23.7024 4.38847 21.504 5.60203 21.4798 5.61614C20.9369 5.93134 20.2459 5.76402 19.903 5.24834C19.8962 5.46182 19.9458 5.67957 20.0608 5.87746C20.3881 6.44088 21.1129 6.63288 21.6767 6.3055C21.701 6.29138 24.1485 4.87007 25.156 4.37196C25.1641 4.36795 25.2312 4.36043 25.2724 4.40918L25.1735 4.0068ZM25.1336 2.22667C25.843 2.54766 26.3661 3.16536 26.5687 3.92138L27.3864 6.97321L28.3969 6.89176L27.583 3.85425C27.3875 3.12468 26.8827 2.52856 26.1981 2.2188C25.7032 1.99491 25.1585 1.94372 24.6426 2.06285C24.8114 2.10065 24.9759 2.15554 25.1336 2.22667Z" fill="black"/>
<path d="M33.8096 6.62589H22.9758C22.4871 6.62589 22.0895 7.0235 22.0895 7.51221V8.49462C22.0895 8.54636 22.0997 8.59759 22.1195 8.64538C22.1393 8.69318 22.1683 8.73661 22.2049 8.77319C22.2414 8.80977 22.2849 8.83879 22.3327 8.85859C22.3805 8.87839 22.4317 8.88858 22.4834 8.88858H34.302C34.4065 8.88858 34.5067 8.84707 34.5806 8.77319C34.6545 8.69931 34.696 8.59911 34.696 8.49462V7.51221C34.6959 7.0235 34.2983 6.62589 33.8096 6.62589Z" fill="#FFCD58"/>
<path d="M33.8096 6.62589H29.8702C30.359 6.62589 30.7566 7.0235 30.7566 7.51221V8.49462C30.7566 8.59911 30.7151 8.69931 30.6412 8.77319C30.5673 8.84707 30.4671 8.88858 30.3626 8.88858H34.3019C34.4064 8.88858 34.5066 8.84707 34.5805 8.77319C34.6544 8.69931 34.6959 8.59911 34.6959 8.49462V7.51221C34.6959 7.0235 34.2983 6.62589 33.8096 6.62589ZM35.052 10.3938C35.0223 10.351 34.9844 10.3144 34.9406 10.2863C34.8967 10.2582 34.8477 10.239 34.7963 10.23L33.3939 9.98266C33.291 9.96456 33.1852 9.98806 33.0996 10.048C33.014 10.1079 32.9558 10.1994 32.9376 10.3023L32.1657 14.6856C32.1566 14.7373 32.1579 14.7903 32.1695 14.8415L32.9334 18.1938C32.9532 18.2808 33.002 18.3585 33.0718 18.4142C33.1415 18.4698 33.2281 18.5002 33.3174 18.5002C33.3199 18.5002 33.3224 18.5002 33.325 18.5001C33.4155 18.4984 33.5027 18.4655 33.5719 18.4071C33.641 18.3486 33.6879 18.2681 33.7046 18.1792L35.1151 10.6908C35.1247 10.6396 35.1241 10.587 35.1133 10.536C35.1024 10.485 35.0816 10.4367 35.052 10.3938Z" fill="#F2B841"/>
<path opacity="0.1" d="M35.052 10.3939C35.0133 10.338 34.9604 10.2952 34.9004 10.2658L33.833 14.3787L32.841 10.8506L32.1656 14.6857C32.1565 14.7373 32.1578 14.7903 32.1695 14.8415L32.8911 18.0082L32.9334 18.1938C32.9532 18.2808 33.002 18.3585 33.0717 18.4142C33.1415 18.4699 33.2281 18.5002 33.3174 18.5002C33.3198 18.5002 33.3223 18.5002 33.325 18.5001C33.4155 18.4984 33.5027 18.4656 33.5718 18.4071C33.641 18.3487 33.6878 18.2682 33.7046 18.1792L34.1848 15.6297L35.1151 10.6909C35.1247 10.6397 35.1241 10.587 35.1133 10.536C35.1025 10.4851 35.0816 10.4367 35.052 10.3939Z" fill="black"/>
<path d="M34.068 19.1425L32.5021 9.85979C32.4934 9.80855 32.4747 9.75953 32.447 9.71555C32.4193 9.67158 32.3832 9.63351 32.3407 9.60354C32.2983 9.57358 32.2503 9.55231 32.1996 9.54095C32.1489 9.5296 32.0964 9.52838 32.0452 9.53738L30.6427 9.78463C30.5917 9.79361 30.5429 9.81257 30.4992 9.84043C30.4555 9.86829 30.4178 9.90451 30.3881 9.94699C30.3584 9.98948 30.3374 10.0374 30.3263 10.088C30.3152 10.1386 30.3142 10.191 30.3233 10.242L31.895 19.0335C31.909 19.1113 31.946 19.1831 32.0012 19.2396C32.0565 19.2961 32.1274 19.3347 32.2049 19.3503L33.6083 19.6335C33.6339 19.6386 33.66 19.6412 33.6862 19.6413H33.6885C33.7929 19.6412 33.893 19.5996 33.9668 19.5258C34.0406 19.4519 34.082 19.3517 34.082 19.2473C34.0821 19.2119 34.0774 19.1767 34.068 19.1425ZM36.3708 9.23117H34.9466C34.8421 9.23117 34.7419 9.27268 34.668 9.34656C34.5942 9.42044 34.5527 9.52065 34.5527 9.62513V19.2473C34.5527 19.3149 34.5701 19.3814 34.6032 19.4403C34.6363 19.4992 34.684 19.5486 34.7417 19.5838C34.7995 19.619 34.8653 19.6387 34.9328 19.641C35.0004 19.6434 35.0674 19.6283 35.1274 19.5973L36.5516 18.8613C36.6158 18.8281 36.6696 18.7779 36.7072 18.7161C36.7447 18.6544 36.7646 18.5835 36.7646 18.5113V9.62513C36.7646 9.5734 36.7545 9.52217 36.7347 9.47438C36.7149 9.42658 36.6859 9.38315 36.6493 9.34656C36.6127 9.30998 36.5693 9.28096 36.5215 9.26116C36.4737 9.24136 36.4225 9.23117 36.3708 9.23117Z" fill="#E08726"/>
<path d="M31.8398 16.5936L30.2307 10.7348C30.2032 10.6344 30.137 10.549 30.0468 10.4973C29.9565 10.4455 29.8494 10.4316 29.7488 10.4586L28.3732 10.8272C28.3229 10.8407 28.2757 10.864 28.2345 10.8958C28.1932 10.9277 28.1587 10.9673 28.1329 11.0126C28.1071 11.0578 28.0905 11.1077 28.0841 11.1594C28.0778 11.2111 28.0817 11.2636 28.0957 11.3137L29.3754 15.8938C29.3895 15.9442 29.4134 15.9912 29.4459 16.0322C29.4783 16.0732 29.5186 16.1073 29.5643 16.1326L31.2798 17.0806C31.3381 17.1128 31.4036 17.1298 31.4702 17.1297C31.471 17.1297 31.4719 17.1298 31.4722 17.1297C31.524 17.1297 31.5752 17.1195 31.623 17.0997C31.6708 17.08 31.7142 17.0509 31.7508 17.0143C31.7874 16.9778 31.8164 16.9343 31.8362 16.8865C31.856 16.8387 31.8662 16.7875 31.8662 16.7358C31.8662 16.6856 31.8569 16.6377 31.8398 16.5936Z" fill="#F2B841"/>
<path d="M29.8367 15.3512L27.801 11.8064C27.7752 11.7615 27.7408 11.7221 27.6997 11.6906C27.6587 11.659 27.6118 11.6358 27.5618 11.6223C27.5118 11.6088 27.4596 11.6054 27.4082 11.6121C27.3568 11.6188 27.3073 11.6356 27.2624 11.6615L26.0291 12.3736C25.9389 12.4257 25.873 12.5113 25.8458 12.6119C25.8186 12.7124 25.8323 12.8196 25.8839 12.9101L27.0411 14.9368C27.0857 15.0148 27.1555 15.0753 27.2391 15.1081L29.3689 15.9452C29.4147 15.9633 29.4636 15.9726 29.5128 15.9726H29.5175C29.6215 15.9719 29.721 15.93 29.7943 15.8562C29.8676 15.7824 29.9088 15.6826 29.9088 15.5786C29.909 15.4971 29.8838 15.4177 29.8367 15.3512Z" fill="#E08726"/>
<path opacity="0.1" d="M36.3708 9.23117H36.011C36.0152 9.25387 36.0189 9.27682 36.0196 9.30074L36.3035 18.9533C36.3039 18.9657 36.3029 18.9779 36.3023 18.9901L36.5517 18.8613C36.6158 18.8281 36.6697 18.7779 36.7072 18.7161C36.7448 18.6544 36.7647 18.5835 36.7647 18.5113V9.62513C36.7647 9.5734 36.7545 9.52217 36.7347 9.47437C36.7149 9.42657 36.6859 9.38314 36.6493 9.34656C36.6128 9.30998 36.5693 9.28096 36.5215 9.26116C36.4737 9.24136 36.4225 9.23117 36.3708 9.23117Z" fill="black"/>
<path d="M38.9824 10.675L37.5799 10.4277C37.4771 10.4096 37.3713 10.4331 37.2858 10.4929C37.2002 10.5527 37.1419 10.644 37.1236 10.7467L35.6373 19.1041C35.6221 19.1899 35.6357 19.2783 35.6761 19.3555C35.7164 19.4328 35.7812 19.4944 35.8604 19.5309C35.9395 19.5673 36.0285 19.5765 36.1134 19.557C36.1983 19.5375 36.2744 19.4904 36.3296 19.4231L38.1934 17.1525C38.2364 17.1001 38.2651 17.0375 38.2768 16.9707L39.302 11.131C39.32 11.0282 39.2965 10.9224 39.2366 10.8368C39.1767 10.7513 39.0852 10.6931 38.9824 10.675Z" fill="#F2B841"/>
<path d="M41.1019 11.9042L39.7637 11.4171C39.714 11.399 39.6612 11.3911 39.6084 11.3939C39.5556 11.3966 39.5039 11.41 39.4564 11.4331C39.4089 11.4563 39.3665 11.4888 39.3318 11.5286C39.2971 11.5685 39.2708 11.6149 39.2544 11.6652L37.8788 15.8873C37.8595 15.9464 37.8545 16.0093 37.8642 16.0707C37.8739 16.1322 37.898 16.1904 37.9345 16.2408C37.9711 16.2911 38.019 16.3321 38.0744 16.3603C38.1298 16.3886 38.1911 16.4033 38.2533 16.4033H39.7921C39.8759 16.4033 39.9576 16.3765 40.0252 16.327C40.0927 16.2774 40.1427 16.2075 40.1679 16.1276L41.3429 12.3925C41.3733 12.2957 41.3653 12.1909 41.3204 12.1C41.2755 12.009 41.1972 11.9388 41.1019 11.9042Z" fill="#E08726"/>
<path opacity="0.1" d="M41.1247 11.9151L39.2419 16.4034H39.7922C39.876 16.4033 39.9577 16.3766 40.0252 16.327C40.0928 16.2774 40.1428 16.2076 40.168 16.1276L41.3429 12.3926C41.4036 12.1997 41.3073 11.9952 41.1247 11.9151ZM38.9824 10.6751L38.931 10.666L37.0285 18.5718L38.1934 17.1526C38.2364 17.1002 38.2651 17.0376 38.2768 16.9708L39.302 11.1311C39.32 11.0283 39.2965 10.9225 39.2366 10.8369C39.1767 10.7514 39.0852 10.6932 38.9824 10.6751ZM34.068 19.1423L32.5021 9.85957C32.4934 9.80833 32.4747 9.75931 32.447 9.71532C32.4194 9.67133 32.3833 9.63326 32.3408 9.60328C32.2832 9.56261 32.2159 9.54016 32.1469 9.53427L33.4026 19.5917L33.6083 19.6332C33.6339 19.6384 33.66 19.641 33.6862 19.641H33.6885C33.7929 19.6409 33.893 19.5994 33.9668 19.5255C34.0406 19.4516 34.0821 19.3515 34.082 19.247C34.0821 19.2117 34.0774 19.1764 34.068 19.1423ZM31.8399 16.5936L30.2307 10.7348C30.1924 10.5953 30.0833 10.4955 29.9528 10.4603C29.9551 10.4698 29.9587 10.4785 29.9605 10.4883L31.1192 16.9918L31.2798 17.0805C31.3381 17.1128 31.4036 17.1297 31.4702 17.1297C31.471 17.1297 31.4719 17.1298 31.4722 17.1297C31.524 17.1297 31.5752 17.1195 31.623 17.0997C31.6708 17.0799 31.7143 17.0509 31.7508 17.0143C31.7874 16.9777 31.8164 16.9343 31.8362 16.8865C31.856 16.8387 31.8662 16.7875 31.8662 16.7357C31.8662 16.6856 31.8569 16.6377 31.8399 16.5936ZM29.8367 15.3512L27.8438 11.8808L29.1798 15.8708L29.3689 15.9452C29.4147 15.9632 29.4636 15.9725 29.5129 15.9725H29.5175C29.6215 15.9718 29.721 15.93 29.7944 15.8562C29.8677 15.7824 29.9088 15.6825 29.9088 15.5785C29.909 15.4971 29.8838 15.4176 29.8367 15.3512Z" fill="black"/>
<path d="M41.2962 14.8867C41.2592 14.844 41.2135 14.8098 41.1622 14.7864C41.1108 14.763 41.0551 14.7508 40.9986 14.7508H38.2384C38.1475 14.7508 38.0595 14.7822 37.9891 14.8397C37.9188 14.8972 37.8704 14.9772 37.8523 15.0663C37.4703 16.9457 35.7986 18.3099 33.8774 18.3099C33.5785 18.31 33.2804 18.2773 32.9886 18.2124C32.902 18.1932 32.8115 18.2038 32.7316 18.2424C32.6517 18.281 32.5872 18.3453 32.5484 18.4251L28.183 27.4342C28.1539 27.4942 28.1406 27.5607 28.1442 27.6273C28.1478 27.6939 28.1683 27.7585 28.2038 27.8151C28.2392 27.8716 28.2884 27.9182 28.3468 27.9506C28.4051 27.9829 28.4708 27.9998 28.5375 27.9999H39.2174C39.3122 27.9998 39.4038 27.9656 39.4754 27.9035C39.5471 27.8414 39.5939 27.7556 39.6074 27.6617L41.3886 15.2006C41.3966 15.1447 41.3925 15.0877 41.3765 15.0336C41.3606 14.9794 41.3332 14.9293 41.2962 14.8867Z" fill="#EB5764"/>
<path d="M36.5476 21.1639H31.3965V25.5121H36.5476C37.2557 25.5121 37.8317 24.9361 37.8317 24.2281V22.4479C37.8316 21.7399 37.2557 21.1639 36.5476 21.1639Z" fill="#8C9B9A"/>
<path opacity="0.1" d="M34.1015 23.8879C34.0286 23.8487 33.9541 23.8124 33.8783 23.7792C34.0697 23.5859 34.1834 23.3437 34.1834 23.0769C34.1834 22.9102 34.1389 22.7532 34.0593 22.6114C34.4569 22.512 34.7374 22.2247 34.7374 21.8763V21.0391C34.7374 18.1906 31.6355 15.0811 27.6705 14.216V28.0001H39.2173C39.3122 28 39.4038 27.9658 39.4754 27.9037C39.5471 27.8416 39.5939 27.7558 39.6073 27.6619L40.6649 20.2634C39.1548 22.2514 36.7998 23.6184 34.1015 23.8879Z" fill="black"/>
<path opacity="0.5" d="M33.8774 19.4918C33.7729 19.4918 33.6727 19.5333 33.5988 19.6072C33.5249 19.681 33.4834 19.7812 33.4834 19.8857C33.4834 19.9902 33.5249 20.0904 33.5988 20.1643C33.6727 20.2382 33.7729 20.2797 33.8774 20.2797C36.3257 20.2797 38.5777 18.7495 39.4812 16.4719C39.5003 16.4239 39.5097 16.3725 39.5089 16.3208C39.5081 16.269 39.4972 16.218 39.4767 16.1705C39.4562 16.123 39.4265 16.08 39.3894 16.044C39.3522 16.008 39.3084 15.9796 39.2603 15.9606C39.0584 15.8803 38.8292 15.9792 38.7489 16.1815C37.9634 18.1614 36.0057 19.4918 33.8774 19.4918Z" fill="white"/>
<path d="M32.4107 23.0527H16.8996C16.7952 23.0527 16.6949 23.0942 16.6211 23.1681C16.5472 23.242 16.5057 23.3422 16.5057 23.4467V25.8611C16.5057 26.8501 17.6457 27.9997 19.1155 27.9997H30.1948C31.6646 27.9997 32.8047 26.8501 32.8047 25.8611V23.4467C32.8047 23.3422 32.7631 23.242 32.6893 23.1681C32.6154 23.0942 32.5152 23.0527 32.4107 23.0527Z" fill="#9B5E26"/>
<path d="M31.3028 20.5891H18.0076C17.1654 20.5891 16.5057 21.1203 16.5057 21.7987C16.5057 22.477 17.1654 23.0084 18.0076 23.0084H31.3028C32.145 23.0084 32.8047 22.477 32.8047 21.7987C32.8047 21.1203 32.145 20.5891 31.3028 20.5891Z" fill="#FFCD58"/>
<path opacity="0.1" d="M32.7801 26.1142C32.787 26.0767 32.7925 26.039 32.7964 26.0012C32.7975 25.991 32.7988 25.9808 32.7996 25.9706C32.8026 25.934 32.8046 25.8976 32.8046 25.8614V23.4469C32.8046 23.4257 32.8021 23.4052 32.7984 23.385C32.7957 23.369 32.792 23.3532 32.7874 23.3376C32.7397 23.1736 32.5901 23.053 32.4107 23.053H27.4619V23.109H18.8136C17.9259 23.109 17.0682 23.4395 16.5057 23.9944V25.8614C16.5057 26.0399 16.5433 26.2235 16.6128 26.4048C16.7046 26.4305 16.8025 26.4446 16.9059 26.4446H16.9167C17.5852 26.4386 17.9902 26.1085 18.3155 25.8433C18.5816 25.6264 18.7369 25.5078 18.9541 25.5173C19.1956 25.5281 19.4029 25.6756 19.6653 25.8624C20.0075 26.106 20.4334 26.4093 21.0467 26.4093C21.6881 26.4093 22.0907 26.0881 22.4141 25.8301C22.6756 25.6215 22.8335 25.5034 23.0422 25.5013C23.1961 25.5013 23.3687 25.6318 23.5872 25.7971C23.927 26.0542 24.3923 26.4063 25.0922 26.4063C25.1125 26.4063 25.1331 26.4059 25.1482 26.4055C25.167 26.406 25.1875 26.4069 25.2043 26.4063C25.9041 26.4062 26.3694 26.0542 26.7091 25.7972C26.9276 25.6319 27.1003 25.5013 27.2572 25.5013H27.2573C27.2866 25.5016 27.3147 25.5049 27.3425 25.5098C27.053 26.2983 26.2643 27.0151 25.3054 27.0151H16.9795C17.4468 27.5725 18.2196 27.9999 19.1155 27.9999H30.1948C31.4872 27.9999 32.5242 27.1111 32.7559 26.2243C32.7568 26.2208 32.7574 26.2173 32.7584 26.2138C32.7667 26.1809 32.774 26.1476 32.7801 26.1142ZM31.3028 20.5891H18.0076C17.1771 20.5891 16.5253 21.106 16.5074 21.7709H27.3634C28.2056 21.7709 28.5698 22.3021 28.5698 22.9805C28.5698 22.9899 28.5684 22.999 28.5682 23.0084H31.3028C32.145 23.0084 32.8047 22.477 32.8047 21.7987C32.8047 21.1203 32.145 20.5891 31.3028 20.5891Z" fill="black"/>
<path d="M24.6552 13.4242C19.8561 13.4242 15.9517 16.2213 15.9517 19.6595V20.5383C15.9517 20.9932 16.3855 21.3495 16.9392 21.3495H32.3712C32.9249 21.3495 33.3587 20.9932 33.3587 20.5383V19.6595C33.3587 16.2213 29.4543 13.4242 24.6552 13.4242Z" fill="#E08726"/>
<path d="M24.8767 17.2536C24.956 17.2536 25.0334 17.2297 25.0989 17.1849C25.1644 17.1402 25.2149 17.0767 25.2437 17.0028C25.2725 16.929 25.2784 16.8481 25.2605 16.7708C25.2427 16.6936 25.2019 16.6235 25.1435 16.5698L24.7004 16.1619C24.6234 16.0914 24.5217 16.0544 24.4175 16.0588C24.3132 16.0632 24.215 16.1089 24.1444 16.1856C24.0737 16.2624 24.0364 16.364 24.0406 16.4683C24.0448 16.5725 24.0902 16.6708 24.1668 16.7417L24.61 17.1495C24.6826 17.2165 24.7778 17.2537 24.8767 17.2536ZM21.6166 16.4679L21.1735 16.8758C21.0985 16.9471 21.0546 17.0449 21.0512 17.1482C21.0477 17.2516 21.085 17.3521 21.155 17.4282C21.225 17.5043 21.3222 17.5498 21.4254 17.5549C21.5287 17.56 21.6298 17.5244 21.707 17.4556L22.1502 17.0477C22.2251 16.9765 22.269 16.8786 22.2725 16.7753C22.2759 16.672 22.2386 16.5714 22.1686 16.4953C22.0986 16.4193 22.0015 16.3738 21.8982 16.3686C21.795 16.3635 21.6938 16.3992 21.6166 16.4679ZM23.8599 17.7922H23.2331C23.1287 17.7922 23.0285 17.8337 22.9546 17.9076C22.8807 17.9814 22.8392 18.0816 22.8392 18.1861C22.8392 18.2906 22.8807 18.3908 22.9546 18.4647C23.0285 18.5386 23.1287 18.5801 23.2331 18.5801H23.8599C23.9644 18.5801 24.0646 18.5386 24.1385 18.4647C24.2124 18.3908 24.2539 18.2906 24.2539 18.1861C24.2539 18.0816 24.2124 17.9814 24.1385 17.9076C24.0646 17.8337 23.9644 17.7922 23.8599 17.7922ZM26.585 18.6799L27.0282 18.2721C27.0662 18.2371 27.097 18.1949 27.1188 18.148C27.1405 18.101 27.1528 18.0503 27.155 17.9986C27.1571 17.9469 27.1491 17.8953 27.1313 17.8468C27.1135 17.7982 27.0863 17.7536 27.0513 17.7155C27.0162 17.6775 26.9741 17.6467 26.9271 17.6249C26.8802 17.6031 26.8294 17.5908 26.7777 17.5887C26.7261 17.5865 26.6745 17.5946 26.6259 17.6124C26.5773 17.6302 26.5327 17.6573 26.4946 17.6924L26.0515 18.1001C26.0134 18.1352 25.9826 18.1774 25.9609 18.2243C25.9391 18.2712 25.9268 18.322 25.9246 18.3736C25.9225 18.4253 25.9306 18.4769 25.9484 18.5255C25.9662 18.5741 25.9933 18.6186 26.0284 18.6567C26.0652 18.6969 26.11 18.7289 26.16 18.7509C26.2099 18.7728 26.2638 18.784 26.3183 18.784C26.4172 18.7841 26.5124 18.7469 26.585 18.6799ZM28.1836 17.0496C28.2881 17.0496 28.3883 17.0081 28.4621 16.9342C28.536 16.8603 28.5775 16.7601 28.5775 16.6556C28.5775 16.5512 28.536 16.4509 28.4621 16.3771C28.3883 16.3032 28.2881 16.2617 28.1836 16.2617H27.5568C27.4523 16.2617 27.3521 16.3032 27.2783 16.3771C27.2044 16.4509 27.1629 16.5512 27.1629 16.6556C27.1629 16.7601 27.2044 16.8603 27.2783 16.9342C27.3521 17.0081 27.4523 17.0496 27.5568 17.0496H28.1836ZM30.0683 18.58C30.1727 18.58 30.2729 18.5385 30.3468 18.4646C30.4207 18.3908 30.4622 18.2906 30.4622 18.1861C30.4622 18.0816 30.4207 17.9814 30.3468 17.9075C30.2729 17.8336 30.1727 17.7921 30.0683 17.7921H29.4415C29.337 17.7921 29.2368 17.8336 29.1629 17.9075C29.089 17.9814 29.0475 18.0816 29.0475 18.1861C29.0475 18.2906 29.089 18.3908 29.1629 18.4646C29.2368 18.5385 29.337 18.58 29.4415 18.58H30.0683ZM19.1548 17.7155C19.0841 17.7924 19.0468 17.8942 19.0511 17.9986C19.0555 18.103 19.1011 18.2014 19.1779 18.2721L19.6211 18.6799C19.6937 18.7469 19.7889 18.784 19.8877 18.7839C19.9423 18.784 19.9962 18.7727 20.0461 18.7508C20.096 18.7289 20.1409 18.6968 20.1777 18.6567C20.2484 18.5798 20.2857 18.478 20.2814 18.3736C20.2771 18.2692 20.2315 18.1708 20.1546 18.1001L19.7114 17.6923C19.6734 17.6573 19.6288 17.6301 19.5802 17.6123C19.5316 17.5945 19.48 17.5865 19.4283 17.5886C19.3766 17.5908 19.3259 17.6031 19.279 17.6249C19.232 17.6467 19.1898 17.6775 19.1548 17.7155Z" fill="#F2B841"/>
<path opacity="0.5" d="M24.6552 14.606C21.4512 14.606 18.509 16.0506 17.5001 18.1189C17.4775 18.1654 17.4642 18.2159 17.461 18.2676C17.4578 18.3192 17.4649 18.371 17.4817 18.4199C17.4986 18.4688 17.5249 18.5139 17.5592 18.5527C17.5935 18.5914 17.635 18.623 17.6815 18.6457C17.7352 18.672 17.7942 18.6857 17.8539 18.6857C17.9278 18.6858 18.0002 18.665 18.0629 18.6259C18.1255 18.5868 18.1759 18.5308 18.2083 18.4644C19.09 16.6565 21.7412 15.3939 24.6552 15.3939C24.7597 15.3939 24.8599 15.3524 24.9338 15.2785C25.0077 15.2047 25.0492 15.1045 25.0492 15C25.0492 14.8955 25.0077 14.7953 24.9338 14.7214C24.8599 14.6475 24.7597 14.606 24.6552 14.606Z" fill="white"/>
<path opacity="0.1" d="M24.6552 13.4242C24.2541 13.4242 23.8594 13.4441 23.4726 13.482C25.9452 14.46 27.6712 16.6395 27.6712 19.1671V20.0458C27.6712 20.5007 27.3166 20.8571 26.8639 20.8571H16.0283C16.1762 21.1491 16.524 21.3495 16.9392 21.3495H32.3712C32.9249 21.3495 33.3587 20.9932 33.3587 20.5383V19.6595C33.3587 16.2213 29.4543 13.4242 24.6552 13.4242Z" fill="black"/>
<path d="M30.9906 22.2224H18.3212C17.4134 22.2224 16.5362 22.5674 15.9748 23.1451C15.5861 23.5452 15.3797 24.0315 15.3936 24.5144C15.4113 25.1288 15.8307 25.558 16.4136 25.558H16.4244C17.0929 25.552 17.4978 25.2219 17.8232 24.9567C18.0893 24.7398 18.2446 24.6212 18.4617 24.6308C18.7033 24.6416 18.9105 24.7891 19.1729 24.9758C19.5152 25.2194 19.9411 25.5227 20.5543 25.5227C21.1958 25.5227 21.5984 25.2016 21.9218 24.9435C22.1833 24.7349 22.3412 24.6168 22.5499 24.6147C22.7038 24.6147 22.8764 24.7452 23.0949 24.9106C23.4347 25.1676 23.9 25.5198 24.5999 25.5198C24.6202 25.5198 24.6408 25.5194 24.6558 25.519C24.6747 25.5195 24.6952 25.5204 24.712 25.5198C25.4117 25.5197 25.877 25.1676 26.2168 24.9107C26.4353 24.7453 26.608 24.6147 26.7649 24.6147H26.7649C26.9705 24.6169 27.1285 24.7349 27.39 24.9435C27.7135 25.2016 28.116 25.5227 28.7575 25.5227C29.3707 25.5227 29.7967 25.2194 30.139 24.9758C30.4012 24.7891 30.6085 24.6416 30.8501 24.6308C31.0493 24.621 31.1975 24.7381 31.4465 24.9513C31.7628 25.2221 32.1564 25.5593 32.8268 25.5593C32.8529 25.5593 32.8797 25.5588 32.9068 25.5577C33.5149 25.5332 33.9078 25.1023 33.9078 24.4602C33.9078 23.2054 32.6264 22.2224 30.9906 22.2224Z" fill="#88BE4D"/>
<path opacity="0.1" d="M30.9905 22.2224H28.3552C28.9263 22.6283 29.2791 23.2113 29.2791 23.8693C29.2791 24.5115 28.8862 24.9423 28.2781 24.9668C28.251 24.9679 28.2242 24.9684 28.1981 24.9684C27.5277 24.9684 27.1341 24.6312 26.8177 24.3604C26.5688 24.1472 26.4205 24.03 26.2214 24.0399C25.9798 24.0507 25.7725 24.1982 25.5102 24.385C25.168 24.6286 24.742 24.9318 24.1288 24.9318C23.4873 24.9318 23.0847 24.6107 22.7613 24.3527C22.4998 24.1441 22.3419 24.0259 22.1362 24.0239H22.1361C21.9792 24.0239 21.8066 24.1545 21.5881 24.3198C21.2483 24.5768 20.783 24.9288 20.0832 24.9289C20.0665 24.9294 20.046 24.9286 20.0271 24.9281C20.0121 24.9285 19.9914 24.9289 19.9712 24.9289C19.2712 24.9289 18.8059 24.5768 18.4662 24.3197C18.2477 24.1544 18.075 24.0239 17.9211 24.0239C17.7125 24.026 17.5545 24.1441 17.2931 24.3527C16.9696 24.6107 16.5671 24.9318 15.9256 24.9318C15.7547 24.9318 15.5987 24.9077 15.4547 24.8684C15.5922 25.2871 15.951 25.558 16.4136 25.558H16.4244C17.0929 25.552 17.4978 25.2219 17.8232 24.9567C18.0893 24.7398 18.2446 24.6212 18.4617 24.6308C18.7033 24.6416 18.9105 24.7891 19.1729 24.9758C19.5152 25.2194 19.9411 25.5227 20.5543 25.5227C21.1958 25.5227 21.5984 25.2016 21.9218 24.9435C22.1833 24.7349 22.3412 24.6168 22.5499 24.6147C22.7038 24.6147 22.8764 24.7452 23.0949 24.9106C23.4347 25.1676 23.9 25.5198 24.5999 25.5198C24.6202 25.5198 24.6408 25.5194 24.6558 25.519C24.6747 25.5195 24.6952 25.5204 24.712 25.5198C25.4117 25.5197 25.877 25.1676 26.2168 24.9107C26.4353 24.7453 26.608 24.6147 26.7649 24.6147H26.7649C26.9705 24.6169 27.1285 24.7349 27.39 24.9435C27.7135 25.2016 28.116 25.5227 28.7575 25.5227C29.3708 25.5227 29.7967 25.2194 30.139 24.9758C30.4012 24.7891 30.6085 24.6416 30.8501 24.6308C31.0493 24.621 31.1975 24.7381 31.4465 24.9513C31.7628 25.2221 32.1564 25.5593 32.8268 25.5593C32.853 25.5593 32.8797 25.5588 32.9068 25.5577C33.5149 25.5332 33.9078 25.1023 33.9078 24.4602C33.9078 23.2054 32.6263 22.2224 30.9905 22.2224Z" fill="black"/>
<defs>
<filter id="filter0_f_2_496" x="4.99994" y="19.5" width="47" height="15" filterUnits="userSpaceOnUse" color-interpolation-filters="sRGB">
<feFlood flood-opacity="0" result="BackgroundImageFix"/>
<feBlend mode="normal" in="SourceGraphic" in2="BackgroundImageFix" result="shape"/>
<feGaussianBlur stdDeviation="1.75" result="effect1_foregroundBlur_2_496"/>
</filter>
<radialGradient id="paint0_radial_2_496" cx="0" cy="0" r="1" gradientUnits="userSpaceOnUse" gradientTransform="translate(28.4999 27) scale(20 4)">
<stop/>
<stop offset="1" stop-opacity="0"/>
</radialGradient>
</defs>
</svg>
