<svg width="16" height="17" viewBox="0 0 16 17" fill="none" xmlns="http://www.w3.org/2000/svg">
<path fill-rule="evenodd" clip-rule="evenodd" d="M8 13.5C7.84261 13.5 7.6876 13.4959 7.53497 13.4879L8 12.5C11.9944 12.5 14.3191 9.40312 14.9116 8.50075C14.5037 7.8825 13.277 6.23022 11.2618 5.25322L11.6888 4.33324C14.4619 5.65931 15.8585 8.11581 15.937 8.25712C16.021 8.40825 16.021 8.59188 15.937 8.743C15.8291 8.937 13.2341 13.5 8 13.5ZM8.73379 3.53041C8.49524 3.51046 8.25064 3.5 8 3.5C2.76587 3.5 0.170875 8.063 0.063 8.257C-0.021 8.40812 -0.021 8.59175 0.063 8.74288C0.1438 8.88828 1.61993 11.4847 4.55526 12.7789L4.98017 11.8591C2.82098 10.9016 1.51239 9.14187 1.08837 8.49925C1.68087 7.59688 4.00562 4.5 8 4.5C8.10109 4.5 8.20112 4.502 8.30009 4.50591L8.73379 3.53041ZM5.64539 10.3571C5.2414 9.84591 5 9.20062 5 8.5C5 6.89684 6.26391 5.58341 7.84765 5.50382L7.35811 6.60565C6.56922 6.87371 6 7.62167 6 8.5C6 8.76999 6.05378 9.02766 6.1512 9.26286L5.64539 10.3571ZM9.95817 8.09204L10.5321 6.89257C10.8283 7.35749 11 7.90906 11 8.5C11 9.99888 9.89517 11.2445 8.45709 11.4652L9.00702 10.2275C9.6005 9.88017 10 9.23583 10 8.5C10 8.36024 9.98559 8.22379 9.95817 8.09204Z" fill="#212121"/>
<path d="M11.4902 2.30176C10.3048 4.91783 9.38011 6.95957 8.45508 9.00098C7.53002 11.0424 6.60441 13.0841 5.41895 15.7002L4.50879 15.2881C5.69422 12.672 6.61892 10.6303 7.54395 8.58887C8.46901 6.54739 9.39461 4.50579 10.5801 1.88965L11.4902 2.30176Z" fill="#212121"/>
</svg>
