<svg width="16" height="17" viewBox="0 0 16 17" fill="none" xmlns="http://www.w3.org/2000/svg">
<path d="M8 13.5C2.76587 13.5 0.170875 8.937 0.063 8.74288C-0.021 8.59175 -0.021 8.40812 0.063 8.257C0.170875 8.063 2.76587 3.5 8 3.5C13.2341 3.5 15.8291 8.063 15.937 8.25712C16.021 8.40825 16.021 8.59188 15.937 8.743C15.8291 8.937 13.2341 13.5 8 13.5ZM1.08837 8.49925C1.68313 9.40062 4.01825 12.5 8 12.5C11.9944 12.5 14.3191 9.40312 14.9116 8.50075C14.3169 7.59937 11.9818 4.5 8 4.5C4.00562 4.5 1.68087 7.59688 1.08837 8.49925ZM8 11.5C6.34575 11.5 5 10.1543 5 8.5C5 6.84575 6.34575 5.5 8 5.5C9.65425 5.5 11 6.84575 11 8.5C11 10.1543 9.65425 11.5 8 11.5ZM8 6.5C6.89725 6.5 6 7.39725 6 8.5C6 9.60275 6.89725 10.5 8 10.5C9.10275 10.5 10 9.60275 10 8.5C10 7.39725 9.10275 6.5 8 6.5Z" fill="#212121"/>
</svg>
