<svg width="27" height="26" viewBox="0 0 27 26" fill="none" xmlns="http://www.w3.org/2000/svg">
<path d="M14.5835 2.16675H14.8789C18.4119 2.16675 20.1784 2.16675 21.4052 3.03107C21.7567 3.27871 22.0687 3.5724 22.3318 3.90321C23.2502 5.05781 23.2502 6.72039 23.2502 10.0455V12.8031C23.2502 16.0132 23.2502 17.6183 22.7421 18.9002C21.9254 20.961 20.1983 22.5866 18.0086 23.3553C16.6466 23.8334 14.9412 23.8334 11.5305 23.8334C9.58148 23.8334 8.60698 23.8334 7.82867 23.5602C6.57744 23.121 5.59048 22.1921 5.12379 21.0144C4.8335 20.2819 4.8335 19.3647 4.8335 17.5304V13.0001" stroke="#38963B" stroke-width="1.2" stroke-linecap="round" stroke-linejoin="round"/>
<path d="M23.2498 13.0001C23.2498 14.9945 21.6331 16.6112 19.6387 16.6112C18.9175 16.6112 18.0671 16.4849 17.3659 16.6728C16.7428 16.8397 16.2561 17.3264 16.0891 17.9495C15.9012 18.6507 16.0276 19.5011 16.0276 20.2223C16.0276 22.2167 14.4109 23.8335 12.4165 23.8335" stroke="#38963B" stroke-width="1.2" stroke-linecap="round" stroke-linejoin="round"/>
<path d="M12.4167 6.49996L3.75 6.49996M8.08333 2.16663V10.8333" stroke="#38963B" stroke-width="1.2" stroke-linecap="round"/>
</svg>
