<svg width="21" height="21" viewBox="0 0 21 21" fill="none" xmlns="http://www.w3.org/2000/svg">
<g clip-path="url(#clip0_1_15471)">
<path d="M16.8535 4.4992H15.877V2.1549C15.877 1.71752 15.6654 1.30338 15.3109 1.04709C14.9565 0.790801 14.4969 0.719512 14.0815 0.856543L4.51117 4.01303C3.94957 4.1983 3.57227 4.7201 3.57227 5.31143V16.2308V19.4209C3.57227 20.1747 4.18559 20.7881 4.93945 20.7881H16.8535C17.6074 20.7881 18.2207 20.1747 18.2207 19.4209V5.86639C18.2207 5.11256 17.6074 4.4992 16.8535 4.4992ZM17.0488 19.4209C17.0488 19.5286 16.9612 19.6162 16.8535 19.6162H4.93945C4.83176 19.6162 4.74414 19.5286 4.74414 19.4209V15.6449V5.86639C4.74414 5.75869 4.83176 5.67107 4.93945 5.67107H16.8535C16.9612 5.67107 17.0488 5.75869 17.0488 5.86639V19.4209ZM14.4486 1.96943C14.5311 1.94225 14.594 1.97482 14.6243 1.99666C14.6545 2.0185 14.7051 2.06807 14.7051 2.1549V4.49924H6.77844L14.4486 1.96943Z" fill="black"/>
<path d="M12.959 7.67285C12.9635 7.67285 12.9682 7.67457 12.9727 7.6748C12.9772 7.67456 12.9817 7.67285 12.9863 7.67285H14.9033C15.123 7.67285 15.3018 7.85157 15.3018 8.07129C15.3016 8.29091 15.123 8.46875 14.9033 8.46875H13.209V9.39062H14.7539C14.9673 9.39063 15.1406 9.564 15.1406 9.77734C15.1405 9.99059 14.9672 10.1631 14.7539 10.1631H13.209V11.1777H14.9326C15.1522 11.1778 15.33 11.3556 15.3301 11.5752C15.3301 11.7949 15.1523 11.9736 14.9326 11.9736H12.9863C12.9817 11.9736 12.9772 11.9719 12.9727 11.9717C12.9682 11.9719 12.9635 11.9736 12.959 11.9736H12.6172C12.4794 11.9734 12.3674 11.8614 12.3672 11.7236V7.92285C12.3674 7.78509 12.4794 7.67306 12.6172 7.67285H12.959Z" fill="black" stroke="black" stroke-width="0.3"/>
<path d="M7.01758 7.6377C7.08556 7.6377 7.14992 7.6657 7.19629 7.71289L7.23633 7.7666L8.62988 10.2656L10.0469 7.76465L10.0869 7.71191C10.1332 7.66519 10.1971 7.6377 10.2646 7.6377H10.4863C10.6243 7.6377 10.7361 7.7498 10.7363 7.8877V11.6885C10.7361 11.8264 10.6243 11.9385 10.4863 11.9385H10.1445C10.0068 11.9382 9.89474 11.8262 9.89453 11.6885V9.51758L8.99219 11C8.9468 11.0744 8.8655 11.1201 8.77832 11.1201H8.51074C8.4236 11.1201 8.34227 11.0744 8.29688 11L7.3877 9.50586V11.6885C7.38748 11.8264 7.27564 11.9385 7.1377 11.9385H6.7959C6.65814 11.9383 6.54611 11.8262 6.5459 11.6885V7.8877C6.54611 7.74993 6.65814 7.63791 6.7959 7.6377H7.01758Z" fill="black" stroke="black" stroke-width="0.3"/>
<path d="M7.35059 13.6377H7.39355L7.41406 13.7227L9.35156 16.2979V13.8877C9.35177 13.7498 9.46367 13.6378 9.60156 13.6377H9.94336C10.0813 13.6377 10.1931 13.7498 10.1934 13.8877V17.6885C10.1931 17.8264 10.0813 17.9385 9.94336 17.9385H9.79883L9.77246 18.1855L9.58789 17.9385H9.54883L9.52539 17.8555L7.58789 15.2666V17.6885C7.58768 17.8264 7.47583 17.9385 7.33789 17.9385H6.99609C6.85833 17.9383 6.7463 17.8262 6.74609 17.6885V13.8877C6.7463 13.7499 6.85833 13.6379 6.99609 13.6377H7.14062L7.16406 13.3887L7.35059 13.6377Z" fill="black" stroke="black" stroke-width="0.3"/>
<path d="M12.5693 13.72C12.7071 13.7202 12.8191 13.8322 12.8193 13.97V16.342C12.8193 16.5291 12.858 16.6822 12.9297 16.8069C13.0035 16.9352 13.1009 17.0332 13.2236 17.1028L13.3232 17.1487C13.4249 17.1884 13.5357 17.2092 13.6572 17.2092C13.8283 17.2092 13.9703 17.1719 14.0879 17.1038H14.0898C14.2126 17.0345 14.3078 16.9371 14.3779 16.8098L14.3799 16.8069C14.4518 16.6818 14.4902 16.5305 14.4902 16.3479V13.97C14.4904 13.8321 14.6024 13.7201 14.7402 13.72H15.0801C15.218 13.72 15.3299 13.8321 15.3301 13.97V16.3586C15.3301 16.6739 15.2587 16.9605 15.1113 17.2131C14.9658 17.4627 14.7671 17.6613 14.5176 17.8069L14.5156 17.8079C14.263 17.951 13.9751 18.0208 13.6572 18.0208C13.3429 18.0207 13.0563 17.9502 12.8008 17.8079L12.7979 17.8069C12.5483 17.6613 12.3497 17.4627 12.2041 17.2131L12.2031 17.2122C12.0564 16.9564 11.9844 16.6689 11.9844 16.3538V13.97C11.9846 13.8322 12.0966 13.7202 12.2344 13.72H12.5693Z" fill="black" stroke="black" stroke-width="0.3"/>
</g>
<defs>
<clipPath id="clip0_1_15471">
<rect width="20" height="20" fill="white" transform="translate(0.896484 0.788086)"/>
</clipPath>
</defs>
</svg>
