<svg width="375" height="293" viewBox="0 0 375 293" fill="none" xmlns="http://www.w3.org/2000/svg">
<path d="M163 140.387C163 140.387 166.366 143.375 165.437 148.816C164.575 153.841 160.455 169.907 155.203 167.026C149.951 164.159 153.789 144.474 153.789 144.474L163 140.387Z" fill="#001527"/>
<path d="M211.884 93.2459C211.938 96.9711 209.325 103.618 208.234 105.989C205.702 111.524 203.831 116.79 203.831 116.79L203.709 116.75C201.312 124.187 188.25 161.251 180.197 166.008C171.241 171.288 149.008 160.702 149.008 160.702L154.758 138.35L170.07 145.72L186.634 110.961C186.634 110.961 181.328 96.1671 184.142 93.7953C187.32 91.1019 191.468 99.6511 191.468 99.6511C191.468 99.6511 191.886 84.9111 195.885 84.7503C199.171 84.6297 197.569 92.9913 197.488 93.5005C197.663 93.0851 200.491 86.2511 202.268 85.5543C204.1 84.8441 205.096 86.8407 204.773 88.4219C204.773 88.4219 208.288 86.2511 208.625 90.3783C208.625 90.3783 211.843 89.5073 211.884 93.2459Z" fill="white" stroke="#001527" stroke-width="1.8" stroke-linecap="round" stroke-linejoin="round"/>
<path d="M202.026 95.752C201.963 95.752 201.905 95.7431 201.851 95.7252C201.609 95.618 201.488 95.35 201.582 95.1088L204.342 88.248C204.437 88.0202 204.706 87.8996 204.948 87.9934C205.191 88.0872 205.312 88.3552 205.204 88.5964L202.457 95.4572C202.39 95.6448 202.215 95.752 202.026 95.752Z" fill="#001527"/>
<path d="M205.676 97.6681C205.613 97.6681 205.55 97.6547 205.487 97.6279C205.245 97.5207 205.137 97.2527 205.245 97.0115L208.194 90.1909C208.288 89.9631 208.571 89.8425 208.8 89.9497C209.042 90.0569 209.15 90.3249 209.056 90.5661L206.107 97.3867C206.026 97.5609 205.851 97.6681 205.676 97.6681Z" fill="#001527"/>
<path d="M196.611 47.8942V173.131C196.611 182.243 202.658 190.229 210.253 190.979L267.325 196.661C276.294 197.545 283.714 190.041 283.714 179.857V41.1808C283.714 31.0102 276.294 23.4928 267.325 24.3906L210.253 30.0588C202.658 30.8226 196.611 38.7956 196.611 47.8942Z" fill="#001527"/>
<path d="M189.516 48.2962V173.198C189.516 182.283 195.764 190.242 203.615 190.993L262.545 196.661C271.824 197.545 279.486 190.055 279.486 179.911V41.5962C279.486 31.4524 271.824 23.9618 262.545 24.8596L203.615 30.5144C195.764 31.2648 189.516 39.2244 189.516 48.2962Z" fill="white" stroke="#001527" stroke-width="1.8" stroke-linecap="round" stroke-linejoin="round"/>
<path d="M265.75 125.963L202.376 127.303V110.78L265.75 107.993V125.963Z" fill="#92E3A9"/>
<path d="M216.529 127.008L202.376 127.303V110.781L216.529 110.151V127.008Z" fill="#6ABF82"/>
<path d="M265.75 149.198L202.376 148.662V132.14L265.75 131.229V149.198Z" fill="#92E3A9"/>
<path d="M216.529 148.782L202.376 148.662V132.139L216.529 131.938V148.782Z" fill="#6ABF82"/>
<path d="M255.772 176.226C256.688 176.266 257.536 175.958 258.183 175.341C258.829 174.725 259.193 173.867 259.193 172.929V160.708C259.193 158.792 257.644 157.198 255.745 157.171L211.022 156.353C210.255 156.34 209.554 156.621 209.016 157.157C208.41 157.747 208.06 158.605 208.06 159.502V170.906C208.06 172.688 209.393 174.189 211.049 174.269L255.772 176.226Z" stroke="#001527" stroke-width="1.8" stroke-linecap="round" stroke-linejoin="round"/>
<path d="M259.919 117.312C259.919 117.951 259.411 118.475 258.772 118.494L223.185 119.589C222.549 119.609 222.023 119.099 222.023 118.463C222.023 117.856 222.505 117.357 223.112 117.337L258.695 116.129C259.364 116.106 259.919 116.642 259.919 117.312Z" fill="#001527"/>
<path d="M227.437 140.328C227.437 141.52 226.508 142.499 225.363 142.499C224.232 142.499 223.316 141.534 223.316 140.341C223.316 139.149 224.232 138.184 225.363 138.17C226.508 138.17 227.437 139.135 227.437 140.328Z" fill="#001527"/>
<path d="M234.965 140.301C234.965 141.521 234.023 142.499 232.851 142.499C231.693 142.499 230.764 141.521 230.764 140.315C230.764 139.122 231.693 138.131 232.851 138.131C234.023 138.117 234.965 139.095 234.965 140.301Z" fill="#001527"/>
<path d="M242.655 140.287C242.655 141.506 241.686 142.498 240.501 142.498C239.316 142.498 238.359 141.506 238.359 140.3C238.359 139.081 239.316 138.089 240.501 138.076C241.686 138.076 242.655 139.054 242.655 140.287Z" fill="#001527"/>
<path d="M250.493 140.26C250.493 141.492 249.51 142.497 248.298 142.497C247.086 142.497 246.103 141.506 246.103 140.273C246.103 139.04 247.086 138.049 248.298 138.035C249.51 138.022 250.493 139.027 250.493 140.26Z" fill="#001527"/>
<path d="M258.491 140.234C258.491 141.48 257.481 142.498 256.243 142.498C255.017 142.498 254.021 141.493 254.021 140.247C254.021 139.014 255.017 137.996 256.243 137.982C257.481 137.982 258.491 138.987 258.491 140.234Z" fill="#001527"/>
<path d="M223.181 168.32C223.181 168.427 223.177 168.521 223.168 168.601C223.159 168.682 223.145 168.749 223.127 168.802C223.11 168.856 223.087 168.892 223.06 168.91C223.024 168.936 222.988 168.95 222.952 168.95H219.518C219.384 168.95 219.276 168.914 219.195 168.843C219.105 168.762 219.061 168.637 219.061 168.467V161.687C219.061 161.651 219.074 161.616 219.101 161.58C219.128 161.553 219.168 161.531 219.222 161.513C219.285 161.495 219.366 161.477 219.465 161.459C219.563 161.45 219.684 161.446 219.828 161.446C219.981 161.446 220.102 161.45 220.192 161.459C220.291 161.477 220.371 161.495 220.434 161.513C220.488 161.531 220.528 161.553 220.555 161.58C220.582 161.616 220.596 161.651 220.596 161.687V167.69H222.952C222.988 167.69 223.024 167.704 223.06 167.73C223.087 167.748 223.11 167.784 223.127 167.838C223.145 167.882 223.159 167.945 223.168 168.025C223.177 168.106 223.181 168.204 223.181 168.32Z" fill="#001527"/>
<path fill-rule="evenodd" clip-rule="evenodd" d="M230.629 165.132C230.629 165.748 230.553 166.302 230.4 166.793C230.238 167.285 230.005 167.7 229.7 168.04C229.395 168.379 229.017 168.638 228.569 168.817C228.12 168.995 227.599 169.085 227.006 169.085C226.423 169.085 225.916 169.009 225.485 168.857C225.045 168.705 224.681 168.473 224.394 168.16C224.107 167.848 223.887 167.45 223.734 166.968C223.59 166.485 223.519 165.918 223.519 165.266C223.519 164.658 223.595 164.113 223.747 163.631C223.909 163.149 224.143 162.738 224.448 162.398C224.753 162.059 225.13 161.8 225.579 161.621C226.028 161.442 226.549 161.353 227.141 161.353C227.716 161.353 228.218 161.429 228.649 161.581C229.089 161.724 229.453 161.952 229.74 162.264C230.036 162.577 230.256 162.97 230.4 163.443C230.553 163.917 230.629 164.48 230.629 165.132ZM229.026 165.212C229.026 164.819 228.995 164.462 228.932 164.14C228.869 163.819 228.766 163.542 228.622 163.309C228.47 163.086 228.268 162.912 228.016 162.787C227.774 162.662 227.464 162.599 227.087 162.599C226.719 162.599 226.409 162.671 226.158 162.814C225.907 162.948 225.705 163.131 225.552 163.363C225.39 163.604 225.278 163.881 225.215 164.194C225.153 164.506 225.121 164.837 225.121 165.185C225.121 165.596 225.153 165.963 225.215 166.284C225.278 166.615 225.381 166.892 225.525 167.115C225.678 167.347 225.875 167.526 226.118 167.651C226.369 167.767 226.679 167.825 227.047 167.825C227.424 167.825 227.738 167.758 227.989 167.624C228.241 167.481 228.443 167.294 228.595 167.061C228.757 166.82 228.869 166.539 228.932 166.217C228.995 165.905 229.026 165.57 229.026 165.212Z" fill="#001527"/>
<path d="M237.928 162.639C237.928 162.756 237.923 162.854 237.914 162.934C237.905 163.015 237.892 163.077 237.874 163.122C237.856 163.175 237.833 163.211 237.807 163.229C237.78 163.247 237.748 163.256 237.712 163.256C237.667 163.256 237.587 163.22 237.47 163.149C237.362 163.077 237.214 163.001 237.025 162.921C236.846 162.84 236.626 162.769 236.366 162.706C236.105 162.635 235.804 162.599 235.463 162.599C235.104 162.599 234.777 162.662 234.48 162.787C234.184 162.912 233.933 163.086 233.726 163.309C233.52 163.542 233.358 163.819 233.241 164.14C233.134 164.462 233.08 164.815 233.08 165.199C233.08 165.628 233.138 166.007 233.255 166.338C233.363 166.659 233.52 166.932 233.726 167.155C233.933 167.37 234.179 167.535 234.467 167.651C234.754 167.758 235.073 167.812 235.423 167.812C235.593 167.812 235.76 167.794 235.921 167.758C236.092 167.714 236.249 167.655 236.393 167.584V165.855H234.965C234.902 165.855 234.848 165.811 234.803 165.721C234.768 165.632 234.75 165.485 234.75 165.279C234.75 165.172 234.754 165.083 234.763 165.011C234.772 164.94 234.785 164.882 234.803 164.837C234.821 164.792 234.844 164.757 234.871 164.73C234.898 164.712 234.929 164.703 234.965 164.703H237.51C237.564 164.703 237.618 164.712 237.672 164.73C237.717 164.757 237.757 164.788 237.793 164.824C237.829 164.868 237.856 164.922 237.874 164.984C237.901 165.047 237.914 165.114 237.914 165.185V168.16C237.914 168.276 237.892 168.379 237.847 168.468C237.811 168.549 237.73 168.616 237.605 168.669C237.479 168.714 237.322 168.763 237.133 168.817C236.945 168.87 236.752 168.92 236.554 168.964C236.357 169 236.155 169.027 235.948 169.045C235.751 169.062 235.549 169.071 235.342 169.071C234.741 169.071 234.202 168.987 233.726 168.817C233.259 168.647 232.86 168.401 232.528 168.08C232.195 167.749 231.944 167.352 231.773 166.887C231.603 166.423 231.518 165.891 231.518 165.293C231.518 164.685 231.607 164.136 231.787 163.644C231.975 163.162 232.24 162.751 232.581 162.412C232.923 162.072 233.331 161.809 233.807 161.621C234.292 161.442 234.83 161.353 235.423 161.353C235.746 161.353 236.042 161.375 236.312 161.42C236.581 161.465 236.814 161.518 237.012 161.581C237.209 161.643 237.376 161.71 237.51 161.782C237.636 161.862 237.726 161.929 237.78 161.983C237.833 162.036 237.869 162.112 237.887 162.211C237.914 162.309 237.928 162.452 237.928 162.639Z" fill="#001527"/>
<path d="M241.012 168.735C241.012 168.78 240.998 168.816 240.971 168.843C240.944 168.878 240.904 168.905 240.85 168.923C240.787 168.941 240.707 168.954 240.608 168.963C240.518 168.981 240.397 168.99 240.244 168.99C240.092 168.99 239.966 168.981 239.867 168.963C239.768 168.954 239.692 168.941 239.638 168.923C239.584 168.905 239.544 168.878 239.517 168.843C239.49 168.816 239.477 168.78 239.477 168.735V161.687C239.477 161.651 239.49 161.616 239.517 161.58C239.544 161.553 239.584 161.531 239.638 161.513C239.701 161.495 239.782 161.477 239.881 161.459C239.97 161.45 240.092 161.446 240.244 161.446C240.397 161.446 240.518 161.45 240.608 161.459C240.707 161.477 240.787 161.495 240.85 161.513C240.904 161.531 240.944 161.553 240.971 161.58C240.998 161.616 241.012 161.651 241.012 161.687V168.735Z" fill="#001527"/>
<path d="M248.836 168.414C248.836 168.503 248.818 168.583 248.782 168.655C248.755 168.726 248.715 168.784 248.661 168.829C248.607 168.874 248.544 168.905 248.473 168.923C248.401 168.95 248.329 168.963 248.257 168.963H247.611C247.476 168.963 247.359 168.95 247.261 168.923C247.162 168.896 247.068 168.847 246.978 168.775C246.897 168.704 246.816 168.606 246.735 168.481C246.664 168.364 246.578 168.208 246.48 168.012L244.608 164.528C244.5 164.313 244.392 164.085 244.285 163.844C244.168 163.612 244.069 163.38 243.988 163.147H243.975C243.984 163.424 243.993 163.701 244.002 163.978C244.011 164.255 244.015 164.537 244.015 164.822V168.735C244.015 168.771 244.006 168.807 243.988 168.842C243.961 168.869 243.925 168.896 243.881 168.923C243.827 168.941 243.755 168.954 243.665 168.963C243.575 168.981 243.459 168.99 243.315 168.99C243.18 168.99 243.068 168.981 242.978 168.963C242.897 168.954 242.83 168.941 242.776 168.923C242.722 168.896 242.686 168.869 242.669 168.842C242.651 168.807 242.642 168.771 242.642 168.735V162.022C242.642 161.843 242.695 161.709 242.803 161.62C242.911 161.53 243.041 161.486 243.194 161.486H244.015C244.159 161.486 244.28 161.495 244.379 161.513C244.478 161.539 244.567 161.584 244.648 161.647C244.729 161.7 244.805 161.781 244.877 161.888C244.949 161.986 245.021 162.111 245.093 162.263L246.547 164.983C246.637 165.153 246.722 165.318 246.803 165.479C246.884 165.64 246.964 165.801 247.045 165.961C247.126 166.122 247.202 166.279 247.274 166.43C247.346 166.582 247.418 166.734 247.49 166.886C247.481 166.618 247.472 166.337 247.463 166.042C247.454 165.756 247.449 165.479 247.449 165.211V161.7C247.449 161.664 247.463 161.633 247.49 161.606C247.517 161.571 247.557 161.544 247.611 161.526C247.665 161.499 247.736 161.481 247.826 161.472C247.907 161.463 248.019 161.459 248.163 161.459C248.298 161.459 248.41 161.463 248.5 161.472C248.58 161.481 248.648 161.499 248.702 161.526C248.746 161.544 248.778 161.571 248.796 161.606C248.823 161.633 248.836 161.664 248.836 161.7V168.414Z" fill="#001527"/>
<path d="M218.711 39.0231C218.711 40.0147 219.411 40.7517 220.273 40.6847L233.619 39.5993C234.521 39.5189 235.248 38.6613 235.248 37.6429C235.248 36.6379 234.521 35.8741 233.619 35.9545L220.273 37.0935C219.842 37.1337 219.452 37.3749 219.169 37.7233C218.873 38.0717 218.711 38.5273 218.711 39.0231Z" fill="#001527"/>
<path d="M240.312 35.9281C240.016 36.2765 239.827 36.7455 239.827 37.2681C239.827 38.2731 240.568 39.0369 241.484 38.9565L244.096 38.7421C244.554 38.7153 244.971 38.4741 245.268 38.1123C245.577 37.7639 245.766 37.2815 245.766 36.7723C245.766 35.7405 245.012 34.9767 244.096 35.0571L241.484 35.2849C241.039 35.3251 240.608 35.5663 240.312 35.9281Z" fill="#001527"/>
<path d="M250.061 91.8597C245.523 97.4743 238.709 100.905 231.208 100.717C223.936 100.543 217.512 97.0187 213.243 91.6721C215.479 83.9537 222.199 78.2587 230.561 78.0577C239.22 77.8701 247.004 83.6053 250.061 91.8597Z" fill="#001527"/>
<path d="M237.793 66.0386C237.927 70.407 234.615 74.0518 230.48 74.1724C226.413 74.3064 223.06 70.9698 222.939 66.7488C222.818 62.5144 225.969 58.883 230.036 58.6284C234.17 58.3604 237.671 61.6836 237.793 66.0386Z" fill="#001527"/>
<path d="M231.666 50.8418C231.056 50.8418 230.441 50.8686 229.821 50.9222C217.257 51.9272 207.723 63.0358 208.1 76.2214C208.248 81.836 210.16 87.0754 213.608 91.3768C217.984 96.8574 224.408 100.087 231.222 100.261C238.373 100.422 245.093 97.2594 249.698 91.5644C253.482 86.9146 255.462 80.9918 255.287 74.8948C255.085 67.7794 252.149 61.3474 247.005 56.7646C242.682 52.9188 237.295 50.8418 231.666 50.8418Z" stroke="#001527" stroke-width="1.8" stroke-linecap="round" stroke-linejoin="round"/>
<path d="M313.759 40.122C310.998 50.1452 300.063 54.1384 294.259 56.8988C291.269 58.3192 282.664 63.2772 282.664 63.2772C282.664 63.2772 276.119 55.8402 273.749 53.5488C269.117 49.0866 260.04 41.8238 260.646 31.4522C261.252 21.0672 268.793 2.8834 268.793 2.8834L292.858 1.5166L315.213 10.4544C315.213 10.4544 316.519 30.0854 313.759 40.122Z" fill="#92E3A9" stroke="#001527" stroke-width="1.8" stroke-linecap="round" stroke-linejoin="round"/>
<path d="M289.91 29.6838L291.539 38.97L281.668 37.295L286.287 29.0674C284.307 27.982 283.149 25.7308 283.54 23.3858C284.052 20.3976 286.893 18.401 289.896 18.8968C292.886 19.406 294.906 22.2334 294.394 25.2216C293.99 27.5532 292.145 29.3086 289.91 29.6838Z" fill="#001527"/>
<path d="M186.674 203.355C178.702 203.355 172.211 209.814 172.211 217.734C172.211 225.666 178.702 232.125 186.674 232.125C194.646 232.125 201.124 225.666 201.124 217.734C201.124 209.814 194.646 203.355 186.674 203.355Z" stroke="#001527" stroke-width="1.8" stroke-linecap="round" stroke-linejoin="round"/>
<path d="M183.953 222.546C183.589 222.546 183.226 222.412 182.956 222.144L180.788 219.987C180.236 219.437 180.236 218.553 180.788 218.004C181.327 217.454 182.216 217.454 182.768 218.004L183.953 219.183L190.807 212.429C191.359 211.88 192.248 211.88 192.8 212.429C193.353 212.979 193.339 213.863 192.787 214.412L184.936 222.144C184.667 222.412 184.303 222.546 183.953 222.546Z" fill="#001527"/>
<path d="M122.533 279.131L116.109 222.69L116.244 198.731L141.386 208.888L150.342 279.131H122.533Z" fill="white"/>
<path d="M122.533 279.131L116.109 222.69L116.244 198.731L141.386 208.888L150.342 279.131H345.954" stroke="#001527" stroke-width="1.8" stroke-linecap="round" stroke-linejoin="round"/>
<path d="M117.927 231.025L107.733 279.131L78.3535 284.576C82.003 264.851 87.3844 211.675 88.0039 208.901C88.8253 205.297 122.209 212.801 122.209 212.801" fill="white"/>
<path d="M117.927 231.025L107.733 279.131M78.7559 283.773C82.4053 264.048 87.3844 211.675 88.0038 208.901C88.8253 205.297 122.209 212.801 122.209 212.801" stroke="#001527" stroke-width="1.8" stroke-linecap="round" stroke-linejoin="round"/>
<path d="M124.139 156.119L155.287 167.349C152.742 156.883 154.91 147.878 162.896 140.642C162.896 140.642 147.53 133.473 141.699 132.401C135.855 131.329 132.461 131.812 132.461 131.812L124.139 156.119Z" fill="#6ABF82"/>
<path d="M106.225 107.222C106.225 107.222 105.295 126.612 102.117 130.739C102.117 130.739 116.567 138.967 124.97 138.015C130.424 137.386 122.856 130.739 122.856 130.739C122.856 130.739 120.351 125.795 122.856 117.781C125.361 109.768 106.225 107.222 106.225 107.222Z" fill="white" stroke="#001527" stroke-width="1.8" stroke-linecap="round" stroke-linejoin="round"/>
<path d="M117.806 130.11C117.806 130.11 90.4283 128.77 83.8296 138.136C78.2275 146.096 85.4321 173.821 85.4591 185.211C85.5264 206.892 83.6815 215.669 83.6815 215.669C105.686 223.24 121.065 223.159 144.187 215.83C144.187 215.83 143.702 200.554 143.298 182.544C142.867 163.328 148.335 145.895 142.181 136.341C137.548 129.118 117.806 130.11 117.806 130.11Z" fill="#92E3A9"/>
<path d="M115.571 117.111C120.041 119.349 125.469 120.528 130.33 117.339C137.521 112.622 136.794 96.6496 131.609 86.412C129.064 81.4004 125.442 77.7556 121.159 77.501C110.534 76.8712 103.774 82.4188 102.898 85.742C102.01 89.0652 105.269 101.849 105.269 101.849C105.269 101.849 103.302 97.3196 100.569 98.7936C97.8484 100.281 99.828 110.974 106.225 110.21" fill="white"/>
<path d="M115.571 117.111C120.041 119.349 125.469 120.528 130.33 117.339C137.521 112.622 136.794 96.6496 131.609 86.412C129.064 81.4004 125.442 77.7556 121.159 77.501C110.534 76.8712 103.774 82.4188 102.898 85.742C102.01 89.0652 105.269 101.849 105.269 101.849C105.269 101.849 103.302 97.3196 100.569 98.7936C97.8484 100.281 99.828 110.974 106.225 110.21" stroke="#001527" stroke-width="1.8" stroke-linecap="round" stroke-linejoin="round"/>
<path d="M141.749 83.1156C140.497 84.134 138.854 84.402 137.305 84.6298C135.703 84.8576 134.369 84.2412 132.982 85.4204C132.107 86.1574 131.474 87.149 130.558 87.8458C128.996 89.0116 126.895 89.1054 124.943 89.159C121.253 89.2528 117.428 89.3198 114.089 87.7922C112.634 87.1356 111.301 86.1842 109.779 85.7018C108.85 85.407 107.773 85.3266 106.83 85.6214C105.483 86.0368 105.591 86.4656 105.982 87.6046C106.641 89.5744 106.924 91.6782 107.045 93.7552C107.153 95.524 107.126 97.3062 106.938 99.0616C106.87 99.7316 106.911 101.165 106.413 101.701C105.901 102.264 105.281 101.849 105.281 101.849C105.281 101.849 103.302 97.3062 100.568 98.7936C97.8478 100.281 99.8274 110.974 106.224 110.21C95.4911 115.946 85.8624 95.3766 87.7881 87.0552C88.5557 83.7856 90.0102 80.1408 92.9324 78.2112C93.4442 77.8628 93.7943 77.836 93.8212 77.1928C93.8482 75.9734 93.2556 74.5664 93.2018 73.3068C93.0806 70.667 93.5654 68.0138 94.6292 65.5884C94.6696 65.4946 94.71 65.4008 94.7639 65.307C95.4507 63.8196 96.3799 62.3992 97.7266 61.4746C99.7466 60.0676 102.521 60.0006 104.783 60.9654C106.709 61.7962 108.257 63.3104 109.375 65.0792C109.752 64.9452 110.156 64.8648 110.56 64.8112C111.584 64.6906 112.621 64.7844 113.644 64.8112C117.24 64.9318 120.849 64.3556 124.202 63.096C125.441 62.6404 126.666 62.091 127.986 61.9972C129.292 61.89 130.76 62.359 131.407 63.498C132.551 65.4812 130.76 68.322 132.12 70.1712C132.928 71.2566 134.437 71.4442 135.77 71.6988C138.423 72.2214 141.062 73.5078 142.517 75.7724C143.971 78.0504 143.836 81.4138 141.749 83.1156Z" fill="#001527"/>
<path fill-rule="evenodd" clip-rule="evenodd" d="M102.44 111.671C100.487 111.671 98.5076 110.934 96.5953 109.487C90.0774 104.542 85.997 92.7637 87.3302 86.9481C88.3537 82.5663 90.1448 79.4977 92.6765 77.8227C92.7977 77.7423 92.9054 77.6753 92.9997 77.6217C93.3229 77.4341 93.3364 77.4207 93.3498 77.1795C93.3633 76.5899 93.2152 75.9199 93.0536 75.2231C92.9054 74.5933 92.7573 73.9501 92.7304 73.3203C92.6092 70.6001 93.1209 67.8665 94.1982 65.4143L94.2386 65.3339C94.2745 65.2535 94.3104 65.1776 94.3464 65.1061C95.1813 63.2703 96.2048 61.9437 97.4572 61.0861C99.5041 59.6791 102.453 59.4647 104.972 60.5501C106.763 61.3139 108.352 62.6941 109.577 64.5299C109.873 64.4495 110.183 64.3914 110.506 64.3557C111.355 64.2485 112.203 64.2887 113.025 64.3289C113.24 64.3378 113.451 64.3423 113.658 64.3423C117.172 64.4629 120.754 63.8867 124.04 62.6673C124.247 62.5869 124.458 62.5065 124.673 62.4261C125.71 62.0241 126.788 61.6087 127.946 61.5283C129.616 61.3943 131.137 62.0777 131.824 63.2569C132.444 64.3557 132.309 65.6019 132.161 66.8079C132.026 67.9871 131.905 69.0859 132.497 69.8899C133.117 70.7341 134.315 70.9485 135.474 71.1763L135.851 71.2433C139.042 71.8731 141.547 73.3873 142.907 75.5313C144.59 78.1577 144.2 81.7221 142.045 83.4775C140.658 84.6165 138.84 84.8711 137.372 85.0855C136.82 85.1659 136.308 85.1525 135.824 85.1391C134.854 85.1123 134.086 85.0989 133.278 85.7823C132.901 86.0905 132.578 86.4657 132.228 86.8543C131.811 87.3233 131.38 87.8057 130.841 88.2077C129.104 89.5209 126.801 89.5745 124.956 89.6281C121.414 89.7219 117.401 89.8157 113.886 88.2211C113.321 87.9665 112.769 87.6583 112.23 87.3635C111.355 86.8811 110.533 86.4389 109.644 86.1575C108.702 85.8627 107.759 85.8225 106.965 86.0637C106.399 86.2379 106.251 86.3853 106.21 86.4523C106.143 86.5997 106.291 87.0553 106.426 87.4573C107.018 89.2395 107.382 91.2897 107.517 93.7285C107.624 95.5777 107.584 97.4001 107.409 99.1153C107.396 99.2359 107.382 99.3967 107.382 99.5709C107.328 100.415 107.261 101.46 106.763 102.01C106.13 102.693 105.349 102.452 105.012 102.237C104.945 102.184 104.877 102.117 104.85 102.036C104.837 102.01 103.76 99.5843 102.224 99.0617C101.74 98.8875 101.282 98.9411 100.797 99.1957C99.733 99.7853 99.531 102.438 100.352 104.984C100.756 106.217 102.346 110.21 106.157 109.741C106.386 109.715 106.601 109.849 106.668 110.063C106.736 110.277 106.641 110.519 106.439 110.626C105.133 111.323 103.786 111.671 102.44 111.671ZM101.632 60.7913C100.299 60.7913 99.0193 61.1531 97.9958 61.8499C96.8916 62.6137 95.9624 63.8063 95.1813 65.5081C95.1544 65.5885 95.114 65.6555 95.087 65.7225L95.0601 65.7895C94.0366 68.1077 93.5518 70.7073 93.6596 73.2801C93.6865 73.8295 93.8346 74.4325 93.9693 75.0087C94.1309 75.7457 94.306 76.4961 94.279 77.2063C94.2521 77.9701 93.8346 78.2113 93.471 78.4257C93.3902 78.4793 93.296 78.5329 93.1882 78.5999C90.872 80.1275 89.2156 83.0085 88.246 87.1625C86.9801 92.6565 91.074 104.113 97.1609 108.736C99.5041 110.519 101.847 111.122 104.164 110.519C101.766 109.862 100.191 107.557 99.4637 105.279C98.6153 102.626 98.6288 99.3163 100.352 98.3783C101.066 97.9897 101.793 97.9227 102.521 98.1773C104.217 98.7535 105.349 100.911 105.631 101.5C105.753 101.554 105.914 101.554 106.062 101.393C106.345 101.072 106.412 100.107 106.439 99.5173C106.453 99.3297 106.466 99.1555 106.48 99.0215C106.641 97.3465 106.682 95.5911 106.588 93.7821C106.439 91.4237 106.103 89.4539 105.537 87.7521C105.308 87.0955 105.12 86.5193 105.389 86.0235C105.631 85.5545 106.184 85.3267 106.695 85.1793C107.651 84.8845 108.81 84.9113 109.927 85.2597C110.91 85.5679 111.813 86.0637 112.674 86.5461C113.2 86.8275 113.738 87.1223 114.277 87.3769C117.59 88.8777 121.482 88.7839 124.929 88.6901C126.639 88.6499 128.781 88.5963 130.275 87.4707C130.733 87.1223 131.124 86.6935 131.528 86.2245C131.891 85.8359 132.255 85.4339 132.672 85.0721C133.75 84.1475 134.814 84.1877 135.851 84.2145C136.295 84.2279 136.766 84.2413 137.238 84.1743C138.584 83.9733 140.268 83.7321 141.453 82.7539C143.405 81.1727 143.378 77.9969 142.126 76.0271C140.47 73.4409 137.372 72.4895 135.676 72.1545L135.298 72.0875C134.019 71.8463 132.578 71.5783 131.743 70.4527C130.935 69.3405 131.083 68.0005 131.232 66.7141C131.366 65.6019 131.487 64.5567 131.003 63.7259C130.397 62.6673 129.01 62.3859 128.013 62.4529C127.003 62.5333 126.033 62.9085 125.01 63.2971C124.794 63.3775 124.584 63.4579 124.377 63.5383C120.97 64.7979 117.267 65.4009 113.631 65.2803C113.415 65.2714 113.2 65.2624 112.984 65.2535C112.163 65.2133 111.395 65.1865 110.628 65.2803C110.233 65.325 109.869 65.4054 109.537 65.5215C109.321 65.5885 109.092 65.5081 108.985 65.3205C107.826 63.4981 106.318 62.1447 104.594 61.3943C103.638 60.9923 102.628 60.7913 101.632 60.7913Z" fill="#001527"/>
<path d="M120.297 97.3865C120.378 98.2843 121.011 98.9409 121.684 98.8739C122.371 98.8069 122.856 98.0297 122.761 97.1453C122.68 96.2609 122.048 95.5909 121.361 95.6579C120.687 95.7249 120.203 96.5021 120.297 97.3865Z" fill="#001527"/>
<path d="M128.351 95.6043C128.431 96.5021 129.064 97.1587 129.751 97.0917C130.424 97.0247 130.909 96.2475 130.815 95.3631C130.734 94.4787 130.101 93.8087 129.428 93.8757C128.741 93.9561 128.256 94.7199 128.351 95.6043Z" fill="#001527"/>
<path d="M122.452 92.4822C122.452 92.4822 120.217 91.3298 117.9 93.6882L122.452 92.4822Z" fill="white"/>
<path d="M117.9 94.1573C117.779 94.1573 117.671 94.1037 117.577 94.0233C117.388 93.8357 117.388 93.5409 117.563 93.3533C120.095 90.7805 122.559 92.0133 122.667 92.0669C122.896 92.1875 122.99 92.4689 122.869 92.6967C122.748 92.9245 122.465 93.0183 122.236 92.8977C122.155 92.8575 120.257 91.9463 118.237 94.0099C118.142 94.1037 118.021 94.1573 117.9 94.1573Z" fill="#001527"/>
<path d="M131.501 91.397C131.501 91.397 129.265 90.2312 126.949 92.5896L131.501 91.397Z" fill="white"/>
<path d="M126.95 93.0585C126.828 93.0585 126.707 93.0183 126.613 92.9245C126.438 92.7503 126.424 92.4555 126.613 92.2679C129.145 89.6951 131.609 90.9279 131.717 90.9815C131.946 91.1021 132.027 91.3835 131.905 91.6113C131.798 91.8391 131.515 91.9195 131.286 91.8123C131.192 91.7587 129.306 90.8609 127.286 92.9245C127.192 93.0183 127.071 93.0585 126.95 93.0585Z" fill="#001527"/>
<path d="M126.586 97.5605C127.313 99.9189 128.04 102.277 128.767 104.636C128.875 105.024 128.996 105.44 128.929 105.828C128.821 106.351 128.404 106.766 127.919 106.981C127.448 107.209 126.909 107.276 126.384 107.343" fill="white"/>
<path d="M122.344 110.961C123.96 111.979 126.007 112.288 127.852 111.778L122.344 110.961Z" fill="white"/>
<path d="M126.06 112.488C124.66 112.488 123.259 112.1 122.088 111.349C121.872 111.215 121.805 110.934 121.94 110.706C122.088 110.492 122.371 110.425 122.586 110.572C124.094 111.524 126.02 111.805 127.73 111.336C127.986 111.269 128.242 111.416 128.309 111.658C128.377 111.912 128.229 112.167 127.986 112.234C127.353 112.408 126.707 112.488 126.06 112.488Z" fill="#001527"/>
<path d="M100.097 176.742C100.097 176.742 107.059 176.755 112.581 169.398C118.425 161.599 118.829 153.077 116.998 151.121C113.119 146.98 104.433 155.087 103.814 155.905C103.208 156.722 98.3598 159.764 98.3464 160.139C98.3329 160.514 97.2421 166.316 97.269 166.531C97.2825 166.745 100.097 176.742 100.097 176.742Z" fill="#001527"/>
<path d="M199.077 159.402C197.34 162.966 181.691 168.366 181.691 168.366C181.691 168.366 150.516 195.354 134.423 193.934C118.331 192.513 91.9629 166.732 91.9629 166.732L105.524 146.149L138.329 171.1L174.581 151.121C174.581 151.121 179.644 137.68 183.092 139.583C186.445 141.432 184.102 145.466 183.967 145.707C184.358 145.318 197.461 131.65 199.131 134.438C200.787 137.225 191.737 146.94 191.482 147.221C191.751 146.993 196.006 147.101 195.4 150.879C195.4 150.879 199.858 152.166 197.07 155.985C197.07 155.985 200.625 156.239 199.077 159.402Z" fill="white" stroke="#001527" stroke-width="1.8" stroke-linecap="round" stroke-linejoin="round"/>
<path d="M197.07 155.985L192.909 158.182L197.07 155.985Z" fill="white"/>
<path d="M192.909 158.651C192.734 158.651 192.572 158.558 192.492 158.397C192.37 158.182 192.465 157.888 192.694 157.767L196.841 155.569C197.07 155.449 197.353 155.543 197.474 155.77C197.595 155.985 197.515 156.28 197.286 156.4L193.125 158.598C193.053 158.634 192.981 158.651 192.909 158.651Z" fill="#001527"/>
<path d="M84.2374 137.547C84.2374 137.547 79.5914 143.269 81.2747 152.019C83.6044 164.186 99.9934 176.996 99.9934 176.996C99.9934 176.996 98.6467 156.561 116.894 151.376L101.448 139.584" fill="#6ABF82"/>
<path d="M195.401 150.879L189.516 154.27L195.401 150.879Z" fill="white"/>
<path d="M189.515 154.725C189.354 154.725 189.192 154.645 189.111 154.498C188.977 154.27 189.057 153.988 189.286 153.854L195.158 150.478C195.387 150.357 195.67 150.424 195.804 150.652C195.939 150.866 195.858 151.161 195.629 151.282L189.744 154.672C189.672 154.707 189.596 154.725 189.515 154.725Z" fill="#001527"/>
<path d="M191.482 147.221L186.338 149.848L191.482 147.221Z" fill="white"/>
<path d="M186.338 150.317C186.176 150.317 186.014 150.223 185.92 150.062C185.812 149.834 185.893 149.553 186.122 149.446L191.266 146.806C191.495 146.685 191.778 146.779 191.899 147.007C192.021 147.235 191.926 147.516 191.697 147.637L186.553 150.263C186.49 150.299 186.418 150.317 186.338 150.317Z" fill="#001527"/>
<path d="M126.64 97.2158C128.518 100.96 131.066 108.209 126.237 107.246" stroke="#001527" stroke-width="1.8" stroke-linecap="round"/>
<path d="M122.214 110.857C123.287 111.526 125.996 112.622 128.25 111.659" stroke="#001527" stroke-width="1.8" stroke-linecap="round"/>
<path d="M117.787 94.007C118.324 93.0709 119.96 91.4393 122.213 92.4022M127.042 92.4022C127.713 91.8677 129.617 90.9591 131.871 91.6005" stroke="#001527" stroke-width="1.8" stroke-linecap="round"/>
</svg>
