<svg width="240" height="285" viewBox="0 0 240 285" fill="none" xmlns="http://www.w3.org/2000/svg">
<path d="M85.9997 140.387C85.9997 140.387 89.3663 143.376 88.4371 148.816C87.5753 153.841 83.4545 169.908 78.2025 167.027C72.9505 164.159 76.7885 144.474 76.7885 144.474L85.9997 140.387Z" fill="#001527"/>
<path d="M134.884 93.2463C134.938 96.9715 132.325 103.618 131.234 105.99C128.702 111.524 126.831 116.79 126.831 116.79L126.709 116.75C124.312 124.187 111.25 161.251 103.197 166.008C94.2413 171.288 72.0078 160.702 72.0078 160.702L77.7581 138.351L93.0697 145.721L109.634 110.961C109.634 110.961 104.328 96.1675 107.142 93.7957C110.32 91.1023 114.468 99.6515 114.468 99.6515C114.468 99.6515 114.886 84.9115 118.885 84.7507C122.171 84.6301 120.569 92.9917 120.488 93.5009C120.663 93.0855 123.491 86.2515 125.268 85.5547C127.1 84.8445 128.096 86.8411 127.773 88.4223C127.773 88.4223 131.288 86.2515 131.625 90.3787C131.625 90.3787 134.843 89.5077 134.884 93.2463Z" fill="white" stroke="#001527" stroke-width="1.8" stroke-linecap="round" stroke-linejoin="round"/>
<path d="M125.026 95.752C124.963 95.752 124.905 95.7431 124.851 95.7252C124.609 95.618 124.487 95.35 124.582 95.1088L127.342 88.248C127.437 88.0202 127.706 87.8996 127.948 87.9934C128.191 88.0872 128.312 88.3552 128.204 88.5964L125.457 95.4572C125.39 95.6448 125.215 95.752 125.026 95.752Z" fill="#001527"/>
<path d="M128.676 97.6682C128.613 97.6682 128.55 97.6549 128.487 97.6281C128.245 97.5209 128.137 97.2529 128.245 97.0117L131.194 90.1911C131.288 89.9633 131.571 89.8427 131.8 89.9499C132.042 90.0571 132.15 90.325 132.056 90.5662L129.106 97.3869C129.026 97.5611 128.851 97.6682 128.676 97.6682Z" fill="#001527"/>
<path d="M119.612 47.8947V173.131C119.612 182.243 125.659 190.229 133.254 190.98L190.326 196.661C199.294 197.546 206.714 190.042 206.714 179.858V41.1813C206.714 31.0107 199.294 23.4933 190.326 24.3911L133.254 30.0593C125.659 30.8231 119.612 38.7961 119.612 47.8947Z" fill="#001527"/>
<path d="M112.516 48.2967V173.198C112.516 182.283 118.765 190.243 126.616 190.993L185.546 196.661C194.824 197.546 202.487 190.055 202.487 179.911V41.5967C202.487 31.4529 194.824 23.9623 185.546 24.8601L126.616 30.5149C118.765 31.2653 112.516 39.2249 112.516 48.2967Z" fill="white" stroke="#001527" stroke-width="1.8" stroke-linecap="round" stroke-linejoin="round"/>
<path d="M188.751 125.963L125.377 127.303V110.781L188.751 107.994V125.963Z" fill="#92E3A9"/>
<path d="M139.53 127.008L125.377 127.303V110.781L139.53 110.151V127.008Z" fill="#6ABF82"/>
<path d="M188.751 149.199L125.377 148.663V132.14L188.751 131.229V149.199Z" fill="#92E3A9"/>
<path d="M139.53 148.782L125.377 148.662V132.14L139.53 131.939V148.782Z" fill="#6ABF82"/>
<path d="M178.772 176.226C179.688 176.266 180.536 175.958 181.182 175.341C181.829 174.725 182.192 173.867 182.192 172.929V160.709C182.192 158.792 180.644 157.198 178.745 157.171L134.022 156.354C133.255 156.34 132.554 156.622 132.016 157.158C131.41 157.747 131.059 158.605 131.059 159.503V170.906C131.059 172.688 132.393 174.189 134.049 174.269L178.772 176.226Z" stroke="#001527" stroke-width="1.8" stroke-linecap="round" stroke-linejoin="round"/>
<path d="M182.919 117.312C182.919 117.951 182.411 118.475 181.772 118.495L146.185 119.59C145.55 119.609 145.024 119.099 145.024 118.463V118.463C145.024 117.856 145.505 117.358 146.112 117.337L181.695 116.129C182.364 116.106 182.919 116.643 182.919 117.312V117.312Z" fill="#001527"/>
<path d="M150.438 140.328C150.438 141.521 149.508 142.499 148.364 142.499C147.233 142.499 146.317 141.534 146.317 140.341C146.317 139.149 147.233 138.184 148.364 138.171C149.508 138.171 150.438 139.135 150.438 140.328Z" fill="#001527"/>
<path d="M157.965 140.301C157.965 141.521 157.023 142.499 155.851 142.499C154.693 142.499 153.764 141.521 153.764 140.315C153.764 139.122 154.693 138.131 155.851 138.131C157.023 138.117 157.965 139.095 157.965 140.301Z" fill="#001527"/>
<path d="M165.655 140.287C165.655 141.506 164.686 142.498 163.5 142.498C162.315 142.498 161.359 141.506 161.359 140.3C161.359 139.081 162.315 138.089 163.5 138.076C164.686 138.076 165.655 139.054 165.655 140.287Z" fill="#001527"/>
<path d="M173.493 140.26C173.493 141.493 172.51 142.498 171.298 142.498C170.086 142.498 169.103 141.506 169.103 140.274C169.103 139.041 170.086 138.049 171.298 138.036C172.51 138.022 173.493 139.027 173.493 140.26Z" fill="#001527"/>
<path d="M181.492 140.234C181.492 141.48 180.482 142.498 179.243 142.498C178.017 142.498 177.021 141.493 177.021 140.247C177.021 139.014 178.017 137.996 179.243 137.983C180.482 137.983 181.492 138.988 181.492 140.234Z" fill="#001527"/>
<path d="M146.182 168.32C146.182 168.428 146.177 168.521 146.168 168.602C146.159 168.682 146.146 168.749 146.128 168.803C146.11 168.856 146.088 168.892 146.061 168.91C146.025 168.937 145.989 168.95 145.953 168.95H142.519C142.384 168.95 142.277 168.914 142.196 168.843C142.106 168.763 142.061 168.638 142.061 168.468V161.687C142.061 161.652 142.074 161.616 142.101 161.58C142.128 161.553 142.169 161.531 142.223 161.513C142.285 161.495 142.366 161.477 142.465 161.46C142.564 161.451 142.685 161.446 142.829 161.446C142.981 161.446 143.102 161.451 143.192 161.46C143.291 161.477 143.372 161.495 143.435 161.513C143.488 161.531 143.529 161.553 143.556 161.58C143.583 161.616 143.596 161.652 143.596 161.687V167.691H145.953C145.989 167.691 146.025 167.704 146.061 167.731C146.088 167.749 146.11 167.784 146.128 167.838C146.146 167.883 146.159 167.945 146.168 168.026C146.177 168.106 146.182 168.204 146.182 168.32Z" fill="#001527"/>
<path fill-rule="evenodd" clip-rule="evenodd" d="M153.629 165.132C153.629 165.748 153.553 166.302 153.4 166.794C153.239 167.285 153.005 167.7 152.7 168.04C152.395 168.379 152.018 168.638 151.569 168.817C151.12 168.996 150.599 169.085 150.007 169.085C149.423 169.085 148.916 169.009 148.485 168.857C148.045 168.705 147.681 168.473 147.394 168.16C147.107 167.848 146.887 167.45 146.734 166.968C146.59 166.485 146.519 165.918 146.519 165.266C146.519 164.658 146.595 164.114 146.748 163.631C146.909 163.149 147.143 162.738 147.448 162.398C147.753 162.059 148.13 161.8 148.579 161.621C149.028 161.442 149.549 161.353 150.141 161.353C150.716 161.353 151.219 161.429 151.649 161.581C152.089 161.724 152.453 161.952 152.74 162.264C153.037 162.577 153.256 162.97 153.4 163.444C153.553 163.917 153.629 164.48 153.629 165.132ZM152.027 165.212C152.027 164.819 151.995 164.462 151.932 164.14C151.869 163.819 151.766 163.542 151.623 163.31C151.47 163.086 151.268 162.912 151.017 162.787C150.774 162.662 150.464 162.599 150.087 162.599C149.719 162.599 149.41 162.671 149.158 162.814C148.907 162.948 148.705 163.131 148.552 163.363C148.391 163.604 148.278 163.881 148.215 164.194C148.153 164.507 148.121 164.837 148.121 165.186C148.121 165.596 148.153 165.963 148.215 166.284C148.278 166.615 148.382 166.892 148.525 167.115C148.678 167.347 148.875 167.526 149.118 167.651C149.369 167.767 149.679 167.825 150.047 167.825C150.424 167.825 150.738 167.758 150.99 167.624C151.241 167.481 151.443 167.294 151.596 167.062C151.757 166.82 151.869 166.539 151.932 166.217C151.995 165.905 152.027 165.57 152.027 165.212Z" fill="#001527"/>
<path d="M160.928 162.64C160.928 162.756 160.924 162.854 160.915 162.934C160.906 163.015 160.892 163.077 160.874 163.122C160.856 163.176 160.834 163.211 160.807 163.229C160.78 163.247 160.749 163.256 160.713 163.256C160.668 163.256 160.587 163.22 160.47 163.149C160.363 163.077 160.214 163.001 160.026 162.921C159.846 162.841 159.626 162.769 159.366 162.707C159.106 162.635 158.805 162.599 158.464 162.599C158.105 162.599 157.777 162.662 157.481 162.787C157.184 162.912 156.933 163.086 156.727 163.31C156.52 163.542 156.359 163.819 156.242 164.14C156.134 164.462 156.08 164.815 156.08 165.199C156.08 165.628 156.139 166.007 156.255 166.338C156.363 166.66 156.52 166.932 156.727 167.155C156.933 167.37 157.18 167.535 157.467 167.651C157.755 167.758 158.073 167.812 158.423 167.812C158.594 167.812 158.76 167.794 158.922 167.758C159.092 167.714 159.249 167.656 159.393 167.584V165.856H157.966C157.903 165.856 157.849 165.811 157.804 165.722C157.768 165.632 157.75 165.485 157.75 165.279C157.75 165.172 157.755 165.083 157.764 165.011C157.773 164.94 157.786 164.882 157.804 164.837C157.822 164.792 157.844 164.757 157.871 164.73C157.898 164.712 157.93 164.703 157.966 164.703H160.511C160.565 164.703 160.618 164.712 160.672 164.73C160.717 164.757 160.758 164.788 160.794 164.824C160.829 164.868 160.856 164.922 160.874 164.985C160.901 165.047 160.915 165.114 160.915 165.186V168.16C160.915 168.276 160.892 168.379 160.847 168.469C160.811 168.549 160.731 168.616 160.605 168.67C160.479 168.714 160.322 168.763 160.134 168.817C159.945 168.871 159.752 168.92 159.555 168.964C159.357 169 159.155 169.027 158.949 169.045C158.751 169.063 158.549 169.072 158.343 169.072C157.741 169.072 157.202 168.987 156.727 168.817C156.26 168.647 155.86 168.402 155.528 168.08C155.196 167.749 154.945 167.352 154.774 166.887C154.603 166.423 154.518 165.891 154.518 165.293C154.518 164.685 154.608 164.136 154.787 163.645C154.976 163.162 155.241 162.751 155.582 162.412C155.923 162.072 156.332 161.809 156.807 161.621C157.292 161.442 157.831 161.353 158.423 161.353C158.747 161.353 159.043 161.375 159.312 161.42C159.582 161.465 159.815 161.518 160.012 161.581C160.21 161.643 160.376 161.71 160.511 161.782C160.636 161.862 160.726 161.929 160.78 161.983C160.834 162.037 160.87 162.112 160.888 162.211C160.915 162.309 160.928 162.452 160.928 162.64Z" fill="#001527"/>
<path d="M164.012 168.736C164.012 168.78 163.999 168.816 163.972 168.843C163.945 168.879 163.905 168.906 163.851 168.923C163.788 168.941 163.707 168.955 163.608 168.964C163.519 168.981 163.397 168.99 163.245 168.99C163.092 168.99 162.966 168.981 162.868 168.964C162.769 168.955 162.693 168.941 162.639 168.923C162.585 168.906 162.545 168.879 162.518 168.843C162.491 168.816 162.477 168.78 162.477 168.736V161.687C162.477 161.652 162.491 161.616 162.518 161.58C162.545 161.553 162.585 161.531 162.639 161.513C162.702 161.495 162.782 161.477 162.881 161.46C162.971 161.451 163.092 161.446 163.245 161.446C163.397 161.446 163.519 161.451 163.608 161.46C163.707 161.477 163.788 161.495 163.851 161.513C163.905 161.531 163.945 161.553 163.972 161.58C163.999 161.616 164.012 161.652 164.012 161.687V168.736Z" fill="#001527"/>
<path d="M171.836 168.414C171.836 168.503 171.818 168.583 171.782 168.655C171.755 168.726 171.715 168.784 171.661 168.829C171.607 168.874 171.544 168.905 171.473 168.923C171.401 168.95 171.329 168.963 171.257 168.963H170.611C170.476 168.963 170.359 168.95 170.261 168.923C170.162 168.896 170.068 168.847 169.978 168.775C169.897 168.704 169.816 168.606 169.735 168.481C169.664 168.364 169.578 168.208 169.48 168.012L167.608 164.528C167.5 164.313 167.392 164.085 167.285 163.844C167.168 163.612 167.069 163.38 166.988 163.147H166.975C166.984 163.424 166.993 163.701 167.002 163.978C167.011 164.255 167.015 164.537 167.015 164.822V168.735C167.015 168.771 167.006 168.807 166.988 168.842C166.961 168.869 166.925 168.896 166.881 168.923C166.827 168.941 166.755 168.954 166.665 168.963C166.575 168.981 166.459 168.99 166.315 168.99C166.18 168.99 166.068 168.981 165.978 168.963C165.897 168.954 165.83 168.941 165.776 168.923C165.722 168.896 165.686 168.869 165.669 168.842C165.651 168.807 165.642 168.771 165.642 168.735V162.022C165.642 161.843 165.695 161.709 165.803 161.62C165.911 161.53 166.041 161.486 166.194 161.486H167.015C167.159 161.486 167.28 161.495 167.379 161.513C167.478 161.539 167.567 161.584 167.648 161.647C167.729 161.7 167.805 161.781 167.877 161.888C167.949 161.986 168.021 162.111 168.093 162.263L169.547 164.983C169.637 165.153 169.722 165.318 169.803 165.479C169.884 165.64 169.964 165.801 170.045 165.961C170.126 166.122 170.202 166.279 170.274 166.43C170.346 166.582 170.418 166.734 170.49 166.886C170.481 166.618 170.472 166.337 170.463 166.042C170.454 165.756 170.449 165.479 170.449 165.211V161.7C170.449 161.664 170.463 161.633 170.49 161.606C170.517 161.571 170.557 161.544 170.611 161.526C170.665 161.499 170.736 161.481 170.826 161.472C170.907 161.463 171.019 161.459 171.163 161.459C171.298 161.459 171.41 161.463 171.5 161.472C171.58 161.481 171.648 161.499 171.702 161.526C171.746 161.544 171.778 161.571 171.796 161.606C171.823 161.633 171.836 161.664 171.836 161.7V168.414Z" fill="#001527"/>
<path d="M141.711 39.0233C141.711 40.0149 142.412 40.7519 143.273 40.6849L156.619 39.5995C157.521 39.5191 158.248 38.6615 158.248 37.6431C158.248 36.6381 157.521 35.8743 156.619 35.9547L143.273 37.0937C142.843 37.1339 142.452 37.3751 142.169 37.7235C141.873 38.0719 141.711 38.5275 141.711 39.0233Z" fill="#001527"/>
<path d="M163.312 35.9283C163.015 36.2767 162.827 36.7457 162.827 37.2683C162.827 38.2733 163.568 39.0371 164.483 38.9567L167.096 38.7423C167.554 38.7155 167.971 38.4743 168.267 38.1125C168.577 37.7641 168.766 37.2817 168.766 36.7725C168.766 35.7407 168.012 34.9769 167.096 35.0573L164.483 35.2851C164.039 35.3253 163.608 35.5665 163.312 35.9283Z" fill="#001527"/>
<path d="M173.061 91.8602C168.523 97.4748 161.709 100.905 154.208 100.718C146.936 100.543 140.512 97.0192 136.244 91.6726C138.479 83.9542 145.199 78.2592 153.562 78.0582C162.221 77.8706 170.004 83.6058 173.061 91.8602Z" fill="#001527"/>
<path d="M160.793 66.0389C160.928 70.4073 157.615 74.0521 153.481 74.1727C149.414 74.3067 146.061 70.9701 145.939 66.7491C145.818 62.5147 148.969 58.8833 153.036 58.6287C157.171 58.3607 160.672 61.6839 160.793 66.0389Z" fill="#001527"/>
<path d="M154.667 50.8423C154.056 50.8423 153.441 50.8691 152.822 50.9227C140.257 51.9277 130.723 63.0363 131.1 76.2219C131.248 81.8365 133.16 87.0759 136.608 91.3773C140.984 96.8579 147.408 100.087 154.222 100.261C161.373 100.422 168.093 97.2599 172.698 91.5649C176.483 86.9151 178.462 80.9923 178.287 74.8953C178.085 67.7799 175.149 61.3479 170.005 56.7651C165.682 52.9193 160.296 50.8423 154.667 50.8423Z" stroke="#001527" stroke-width="1.8" stroke-linecap="round" stroke-linejoin="round"/>
<path d="M236.759 40.1222C233.998 50.1454 223.063 54.1386 217.259 56.899C214.27 58.3194 205.664 63.2774 205.664 63.2774C205.664 63.2774 199.12 55.8404 196.749 53.549C192.117 49.0868 183.04 41.824 183.646 31.4524C184.252 21.0674 191.794 2.88365 191.794 2.88365L215.859 1.51685L238.213 10.4546C238.213 10.4546 239.52 30.0856 236.759 40.1222Z" fill="#92E3A9" stroke="#001527" stroke-width="1.8" stroke-linecap="round" stroke-linejoin="round"/>
<path d="M212.91 29.6838L214.539 38.97L204.668 37.295L209.287 29.0674C207.308 27.982 206.15 25.7308 206.54 23.3858C207.052 20.3976 209.893 18.401 212.896 18.8968C215.886 19.406 217.906 22.2334 217.394 25.2216C216.99 27.5532 215.145 29.3086 212.91 29.6838Z" fill="#001527"/>
<path d="M109.674 203.356C101.701 203.356 95.2104 209.815 95.2104 217.734C95.2104 225.667 101.701 232.126 109.674 232.126C117.646 232.126 124.123 225.667 124.123 217.734C124.123 209.815 117.646 203.356 109.674 203.356Z" stroke="#001527" stroke-width="1.8" stroke-linecap="round" stroke-linejoin="round"/>
<path d="M106.953 222.546C106.589 222.546 106.226 222.412 105.956 222.144L103.788 219.987C103.236 219.437 103.236 218.553 103.788 218.004C104.327 217.454 105.216 217.454 105.768 218.004L106.953 219.183L113.807 212.429C114.36 211.88 115.248 211.88 115.801 212.429C116.353 212.979 116.339 213.863 115.787 214.412L107.936 222.144C107.667 222.412 107.303 222.546 106.953 222.546Z" fill="#001527"/>
<path d="M45.5324 279.131L39.1088 222.69L39.2434 198.731L64.3857 208.888L73.341 279.131H45.5324Z" fill="white"/>
<path d="M45.5324 279.131L39.1088 222.69L39.2434 198.731L64.3857 208.888L73.341 279.131" stroke="#001527" stroke-width="1.8" stroke-linecap="round" stroke-linejoin="round"/>
<path d="M40.9268 231.025L30.7325 279.131L1.35352 284.576C5.00298 264.851 10.3844 211.675 11.0039 208.902C11.8253 205.297 45.2092 212.801 45.2092 212.801" fill="white"/>
<path d="M40.9268 231.025L30.7325 279.131M1.75586 283.774C5.40533 264.049 10.3844 211.675 11.0038 208.902C11.8253 205.297 45.2092 212.801 45.2092 212.801" stroke="#001527" stroke-width="1.8" stroke-linecap="round" stroke-linejoin="round"/>
<path d="M47.1389 156.12L78.2873 167.349C75.7421 156.884 77.9102 147.879 85.896 140.643C85.896 140.643 70.5305 133.474 64.6994 132.402C58.8549 131.33 55.4613 131.812 55.4613 131.812L47.1389 156.12Z" fill="#6ABF82"/>
<path d="M29.2243 107.222C29.2243 107.222 28.2951 126.612 25.1169 130.739C25.1169 130.739 39.5667 138.967 47.9699 138.016C53.4239 137.386 45.8556 130.739 45.8556 130.739C45.8556 130.739 43.3508 125.795 45.8556 117.782C48.3604 109.768 29.2243 107.222 29.2243 107.222Z" fill="white" stroke="#001527" stroke-width="1.8" stroke-linecap="round" stroke-linejoin="round"/>
<path d="M40.8058 130.11C40.8058 130.11 13.428 128.77 6.82936 138.137C1.22722 146.096 8.43189 173.821 8.45882 185.211C8.52615 206.892 6.68122 215.669 6.68122 215.669C28.6858 223.24 44.0647 223.16 67.187 215.83C67.187 215.83 66.7022 200.554 66.2982 182.544C65.8672 163.329 71.3347 145.895 65.1804 136.341C60.5479 129.118 40.8058 130.11 40.8058 130.11Z" fill="#92E3A9"/>
<path d="M38.5702 117.112C43.0411 119.349 48.4682 120.529 53.3296 117.339C60.5208 112.623 59.7936 96.6498 54.609 86.4122C52.0638 81.4006 48.4412 77.7558 44.1588 77.5012C33.5336 76.8714 26.7734 82.419 25.898 85.7422C25.0092 89.0654 28.2682 101.849 28.2682 101.849C28.2682 101.849 26.302 97.3198 23.5683 98.7938C20.848 100.281 22.8276 110.974 29.2243 110.211" fill="white"/>
<path d="M38.5702 117.112C43.0411 119.349 48.4682 120.529 53.3296 117.339C60.5208 112.623 59.7936 96.6498 54.609 86.4122C52.0638 81.4006 48.4412 77.7558 44.1588 77.5012C33.5336 76.8714 26.7734 82.419 25.898 85.7422C25.0092 89.0654 28.2682 101.849 28.2682 101.849C28.2682 101.849 26.302 97.3198 23.5683 98.7938C20.848 100.281 22.8276 110.974 29.2243 110.211" stroke="#001527" stroke-width="1.8" stroke-linecap="round" stroke-linejoin="round"/>
<path d="M64.7493 83.1158C63.4969 84.1342 61.854 84.4022 60.3053 84.63C58.7028 84.8578 57.3696 84.2414 55.9825 85.4206C55.1072 86.1576 54.4743 87.1492 53.5585 87.846C51.9964 89.0118 49.8956 89.1056 47.9429 89.1592C44.2531 89.253 40.4285 89.32 37.0888 87.7924C35.6344 87.1358 34.3012 86.1844 32.7795 85.702C31.8503 85.4072 30.7729 85.3268 29.8303 85.6216C28.4836 86.037 28.5913 86.4658 28.9819 87.6048C29.6417 89.5746 29.9245 91.6784 30.0457 93.7554C30.1535 95.5242 30.1265 97.3064 29.938 99.0618C29.8707 99.7318 29.9111 101.166 29.4128 101.702C28.9011 102.264 28.2816 101.849 28.2816 101.849C28.2816 101.849 26.302 97.3064 23.5683 98.7938C20.848 100.281 22.8276 110.974 29.2243 110.211C18.4913 115.946 8.86266 95.3768 10.7884 87.0554C11.556 83.7858 13.0104 80.141 15.9327 78.2114C16.4444 77.863 16.7945 77.8362 16.8215 77.193C16.8484 75.9736 16.2559 74.5666 16.202 73.307C16.0808 70.6672 16.5656 68.014 17.6295 65.5886C17.6699 65.4948 17.7103 65.401 17.7641 65.3072C18.4509 63.8198 19.3801 62.3994 20.7268 61.4748C22.7468 60.0678 25.5209 60.0008 27.7833 60.9656C29.7091 61.7964 31.2577 63.3106 32.3755 65.0794C32.7525 64.9454 33.1565 64.865 33.5605 64.8114C34.584 64.6908 35.6209 64.7846 36.6444 64.8114C40.24 64.932 43.8491 64.3558 47.2023 63.0962C48.4412 62.6406 49.6667 62.0912 50.9864 61.9974C52.2927 61.8902 53.7605 62.3592 54.4069 63.4982C55.5516 65.4814 53.7605 68.3222 55.1207 70.1714C55.9287 71.2568 57.4369 71.4444 58.7701 71.699C61.4231 72.2216 64.0625 73.508 65.5169 75.7726C66.9713 78.0506 66.8367 81.414 64.7493 83.1158Z" fill="#001527"/>
<path fill-rule="evenodd" clip-rule="evenodd" d="M25.4401 111.671C23.4874 111.671 21.5078 110.934 19.5955 109.487C13.0777 104.542 8.99727 92.7638 10.3305 86.9482C11.3539 82.5664 13.145 79.4978 15.6767 77.8228C15.7979 77.7424 15.9057 77.6754 15.9999 77.6218C16.3231 77.4342 16.3366 77.4208 16.3501 77.1796C16.3635 76.59 16.2154 75.92 16.0538 75.2232C15.9057 74.5934 15.7575 73.9502 15.7306 73.3204C15.6094 70.6002 16.1211 67.8666 17.1985 65.4144L17.2389 65.334C17.2748 65.2536 17.3107 65.1777 17.3466 65.1062C18.1815 63.2704 19.205 61.9438 20.4574 61.0862C22.5043 59.6792 25.4535 59.4648 27.9718 60.5502C29.7629 61.314 31.3519 62.6942 32.5774 64.53C32.8737 64.4496 33.1834 64.3915 33.5066 64.3558C34.355 64.2486 35.2034 64.2888 36.0249 64.329C36.2403 64.3379 36.4513 64.3424 36.6578 64.3424C40.1726 64.463 43.7547 63.8868 47.0406 62.6674C47.2471 62.587 47.4581 62.5066 47.6735 62.4262C48.7105 62.0242 49.7878 61.6088 50.9459 61.5284C52.6158 61.3944 54.1375 62.0778 54.8243 63.257C55.4438 64.3558 55.3091 65.602 55.161 66.808C55.0263 67.9872 54.9051 69.086 55.4977 69.89C56.1171 70.7342 57.3157 70.9486 58.4738 71.1764L58.8509 71.2434C62.0425 71.8732 64.5473 73.3874 65.9074 75.5314C67.5907 78.1578 67.2002 81.7222 65.0455 83.4776C63.6585 84.6166 61.8405 84.8712 60.3726 85.0856C59.8205 85.166 59.3087 85.1526 58.8239 85.1392C57.8543 85.1124 57.0867 85.099 56.2787 85.7824C55.9017 86.0906 55.5785 86.4658 55.2283 86.8544C54.8109 87.3234 54.3799 87.8058 53.8413 88.2078C52.1041 89.521 49.8013 89.5746 47.9563 89.6282C44.4146 89.722 40.4015 89.8158 36.8867 88.2212C36.3211 87.9666 35.769 87.6584 35.2303 87.3636C34.355 86.8812 33.5335 86.439 32.6447 86.1576C31.7021 85.8628 30.7594 85.8226 29.9649 86.0638C29.3993 86.238 29.2511 86.3854 29.2107 86.4524C29.1434 86.5998 29.2915 87.0554 29.4262 87.4574C30.0187 89.2396 30.3823 91.2898 30.517 93.7286C30.6247 95.5778 30.5843 97.4002 30.4093 99.1154C30.3958 99.236 30.3823 99.3968 30.3823 99.571C30.3285 100.415 30.2611 101.46 29.7629 102.01C29.1299 102.693 28.3489 102.452 28.0122 102.238C27.9449 102.184 27.8775 102.117 27.8506 102.037C27.8371 102.01 26.7598 99.5844 25.2246 99.0618C24.7398 98.8876 24.2819 98.9412 23.7971 99.1958C22.7333 99.7854 22.5313 102.439 23.3527 104.985C23.7567 106.217 25.3458 110.211 29.1569 109.742C29.3858 109.715 29.6013 109.849 29.6686 110.063C29.7359 110.278 29.6417 110.519 29.4397 110.626C28.1334 111.323 26.7867 111.671 25.4401 111.671ZM24.6321 60.7914C23.2989 60.7914 22.0195 61.1532 20.9961 61.85C19.8918 62.6138 18.9626 63.8064 18.1815 65.5082C18.1546 65.5886 18.1142 65.6556 18.0873 65.7226L18.0603 65.7896C17.0369 68.1078 16.5521 70.7074 16.6598 73.2802C16.6867 73.8296 16.8349 74.4326 16.9695 75.0088C17.1311 75.7458 17.3062 76.4962 17.2793 77.2064C17.2523 77.9702 16.8349 78.2114 16.4713 78.4258C16.3905 78.4794 16.2962 78.533 16.1885 78.6C13.8722 80.1276 12.2158 83.0086 11.2462 87.1626C9.98034 92.6566 14.0742 104.114 20.1611 108.737C22.5043 110.519 24.8475 111.122 27.1638 110.519C24.7667 109.862 23.1911 107.557 22.4639 105.279C21.6155 102.626 21.629 99.3164 23.3527 98.3784C24.0665 97.9898 24.7937 97.9228 25.5209 98.1774C27.2177 98.7536 28.3489 100.911 28.6317 101.501C28.7529 101.554 28.9145 101.554 29.0626 101.393C29.3454 101.072 29.4127 100.107 29.4397 99.5174C29.4531 99.3298 29.4666 99.1556 29.4801 99.0216C29.6417 97.3466 29.6821 95.5912 29.5878 93.7822C29.4397 91.4238 29.103 89.454 28.5374 87.7522C28.3085 87.0956 28.1199 86.5194 28.3893 86.0236C28.6317 85.5546 29.1838 85.3268 29.6955 85.1794C30.6517 84.8846 31.8098 84.9114 32.9275 85.2598C33.9106 85.568 34.8129 86.0638 35.6747 86.5462C36.1999 86.8276 36.7386 87.1224 37.2773 87.377C40.5901 88.8778 44.4819 88.784 47.9294 88.6902C49.6397 88.65 51.7809 88.5964 53.2757 87.4708C53.7335 87.1224 54.1241 86.6936 54.5281 86.2246C54.8917 85.836 55.2553 85.434 55.6727 85.0722C56.7501 84.1476 57.8139 84.1878 58.8509 84.2146C59.2953 84.228 59.7666 84.2414 60.2379 84.1744C61.5846 83.9734 63.2679 83.7322 64.453 82.754C66.4057 81.1728 66.3787 77.997 65.1263 76.0272C63.4699 73.441 60.3726 72.4896 58.6758 72.1546L58.2987 72.0876C57.0194 71.8464 55.5785 71.5784 54.7435 70.4528C53.9355 69.3406 54.0837 68.0006 54.2318 66.7142C54.3665 65.602 54.4877 64.5568 54.0029 63.726C53.3969 62.6674 52.0098 62.386 51.0133 62.453C50.0033 62.5334 49.0337 62.9086 48.0102 63.2972C47.7947 63.3776 47.5838 63.458 47.3773 63.5384C43.9702 64.798 40.2669 65.401 36.6309 65.2804C36.4154 65.2715 36.1999 65.2625 35.9845 65.2536C35.163 65.2134 34.3954 65.1866 33.6278 65.2804C33.2328 65.3251 32.8692 65.4055 32.537 65.5216C32.3215 65.5886 32.0926 65.5082 31.9849 65.3206C30.8267 63.4982 29.3185 62.1448 27.5947 61.3944C26.6386 60.9924 25.6286 60.7914 24.6321 60.7914Z" fill="#001527"/>
<path d="M43.2969 97.3868C43.3777 98.2846 44.0106 98.9412 44.684 98.8742C45.3708 98.8072 45.8556 98.03 45.7613 97.1456C45.6805 96.2612 45.0476 95.5912 44.3608 95.6582C43.6874 95.7252 43.2026 96.5024 43.2969 97.3868Z" fill="#001527"/>
<path d="M51.35 95.6047C51.4308 96.5025 52.0637 97.1591 52.7505 97.0921C53.4238 97.0251 53.9086 96.2479 53.8144 95.3635C53.7336 94.4791 53.1006 93.8091 52.4273 93.8761C51.7405 93.9565 51.2557 94.7203 51.35 95.6047Z" fill="#001527"/>
<path d="M45.4516 92.4824C45.4516 92.4824 43.2162 91.33 40.8999 93.6884Z" fill="white"/>
<path d="M40.8998 94.1574C40.7786 94.1574 40.6709 94.1038 40.5766 94.0234C40.3881 93.8358 40.3881 93.541 40.5631 93.3534C43.0949 90.7806 45.5593 92.0134 45.667 92.067C45.8959 92.1876 45.9902 92.469 45.869 92.6968C45.7478 92.9246 45.465 93.0184 45.2361 92.8978C45.1553 92.8576 43.2565 91.9464 41.2365 94.01C41.1422 94.1038 41.021 94.1574 40.8998 94.1574Z" fill="#001527"/>
<path d="M54.5012 91.397C54.5012 91.397 52.2657 90.2312 49.9495 92.5896Z" fill="white"/>
<path d="M49.9495 93.0587C49.8283 93.0587 49.7071 93.0185 49.6128 92.9247C49.4378 92.7505 49.4243 92.4557 49.6128 92.2681C52.1446 89.6953 54.609 90.9281 54.7167 90.9817C54.9456 91.1023 55.0264 91.3837 54.9052 91.6115C54.7975 91.8393 54.5147 91.9197 54.2858 91.8125C54.1915 91.7589 52.3062 90.8611 50.2862 92.9247C50.1919 93.0185 50.0707 93.0587 49.9495 93.0587Z" fill="#001527"/>
<path d="M49.5858 97.561C50.313 99.9194 51.0402 102.278 51.7674 104.636C51.8751 105.025 51.9963 105.44 51.929 105.829C51.8213 106.351 51.4038 106.767 50.919 106.981C50.4477 107.209 49.909 107.276 49.3838 107.343" fill="white"/>
<path d="M45.3439 110.961C46.9599 111.979 49.0068 112.288 50.8517 111.778Z" fill="white"/>
<path d="M49.0606 112.489C47.6601 112.489 46.2596 112.1 45.088 111.35C44.8725 111.216 44.8052 110.934 44.9398 110.706C45.088 110.492 45.3708 110.425 45.5862 110.572C47.0945 111.524 49.0202 111.805 50.7305 111.336C50.9864 111.269 51.2422 111.417 51.3096 111.658C51.3769 111.912 51.2288 112.167 50.9864 112.234C50.3534 112.408 49.707 112.489 49.0606 112.489Z" fill="#001527"/>
<path d="M23.0969 176.742C23.0969 176.742 30.0592 176.755 35.5805 169.398C41.4251 161.6 41.8291 153.077 39.9976 151.121C36.1192 146.98 27.4332 155.087 26.8137 155.905C26.2077 156.722 21.3597 159.764 21.3463 160.139C21.3328 160.514 20.242 166.316 20.2689 166.531C20.2824 166.745 23.0969 176.742 23.0969 176.742Z" fill="#001527"/>
<path d="M122.077 159.402C120.34 162.966 104.691 168.367 104.691 168.367C104.691 168.367 73.5161 195.354 57.4234 193.934C41.3308 192.513 14.963 166.732 14.963 166.732L28.5239 146.149L61.3288 171.1L97.581 151.121C97.581 151.121 102.644 137.681 106.092 139.583C109.445 141.433 107.102 145.466 106.967 145.707C107.358 145.319 120.461 131.651 122.131 134.438C123.787 137.225 114.738 146.94 114.482 147.221C114.751 146.994 119.006 147.101 118.4 150.88C118.4 150.88 122.858 152.166 120.07 155.985C120.07 155.985 123.626 156.24 122.077 159.402Z" fill="white" stroke="#001527" stroke-width="1.8" stroke-linecap="round" stroke-linejoin="round"/>
<path d="M120.07 155.985L115.909 158.183Z" fill="white"/>
<path d="M115.909 158.652C115.734 158.652 115.572 158.558 115.492 158.397C115.37 158.183 115.465 157.888 115.694 157.767L119.841 155.57C120.07 155.449 120.353 155.543 120.474 155.771C120.596 155.985 120.515 156.28 120.286 156.4L116.125 158.598C116.053 158.634 115.981 158.652 115.909 158.652Z" fill="#001527"/>
<path d="M7.23724 137.547C7.23724 137.547 2.59124 143.269 4.27458 152.019C6.60431 164.186 22.9932 176.997 22.9932 176.997C22.9932 176.997 21.6466 156.562 39.8939 151.376L24.4476 139.584" fill="#6ABF82"/>
<path d="M118.401 150.88L112.516 154.27Z" fill="white"/>
<path d="M112.516 154.725C112.354 154.725 112.192 154.645 112.112 154.498C111.977 154.27 112.058 153.988 112.287 153.854L118.158 150.478C118.387 150.357 118.67 150.424 118.805 150.652C118.939 150.866 118.858 151.161 118.629 151.282L112.745 154.672C112.673 154.708 112.596 154.725 112.516 154.725Z" fill="#001527"/>
<path d="M114.482 147.221L109.337 149.848Z" fill="white"/>
<path d="M109.337 150.317C109.176 150.317 109.014 150.223 108.92 150.062C108.812 149.834 108.893 149.553 109.122 149.446L114.266 146.806C114.495 146.685 114.778 146.779 114.899 147.007C115.02 147.235 114.926 147.516 114.697 147.637L109.553 150.263C109.49 150.299 109.418 150.317 109.337 150.317Z" fill="#001527"/>
<path d="M49.6399 97.2162C51.5178 100.961 54.0662 108.209 49.2375 107.246" stroke="#001527" stroke-width="1.8" stroke-linecap="round"/>
<path d="M45.2137 110.857C46.2868 111.526 48.9962 112.622 51.2496 111.659" stroke="#001527" stroke-width="1.8" stroke-linecap="round"/>
<path d="M40.7874 94.0071C41.3239 93.071 42.9603 91.4395 45.2136 92.4023M50.0423 92.4023C50.713 91.8679 52.6176 90.9592 54.871 91.6006" stroke="#001527" stroke-width="1.8" stroke-linecap="round"/>
</svg>
