<svg width="57" height="36" viewBox="0 0 57 36" fill="none" xmlns="http://www.w3.org/2000/svg">
<ellipse cx="28.2305" cy="27.707" rx="28" ry="8" fill="#E9FFE4"/>
<g filter="url(#filter0_f_2_493)">
<ellipse cx="28" cy="27" rx="14" ry="4" fill="url(#paint0_radial_2_493)" fill-opacity="0.55"/>
</g>
<path d="M28.0077 29C35.7373 29 42.0033 22.7339 42.0033 15.0043C42.0033 7.27469 35.7373 1.00861 28.0077 1.00861C20.2781 1.00861 14.0121 7.27469 14.0121 15.0043C14.0121 22.7339 20.2781 29 28.0077 29Z" fill="#C8CDED"/>
<path d="M40.3705 14.0715C40.3717 11.759 39.7992 9.48236 38.7044 7.44544C37.6095 5.40852 36.0266 3.67497 34.0972 2.40007C30.9008 0.851668 27.2353 0.576418 23.8435 1.63011C20.4518 2.68379 17.5875 4.9876 15.8311 8.07462C14.0747 11.1616 13.5577 14.801 14.3848 18.255C15.2119 21.709 17.3213 24.7194 20.2854 26.6761C22.4194 27.7058 24.7797 28.177 27.1455 28.0457C29.5112 27.9145 31.805 27.1849 33.8119 25.9255C35.8188 24.666 37.4733 22.9178 38.6204 20.8446C39.7675 18.7714 40.3697 16.441 40.3705 14.0715Z" fill="#E2E7F6"/>
<path d="M28.0077 24.3352C33.1608 24.3352 37.3381 20.1578 37.3381 15.0047C37.3381 9.85162 33.1608 5.67422 28.0077 5.67422C22.8547 5.67422 18.6773 9.85162 18.6773 15.0047C18.6773 20.1578 22.8547 24.3352 28.0077 24.3352Z" fill="#F7FAFD"/>
<path d="M20.5434 14.0715C22.3469 14.0715 23.809 12.6094 23.809 10.8058C23.809 9.00225 22.3469 7.54016 20.5434 7.54016C18.7398 7.54016 17.2777 9.00225 17.2777 10.8058C17.2777 12.6094 18.7398 14.0715 20.5434 14.0715Z" fill="#F6B940"/>
<path d="M23.1839 10.3944C23.184 9.91795 23.0797 9.44727 22.8782 9.01554C22.6767 8.58381 22.3829 8.20154 22.0176 7.8957C21.3032 7.53628 20.4818 7.45148 19.709 7.65737C18.9363 7.86326 18.266 8.34554 17.8252 9.01277C17.3843 9.67999 17.2037 10.4858 17.3174 11.2773C17.4311 12.0689 17.8313 12.7912 18.4421 13.3074C18.9399 13.561 19.4944 13.6826 20.0526 13.6604C20.6107 13.6382 21.1539 13.4729 21.6298 13.1805C22.1058 12.8881 22.4987 12.4783 22.7708 11.9905C23.0429 11.5026 23.1852 10.953 23.1839 10.3944Z" fill="#FAD85D"/>
<path d="M27.0747 9.40587C28.8782 9.40587 30.3403 7.94378 30.3403 6.1402C30.3403 4.33663 28.8782 2.87454 27.0747 2.87454C25.2711 2.87454 23.809 4.33663 23.809 6.1402C23.809 7.94378 25.2711 9.40587 27.0747 9.40587Z" fill="#B52F28"/>
<path d="M29.7445 5.81358C29.7448 5.28505 29.6165 4.76438 29.3709 4.29643C29.1252 3.82847 28.7694 3.42725 28.3342 3.12733C27.5899 2.81751 26.7572 2.79399 25.9966 3.0613C25.2359 3.32862 24.601 3.86788 24.2142 4.57526C23.8273 5.28264 23.7158 6.10813 23.9011 6.89281C24.0864 7.67748 24.5554 8.36588 25.2179 8.82545C25.7142 9.03294 26.2541 9.11461 26.7895 9.06321C27.325 9.01181 27.8395 8.82892 28.2873 8.53081C28.735 8.23269 29.1022 7.82858 29.3562 7.35438C29.6102 6.88018 29.7431 6.35058 29.7431 5.81264L29.7445 5.81358Z" fill="#D23F34"/>
<path d="M17.2777 17.8036H24.742V19.6697H17.2777V17.8036Z" fill="#4D8C28"/>
<path d="M17.2777 17.8036H23.809V18.7367H17.2777V17.8036Z" fill="#559B2D"/>
<path d="M20.0768 19.6696L18.2108 21.5357L20.0768 23.4018L23.809 19.6696H20.0768Z" fill="#4D8C28"/>
<path d="M19.6103 22.9352L22.876 19.6696H20.0768L18.2108 21.5357L19.6103 22.9352Z" fill="#559B2D"/>
<path d="M27.0747 7.54014C27.8476 7.54014 28.4742 6.91353 28.4742 6.14057C28.4742 5.36761 27.8476 4.741 27.0747 4.741C26.3017 4.741 25.6751 5.36761 25.6751 6.14057C25.6751 6.91353 26.3017 7.54014 27.0747 7.54014Z" fill="#A72B25"/>
<path d="M20.5434 12.2053C21.3164 12.2053 21.943 11.5787 21.943 10.8057C21.943 10.0327 21.3164 9.40613 20.5434 9.40613C19.7705 9.40613 19.1439 10.0327 19.1439 10.8057C19.1439 11.5787 19.7705 12.2053 20.5434 12.2053Z" fill="#F6B940"/>
<path d="M27.1796 25.7346H29.9979C31.0152 25.7339 32.0192 25.5026 32.9343 25.0582C33.8495 24.6138 34.652 23.9678 35.2817 23.1688C35.5821 22.7876 35.8532 22.4223 36.0823 22.1102L38.4457 18.9173C39.3913 17.642 39.814 16.0536 39.6273 14.477C39.4388 12.9448 38.6949 11.5351 37.5366 10.5146C36.3783 9.49414 34.8861 8.93384 33.3424 8.93981H32.9575C32.5715 8.93978 32.1893 9.01578 31.8327 9.16346C31.4761 9.31115 31.1521 9.52763 30.8791 9.80054L30.7602 9.9195C30.4839 10.1958 30.1417 10.3971 29.766 10.5045C28.9673 10.7327 28.2532 11.1907 27.7126 11.8215C27.1721 12.4523 26.8289 13.2281 26.7257 14.0524C26.6479 14.6806 26.7117 15.3182 26.9123 15.9185L26.9426 16.009C27.131 16.5744 27.1981 17.1731 27.1394 17.7661C27.0807 18.3591 26.8976 18.9331 26.6021 19.4506L25.6751 21.0694L25.0784 22.114C24.9151 22.3997 24.8117 22.7157 24.7747 23.0427C24.7377 23.3698 24.7678 23.7009 24.8632 24.0159C24.9586 24.3309 25.1172 24.6231 25.3294 24.8747C25.5416 25.1262 25.8029 25.3319 26.0973 25.479C26.4333 25.6473 26.8039 25.7348 27.1796 25.7346Z" fill="#F3A748"/>
<path d="M37.0708 10.1457C35.9863 9.3604 34.6813 8.93827 33.3423 8.93976H32.9574C32.5715 8.93973 32.1893 9.01573 31.8327 9.16342C31.4761 9.3111 31.152 9.52758 30.8791 9.8005L30.7601 9.91946C30.4838 10.1957 30.1417 10.3971 29.766 10.5045C29.2163 10.6615 28.7041 10.9283 28.2602 11.2885C27.8164 11.6488 27.45 12.0952 27.1832 12.6009C26.9165 13.1065 26.7548 13.6609 26.708 14.2306C26.6612 14.8004 26.7302 15.3738 26.9109 15.9162L26.9412 16.0067C27.1296 16.572 27.1966 17.1707 27.1379 17.7637C27.0793 18.3568 26.8962 18.9307 26.6006 19.4482L25.6751 21.0694L25.0784 22.1139C24.9008 22.4242 24.7946 22.7702 24.7672 23.1267C24.7398 23.4831 24.7921 23.8412 24.9202 24.175C25.1947 24.2803 25.4861 24.3345 25.78 24.335H28.5983C29.6156 24.3343 30.6196 24.103 31.5347 23.6586C32.4498 23.2142 33.2524 22.5682 33.8821 21.7692C34.1825 21.388 34.4536 21.0227 34.6826 20.7106L37.046 17.5177C37.8376 16.4531 38.2671 15.1629 38.2716 13.8363C38.276 12.5096 37.8552 11.2165 37.0708 10.1467V10.1457Z" fill="#F6B940"/>
<path d="M31.7903 9.18314L39.4506 16.8435C39.5503 16.476 39.616 16.1001 39.647 15.7205L32.8703 8.94382C32.4984 8.95461 32.1319 9.03581 31.7903 9.18314Z" fill="#D5883E"/>
<path d="M30.401 10.2067C30.2061 10.3371 29.9924 10.437 29.7674 10.5029C29.6695 10.5309 29.578 10.5729 29.4828 10.6074L38.1676 19.2927L38.4475 18.9195C38.5408 18.7902 38.6295 18.6559 38.7144 18.5206L30.401 10.2067Z" fill="#D5883E"/>
<path d="M27.3947 12.2519L36.58 21.4373L37.1399 20.6792L27.9961 11.5354C27.7699 11.7514 27.5682 11.9917 27.3947 12.2519Z" fill="#D5883E"/>
<path d="M26.7015 14.4378C26.6834 14.9393 26.7548 15.4399 26.9123 15.9162L26.9385 15.9942L34.7294 23.7851C34.9259 23.5912 35.1104 23.3853 35.2817 23.1688C35.3046 23.1394 35.3242 23.1128 35.347 23.0839L26.7015 14.4378Z" fill="#D5883E"/>
<path d="M32.4657 25.2543C32.7722 25.1328 33.0694 24.989 33.3549 24.8241L27.0018 18.471C26.913 18.798 26.7852 19.1132 26.6212 19.4097L32.4657 25.2543Z" fill="#D5883E"/>
<path d="M25.7456 20.9466L25.6751 21.0693L25.2655 21.7859L29.2141 25.7346H29.9979C30.1682 25.7346 30.3361 25.7182 30.5045 25.7056L25.7456 20.9466Z" fill="#D5883E"/>
<path d="M16.3447 15.9377H23.809V17.8038H16.3447V15.9377Z" fill="#4D8C28"/>
<path d="M16.3447 15.9377H22.876V16.8707H16.3447V15.9377Z" fill="#559B2D"/>
<path d="M31.7903 9.18311L38.0511 15.4439C38.1508 15.0764 38.2165 14.7005 38.2475 14.3209L32.8703 8.94379C32.4984 8.95457 32.132 9.03578 31.7903 9.18311Z" fill="#F3A748"/>
<path d="M30.401 10.2072C30.2061 10.3375 29.9924 10.4374 29.7674 10.5034C29.6695 10.5314 29.578 10.5734 29.4828 10.6079L36.768 17.8936L37.048 17.5204C37.1413 17.3911 37.2299 17.2568 37.3148 17.1215L30.401 10.2072Z" fill="#F3A748"/>
<path d="M35.7417 19.2801L27.9974 11.5359C27.771 11.7522 27.5692 11.9928 27.3956 12.2534L35.1805 20.0382L35.7417 19.2801Z" fill="#F3A748"/>
<path d="M26.7015 14.4378C26.6834 14.9392 26.7548 15.4399 26.9123 15.9162L26.9385 15.9941L33.3298 22.3855C33.5263 22.1916 33.7108 21.9857 33.8822 21.7692C33.905 21.7398 33.9246 21.7132 33.9475 21.6843L26.7015 14.4378Z" fill="#F3A748"/>
<path d="M26.6212 19.4096L31.0662 23.8547C31.3727 23.7332 31.6699 23.5894 31.9554 23.4245L27.0018 18.471C26.913 18.798 26.7852 19.1131 26.6212 19.4096Z" fill="#F3A748"/>
<path d="M26.6212 19.4096L31.0662 23.8547C31.3727 23.7332 31.6699 23.5894 31.9554 23.4245L27.0018 18.471C26.913 18.798 26.7852 19.1131 26.6212 19.4096Z" fill="#F3A748"/>
<path d="M25.7456 20.9466L25.6751 21.0693L25.2655 21.7859L27.8146 24.335H28.5983C28.7686 24.335 28.9366 24.3186 29.105 24.306L25.7456 20.9466Z" fill="#F3A748"/>
<defs>
<filter id="filter0_f_2_493" x="10.5" y="19.5" width="35" height="15" filterUnits="userSpaceOnUse" color-interpolation-filters="sRGB">
<feFlood flood-opacity="0" result="BackgroundImageFix"/>
<feBlend mode="normal" in="SourceGraphic" in2="BackgroundImageFix" result="shape"/>
<feGaussianBlur stdDeviation="1.75" result="effect1_foregroundBlur_2_493"/>
</filter>
<radialGradient id="paint0_radial_2_493" cx="0" cy="0" r="1" gradientUnits="userSpaceOnUse" gradientTransform="translate(28 27) scale(14 4)">
<stop/>
<stop offset="1" stop-opacity="0"/>
</radialGradient>
</defs>
</svg>
