<svg width="255" height="163" viewBox="0 0 255 163" fill="none" xmlns="http://www.w3.org/2000/svg">
<path d="M52.2375 48.3247C54.6152 48.3247 56.7582 46.9333 57.8636 44.8282C71.0839 19.6504 97.484 2.47705 127.895 2.47705C158.306 2.47705 184.707 19.6504 197.927 44.8282C199.032 46.9333 201.175 48.3247 203.553 48.3247H245.895C249.267 48.3247 252 51.0578 252 54.4292V108.62C252 111.992 249.267 114.725 245.895 114.725H203.553C201.175 114.725 199.032 116.116 197.927 118.221C184.707 143.399 158.306 160.572 127.895 160.572C97.484 160.572 71.0839 143.399 57.8636 118.221C56.7582 116.116 54.6152 114.725 52.2375 114.725H9.10453C5.73309 114.725 3 111.992 3 108.62V54.4292C3 51.0578 5.73309 48.3247 9.10453 48.3247H52.2375Z" stroke="url(#paint0_linear_1_22722)" stroke-width="4.5784"/>
<circle cx="127.894" cy="81.5232" r="63.2381" fill="#0E8312" fill-opacity="0.1"/>
<circle opacity="0.3" cx="7.90476" cy="7.90476" r="7.90476" transform="matrix(1 0 0 -1 89.9531 125.79)" fill="#4DC951"/>
<circle opacity="0.8" cx="7.90476" cy="7.90476" r="7.90476" transform="matrix(1 0 0 -1 150.819 125.79)" fill="#2FA933"/>
<circle opacity="0.6" cx="7.90476" cy="7.90476" r="7.90476" transform="matrix(1 0 0 -1 119.989 136.856)" fill="#3EB942"/>
<path fill-rule="evenodd" clip-rule="evenodd" d="M171.949 74.11C171.916 74.1172 171.884 74.1244 171.853 74.1315L171.949 74.11Z" fill="#1A1C1A"/>
<path fill-rule="evenodd" clip-rule="evenodd" d="M206.869 79.086L206.875 79.0737C206.816 79.0295 206.714 78.961 206.533 78.898C206.035 78.7249 205.205 78.6154 203.979 78.6154C201.059 78.6154 198.813 79.8723 197.173 82.4682C196.459 83.6067 196.127 84.7052 196.127 85.773C196.127 88.0963 197.189 90.358 199.471 92.5692L204.311 97.2568C204.568 97.5056 204.618 97.8994 204.431 98.2042L204.264 98.4762C204.077 98.7811 203.703 98.9159 203.367 98.793C200.281 97.6633 197.406 96.079 194.745 94.0428C190.953 91.1463 188.905 87.9204 188.905 84.3557C188.905 82.178 189.456 80.2412 190.583 78.5768C191.706 76.9178 193.368 75.5758 195.519 74.5295C197.418 73.6092 199.389 73.1439 201.422 73.1439C203.87 73.1439 206.295 73.8317 208.687 75.1741L209.165 75.4512C209.625 75.7273 209.983 75.9351 210.239 76.0765C210.273 76.0952 210.305 76.1118 210.335 76.1272C210.352 76.1361 210.368 76.1446 210.384 76.1529C211.707 75.5804 213.148 74.9675 214.707 74.3165C215.112 74.1477 215.52 74.0019 215.931 73.8794C216.506 73.7081 216.933 73.2025 216.942 72.603C216.952 71.8902 216.377 71.3066 215.665 71.3066H173.309C172.466 71.3066 171.783 71.9899 171.783 72.8328V74.0751C171.783 74.1122 171.817 74.1396 171.853 74.1315L171.949 74.11C172.655 73.9528 173.723 73.7497 175.158 73.4897C176.222 73.2963 177.279 73.1994 178.329 73.1994C182.602 73.1994 185.673 74.3975 187.063 77.131C187.525 78.0318 187.838 79.3146 188.041 80.9143C188.246 82.5292 188.346 84.5314 188.346 86.9123V97.6515C188.346 98.186 187.811 98.5545 187.313 98.3591C185.807 97.7678 184.314 97.1469 182.818 96.5289C182.533 96.4109 182.346 96.1305 182.346 95.8214C181.712 96.177 181.161 96.4677 180.694 96.6875C178.569 97.6907 176.125 98.1797 173.382 98.1797C169.554 98.1797 166.499 96.9664 164.336 94.4605C163.259 93.2166 162.698 91.7949 162.698 90.2194C162.698 88.4004 163.601 86.6827 165.209 85.0751C168.311 81.9731 172.174 80.4249 176.745 80.4249C178.899 80.4249 180.777 80.8144 182.346 81.6245V80.7738C181.637 79.9118 180.992 79.3873 180.421 79.1288C179.819 78.8499 178.904 78.6911 177.628 78.7266C174.734 78.7805 172.094 79.3102 169.713 80.3052C168.589 80.7738 167.49 81.1961 166.418 81.572L166.382 81.5847C165.886 81.7591 165.366 81.3908 165.366 80.8648V78.7572C165.366 78.5327 165.465 78.3197 165.636 78.1739C165.946 77.9091 166.255 77.6419 166.561 77.3726V72.8328C166.561 71.9899 165.878 71.3066 165.035 71.3066H118.896C118.053 71.3066 117.37 71.9899 117.37 72.8328V73.193C117.37 73.6822 117.823 74.0453 118.303 73.948C119.115 73.7832 119.93 73.6374 120.745 73.4897C121.809 73.2963 122.866 73.1994 123.916 73.1994C128.189 73.1994 131.26 74.3975 132.65 77.131C133.111 78.0318 133.425 79.3146 133.628 80.9143C133.832 82.5292 133.932 84.5314 133.932 86.9123V97.6515C133.932 98.186 133.397 98.5549 132.898 98.3646L132.86 98.3503C132.458 98.1969 130.971 97.5884 128.422 96.5355L128.405 96.5287C128.119 96.4109 127.933 96.1305 127.933 95.8214C127.299 96.177 126.748 96.4677 126.281 96.6875C124.156 97.6907 121.712 98.1797 118.969 98.1797C115.141 98.1797 112.086 96.9664 109.923 94.4605C108.845 93.2166 108.285 91.7949 108.285 90.2194C108.285 88.4004 109.188 86.6827 110.796 85.0751C113.898 81.9731 117.761 80.4249 122.332 80.4249C124.143 80.4249 125.759 80.7003 127.16 81.2695C127.52 81.4156 127.933 81.162 127.933 80.7738C127.224 79.9118 126.579 79.3873 126.008 79.1288C125.406 78.8499 124.491 78.6911 123.215 78.7266C120.321 78.7805 117.681 79.3102 115.3 80.3052C114.201 80.7631 113.088 81.1802 111.968 81.5818C111.473 81.7594 110.953 81.3908 110.953 80.8648V78.7572C110.953 78.5327 111.052 78.3197 111.223 78.1739C111.533 77.9091 111.841 77.6419 112.148 77.3726V72.8328C112.148 71.9899 111.465 71.3066 110.622 71.3066H88.1041C87.2613 71.3066 86.578 71.9899 86.578 72.8328V76.9465C88.1445 75.4608 89.6603 74.4236 91.1294 73.8865C92.1933 73.4978 93.3717 73.3106 94.6526 73.3106C97.0485 73.3106 99.1791 73.9016 101.013 75.1077C102.843 76.311 104.333 78.0965 105.502 80.4149L105.689 80.797C106.595 82.7082 107.059 84.6192 107.059 86.5233C107.059 90.2143 105.532 93.522 102.57 96.4251C101.624 97.3528 100.89 98.0228 100.384 98.4074C100.127 98.6029 99.7766 98.6224 99.4995 98.4568L94.9419 95.7333C94.5066 95.4731 94.4253 94.8761 94.7753 94.5091C95.908 93.3216 97.2022 91.8537 98.6582 90.1028C100.171 88.2846 100.959 85.97 100.976 83.1005C100.994 81.4294 100.615 80.0948 99.8941 79.0531L99.8879 79.0439C99.0963 77.8642 98.0186 77.3059 96.5601 77.3371C95.1551 77.3699 93.5915 77.9024 91.8566 79.0176C90.3016 80.0072 89.0191 81.1863 88.0061 82.5485C86.9064 84.0148 86.4113 85.3554 86.4113 86.5789V96.3841C86.4113 97.537 85.1821 98.2736 84.1655 97.7299L80.44 95.7378C79.9435 95.4723 79.6335 94.955 79.6335 94.392V72.8328C79.6335 71.9899 78.9503 71.3066 78.1074 71.3066H61.5923C60.7494 71.3066 60.0662 71.9899 60.0662 72.8328V74.1474L60.1353 74.1318C60.1919 74.119 60.2506 74.1057 60.3116 74.0926C61.0146 73.9416 62.0599 73.7401 63.4419 73.4897C64.5058 73.2963 65.5629 73.1994 66.6123 73.1994C70.8859 73.1994 73.9569 74.3975 75.3469 77.131C75.808 78.0318 76.1213 79.3146 76.3242 80.9143C76.529 82.5292 76.6291 84.5314 76.6291 86.9123V97.6515C76.6291 98.186 76.0939 98.5549 75.5945 98.3646L75.5569 98.3503C75.1542 98.1969 73.6674 97.5884 71.1182 96.5355L71.1017 96.5287C70.816 96.4109 70.6295 96.1305 70.6295 95.8214C69.9956 96.177 69.4448 96.4677 68.9776 96.6875C66.8527 97.6907 64.4084 98.1797 61.6656 98.1797C57.8376 98.1797 54.7829 96.9664 52.6199 94.4605C51.542 93.2166 50.9819 91.7949 50.9819 90.2194C50.9819 88.4004 51.8846 86.6827 53.4922 85.0751C56.5942 81.9731 60.4578 80.4249 65.0283 80.4249C66.9003 80.4249 68.5639 80.7191 69.9976 81.328C70.2909 81.4525 70.6295 81.2449 70.6295 80.9263C70.6295 80.8277 70.5954 80.7318 70.5317 80.6565C69.8608 79.864 69.2493 79.3754 68.7043 79.1288C68.1023 78.8499 67.1877 78.6911 65.9114 78.7266C63.0174 78.7805 60.3777 79.3102 57.9966 80.3052C56.8721 80.7738 55.7732 81.1961 54.7019 81.572L54.6658 81.5847C54.1695 81.7591 53.6497 81.3908 53.6497 80.8648V78.7572C53.6497 78.5327 53.7487 78.3197 53.9195 78.1739C54.2298 77.9091 54.5381 77.6419 54.8447 77.3726V72.8328C54.8447 71.9899 54.1614 71.3066 53.3186 71.3066H34.5247C33.6818 71.3066 32.9985 71.9899 32.9985 72.8328V74.1474L33.0688 74.1315C33.1246 74.1189 33.184 74.1055 33.244 74.0926C33.947 73.9416 34.9922 73.7401 36.3743 73.4897C37.4382 73.2963 38.4952 73.1994 39.5447 73.1994C43.8183 73.1994 46.8892 74.3975 48.2793 77.131C48.7404 78.0318 49.0536 79.3146 49.2566 80.9143C49.4614 82.5292 49.5615 84.5314 49.5615 86.9123V97.6515C49.5615 98.186 49.0263 98.5549 48.5268 98.3646L48.4892 98.3503C48.0866 98.1969 46.5997 97.5884 44.0505 96.5355L44.0341 96.5287C43.7483 96.4109 43.5619 96.1305 43.5619 95.8214C42.928 96.177 42.3772 96.4677 41.9099 96.6875C39.785 97.6907 37.3407 98.1797 34.598 98.1797C30.7699 98.1797 27.7152 96.9664 25.5523 94.4605C24.4744 93.2166 23.9142 91.7949 23.9142 90.2194C23.9142 88.4004 24.817 86.6827 26.4246 85.0751C29.5266 81.9731 33.3902 80.4249 37.9606 80.4249C39.8326 80.4249 41.4962 80.7191 42.93 81.328C43.2232 81.4525 43.5619 81.2449 43.5619 80.9263C43.5619 80.8277 43.5277 80.7318 43.464 80.6565C42.7932 79.864 42.1817 79.3754 41.6366 79.1288C41.0347 78.8499 40.1201 78.6911 38.8437 78.7266C35.9498 78.7805 33.31 79.3102 30.9289 80.3052C29.8044 80.7738 28.7056 81.1961 27.6343 81.572C27.1203 81.7526 26.5821 81.3713 26.5821 80.8265V79.1112C26.5821 78.6622 26.7804 78.2365 27.1207 77.9435C27.3404 77.7543 27.5591 77.564 27.7771 77.3726V72.8328C27.7771 71.9899 27.0938 71.3066 26.2509 71.3066H22.8431C22.4217 71.3066 22.0801 70.965 22.0801 70.5436V67.1539C22.0801 66.7325 22.4217 66.3908 22.8431 66.3908H78.055C78.9136 66.3908 79.608 65.6816 79.5375 64.8259C79.1841 60.5381 77.8438 56.8377 75.5353 53.6992C73.8547 51.4159 72.3462 49.8713 71.0155 49.0011L70.9395 48.9514C70.3079 48.5385 70.595 47.5572 71.3496 47.5498L77.0537 47.4935L77.0596 47.4935C77.1908 47.492 77.3203 47.5244 77.4353 47.5876L77.4412 47.5908C80.817 49.4395 83.3761 53.3514 85.2333 59.0728L85.3954 59.5892C85.9439 61.3888 86.302 63.1655 86.4685 64.9185C86.5462 65.7377 87.2161 66.3908 88.0389 66.3908H231.034C231.877 66.3908 232.56 67.0741 232.56 67.917V69.7805C232.56 70.6233 231.877 71.3066 231.034 71.3066H224.94C224.093 71.3066 223.41 71.9992 223.423 72.8455C223.431 73.4592 223.812 74.0015 224.369 74.2588C226.12 75.0672 227.51 76.0634 228.496 77.2684L228.736 77.5764C230.016 79.3108 230.615 81.5987 230.615 84.3557C230.615 88.4151 228.976 91.9026 225.767 94.7816C225.156 95.3327 224.246 96.0306 223.053 96.869C222.313 97.3936 221.69 97.7998 221.192 98.0786C220.943 98.218 220.711 98.3341 220.502 98.4167C220.308 98.4931 220.066 98.5688 219.82 98.5688C219.553 98.5688 219.329 98.4509 219.226 98.3943C219.088 98.3184 218.941 98.2179 218.791 98.1056C218.489 97.8792 218.108 97.5536 217.654 97.1399C216.743 96.3092 215.487 95.0734 213.891 93.44L213.849 93.397C213.391 92.9285 213.697 92.1386 214.352 92.1017L214.411 92.0983C216.236 91.995 218.171 91.408 220.223 90.302L220.588 90.1028C222.376 89.1057 223.895 87.9109 225.153 86.521C226.568 84.9677 227.227 83.3787 227.227 81.7434C227.227 80.9728 227.017 80.3678 226.629 79.8814C226.233 79.3853 225.604 78.9538 224.671 78.6262C223.757 78.3047 222.865 78.1642 221.99 78.197C219.143 78.3113 216.918 79.1909 215.243 80.7815C213.423 82.5105 212.513 84.8019 211.916 87.1746C211.682 88.1047 210.689 88.642 209.802 88.2784L205.387 86.4692C204.814 86.2344 204.428 85.6749 204.49 85.0587C204.675 83.2105 205.356 81.5228 206.366 79.9069C206.587 79.5577 206.752 79.2885 206.86 79.1018C206.864 79.0956 206.865 79.0921 206.869 79.086ZM26.5944 92.1091C26.9835 93.4616 28.512 94.1378 31.1798 94.1378C34.6258 94.1378 37.7754 93.2763 40.6285 91.5533C43.1111 90.0526 44.3524 88.904 44.3524 88.1073C44.3524 87.2922 43.3797 86.5603 41.4344 85.9119C39.8226 85.3746 38.4794 85.106 37.4048 85.106C33.4957 85.106 30.3646 86.514 28.0117 89.3301C27.0669 90.4602 26.5944 91.3866 26.5944 92.1091ZM53.6621 92.1091C54.0511 93.4616 55.5796 94.1378 58.2475 94.1378C61.6934 94.1378 64.843 93.2763 67.6961 91.5533C70.1787 90.0526 71.42 88.904 71.42 88.1073C71.42 87.2922 70.4473 86.5603 68.502 85.9119C66.8902 85.3746 65.547 85.106 64.4725 85.106C60.5633 85.106 57.4323 86.514 55.0794 89.3301C54.1345 90.4602 53.6621 91.3866 53.6621 92.1091ZM110.965 92.1091C111.354 93.4616 112.883 94.1378 115.551 94.1378C118.997 94.1378 122.146 93.2763 124.999 91.5533C127.482 90.0526 128.723 88.904 128.723 88.1073C128.723 87.2922 127.751 86.5603 125.805 85.9119C124.194 85.3746 122.85 85.106 121.776 85.106C117.867 85.106 114.736 86.514 112.383 89.3301C111.438 90.4602 110.965 91.3866 110.965 92.1091ZM180.219 85.9119C182.164 86.5603 183.137 87.2922 183.137 88.1073C183.137 88.904 181.895 90.0526 179.413 91.5533C176.56 93.2763 173.41 94.1378 169.964 94.1378C167.296 94.1378 165.768 93.4616 165.379 92.1091C165.379 91.3866 165.851 90.4602 166.796 89.3301C169.149 86.514 172.28 85.106 176.189 85.106C177.264 85.106 178.607 85.3746 180.219 85.9119Z" fill="#1A1C1A"/>
<path fill-rule="evenodd" clip-rule="evenodd" d="M148.278 73.8826C146.961 74.3408 145.838 74.8023 144.931 75.2731C144.685 75.4013 144.382 75.2259 144.382 74.9478C144.382 74.5501 144.059 74.2277 143.661 74.2277H138.935C138.093 74.2277 137.409 74.911 137.409 75.7538V95.1364C137.409 95.7054 137.726 96.2271 138.23 96.49L142.095 98.5028C143.111 99.032 144.326 98.2949 144.326 97.1493V86.5789C144.326 83.5039 145.827 80.6324 149.019 77.9577C150.574 76.6495 151.928 76.0865 153.095 76.0865C153.618 76.0865 154.177 76.2404 154.784 76.5914L154.792 76.5968L154.801 76.6014C155.496 76.9802 155.612 77.304 155.612 77.5193C155.612 78.367 155.162 79.213 153.995 80.0466C152.968 80.7872 151.906 81.1921 150.803 81.2895L150.748 81.2943C150.125 81.3492 149.829 82.09 150.243 82.5592L154.462 87.3396C154.686 87.5938 155.052 87.6712 155.354 87.5167C156.759 86.7969 158.009 85.8931 159.114 84.7331C160.473 83.316 161.306 81.8951 161.306 80.4928C161.306 79.0062 160.77 77.6796 159.738 76.5428L159.548 76.3382C157.567 74.2586 155.144 73.1994 152.317 73.1994C151.105 73.1994 149.922 73.3741 148.769 73.7228L148.278 73.8826Z" fill="#1A1C1A"/>
<defs>
<linearGradient id="paint0_linear_1_22722" x1="252" y1="81.5247" x2="3" y2="81.5247" gradientUnits="userSpaceOnUse">
<stop stop-color="#2FA933"/>
<stop offset="1" stop-color="#4DC951"/>
</linearGradient>
</defs>
</svg>
