<svg width="125" height="32" viewBox="0 0 125 32" fill="none" xmlns="http://www.w3.org/2000/svg">
<g clip-path="url(#clip0_153_168)">
<mask id="mask0_153_168" style="mask-type:luminance" maskUnits="userSpaceOnUse" x="0" y="0" width="125" height="32">
<path d="M125 9.15527e-05H0V31.4354H125V9.15527e-05Z" fill="white"/>
</mask>
<g mask="url(#mask0_153_168)">
<path d="M13.4804 31.4352C20.8946 31.4352 26.9404 25.2444 26.9404 17.6314C26.9404 10.0392 20.8946 3.84836 13.4804 3.84836C6.04575 3.84836 0 10.0392 0 17.6314C0 25.2444 6.04575 31.4352 13.4804 31.4352Z" fill="#F19521"/>
<path d="M3.77856 27.2522C1.79735 25.1607 0.449312 22.3999 0.081665 19.3673C1.06206 19.2 2.10372 18.8444 3.67644 16.8366L10.1715 4.99866C8.55797 12.1934 3.39049 20.2248 3.77856 27.2522Z" fill="white"/>
<path d="M17.8717 0.0836792C15.9926 5.04054 5.26956 30.8705 17.9534 26.2901C4.18704 32.711 7.20992 23.4248 9.15028 17.736C12.4183 8.51244 15.1143 6.48368 17.8717 0.0836792Z" fill="white" stroke="#231F20" stroke-width="0.522876"/>
<path d="M2.69611 21.6888C8.23124 19.9946 36.4379 17.171 26.777 8.90961C38.5008 18.7188 29.0441 20.0364 23.2026 20.7893C13.6438 21.877 9.53843 21.396 2.69611 21.6888Z" stroke="#231F20" stroke-width="0.522876"/>
<path d="M42.116 16.7739H40.5024V5.68895H35.9477V4.3713H46.5686V5.68895H42.0956V16.7739H42.116ZM48.7949 10.604C48.7949 9.41182 49.1626 8.6798 49.8979 8.44973C50.6332 8.21967 51.5523 8.09418 52.6552 8.09418C54.0032 8.09418 55.0449 8.2615 55.7802 8.59614C56.5155 8.93078 56.8831 9.78829 56.8831 11.1478V16.7948H55.5147L55.5964 15.8955C55.1879 16.3556 54.6977 16.6484 54.1258 16.753C53.5539 16.8576 52.9412 16.9203 52.308 16.9203C51.1029 16.9203 50.1634 16.753 49.4894 16.4393C48.7949 16.1255 48.4681 15.3726 48.4681 14.1804C48.4681 13.0301 48.8358 12.2981 49.5506 12.0053C50.2655 11.7125 51.1846 11.5661 52.2876 11.5661C52.451 11.5661 52.6348 11.5661 52.7982 11.5661C52.982 11.5661 53.1454 11.587 53.3088 11.587C53.5539 11.6079 53.7786 11.6497 54.0237 11.6706C54.2483 11.7125 54.473 11.7543 54.6977 11.838C54.8611 11.8798 54.9836 11.9635 55.1062 12.068C55.2083 12.1726 55.3104 12.2981 55.3921 12.4236V11.3778C55.3921 10.3112 55.2287 9.64189 54.9019 9.39091C54.5751 9.13993 53.799 8.99352 52.5939 8.99352C52.4714 8.99352 52.3488 8.99352 52.1854 8.99352C52.0425 8.99352 51.8995 9.01444 51.7565 9.01444C51.5727 9.03535 51.3684 9.05627 51.1846 9.0981C51.0008 9.13993 50.8374 9.22359 50.7148 9.30725C50.5719 9.39091 50.4698 9.49548 50.4085 9.64189C50.3472 9.76738 50.3268 9.91378 50.3064 10.0602C50.2859 10.102 50.2859 10.1438 50.2859 10.1857V10.4367C50.2859 10.4785 50.2859 10.5203 50.3064 10.5831L48.7949 10.604ZM50.4902 15.519C50.8374 15.77 51.4093 15.8746 52.2263 15.8746H52.6756C52.8186 15.8746 52.982 15.8746 53.1454 15.8537C53.7173 15.8327 54.2688 15.7072 54.759 15.519C55.2492 15.3099 55.4943 14.8916 55.4943 14.2432C55.4943 13.4693 55.2287 12.9883 54.6977 12.8001C54.1666 12.6327 53.5335 12.5491 52.7778 12.5491H52.0425C51.8995 12.5491 51.7565 12.5491 51.6135 12.57C51.3684 12.5909 51.1438 12.6327 50.9191 12.6955C50.6944 12.7582 50.5106 12.8419 50.3472 12.9674C50.2451 13.051 50.1634 13.1347 50.1021 13.2602C50.0408 13.3857 50.0204 13.5112 50 13.6576C49.9796 13.7203 49.9796 13.7831 49.9796 13.8458V14.034C49.9591 14.787 50.143 15.268 50.4902 15.519ZM65.482 9.11901H61.7238V14.4523C61.7238 14.9543 61.8055 15.2889 61.9689 15.4981C62.1323 15.7072 62.5204 15.8118 63.0923 15.8118C63.7459 15.8118 64.134 15.6654 64.2769 15.3726C64.4199 15.0798 64.4812 14.7242 64.4812 14.2641V13.6785H65.8701C65.8701 14.5778 65.7271 15.3308 65.4207 15.9582C65.1144 16.5648 64.3382 16.8785 63.0923 16.8785C62.0098 16.8785 61.2541 16.7112 60.8456 16.3556C60.4371 16.0001 60.2328 15.3726 60.2328 14.4523V9.11901H58.9665V8.07326H60.2328V5.96084H61.7238V8.07326H65.482V9.11901ZM71.9567 16.7739H69.9142L66.6666 8.09418H68.1577L70.9559 15.7909L73.6315 8.09418H75.2246L71.9567 16.7739ZM77.308 10.604C77.308 9.41182 77.6756 8.6798 78.4109 8.44973C79.1462 8.21967 80.0653 8.09418 81.1683 8.09418C82.5163 8.09418 83.558 8.2615 84.2933 8.59614C85.0286 8.93078 85.3962 9.78829 85.3962 11.1478V16.7948H84.0278L84.1095 15.8955C83.701 16.3556 83.2108 16.6484 82.6389 16.753C82.067 16.8576 81.4542 16.9203 80.8211 16.9203C79.616 16.9203 78.6764 16.753 78.0024 16.4393C77.308 16.1255 76.9812 15.3726 76.9812 14.1804C76.9812 13.0301 77.3488 12.2981 78.0637 12.0053C78.7786 11.7125 79.6977 11.5661 80.8006 11.5661C80.964 11.5661 81.1479 11.5661 81.3113 11.5661C81.4951 11.5661 81.6585 11.587 81.8219 11.587C82.067 11.6079 82.2916 11.6497 82.5367 11.6706C82.7614 11.7125 82.9861 11.7543 83.2108 11.838C83.3742 11.8798 83.4967 11.9635 83.6193 12.068C83.7214 12.1726 83.8235 12.2981 83.9052 12.4236V11.3778C83.9052 10.3112 83.7418 9.64189 83.415 9.39091C83.0882 9.13993 82.3121 8.99352 81.107 8.99352C80.9845 8.99352 80.8619 8.99352 80.6985 8.99352C80.5555 8.99352 80.4126 9.01444 80.2696 9.01444C80.0858 9.03535 79.8815 9.05627 79.6977 9.0981C79.5139 9.13993 79.3505 9.22359 79.2279 9.30725C79.0849 9.39091 78.9828 9.49548 78.9215 9.64189C78.8603 9.76738 78.8398 9.91378 78.8194 10.0602C78.799 10.102 78.799 10.1438 78.799 10.1857V10.4367C78.799 10.4785 78.799 10.5203 78.8194 10.5831L77.308 10.604ZM78.9828 15.519C79.33 15.77 79.9019 15.8746 80.7189 15.8746H81.1683C81.3113 15.8746 81.4747 15.8746 81.6381 15.8537C82.2099 15.8327 82.7614 15.7072 83.2516 15.519C83.7418 15.3099 83.9869 14.8916 83.9869 14.2432C83.9869 13.4693 83.7214 12.9883 83.1903 12.8001C82.6593 12.6327 82.0261 12.5491 81.2704 12.5491H80.5351C80.3921 12.5491 80.2492 12.5491 80.1062 12.57C79.8611 12.5909 79.6364 12.6327 79.4117 12.6955C79.1871 12.7582 79.0032 12.8419 78.8398 12.9674C78.7377 13.051 78.656 13.1347 78.5947 13.2602C78.5335 13.3857 78.513 13.5112 78.4926 13.6576C78.4722 13.7203 78.4722 13.7831 78.4722 13.8458V14.034C78.4722 14.787 78.6356 15.268 78.9828 15.519ZM96.9158 7.75954C96.8546 6.83927 96.6707 6.23274 96.3439 5.91901C96.0171 5.60529 95.3227 5.45888 94.2402 5.45888H93.4845C93.3006 5.45888 93.0964 5.45888 92.8717 5.45888C92.647 5.45888 92.4019 5.4798 92.1568 5.4798C91.8505 5.50071 91.5645 5.54254 91.2786 5.58437C90.9926 5.6262 90.768 5.70986 90.6046 5.81444C90.3799 5.93993 90.2165 6.10725 90.1144 6.3164C90.0122 6.52555 89.9305 6.75561 89.8897 6.96476C89.8693 7.06934 89.8693 7.153 89.8693 7.25757C89.8693 7.36215 89.8693 7.44581 89.8693 7.52947C89.8693 8.21967 89.9918 8.72163 90.2369 9.07718C90.482 9.43274 91.0539 9.64189 91.9322 9.68372L92.933 9.72555C93.2598 9.74646 93.5866 9.74646 93.893 9.74646C95.2206 9.76738 96.3644 9.9347 97.3039 10.2484C98.2434 10.5621 98.7132 11.5033 98.7132 13.0929C98.7132 14.034 98.5498 14.8497 98.2434 15.519C97.9371 16.1883 97.1405 16.5857 95.8742 16.7112C94.9959 16.753 94.0972 16.7948 93.2189 16.7948C91.7688 16.7948 90.5637 16.6275 89.6242 16.2929C88.6846 15.9582 88.2148 15.0171 88.2148 13.4484V13.302C88.2148 13.2602 88.2148 13.1974 88.2353 13.1556C88.2353 13.1138 88.2353 13.051 88.2353 13.0092C88.2353 12.9674 88.2353 12.9046 88.2353 12.8628H89.7467C89.7467 13.9922 89.9305 14.7452 90.2778 15.0798C90.625 15.4354 91.442 15.6027 92.7287 15.6027H94.0564C95.2001 15.6027 95.9967 15.4772 96.4461 15.2262C96.8954 14.9752 97.1201 14.3059 97.1201 13.2602C97.1201 12.4236 96.9771 11.8798 96.7116 11.6079C96.4461 11.336 95.8537 11.1687 94.9346 11.1478C94.7099 11.1269 94.5057 11.1269 94.3014 11.1269C94.0972 11.1269 93.893 11.1269 93.6887 11.1269C92.2181 11.085 90.9518 10.8968 89.8897 10.5831C88.8276 10.2693 88.2761 9.28633 88.2761 7.63404C88.2761 6.12816 88.705 5.18699 89.5629 4.83143C90.4207 4.45496 91.5849 4.26672 93.0351 4.26672H93.4232C94.8733 4.26672 96.0784 4.41313 97.018 4.72686C97.9575 5.04058 98.4273 5.98176 98.4273 7.5713V7.75954H96.9158ZM102.042 8.95169C102.533 8.2615 103.676 7.92686 105.474 7.92686C107.332 7.92686 108.558 8.21967 109.109 8.78437C109.661 9.36999 109.947 10.4785 109.947 12.1099C109.947 13.5321 109.783 14.6824 109.436 15.5818C109.089 16.4602 107.925 16.8994 105.903 16.8994C104.167 16.8994 102.962 16.6484 102.288 16.1674C101.634 15.6863 101.307 14.6197 101.307 13.0092V12.1935C101.307 10.7295 101.552 9.64189 102.042 8.95169ZM102.819 12.9046V13.302C102.819 13.4484 102.819 13.5948 102.839 13.7203C102.859 14.0759 102.921 14.4314 103.002 14.7452C103.084 15.0589 103.207 15.3099 103.411 15.4981C103.574 15.6445 103.779 15.7282 104.024 15.77C104.269 15.8118 104.534 15.8327 104.8 15.8537H105.678C106.516 15.8537 107.169 15.7491 107.639 15.5399C108.088 15.3308 108.354 14.8079 108.415 13.9922C108.435 13.8249 108.435 13.6576 108.435 13.4903C108.435 13.3229 108.435 13.1556 108.435 12.9883C108.456 12.821 108.456 12.6537 108.456 12.4863V11.9844C108.456 10.9177 108.354 10.1648 108.129 9.70463C107.904 9.2445 107.21 9.01444 106.005 9.01444H105.678C104.412 9.01444 103.636 9.18176 103.309 9.53731C103.002 9.89287 102.839 10.6667 102.839 11.9007L102.819 12.9046ZM117.361 9.13993H114.788V16.7739H113.317V9.13993H111.826V8.07326H113.317V6.79744C113.317 5.79352 113.582 5.10333 114.093 4.74777C114.604 4.39221 115.4 4.20398 116.442 4.20398C116.524 4.20398 116.585 4.20398 116.667 4.20398C116.748 4.20398 116.83 4.20398 116.912 4.20398C116.993 4.20398 117.055 4.20398 117.136 4.20398C117.218 4.20398 117.3 4.20398 117.361 4.20398V5.29156C117.279 5.27065 117.198 5.27065 117.096 5.27065C117.014 5.27065 116.912 5.27065 116.83 5.27065H116.279C115.707 5.27065 115.319 5.37522 115.094 5.60529C114.869 5.83535 114.767 6.19091 114.767 6.65104V8.05235H117.341L117.361 9.13993ZM124.612 9.11901H120.854V14.4523C120.854 14.9543 120.935 15.2889 121.099 15.4981C121.262 15.7072 121.65 15.8118 122.222 15.8118C122.876 15.8118 123.264 15.6654 123.407 15.3726C123.55 15.0798 123.611 14.7242 123.611 14.2641V13.6785H125C125 14.5778 124.857 15.3308 124.551 15.9582C124.244 16.5648 123.468 16.8785 122.222 16.8785C121.14 16.8785 120.384 16.7112 119.975 16.3556C119.567 16.0001 119.363 15.3726 119.363 14.4523V9.11901H118.096V8.07326H119.363V5.96084H120.854V8.07326H124.612V9.11901Z" fill="black"/>
<path d="M41.7483 25.6001H41.1764C41.1764 25.3282 41.1152 25.1399 41.013 25.0772C40.9109 25.0144 40.625 24.9726 40.1552 24.9726C39.7263 24.9726 39.4608 25.0144 39.3382 25.0772C39.2157 25.1399 39.1544 25.3282 39.1544 25.6001C39.1544 26.0184 39.3382 26.2275 39.7263 26.2484L40.1961 26.2693L40.7884 26.2903C41.5032 26.3321 41.8505 26.7086 41.8505 27.4406C41.8505 27.9007 41.7279 28.1935 41.5032 28.3818C41.2581 28.5491 40.8292 28.6327 40.1961 28.6327C39.5425 28.6327 39.1135 28.5491 38.8684 28.3818C38.6233 28.2144 38.5008 27.9216 38.5008 27.5033V27.2942H39.0931V27.4824C39.0931 27.7543 39.1544 27.9216 39.2974 28.0053C39.4199 28.0889 39.6854 28.1308 40.0735 28.1308C40.5433 28.1308 40.8497 28.0889 41.013 27.9844C41.156 27.9007 41.2377 27.6916 41.2377 27.3988C41.2377 26.9805 41.0539 26.7713 40.6658 26.7713C39.7876 26.7713 39.2157 26.6876 38.9297 26.5412C38.6438 26.3948 38.5212 26.0811 38.5212 25.6001C38.5212 25.1399 38.6233 24.8471 38.848 24.7007C39.0727 24.5543 39.5016 24.4706 40.1552 24.4706C41.1969 24.4706 41.7279 24.7844 41.7279 25.4327L41.7483 25.6001ZM45.5882 27.1269H46.1601V27.336C46.1601 28.1935 45.6086 28.6327 44.5057 28.6327C43.7908 28.6327 43.3211 28.4863 43.0964 28.2144C42.8717 27.9425 42.7492 27.3778 42.7492 26.5203C42.7492 25.7255 42.8717 25.1818 43.0964 24.8889C43.3211 24.5961 43.7704 24.4706 44.424 24.4706C45.0572 24.4706 45.5065 24.5752 45.7312 24.7635C45.9559 24.9517 46.0784 25.3072 46.0784 25.851H45.5065V25.7465C45.5065 25.4327 45.4248 25.2236 45.2818 25.119C45.1389 25.0144 44.8325 24.9726 44.3831 24.9726C43.9542 24.9726 43.6683 25.0772 43.5457 25.2654C43.4232 25.4537 43.3619 25.9138 43.3619 26.5831C43.3619 27.2523 43.4232 27.6706 43.5662 27.8589C43.7091 28.0471 44.0359 28.1308 44.5465 28.1308C44.9755 28.1308 45.2614 28.068 45.384 27.9425C45.5269 27.838 45.5882 27.5661 45.5882 27.1269ZM50.4085 24.5334V28.57H49.8366L49.8774 28.0471L49.857 28.0262C49.6528 28.4236 49.2238 28.6327 48.5702 28.6327C47.6511 28.6327 47.2018 28.1726 47.2018 27.2314V24.5543H47.7737V27.2314C47.7737 27.587 47.8349 27.838 47.9575 27.9635C48.08 28.0889 48.3047 28.1517 48.6519 28.1517C49.1013 28.1517 49.4077 28.068 49.5915 27.8798C49.7549 27.6916 49.8366 27.3569 49.8366 26.8759V24.5752L50.4085 24.5334ZM52.2467 22.8184V28.57H51.6748V22.8184H52.2467ZM53.4722 24.5334H54.0441L54.0237 25.0354L54.0441 25.0563C54.2483 24.6589 54.6773 24.4706 55.3309 24.4706C55.9232 24.4706 56.3112 24.6171 56.5359 24.9308C56.7606 25.2236 56.8627 25.7883 56.8627 26.604C56.8627 27.3569 56.7606 27.8798 56.5359 28.1726C56.3112 28.4654 55.9232 28.6118 55.3513 28.6118C54.6977 28.6118 54.2688 28.4236 54.0645 28.068H54.0441V30.2641H53.4722V24.5334ZM55.1675 24.9726C54.6977 24.9726 54.4117 25.0772 54.2688 25.2863C54.1258 25.4955 54.0645 25.9347 54.0645 26.604C54.0645 27.2314 54.1462 27.6288 54.2892 27.838C54.4322 28.0471 54.7385 28.1517 55.2083 28.1517C55.6372 28.1517 55.9232 28.0471 56.0662 27.8589C56.2091 27.6497 56.2704 27.2523 56.2704 26.6249C56.2704 25.9347 56.2091 25.4955 56.0662 25.2863C55.9232 25.0772 55.6372 24.9726 55.1675 24.9726ZM60.0694 24.5334V25.0144H58.558V27.4824C58.558 27.9216 58.7418 28.1308 59.1095 28.1308C59.4771 28.1308 59.6609 27.9425 59.6609 27.5452V27.3569V27.1269H60.192V27.4197C60.192 28.2144 59.8243 28.6118 59.089 28.6118C58.3333 28.6118 57.9452 28.2772 57.9452 27.6288V25.0144H57.3938V24.5334H57.9452V23.5713H58.5171V24.5334H60.0694ZM61.5196 22.8184V23.4876H60.9477V22.8184H61.5196ZM61.5196 24.5334V28.57H60.9477V24.5334H61.5196ZM62.7451 24.5334H63.2965L63.2761 25.0772L63.2965 25.0981C63.4804 24.6798 63.9093 24.4706 64.6037 24.4706C65.1756 24.4706 65.5433 24.5752 65.7475 24.7635C65.9518 24.9726 66.0539 25.3491 66.0539 25.9347V28.5491H65.482V25.8301C65.482 25.4746 65.4207 25.2445 65.2982 25.1399C65.1756 25.0144 64.9305 24.9517 64.5629 24.9517C63.7459 24.9517 63.3578 25.3491 63.3578 26.1229V28.5491H62.7859V24.5334H62.7451ZM70.5882 24.5334V28.821C70.5882 29.4066 70.4657 29.804 70.2206 30.034C69.9755 30.2432 69.5261 30.3687 68.8725 30.3687C68.2802 30.3687 67.8921 30.285 67.6675 30.0968C67.4632 29.9086 67.3407 29.5739 67.3407 29.051H67.8921C67.8921 29.4066 67.9534 29.6157 68.076 29.7203C68.1985 29.8249 68.464 29.8667 68.8929 29.8667C69.3219 29.8667 69.6282 29.804 69.7712 29.6576C69.9142 29.5321 69.9959 29.2602 69.9959 28.8628V28.0471H69.9755C69.8325 28.4236 69.4036 28.6118 68.6887 28.6118C68.1168 28.6118 67.7083 28.4654 67.4836 28.1726C67.259 27.8798 67.1568 27.336 67.1568 26.5622C67.1568 25.7465 67.259 25.2027 67.4836 24.9099C67.7083 24.6171 68.1168 24.4706 68.7296 24.4706C69.3831 24.4706 69.7916 24.6798 69.9959 25.0772H70.0163L69.9959 24.5334H70.5882ZM68.8725 24.9726C68.4232 24.9726 68.1372 25.0772 67.9943 25.2654C67.8513 25.4537 67.79 25.8929 67.79 26.5412C67.79 27.2105 67.8513 27.6288 67.9943 27.838C68.1372 28.0262 68.4232 28.1308 68.8725 28.1308C69.3219 28.1308 69.6282 28.0262 69.7712 27.7961C69.9142 27.587 69.9959 27.1269 69.9959 26.4367C69.9959 25.8301 69.9142 25.4327 69.7712 25.2445C69.6282 25.0772 69.3219 24.9726 68.8725 24.9726ZM76.205 24.5334V25.0144H74.6936V27.4824C74.6936 27.9216 74.8774 28.1308 75.2451 28.1308C75.6127 28.1308 75.7965 27.9425 75.7965 27.5452V27.3569V27.1269H76.3276V27.4197C76.3276 28.2144 75.9599 28.6118 75.2246 28.6118C74.4689 28.6118 74.0809 28.2772 74.0809 27.6288V25.0144H73.5294V24.5334H74.0809V23.5713H74.6528V24.5334H76.205ZM77.6552 22.8184V25.0354H77.6756C77.8186 24.6589 78.2271 24.4706 78.9011 24.4706C79.8815 24.4706 80.3717 24.9099 80.3717 25.8092V28.5491H79.7998V25.851C79.7998 25.2445 79.4934 24.9517 78.8807 24.9517C78.3905 24.9517 78.0637 25.0354 77.9003 25.2236C77.7369 25.4118 77.6552 25.7674 77.6552 26.2903V28.5491H77.0833V22.8184H77.6552ZM83.2516 24.4916C83.9869 24.4916 84.4567 24.6171 84.6609 24.8889C84.8856 25.1399 84.9877 25.7046 84.9877 26.5831C84.9877 27.4406 84.8856 28.0053 84.6609 28.2772C84.4363 28.5282 83.9665 28.6746 83.2516 28.6746C82.5367 28.6746 82.0465 28.5491 81.8423 28.2772C81.6176 28.0262 81.5155 27.4615 81.5155 26.5831C81.5155 25.7255 81.6176 25.1608 81.8423 24.8889C82.0465 24.6171 82.5163 24.4916 83.2516 24.4916ZM83.2516 24.9726C82.741 24.9726 82.4346 25.0563 82.3121 25.2236C82.1895 25.3909 82.1282 25.8301 82.1282 26.5622C82.1282 27.2733 82.1895 27.7125 82.3121 27.9007C82.4346 28.068 82.741 28.1517 83.2516 28.1517C83.7622 28.1517 84.089 28.068 84.2116 27.9007C84.3341 27.7334 84.3954 27.2942 84.3954 26.5622C84.3954 25.851 84.3341 25.4118 84.2116 25.2236C84.0686 25.0563 83.7622 24.9726 83.2516 24.9726ZM89.2974 24.5334V28.57H88.7255L88.7663 28.0471L88.7459 28.0262C88.5416 28.4236 88.1127 28.6327 87.4591 28.6327C86.54 28.6327 86.0907 28.1726 86.0907 27.2314V24.5543H86.6626V27.2314C86.6626 27.587 86.7238 27.838 86.8464 27.9635C86.9689 28.0889 87.1936 28.1517 87.5408 28.1517C87.9902 28.1517 88.2965 28.068 88.4804 27.8798C88.6438 27.6916 88.7255 27.3569 88.7255 26.8759V24.5752L89.2974 24.5334ZM93.8725 24.5334V28.821C93.8725 29.4066 93.75 29.804 93.5049 30.034C93.2598 30.2432 92.8104 30.3687 92.1568 30.3687C91.5645 30.3687 91.1764 30.285 90.9518 30.0968C90.7475 29.9086 90.625 29.5739 90.625 29.051H91.1764C91.1764 29.4066 91.2377 29.6157 91.3603 29.7203C91.4828 29.8249 91.7483 29.8667 92.1773 29.8667C92.6062 29.8667 92.9126 29.804 93.0555 29.6576C93.1985 29.5321 93.2802 29.2602 93.2802 28.8628V28.0471H93.2598C93.1168 28.4236 92.6879 28.6118 91.973 28.6118C91.4011 28.6118 90.9926 28.4654 90.7679 28.1726C90.5433 27.8798 90.4412 27.336 90.4412 26.5622C90.4412 25.7465 90.5433 25.2027 90.7679 24.9099C90.9926 24.6171 91.4011 24.4706 92.0139 24.4706C92.6675 24.4706 93.076 24.6798 93.2802 25.0772H93.3006L93.2802 24.5334H93.8725ZM92.1568 24.9726C91.7075 24.9726 91.4215 25.0772 91.2786 25.2654C91.1356 25.4537 91.0743 25.8929 91.0743 26.5412C91.0743 27.2105 91.1356 27.6288 91.2786 27.838C91.4215 28.0262 91.7075 28.1308 92.1568 28.1308C92.6062 28.1308 92.9126 28.0262 93.0555 27.7961C93.1985 27.587 93.2802 27.1269 93.2802 26.4367C93.2802 25.8301 93.1985 25.4327 93.0555 25.2445C92.9126 25.0772 92.6062 24.9726 92.1568 24.9726ZM95.6699 22.8184V25.0354H95.6903C95.8333 24.6589 96.2418 24.4706 96.9158 24.4706C97.8962 24.4706 98.3864 24.9099 98.3864 25.8092V28.5491H97.8145V25.851C97.8145 25.2445 97.5081 24.9517 96.8954 24.9517C96.4052 24.9517 96.0784 25.0354 95.915 25.2236C95.7516 25.4118 95.6699 25.7674 95.6699 26.2903V28.5491H95.098V22.8184H95.6699ZM101.716 24.5334V25.0144H100.204V27.4824C100.204 27.9216 100.388 28.1308 100.756 28.1308C101.123 28.1308 101.307 27.9425 101.307 27.5452V27.3569V27.1269H101.838V27.4197C101.838 28.2144 101.471 28.6118 100.735 28.6118C99.9796 28.6118 99.5915 28.2772 99.5915 27.6288V25.0144H99.04V24.5334H99.5915V23.5713H100.163V24.5334H101.716ZM105.637 25.6001H105.065C105.065 25.3282 105.004 25.1399 104.902 25.0772C104.8 25.0144 104.514 24.9726 104.044 24.9726C103.615 24.9726 103.35 25.0144 103.227 25.0772C103.105 25.1399 103.043 25.3282 103.043 25.6001C103.043 26.0184 103.227 26.2275 103.615 26.2484L104.085 26.2693L104.677 26.2903C105.392 26.3321 105.739 26.7086 105.739 27.4406C105.739 27.9007 105.617 28.1935 105.392 28.3818C105.147 28.5491 104.718 28.6327 104.085 28.6327C103.431 28.6327 103.002 28.5491 102.757 28.3818C102.512 28.2144 102.39 27.9216 102.39 27.5033V27.2942H102.982V27.4824C102.982 27.7543 103.043 27.9216 103.186 28.0053C103.309 28.0889 103.574 28.1308 103.962 28.1308C104.432 28.1308 104.739 28.0889 104.902 27.9844C105.045 27.9007 105.127 27.6916 105.127 27.3988C105.127 26.9805 104.943 26.7713 104.555 26.7713C103.676 26.7713 103.105 26.6876 102.819 26.5412C102.533 26.3948 102.41 26.0811 102.41 25.6001C102.41 25.1399 102.512 24.8471 102.737 24.7007C102.962 24.5543 103.39 24.4706 104.044 24.4706C105.086 24.4706 105.617 24.7844 105.617 25.4327L105.637 25.6001ZM107.435 27.7961V28.57H106.801V27.7961H107.435ZM109.293 27.7961V28.57H108.66V27.7961H109.293ZM111.132 27.7961V28.57H110.498V27.7961H111.132Z" fill="black"/>
</g>
</g>
<defs>
<clipPath id="clip0_153_168">
<rect width="125" height="32" fill="white"/>
</clipPath>
</defs>
</svg>
