<svg width="14" height="8" viewBox="0 0 14 8" fill="none" xmlns="http://www.w3.org/2000/svg">
<path d="M7.13335 7.79981C6.93335 7.79981 6.80002 7.73314 6.66669 7.5998L3.86669 4.7998C3.60002 4.53314 3.60002 4.13314 3.86669 3.86647C4.13335 3.59981 4.53335 3.59981 4.80002 3.86647L7.13335 6.19981L12.3334 0.999805C12.6 0.733138 13 0.733138 13.2667 0.999805C13.5334 1.26647 13.5334 1.66647 13.2667 1.93314L7.60002 7.5998C7.53335 7.73314 7.33335 7.79981 7.13335 7.79981Z" fill="#38963B"/>
<path d="M3.79998 7.79981C3.59998 7.79981 3.46665 7.73314 3.33331 7.5998L0.533313 4.7998C0.266646 4.53314 0.266646 4.13314 0.533313 3.86647C0.79998 3.59981 1.19998 3.59981 1.46665 3.86647L4.26665 6.66647C4.53331 6.93314 4.53331 7.33314 4.26665 7.5998C4.19998 7.73314 3.99998 7.79981 3.79998 7.79981ZM7.33331 4.33314C7.13331 4.33314 6.99998 4.26647 6.86665 4.13314C6.59998 3.86647 6.59998 3.46647 6.86665 3.1998L8.99998 0.999805C9.26665 0.733138 9.66665 0.733138 9.93331 0.999805C10.2 1.26647 10.2 1.66647 9.93331 1.93314L7.79998 4.13314C7.66665 4.26647 7.53331 4.33314 7.33331 4.33314Z" fill="#38963B"/>
</svg>
