<svg width="27" height="14" viewBox="0 0 27 14" fill="none" xmlns="http://www.w3.org/2000/svg">
<path d="M1.5 6.1C1.00294 6.1 0.6 6.50294 0.6 7C0.6 7.49706 1.00294 7.9 1.5 7.9L1.5 7L1.5 6.1ZM26.1364 7.6364C26.4879 7.28493 26.4879 6.71508 26.1364 6.36361L20.4088 0.636041C20.0574 0.284569 19.4875 0.284569 19.136 0.636041C18.7846 0.987513 18.7846 1.55736 19.136 1.90883L24.2272 7L19.136 12.0912C18.7846 12.4426 18.7846 13.0125 19.136 13.364C19.4875 13.7154 20.0574 13.7154 20.4088 13.364L26.1364 7.6364ZM1.5 7L1.5 7.9L25.5 7.9L25.5 7L25.5 6.1L1.5 6.1L1.5 7Z" fill="white"/>
</svg>
