<svg width="12" height="12" viewBox="0 0 12 12" fill="none" xmlns="http://www.w3.org/2000/svg">
<g clip-path="url(#clip0_1_22439)">
<path d="M10.125 10.5938H1.875M10.125 12V8.96875C10.125 8.41647 9.67728 7.96875 9.125 7.96875H2.875C2.32272 7.96875 1.875 8.41647 1.875 8.96875V12M5.00564 2.28689L6.99438 4.27563M6.99436 2.28689L5.00562 4.27563M6 7.25932C6 6.66277 6.37683 6.13228 6.93916 5.93313C8.03067 5.54655 8.8125 4.5052 8.8125 3.28125C8.8125 1.72795 7.5533 0.46875 6 0.46875C4.4467 0.46875 3.1875 1.72795 3.1875 3.28125C3.1875 4.5052 3.96933 5.54655 5.06084 5.93313C5.62317 6.13228 6 6.66277 6 7.25932ZM6 7.25932V7.96875" stroke="#A168C5" stroke-miterlimit="10" stroke-linecap="round"/>
</g>
<defs>
<clipPath id="clip0_1_22439">
<rect width="12" height="12" fill="white"/>
</clipPath>
</defs>
</svg>
