<svg width="10" height="12" viewBox="0 0 10 12" fill="none" xmlns="http://www.w3.org/2000/svg">
<path d="M9.125 10.5938H0.875M9.125 12V8.96875C9.125 8.41647 8.67728 7.96875 8.125 7.96875H1.875C1.32272 7.96875 0.875 8.41647 0.875 8.96875V12M4.00564 2.28689L5.99438 4.27563M5.99436 2.28689L4.00562 4.27563M5 7.25932C5 6.66277 5.37683 6.13228 5.93916 5.93313C7.03067 5.54655 7.8125 4.5052 7.8125 3.28125C7.8125 1.72795 6.5533 0.46875 5 0.46875C3.4467 0.46875 2.1875 1.72795 2.1875 3.28125C2.1875 4.5052 2.96933 5.54655 4.06084 5.93313C4.62317 6.13228 5 6.66277 5 7.25932ZM5 7.25932V7.96875" stroke="white" stroke-miterlimit="10" stroke-linecap="round"/>
</svg>
