<svg width="375" height="273" viewBox="0 0 375 273" fill="none" xmlns="http://www.w3.org/2000/svg">
<path d="M221.097 40.2352V221.117C221.097 234.486 211.624 245.337 199.94 245.337H117.696C106.011 245.337 96.5392 234.486 96.5392 221.117V40.2352C96.5392 26.8498 106.011 15.9985 117.696 15.9985H199.94C211.624 15.9985 221.097 26.8498 221.097 40.2352Z" fill="#CEF0C9"/>
<path d="M120.493 78.6071C121.583 59.8803 138.002 44.9932 158.076 44.9932C178.167 44.9932 194.568 59.8803 195.658 78.6071H120.493Z" fill="white" stroke="#001527" stroke-width="1.8"/>
<path d="M122.036 104.897V109.04C122.036 114.615 126.53 119.128 132.081 119.128H187.86C193.411 119.128 197.922 114.615 197.922 109.04V104.897H122.036Z" fill="white" stroke="#001527" stroke-width="1.8"/>
<path d="M120.493 100.872C120.493 102.488 121.147 103.97 122.204 105.031C123.277 106.092 124.736 106.749 126.363 106.749H193.595C196.832 106.749 199.448 104.122 199.448 100.872C199.448 99.2382 198.794 97.7731 197.738 96.7121C196.681 95.6512 195.205 94.9775 193.595 94.9775H126.363C123.126 94.9775 120.493 97.6215 120.493 100.872Z" fill="#F9E4C2" stroke="#001527" stroke-width="1.8"/>
<path d="M198.944 98.4616C198.944 98.4616 195.506 98.3101 193.376 99.27C191.246 100.213 190.374 102.756 186.903 102.823C183.431 102.908 181.536 97.5185 179.322 98.7816C177.109 100.061 173.553 103.143 170.317 102.823C167.08 102.52 160.137 97.6364 155.391 98.4448C150.662 99.27 122.504 99.792 120.71 99.2868C118.916 98.7816 124.165 90.496 124.165 90.496L191.716 86.8584L202.097 97.3501L198.944 98.4616Z" fill="#CEF0C9" stroke="#001527" stroke-width="1.8"/>
<path d="M157.338 89.6056C157.338 91.0539 157.874 92.3675 158.746 93.3106C159.618 94.2705 160.826 94.8599 162.134 94.8599H197.872C200.521 94.8599 202.668 92.5022 202.668 89.6056C202.668 88.1573 202.131 86.8437 201.259 85.9007C200.387 84.9576 199.196 84.3682 197.872 84.3682H162.134C159.501 84.3682 157.338 86.709 157.338 89.6056Z" fill="#F9E4C2" stroke="#001527" stroke-width="1.8"/>
<path d="M115.965 90.9342C116.217 92.231 116.955 93.3256 117.978 94.0161C118.984 94.7065 120.275 95.0097 121.566 94.7739L156.684 88.1218C159.283 87.6166 160.994 85.1074 160.507 82.4971C160.256 81.1835 159.501 80.1057 158.495 79.3984C157.472 78.7079 156.197 78.4048 154.906 78.6405L119.789 85.3095C117.189 85.7978 115.479 88.3071 115.965 90.9342Z" fill="#F9E4C2" stroke="#001527" stroke-width="1.8"/>
<path d="M116.703 83.5913C116.703 84.9554 117.223 86.2016 118.095 87.111C118.95 88.0035 120.124 88.5593 121.432 88.5593C121.432 88.5593 126.581 87.8183 129.968 85.9153C129.968 85.9153 131.344 87.7509 134.614 88.5593C135.771 88.8624 137.163 89.014 138.806 88.9129C139.695 88.8793 140.584 88.7445 141.473 88.5593C146.823 87.4815 151.602 84.3996 151.602 84.3996C151.602 84.3996 152.374 86.8752 153.95 88.5593C155.074 89.7718 156.6 90.597 158.545 89.7887C159.484 89.4182 160.474 88.9971 161.497 88.5593C165.572 86.8415 169.966 84.9554 171.425 84.9554C172.565 84.9554 174.024 87.1615 176.02 88.5593C177.211 89.3845 178.569 89.9234 180.196 89.5529C181.252 89.3171 182.124 88.9635 182.862 88.5593C185.093 87.3468 185.982 85.7469 187.055 85.7469C188.48 85.7469 187.927 88.374 193.847 88.5593H194.719C197.335 88.5593 199.448 86.3363 199.448 83.5913C199.448 82.2104 198.928 80.9641 198.073 80.0716C197.218 79.1622 196.027 78.6064 194.719 78.6064H121.432C118.816 78.6064 116.703 80.8463 116.703 83.5913Z" fill="#CEF0C9" stroke="#001527" stroke-width="1.8"/>
<path d="M140.181 60.6558C140.148 61.9527 140.718 63.0307 141.473 63.0644C142.211 63.0813 142.865 62.0538 142.915 60.7568C142.965 59.4599 142.378 58.3987 141.64 58.3651C140.886 58.3314 140.232 59.3757 140.181 60.6558Z" fill="#001527"/>
<path d="M155.996 67.5608C156.113 68.8578 156.818 69.8516 157.573 69.7673C158.327 69.7 158.83 68.5883 158.696 67.2913C158.579 66.0112 157.858 65.0174 157.12 65.1017C156.365 65.169 155.862 66.2807 155.996 67.5608Z" fill="#001527"/>
<path d="M137.732 69.2102C137.111 70.0018 136.994 70.9114 137.447 71.2819C137.9 71.6356 138.755 71.2819 139.375 70.5071C139.979 69.7155 140.097 68.7891 139.644 68.4353C139.191 68.0816 138.336 68.4353 137.732 69.2102Z" fill="#001527"/>
<path d="M159.853 58.5838C159.988 59.8807 160.692 60.8577 161.447 60.7903C162.201 60.7061 162.704 59.6112 162.57 58.3143C162.453 57.0173 161.732 56.0404 160.994 56.1078C160.239 56.192 159.736 57.2868 159.853 58.5838Z" fill="#001527"/>
<path d="M168.573 71.5191C168.673 72.4624 169.193 73.2035 169.763 73.1529C170.317 73.0856 170.686 72.2771 170.585 71.317C170.501 70.3569 169.965 69.6326 169.411 69.6832C168.858 69.7337 168.489 70.559 168.573 71.5191Z" fill="#001527"/>
<path d="M150.579 56.242C150.696 57.5389 151.401 58.5159 152.155 58.4485C152.91 58.3643 153.413 57.2694 153.279 55.9725C153.162 54.6755 152.441 53.6986 151.703 53.766C150.948 53.8502 150.445 54.945 150.579 56.242Z" fill="#001527"/>
<path d="M168.707 56.242C168.824 57.5389 169.546 58.5159 170.283 58.4485C171.038 58.3643 171.541 57.2694 171.407 55.9725C171.29 54.6755 170.585 53.6986 169.831 53.766C169.076 53.8502 168.573 54.945 168.707 56.242Z" fill="#001527"/>
<path d="M178.651 64.9169C178.484 66.1971 178.953 67.3256 179.691 67.4266C180.429 67.5277 181.184 66.5676 181.351 65.2875C181.536 63.9906 181.066 62.8789 180.312 62.7778C179.574 62.6767 178.836 63.6368 178.651 64.9169Z" fill="#001527"/>
<path d="M183.75 71.9228C183.583 73.2029 184.036 74.3314 184.79 74.4325C185.528 74.5336 186.266 73.5735 186.451 72.2934C186.618 71.0132 186.165 69.8847 185.411 69.7837C184.673 69.6826 183.918 70.6427 183.75 71.9228Z" fill="#001527"/>
<path d="M190.483 15.9985L189.04 22.353C188.417 25.0636 185.925 26.9966 183.038 26.9966H135.263C132.39 26.9966 129.884 25.0636 129.276 22.353L127.818 15.9985H190.483Z" fill="#ADE2A5"/>
<path d="M125.382 210.874V225.466C125.382 228.8 128.064 231.508 131.384 231.508H186.188C189.508 231.508 192.19 228.8 192.19 225.466V210.874C192.19 207.539 189.508 204.846 186.188 204.846H131.384C128.064 204.846 125.382 207.539 125.382 210.874Z" fill="#ADE2A5"/>
<path d="M295.27 79.5424C295.227 82.8057 294.589 86.1117 293.042 88.9617C291.509 91.8116 289.026 94.1629 286.032 95.1176C281.803 96.4714 276.993 94.8184 273.899 91.4981C270.82 88.1779 269.372 83.4327 269.443 78.8014C269.486 74.1702 270.933 69.6672 272.991 65.5632L277.688 64.181C281.647 61.6017 287.181 62.7987 290.544 66.176C293.908 69.5675 295.327 74.6547 295.27 79.5424Z" fill="#001527"/>
<path d="M272.693 161.021C272.693 161.021 253.976 188.481 242.61 186.243C223.154 182.439 215.733 127.12 215.96 126.964C213.278 124.84 205.728 111.916 207.587 107.897C209.744 103.195 217.45 101.684 217.45 101.684C217.45 101.684 212.157 89.6572 215.974 89.0587C219.749 88.4887 224.531 104.605 224.673 105.076C224.687 104.876 224.9 101.257 228.362 100.359C231.924 99.4327 230.235 104.42 229.824 108.125C229.412 111.844 233.272 121.591 233.272 121.591C233.291 121.639 233.305 121.686 233.315 121.734L245.362 154.68C245.362 154.68 253.948 145.261 254.033 145.047L272.693 161.021Z" fill="white" stroke="#001527" stroke-width="1.8" stroke-linejoin="round"/>
<path d="M224.673 105.091C224.673 105.091 223.282 108.753 224.545 111.204C224.545 111.204 222.402 112.544 221.48 114.824C220.558 117.104 221.679 118.999 221.679 118.999" fill="white"/>
<path d="M217.336 101.271L220.699 109.108C221.238 110.391 220.685 111.859 219.464 112.386C218.23 112.913 216.796 112.315 216.243 111.032L212.894 103.18C212.341 101.912 212.894 100.43 214.114 99.9029C214.739 99.6464 215.406 99.6606 215.988 99.9029C216.569 100.159 217.066 100.63 217.336 101.271Z" fill="white" stroke="#001527" stroke-width="1.8"/>
<path d="M212.965 103.409L216.2 110.976C216.725 112.201 216.2 113.612 215.008 114.125C213.83 114.638 212.44 114.054 211.914 112.814L208.665 105.262C208.14 104.022 208.679 102.597 209.857 102.098C210.453 101.842 211.091 101.856 211.659 102.098C212.212 102.326 212.695 102.796 212.965 103.409Z" fill="white" stroke="#001527" stroke-width="1.8"/>
<path d="M209.247 106.658L211.986 113.028C212.426 114.068 211.901 115.293 210.808 115.778C209.701 116.248 208.453 115.792 208.013 114.752L205.515 108.895C205.061 107.855 205.359 106.102 206.466 105.632C207.005 105.39 207.601 105.39 208.098 105.575C208.609 105.76 209.035 106.145 209.247 106.658Z" fill="white" stroke="#001527" stroke-width="1.8"/>
<path d="M273.475 162.789C271.204 166.793 269.374 169.785 269.374 169.785C267.359 171.937 248.343 150.762 248.13 147.071C248.13 147.071 251.167 144.007 254.928 140.744C257.184 138.777 259.71 136.754 261.98 135.286C269.629 130.37 278.228 130.085 278.228 130.085C278.228 130.085 283.564 138.578 281.776 145.489C280.726 149.522 276.653 157.146 273.475 162.789Z" fill="#CEF0C9"/>
<path d="M273.475 162.788C271.204 166.792 269.374 169.785 269.374 169.785C267.359 171.936 248.343 150.761 248.13 147.07C248.13 147.07 251.167 144.006 254.928 140.743C256.418 144.263 263.002 158.456 273.475 162.788Z" fill="#ADE2A5"/>
<path d="M302.024 175.927L269.571 193.069C269.571 193.069 260.287 234.979 254.486 263.46C253.532 268.141 249.425 271.515 244.648 271.515H-40.0006M291.036 252.458C289.591 257.034 288.021 262.131 286.372 267.674C285.801 269.592 287.241 271.515 289.242 271.515H294.926" stroke="#001527" stroke-width="1.8" stroke-linejoin="round"/>
<path d="M295.63 271.347C295.723 271.835 295.402 272.306 294.913 272.399C294.425 272.492 293.954 272.171 293.861 271.682L294.746 271.515L295.63 271.347ZM321.949 195.805L322.841 195.689L322.841 195.689L321.949 195.805ZM283.72 203.357L282.828 203.478L282.732 202.776L283.393 202.519L283.72 203.357ZM288.502 238.583L287.618 238.751L287.613 238.728L287.61 238.704L288.502 238.583ZM328.184 262.265L327.287 262.337C324.8 231.274 321.595 200.071 321.056 195.921L321.949 195.805L322.841 195.689C323.386 199.885 326.594 231.124 329.081 262.194L328.184 262.265ZM321.949 195.805L321.056 195.921C321.013 195.588 320.782 195.231 319.832 194.999C318.878 194.765 317.47 194.747 315.686 194.934C312.144 195.306 307.458 196.449 302.746 197.826C298.047 199.2 293.372 200.793 289.868 202.043C288.117 202.668 286.66 203.207 285.641 203.589C285.132 203.78 284.733 203.932 284.461 204.036C284.325 204.088 284.221 204.128 284.151 204.155C284.116 204.169 284.09 204.179 284.072 204.186C284.063 204.189 284.057 204.192 284.053 204.193C284.05 204.194 284.049 204.195 284.048 204.195C284.047 204.196 284.047 204.196 284.047 204.196C284.046 204.196 284.046 204.196 283.72 203.357C283.393 202.519 283.393 202.519 283.394 202.518C283.394 202.518 283.394 202.518 283.395 202.518C283.396 202.517 283.398 202.517 283.4 202.516C283.405 202.514 283.412 202.511 283.421 202.508C283.44 202.501 283.467 202.49 283.502 202.476C283.574 202.449 283.68 202.408 283.817 202.355C284.092 202.25 284.496 202.096 285.009 201.904C286.035 201.519 287.501 200.976 289.263 200.348C292.785 199.091 297.496 197.486 302.241 196.099C306.974 194.715 311.788 193.534 315.498 193.144C317.342 192.951 318.998 192.942 320.259 193.25C321.524 193.56 322.658 194.276 322.841 195.689L321.949 195.805ZM283.72 203.357L284.611 203.236L289.394 238.462L288.502 238.583L287.61 238.704L282.828 203.478L283.72 203.357ZM288.502 238.583L289.386 238.415L295.63 271.347L294.746 271.515L293.861 271.682L287.618 238.751L288.502 238.583ZM338.179 271.515V270.615H375V271.515V272.415H338.179V271.515ZM328.184 262.265L329.081 262.194C329.461 266.944 333.419 270.615 338.179 270.615V271.515V272.415C332.475 272.415 327.742 268.018 327.287 262.337L328.184 262.265Z" fill="#001527"/>
<path d="M288.885 71.4598C289.013 71.4598 289.127 71.417 289.226 71.3315C290.688 69.9063 292.149 68.6093 293.88 68.4668C295.002 68.367 296.137 68.7946 296.931 69.607C297.116 69.8065 297.428 69.8065 297.627 69.607C297.811 69.4217 297.825 69.1081 297.627 68.9086C296.648 67.8967 295.214 67.3551 293.795 67.4691C291.738 67.6544 290.134 69.0654 288.545 70.6189C288.346 70.8042 288.346 71.1177 288.531 71.3173C288.63 71.417 288.758 71.4598 288.885 71.4598Z" fill="white"/>
<path d="M286.474 128.479C288.464 125.479 287.325 112.585 286.19 109.721C284.998 106.714 302.878 102.325 302.878 102.325C302.878 102.325 300.815 122.385 307.362 128.479" stroke="#001527" stroke-width="1.8" stroke-linecap="round" stroke-linejoin="round"/>
<path d="M271.704 131.254C273.151 130.741 274.868 130.285 276.784 129.886C288.364 127.477 307.237 127.207 319.966 130.356C325.528 131.724 326.806 133.391 328.906 136.17C335.064 144.364 325.486 204.612 326.011 212.835C326.011 221.043 261.813 221.883 261.813 213.675C262.594 200.409 262.835 171.296 265.261 151.175" fill="#CEF0C9"/>
<path d="M296.802 115.392C291.764 119.467 281.505 121.861 275.871 115.762C269.84 109.236 270.961 91.3093 277.986 81.548C279.986 78.7693 282.526 76.6461 285.563 75.6628C295.355 72.5136 303.784 78.9973 304.493 85.5523C305.018 90.4828 303.571 98.2917 303.571 98.2917C303.571 98.2917 308.978 94.487 309.659 100.344C310.34 106.257 303.741 107.654 303.741 107.654" fill="white"/>
<path d="M296.802 115.392C291.764 119.467 281.505 121.861 275.871 115.762C269.84 109.236 270.961 91.3093 277.986 81.548C279.986 78.7693 282.526 76.6461 285.563 75.6628C295.355 72.5136 303.784 78.9973 304.493 85.5523C305.018 90.4828 303.571 98.2917 303.571 98.2917C303.571 98.2917 308.978 94.487 309.659 100.344C310.34 106.257 303.741 107.654 303.741 107.654M280.509 109.867C281.671 110.347 284.646 111.019 287.249 109.867M283.375 93.2786C281.438 98.6911 277.278 105.241 283.104 104.96M277.1 89.6572C278.081 88.9174 280.377 87.9984 281.71 90.2413M286.513 92.4219C287.378 91.8248 289.45 91.0824 290.813 92.8892" stroke="#001527" stroke-width="1.8" stroke-linecap="round" stroke-linejoin="round"/>
<path d="M303.572 115.741C302.777 112.264 302.11 108.709 303.728 107.655C303.728 107.655 310.34 106.258 309.659 100.344C308.978 94.4877 303.571 98.2924 303.571 98.2924C303.571 98.2924 301.287 99.1332 299.981 98.5347C298.69 97.9362 300.79 91.7232 300.79 91.7232C298.349 91.3812 296.987 90.3979 294.887 89.0727C293.397 88.1322 292.446 84.5127 292.106 82.817C287.153 83.0592 280.356 84.698 276.595 81.5345C274.268 79.5537 272.636 76.7892 272.054 73.7968C271.458 70.79 271.912 67.598 273.317 64.8905C275.829 60.0313 281.307 57.0673 286.756 56.9676C292.219 56.8678 297.115 58.7184 301.017 62.5517C302.097 63.6128 303.784 65.1607 305.232 66.3298C312.627 72.3018 311.546 78.3798 309.659 80.389C311.844 80.617 315.789 81.8195 318.855 86.3367C321.92 90.8539 321.154 114.743 303.572 115.741Z" fill="#001527"/>
<path d="M280.329 93.5907C280.187 94.6311 279.435 95.3865 278.641 95.2725C277.86 95.1727 277.321 94.2463 277.463 93.2059C277.605 92.1654 278.357 91.4101 279.152 91.5241C279.946 91.6238 280.471 92.5503 280.329 93.5907Z" fill="#001527"/>
<path d="M289.552 96.1571C289.41 97.1975 288.658 97.9386 287.863 97.8389C287.068 97.7249 286.543 96.7984 286.685 95.7723C286.827 94.7318 287.579 93.9765 288.374 94.0905C289.154 94.1903 289.693 95.1167 289.552 96.1571Z" fill="#001527"/>
<path d="M285.039 181.748C285.039 181.748 270.173 168.979 266.781 170.205C263.461 171.388 271.109 181.434 271.393 181.747" fill="white"/>
<path d="M285.039 181.748C285.039 181.748 270.173 168.979 266.781 170.205C263.461 171.388 271.109 181.434 271.393 181.747" stroke="#001527" stroke-width="1.8"/>
<path d="M236.083 169.942L241.816 203.658C242.469 207.519 244.81 210.298 247.407 210.298H269.431C272.893 210.298 275.32 205.482 274.44 200.337L268.707 166.622C268.054 162.76 265.713 159.981 263.102 159.981H241.092C237.63 159.981 235.203 164.798 236.083 169.942Z" fill="white" stroke="#001527" stroke-width="1.8"/>
<path d="M272.084 200.337C272.964 205.482 270.537 210.298 267.075 210.298H269.431C272.893 210.298 275.32 205.482 274.44 200.337L268.707 166.622C268.054 162.76 265.713 159.981 263.102 159.981H260.76C263.357 159.981 265.698 162.76 266.351 166.622L272.084 200.337Z" fill="#001527" stroke="#001527" stroke-width="1.8"/>
<path d="M271.836 181.683C271.439 181.569 255.311 176.739 253.92 178.977C252.529 181.228 261.143 183.964 261.143 183.964C261.143 183.964 253.452 183.651 252.075 184.99C250.699 186.358 252.089 188.068 253.636 188.424C253.636 188.424 250.273 190.676 253.835 192.656C253.835 192.656 251.706 194.409 255.027 195.962C258.347 197.516 265.755 198.499 268.309 198.499C274.283 198.47 280.47 197.33 280.47 197.33C285.792 200.052 322.162 208.517 333.202 203.558C344.413 198.499 338.822 163.43 338.751 163.017H317.323L317.351 182.055L281.63 178.977" fill="white"/>
<path d="M272.084 180.818C272.562 180.955 272.838 181.454 272.701 181.932C272.564 182.409 272.066 182.686 271.588 182.549L271.836 181.683L272.084 180.818ZM253.92 178.977L253.154 178.504L253.156 178.501L253.92 178.977ZM261.143 183.964L261.415 183.106C261.845 183.243 262.107 183.676 262.029 184.12C261.951 184.564 261.557 184.882 261.106 184.863L261.143 183.964ZM252.075 184.99L251.441 184.352L251.448 184.345L252.075 184.99ZM253.636 188.424L253.838 187.547C254.188 187.628 254.456 187.909 254.521 188.262C254.586 188.615 254.435 188.972 254.137 189.172L253.636 188.424ZM253.835 192.656L254.272 191.87C254.532 192.015 254.704 192.279 254.731 192.575C254.758 192.871 254.637 193.162 254.407 193.351L253.835 192.656ZM268.309 198.499L268.313 199.399H268.309V198.499ZM280.47 197.33L280.307 196.445C280.502 196.409 280.704 196.439 280.88 196.529L280.47 197.33ZM333.202 203.558L333.572 204.378L333.571 204.379L333.202 203.558ZM338.751 163.017V162.117C339.189 162.117 339.564 162.432 339.638 162.864L338.751 163.017ZM317.323 163.017L316.423 163.018C316.423 162.779 316.517 162.55 316.686 162.381C316.855 162.212 317.084 162.117 317.323 162.117V163.017ZM317.351 182.055L318.251 182.053C318.252 182.306 318.146 182.546 317.96 182.717C317.775 182.888 317.526 182.973 317.274 182.951L317.351 182.055ZM281.63 178.977L281.553 179.873C281.353 179.856 281.164 179.772 281.017 179.635L281.63 178.977ZM271.836 181.683L271.588 182.549C271.381 182.489 267.279 181.262 263.056 180.327C260.94 179.858 258.829 179.472 257.177 179.337C256.346 179.269 255.677 179.269 255.2 179.337C254.651 179.415 254.627 179.543 254.684 179.452L253.92 178.977L253.156 178.501C253.56 177.851 254.345 177.64 254.946 177.555C255.618 177.459 256.44 177.47 257.323 177.543C259.099 177.688 261.306 178.096 263.445 178.57C267.734 179.519 271.895 180.764 272.084 180.818L271.836 181.683ZM253.92 178.977L254.686 179.449C254.665 179.483 254.661 179.486 254.68 179.538C254.714 179.635 254.821 179.809 255.077 180.049C255.587 180.526 256.433 181.032 257.404 181.506C258.358 181.971 259.361 182.371 260.132 182.658C260.516 182.8 260.839 182.913 261.065 182.99C261.179 183.029 261.267 183.058 261.327 183.078C261.357 183.087 261.38 183.095 261.395 183.1C261.402 183.102 261.408 183.104 261.411 183.105C261.413 183.105 261.414 183.106 261.415 183.106C261.415 183.106 261.415 183.106 261.415 183.106C261.416 183.106 261.416 183.106 261.416 183.106C261.415 183.106 261.415 183.106 261.143 183.964C260.87 184.822 260.87 184.822 260.87 184.822C260.87 184.822 260.87 184.822 260.87 184.822C260.869 184.821 260.869 184.821 260.868 184.821C260.867 184.821 260.865 184.82 260.862 184.819C260.858 184.818 260.851 184.815 260.842 184.813C260.824 184.807 260.799 184.799 260.766 184.788C260.7 184.766 260.605 184.735 260.486 184.694C260.246 184.613 259.907 184.494 259.506 184.345C258.705 184.048 257.642 183.624 256.615 183.124C255.607 182.632 254.561 182.031 253.847 181.363C253.491 181.029 253.153 180.62 252.982 180.137C252.796 179.608 252.827 179.033 253.154 178.504L253.92 178.977ZM261.143 183.964C261.106 184.863 261.106 184.863 261.106 184.863C261.106 184.863 261.106 184.863 261.106 184.863C261.106 184.863 261.106 184.863 261.106 184.863C261.105 184.863 261.104 184.863 261.102 184.863C261.099 184.863 261.094 184.863 261.087 184.863C261.073 184.862 261.052 184.861 261.025 184.86C260.97 184.858 260.889 184.856 260.785 184.853C260.576 184.847 260.275 184.84 259.909 184.836C259.177 184.828 258.19 184.83 257.163 184.874C256.132 184.918 255.086 185.002 254.227 185.151C253.797 185.226 253.436 185.313 253.157 185.411C252.862 185.514 252.736 185.603 252.703 185.635L252.075 184.99L251.448 184.345C251.758 184.042 252.174 183.848 252.563 183.712C252.968 183.57 253.434 183.462 253.919 183.378C254.889 183.209 256.023 183.121 257.087 183.076C258.156 183.03 259.177 183.027 259.93 183.036C260.307 183.04 260.618 183.047 260.835 183.054C260.944 183.057 261.029 183.059 261.087 183.061C261.117 183.062 261.139 183.063 261.155 183.064C261.163 183.064 261.169 183.064 261.173 183.064C261.175 183.065 261.176 183.065 261.178 183.065C261.178 183.065 261.179 183.065 261.179 183.065C261.179 183.065 261.179 183.065 261.179 183.065C261.179 183.065 261.18 183.065 261.143 183.964ZM252.075 184.99L252.71 185.628C252.491 185.845 252.429 186.024 252.416 186.151C252.401 186.286 252.432 186.449 252.54 186.639C252.771 187.041 253.282 187.419 253.838 187.547L253.636 188.424L253.434 189.301C252.443 189.073 251.486 188.418 250.979 187.534C250.718 187.081 250.563 186.538 250.626 185.956C250.69 185.366 250.971 184.819 251.441 184.352L252.075 184.99ZM253.636 188.424C254.137 189.172 254.137 189.172 254.137 189.172C254.138 189.172 254.138 189.171 254.138 189.171C254.138 189.171 254.139 189.171 254.139 189.171C254.139 189.17 254.14 189.17 254.14 189.17C254.14 189.17 254.139 189.17 254.138 189.171C254.136 189.173 254.13 189.177 254.122 189.182C254.107 189.194 254.081 189.212 254.048 189.238C253.981 189.29 253.885 189.367 253.78 189.465C253.56 189.67 253.338 189.926 253.209 190.192C253.086 190.443 253.069 190.646 253.143 190.841C253.225 191.058 253.484 191.432 254.272 191.87L253.835 192.656L253.397 193.443C252.404 192.891 251.748 192.241 251.46 191.479C251.162 190.694 251.318 189.963 251.591 189.403C251.857 188.858 252.253 188.428 252.553 188.149C252.707 188.005 252.847 187.891 252.95 187.812C253.001 187.772 253.044 187.74 253.076 187.718C253.092 187.706 253.105 187.697 253.115 187.69C253.12 187.687 253.124 187.684 253.128 187.682C253.129 187.68 253.131 187.679 253.132 187.679C253.133 187.678 253.133 187.678 253.134 187.677C253.134 187.677 253.135 187.677 253.135 187.677C253.135 187.677 253.135 187.676 253.636 188.424ZM253.835 192.656C254.407 193.351 254.407 193.351 254.408 193.351C254.408 193.351 254.408 193.35 254.408 193.35C254.409 193.35 254.409 193.349 254.41 193.349C254.411 193.348 254.411 193.348 254.412 193.347C254.413 193.346 254.414 193.345 254.414 193.345C254.415 193.344 254.414 193.345 254.412 193.347C254.407 193.352 254.396 193.362 254.382 193.376C254.352 193.405 254.308 193.451 254.263 193.509C254.164 193.635 254.093 193.77 254.071 193.891C254.054 193.979 254.053 194.097 254.178 194.275C254.322 194.481 254.658 194.796 255.408 195.147L255.027 195.962L254.646 196.778C253.735 196.352 253.093 195.865 252.702 195.306C252.291 194.719 252.2 194.108 252.301 193.563C252.395 193.052 252.649 192.651 252.846 192.4C252.947 192.27 253.045 192.166 253.118 192.094C253.155 192.057 253.187 192.028 253.212 192.006C253.224 191.995 253.235 191.985 253.243 191.978C253.248 191.974 253.251 191.971 253.255 191.969C253.256 191.967 253.258 191.966 253.259 191.965C253.26 191.964 253.26 191.964 253.261 191.963C253.261 191.963 253.262 191.963 253.262 191.962C253.262 191.962 253.263 191.962 253.835 192.656ZM255.027 195.962L255.408 195.147C256.951 195.869 259.529 196.487 262.106 196.926C264.67 197.362 267.104 197.599 268.309 197.599V198.499V199.399C266.96 199.399 264.413 199.144 261.804 198.7C259.209 198.259 256.424 197.609 254.646 196.778L255.027 195.962ZM268.309 198.499L268.305 197.599C271.242 197.585 274.243 197.297 276.518 197.011C277.653 196.868 278.603 196.726 279.269 196.62C279.601 196.567 279.862 196.523 280.04 196.493C280.128 196.477 280.196 196.465 280.241 196.457C280.264 196.453 280.281 196.45 280.292 196.448C280.297 196.447 280.301 196.446 280.304 196.446C280.305 196.446 280.306 196.446 280.307 196.445C280.307 196.445 280.307 196.445 280.307 196.445C280.307 196.445 280.307 196.445 280.307 196.445C280.307 196.445 280.307 196.445 280.47 197.33C280.633 198.216 280.633 198.216 280.633 198.216C280.633 198.216 280.633 198.216 280.633 198.216C280.633 198.216 280.632 198.216 280.632 198.216C280.631 198.216 280.629 198.216 280.628 198.217C280.624 198.217 280.62 198.218 280.613 198.219C280.6 198.222 280.582 198.225 280.558 198.229C280.509 198.238 280.438 198.25 280.346 198.266C280.162 198.298 279.893 198.344 279.552 198.398C278.871 198.506 277.901 198.651 276.742 198.797C274.43 199.088 271.351 199.384 268.313 199.399L268.309 198.499ZM280.47 197.33L280.88 196.529C282.106 197.156 285.279 198.174 289.624 199.277C293.93 200.369 299.295 201.522 304.838 202.436C310.384 203.351 316.088 204.023 321.078 204.16C326.108 204.298 330.273 203.887 332.833 202.737L333.202 203.558L333.571 204.379C330.612 205.708 326.09 206.098 321.029 205.959C315.928 205.819 310.137 205.134 304.545 204.212C298.951 203.29 293.535 202.126 289.181 201.021C284.864 199.926 281.495 198.866 280.061 198.132L280.47 197.33ZM333.202 203.558L332.832 202.737C335.248 201.647 336.904 198.858 337.938 194.919C338.961 191.022 339.31 186.24 339.307 181.546C339.304 176.861 338.952 172.314 338.595 168.908C338.417 167.206 338.237 165.792 338.101 164.792C338.032 164.291 337.975 163.895 337.933 163.618C337.912 163.479 337.896 163.371 337.884 163.294C337.878 163.256 337.873 163.226 337.869 163.204C337.868 163.193 337.866 163.184 337.865 163.178C337.864 163.171 337.864 163.169 337.864 163.169L338.751 163.017L339.638 162.864C339.677 163.096 341.102 172.022 341.107 181.545C341.11 186.301 340.759 191.261 339.679 195.376C338.611 199.447 336.762 202.939 333.572 204.378L333.202 203.558ZM338.751 163.017V163.917H317.323V163.017V162.117H338.751V163.017ZM317.323 163.017L318.223 163.015L318.251 182.053L317.351 182.055L316.451 182.056L316.423 163.018L317.323 163.017ZM317.351 182.055L317.274 182.951L281.553 179.873L281.63 178.977L281.708 178.08L317.429 181.158L317.351 182.055ZM281.63 178.977C281.017 179.635 281.017 179.635 281.017 179.635C281.017 179.635 281.017 179.635 281.017 179.635C281.016 179.635 281.016 179.634 281.016 179.634C281.015 179.633 281.013 179.631 281.011 179.629C281.006 179.625 281 179.619 280.991 179.611C280.973 179.594 280.945 179.569 280.91 179.536C280.838 179.47 280.732 179.373 280.595 179.25C280.321 179.003 279.924 178.651 279.438 178.232C278.464 177.392 277.135 176.289 275.705 175.226C274.269 174.159 272.76 173.154 271.423 172.494C270.754 172.164 270.158 171.935 269.656 171.821C269.142 171.704 268.811 171.726 268.615 171.797L268.309 170.95L268.003 170.104C268.656 169.868 269.376 169.911 270.055 170.066C270.745 170.223 271.481 170.516 272.22 170.88C273.699 171.611 275.308 172.689 276.778 173.782C278.255 174.879 279.62 176.012 280.613 176.868C281.111 177.297 281.517 177.658 281.799 177.913C281.941 178.04 282.051 178.141 282.126 178.21C282.164 178.244 282.193 178.271 282.213 178.289C282.223 178.298 282.23 178.305 282.235 178.31C282.238 178.313 282.24 178.314 282.241 178.316C282.242 178.316 282.243 178.317 282.243 178.317C282.243 178.318 282.243 178.318 282.244 178.318C282.244 178.318 282.244 178.318 281.63 178.977Z" fill="#001527"/>
<path d="M260.886 189.235C261.156 189.235 261.369 189.035 261.383 188.764C261.397 188.494 261.184 188.266 260.915 188.251L253.649 187.924C253.38 187.909 253.153 188.123 253.138 188.394C253.124 188.665 253.337 188.893 253.607 188.907L260.858 189.235C260.868 189.235 260.877 189.235 260.886 189.235Z" fill="#001527"/>
<path d="M261.129 193.283C261.399 193.283 261.626 193.069 261.626 192.799C261.626 192.528 261.413 192.3 261.143 192.286L253.85 192.157C253.84 192.157 253.835 192.157 253.835 192.157C253.566 192.157 253.353 192.371 253.339 192.642C253.339 192.913 253.552 193.141 253.821 193.155L261.129 193.283Z" fill="#001527"/>
<path d="M341.673 165.524C342.085 169.828 313.108 173.575 312.186 169.186C311.916 167.932 311.59 166.522 311.263 164.983C310.284 160.451 309.22 154.851 309.22 149.308L324.886 132.165C324.886 132.165 329.753 134.046 334.507 141.94C337.317 146.586 339.36 154.138 340.538 159.439C341.29 162.859 341.673 165.339 341.673 165.524Z" fill="#CEF0C9"/>
<path d="M341.673 165.524C342.085 169.827 313.108 173.575 312.186 169.186C311.916 167.932 311.59 166.522 311.263 164.983C322.076 166.849 340.212 158.727 340.538 159.425V159.439C341.29 162.859 341.673 165.339 341.673 165.524Z" fill="#ADE2A5"/>
<path d="M69.1316 178.977C69.1316 188.365 76.7098 195.967 86.0414 195.967C95.3874 195.967 102.951 188.365 102.951 178.977C102.951 169.59 95.3874 161.973 86.0414 161.973C76.7098 161.973 69.1316 169.59 69.1316 178.977Z" fill="white"/>
<path d="M69.1314 178.646C69.1314 187.937 76.553 195.461 85.6917 195.461C94.8445 195.461 102.252 187.937 102.252 178.646C102.252 169.355 94.8445 161.817 85.6917 161.817C76.553 161.817 69.1314 169.355 69.1314 178.646Z" stroke="#001527" stroke-width="1.8"/>
<path d="M129.717 145.817H187.339M129.717 154.593H187.339" stroke="#001527" stroke-width="1.8" stroke-linecap="round"/>
<path d="M224.801 104.483C223.831 106.433 222.145 111.829 224.008 116.041C221.68 116.626 217.722 118.967 220.516 123.647" stroke="#001527" stroke-width="1.8" stroke-linecap="round"/>
<path d="M82.1875 12.965C81.9887 12.8327 81.7476 12.7869 81.515 12.8411C81.2826 12.8951 81.0778 13.0446 80.9479 13.2534C80.8179 13.4621 80.7741 13.7119 80.8283 13.9443C80.8823 14.1768 81.0299 14.373 81.2363 14.4931C81.4617 14.6243 81.6872 14.7555 81.9126 14.8868C85.9706 17.2492 90.0285 19.6117 94.0865 21.9741C94.3119 22.1053 94.5374 22.2366 94.7628 22.3678C94.8601 22.4244 94.9775 22.4398 95.0882 22.4123C95.199 22.3848 95.2941 22.3166 95.3535 22.2212C95.4129 22.1257 95.4322 22.0103 95.408 21.8987C95.3837 21.7872 95.3181 21.6887 95.2244 21.6264C95.0071 21.482 94.7898 21.3377 94.5725 21.1933C90.6615 18.5949 86.7504 15.9965 82.8394 13.398C82.6221 13.2537 82.4048 13.1093 82.1875 12.965Z" fill="#001527"/>
<path d="M84.9714 3.01945C84.8119 2.8414 84.5897 2.73583 84.3511 2.72816C84.1128 2.72037 83.8777 2.81111 83.6999 2.97823C83.5221 3.14535 83.4169 3.37454 83.4098 3.61318C83.4025 3.85194 83.4939 4.0806 83.6614 4.25105C83.8973 4.49123 84.1333 4.73141 84.3692 4.97159C88.6162 9.29479 92.8632 13.618 97.1102 17.9412C97.3462 18.1814 97.5821 18.4216 97.818 18.6617C97.8975 18.7426 98.007 18.7887 98.1214 18.7912C98.2359 18.7935 98.3458 18.7519 98.4282 18.6745C98.5106 18.5971 98.5589 18.4898 98.5637 18.3753C98.5685 18.2609 98.5293 18.1486 98.4537 18.0641C98.229 17.8134 98.0043 17.5626 97.7796 17.3119C93.7349 12.7985 89.6902 8.28509 85.6455 3.77169C85.4208 3.52094 85.1961 3.2702 84.9714 3.01945Z" fill="#001527"/>
<path d="M95.8116 1.14253C95.7193 0.921738 95.544 0.749381 95.3209 0.664997C95.098 0.580518 94.8455 0.59093 94.6225 0.692315C94.3994 0.7937 94.2252 0.977285 94.1417 1.20106C94.058 1.42493 94.0719 1.67065 94.1766 1.88579C94.2966 2.13234 94.4166 2.37889 94.5365 2.62544C96.6957 7.06334 98.855 11.5012 101.014 15.9391C101.134 16.1857 101.254 16.4322 101.374 16.6788C101.424 16.7803 101.512 16.8587 101.62 16.8976C101.727 16.9365 101.844 16.9326 101.946 16.8861C102.048 16.8396 102.128 16.7541 102.17 16.6476C102.211 16.5411 102.211 16.4223 102.167 16.3181C102.061 16.0652 101.956 15.8123 101.85 15.5594C99.9429 11.0067 98.0362 6.45399 96.1294 1.90131C96.0235 1.64838 95.9176 1.39545 95.8116 1.14253Z" fill="#001527"/>
</svg>
