<svg width="375" height="276" viewBox="0 0 375 276" fill="none" xmlns="http://www.w3.org/2000/svg">
<g clip-path="url(#clip0_1_22758)">
<path d="M88.1521 113.386C88.6929 111.469 90.9641 111.399 92.557 111.586C92.9308 111.625 93.1177 111.92 93.1471 112.215C96.3422 99.6496 100.728 87.0146 109.833 77.4479C114.68 72.3448 120.56 68.8252 126.981 66.8785C127.472 62.3455 130.766 58.3239 135.614 57.7738C140.443 57.233 146.165 60.595 146.725 65.59C166.468 68.5208 184.923 82.7473 189.339 102.678C190.391 101.95 192.053 101.96 192.948 102.874C193.371 103.307 193.636 103.946 193.606 104.555C193.586 105.008 193.439 105.292 193.203 105.549C193.36 105.697 193.39 105.99 193.164 106.119C178.298 114.201 160.324 117.533 143.628 118.979C125.842 120.513 107.906 119.421 90.3165 116.521C89.9039 116.452 89.7757 116.118 89.8452 115.794C88.7824 115.874 87.8677 114.409 88.1521 113.386ZM135.614 62.6606C133.796 63.2214 133.147 64.2829 132.891 65.5606C135.653 65.1374 138.476 64.9798 141.346 65.088C140.029 63.2414 138.023 61.9236 135.614 62.6606Z" fill="#001527"/>
<path fill-rule="evenodd" clip-rule="evenodd" d="M147.109 146.093C145.046 146.933 142.884 147.813 141.264 149.065C140.968 149.301 140.782 149.605 140.883 150.009C141.286 151.513 142.504 152.978 143.734 154.237C144.284 155.102 144.962 155.88 145.739 156.538C145.827 156.694 145.965 156.813 146.142 156.872C146.147 156.872 146.15 156.874 146.153 156.876C146.155 156.878 146.158 156.881 146.162 156.881C146.329 157.008 146.506 156.969 146.624 156.861C146.772 156.817 146.917 156.772 147.062 156.728C147.207 156.684 147.351 156.639 147.499 156.595C151.972 166.213 158.512 176.309 168.678 180.538C178.414 184.589 188.895 182.908 199.166 181.26C203.157 180.62 207.115 179.985 210.986 179.693C211.049 179.686 211.105 179.667 211.157 179.65C211.186 179.64 211.214 179.63 211.241 179.623C212.785 197.086 212.765 214.421 212.244 231.903C211.958 233.26 211.713 234.607 211.467 235.963C211.309 236.072 211.181 236.229 211.143 236.484C209.599 245.805 206.875 254.714 202.894 263.287C202.717 263.68 202.756 264.279 203.209 264.486C231.329 277.238 262.636 276.776 292.773 274.023C293.381 273.965 293.706 273.512 293.618 272.922C293.53 272.378 293.447 271.833 293.368 271.289C290.862 272.72 290.079 270.36 290 269.001C288.4 267.801 287.667 264.835 287.5 263.501C286.7 263.101 286.167 259.668 286 258.001L285.5 257.501C283.9 252.701 288.621 246.501 291.182 244.001C291.132 243.357 291.079 242.713 291.022 242.068C291.148 240.882 291.284 239.693 291.43 238.501C287.773 235.301 290.21 234.835 291.886 235.001C293.533 223.134 296.237 211.143 300.697 200.123C302.083 196.702 304.286 192.198 308.258 191.304C312.192 190.409 316.43 193.221 318.947 195.945C324.226 201.668 324.345 210.054 319.113 215.747C318.347 215.265 317.629 214.95 317.088 214.97C314.934 215.038 310.913 218.697 311.149 220.918C311.3 222.378 313.338 224.168 314.93 225.567C315.515 226.082 316.041 226.543 316.39 226.916C317.16 227.743 317.932 228.658 318.718 229.59C320.418 231.607 322.184 233.701 324.147 235.146C328.215 238.138 331.426 234.289 334.11 231.073C334.417 230.705 334.718 230.345 335.012 230.004C335.534 229.385 335.032 228.578 334.432 228.52C334.482 228.373 334.462 228.215 334.324 228.087C334.295 228.058 334.265 228.028 334.227 227.999C338.168 223.407 341.915 218.639 345.366 213.674C348.64 208.964 351.639 203.861 350.99 197.922C350.449 192.849 347.588 188.336 344.688 184.285C341.306 179.546 337.766 174.894 334.157 170.322C326.636 160.796 318.131 150.923 307.571 144.651C302.851 141.839 297.738 141.16 292.36 140.698L291.802 140.651C284.878 140.057 277.936 139.462 270.994 139.184C261.857 139.919 252.733 138.724 249.313 138.035C235.509 135.026 222.982 135.212 210.229 141.761C205.456 144.213 200.737 146.76 196.018 149.308C193.658 150.581 191.298 151.855 188.932 153.117C188.402 153.4 187.87 153.697 187.336 153.994C183.268 156.263 179.048 158.616 174.39 155.791C170.84 153.647 167.821 149.97 165.511 146.588C165.756 146.342 165.991 146.095 166.228 145.84C166.405 145.644 166.365 145.398 166.218 145.25C166.337 145.092 166.387 144.886 166.258 144.689C166.176 144.565 166.095 144.442 166.014 144.319C164.279 141.689 162.731 139.343 159.425 140.451C157.196 141.197 155.015 142.314 152.862 143.416C151.806 143.958 150.756 144.496 149.71 144.984C148.898 145.365 148.013 145.725 147.109 146.093Z" fill="#B9E5FA"/>
<path fill-rule="evenodd" clip-rule="evenodd" d="M244.487 79.09C239.227 79.7002 232.059 83.0235 235.658 88.7849C238.077 92.649 243.514 93.0121 248.31 91.8345L249.838 91.4086C250.978 91.0454 252.049 90.6034 253.013 90.1014C252.402 91.8505 252.894 93.7385 255.372 93.9454C258.862 94.2405 262.697 91.7237 264.319 88.6954C268.37 90.5741 272.619 91.9894 276.954 92.7371C276.03 96.0604 276.806 100.23 278.881 102.914C279.55 103.779 280.534 104.526 281.625 104.408C281.251 107.172 282.323 110.043 285.115 111.291C288.026 112.579 291.516 110.789 291.89 107.673C295.095 108.184 295.567 112.756 294.161 115.096C292.449 117.938 289.529 117.801 286.737 117.112C286.383 117.024 286.118 117.162 285.96 117.378C285.538 117.378 285.076 117.644 285.007 118.174C284.16 124.552 280.543 129.158 275.665 132L275.575 133.877C275.581 133.893 275.586 133.908 275.591 133.923C275.603 133.956 275.613 133.988 275.634 134.015C277.718 136.709 281.404 137.034 284.286 135.371C287.935 133.276 290.402 128.606 291.267 124.467C293.824 127.121 297.708 128.105 299.606 123.906C302.014 118.577 299.655 110.101 296.911 104.723C299.223 105.686 301.769 105.235 301.464 101.812C301.101 97.7027 298.624 93.5355 294.939 91.5781C286.45 94.8427 276.99 92.8506 268.723 89.7182C264.471 88.1079 260.123 86.2413 256.292 83.7779C253.265 81.8308 250.557 79.458 247.853 77.0881C247.76 77.0072 247.668 76.9264 247.576 76.8455C246.606 76.7979 245.602 76.8695 244.69 76.9344L244.664 76.9363C244.409 76.9457 244.114 77.1126 244.064 77.3983C243.947 78.0179 244.134 78.6174 244.487 79.09Z" fill="#001527"/>
<path d="M252.24 61.2042C252.304 60.7716 252.662 60.606 253.03 60.6167C253.02 60.566 252.989 60.5339 252.978 60.4832C250.931 51.4532 248.822 42.3832 247.778 33.189C246.966 26.0871 246.955 18.6861 250.404 12.1917C255.909 1.84256 270.276 -1.4447 278.756 7.49179C283.502 3.30727 289.704 0.935964 296.528 1.80251C304.502 2.81325 308.89 7.66803 310.229 13.9448C310.25 13.9448 310.261 13.9341 310.281 13.9234C324.183 11.1102 333.033 24.9936 331.27 37.0945C329.087 52.1956 316.261 65.6264 302.422 71.8831C302.665 72.1208 302.622 72.5734 302.327 72.7897C302.411 72.9339 302.443 73.1088 302.338 73.3051C299.216 79.232 297.075 85.3953 296.326 92.0446C296.319 92.1047 296.292 92.1474 296.276 92.2008C287.01 95.9915 276.46 93.5601 267.468 90.1259C263 88.4209 258.415 86.4528 254.43 83.8185C251.806 82.084 249.4 80.0706 247.017 78.033C249.631 72.4332 251.327 67.302 252.24 61.2042ZM301.296 72.9766C298.408 77.3134 296.5 82.0213 295.394 86.9922C296.5 82.0213 298.41 77.3134 301.296 72.9766ZM271.981 4.9202C270.987 4.56236 269.967 4.28998 268.934 4.11106C269.967 4.28998 270.987 4.5637 271.981 4.9202ZM248.073 78.758C248.973 77.531 249.774 76.2105 250.476 74.8259C249.775 76.2118 248.973 77.5323 248.073 78.758ZM257.343 84.8252C254.177 82.9786 251.082 80.9304 248.041 78.7794C251.082 80.9304 254.179 82.9786 257.343 84.8252Z" fill="#B9E5FA"/>
<path d="M249.581 99.581C249.316 100.534 249.227 102.206 250.496 102.452C251.724 102.677 252.796 101.282 253.24 100.327C253.78 99.1764 253.839 97.8492 253.368 96.6796C253.21 96.3164 252.818 96.3058 252.62 96.5221C252.463 96.4927 252.286 96.502 252.118 96.5808C250.879 97.1523 249.935 98.2538 249.581 99.581Z" fill="#001527"/>
<path d="M266.669 106.175C266.403 107.128 266.315 108.8 267.584 109.046C268.813 109.272 269.884 107.876 270.328 106.922C270.868 105.771 270.927 104.443 270.456 103.274C270.298 102.909 269.906 102.9 269.708 103.116C269.55 103.087 269.374 103.096 269.207 103.175C267.967 103.746 267.023 104.848 266.669 106.175Z" fill="#001527"/>
<path d="M251.229 154.526C252.493 153.722 254.341 154.109 255.128 155.408C255.45 155.938 255.516 156.559 255.394 157.14C255.4 157.235 255.414 157.33 255.411 157.424C255.383 158.772 254.347 159.788 253.03 159.929C251.691 160.073 250.272 159.323 249.882 157.983C249.511 156.703 250.118 155.232 251.229 154.526Z" fill="#001527"/>
<path d="M271.467 156.628C271.508 156.629 271.549 156.631 271.591 156.645C273.607 157.35 273.951 160.323 272.299 161.596C270.618 162.891 267.718 161.783 267.55 159.598C267.385 157.496 269.671 155.934 271.467 156.628Z" fill="#001527"/>
<path d="M249.965 178.575C250.974 178.303 252.128 178.676 252.842 179.44C253.581 179.95 254.056 180.877 254.011 181.778C253.933 183.291 252.489 184.328 251.051 184.336C249.567 184.344 248.384 183.25 248.138 181.812C247.905 180.456 248.558 178.956 249.965 178.575ZM249.598 181.914C249.568 181.759 249.562 181.598 249.571 181.434C249.52 181.201 249.568 180.942 249.774 180.669C249.787 180.65 249.806 180.638 249.821 180.621C250.081 180.196 250.512 179.948 250.941 179.905C250.301 179.825 249.633 180.161 249.495 180.917C249.43 181.275 249.478 181.614 249.598 181.914Z" fill="#001527"/>
<path d="M266.749 180.266C267.331 180.324 267.819 180.576 268.183 180.935C268.311 180.942 268.442 180.992 268.562 181.122C269.749 182.404 269.269 184.529 267.847 185.447C266.262 186.469 264.426 185.339 263.984 183.667C263.503 181.846 264.805 180.075 266.749 180.266Z" fill="#001527"/>
<path d="M246.554 206.197C247.102 205.639 247.881 205.405 248.598 205.57C248.67 205.511 248.765 205.479 248.879 205.491C249.279 205.534 249.646 205.624 250.034 205.724C250.349 205.806 250.793 205.829 251.038 206.073C251.428 206.463 251.414 207.312 251.351 207.807C251.201 209.008 250.382 210.116 249.17 210.402C246.726 210.981 244.654 208.13 246.554 206.197Z" fill="#001527"/>
<path d="M262.022 207.986C262.957 206.731 264.776 206.854 265.808 207.746C266.667 207.929 267.36 208.67 267.406 209.621C267.47 210.951 266.428 212.112 265.175 212.418C262.614 213.045 260.343 210.236 262.022 207.986Z" fill="#001527"/>
<path d="M246.623 231.662C247.403 232.29 247.684 233.166 247.579 233.976C247.678 234.688 247.524 235.437 247.059 235.968C245.609 237.624 242.676 236.527 242.261 234.497C241.769 232.083 244.632 230.06 246.623 231.662Z" fill="#001527"/>
<path d="M258.02 235.267C258.164 234.017 259.199 232.859 260.52 232.914C260.566 232.915 260.609 232.931 260.656 232.937C260.745 232.831 260.887 232.768 261.076 232.81C262.392 233.102 263.277 234.444 263.125 235.77C262.963 237.171 261.633 238.032 260.281 237.916C258.904 237.797 257.859 236.672 258.02 235.267Z" fill="#001527"/>
<path d="M239.68 258.042C240.321 258.061 240.963 258.344 241.406 258.804C242.169 259.277 242.346 260.411 242.126 261.212C241.58 263.205 238.908 264.091 237.696 262.164C236.66 260.52 237.533 257.982 239.68 258.042Z" fill="#001527"/>
<path d="M259.375 259.297C260.714 260.106 261.279 262.06 259.939 263.364C258.132 265.119 255.167 263.747 255.28 261.245C255.367 259.295 257.988 258.047 259.375 259.297Z" fill="#001527"/>
<path d="M97.8466 112.324C112.544 113.635 127.234 113.715 141.915 112.088C157.276 110.384 171.777 106.341 186.644 102.376C186.896 102.309 186.976 102.661 186.748 102.756C173.236 108.367 158.215 111.216 143.741 112.957C128.532 114.786 113.087 115.007 97.8452 113.418C97.1576 113.344 97.1416 112.26 97.8466 112.324Z" fill="white"/>
<path d="M141.789 67.3202C142.496 69.3096 144.86 69.6608 146.019 67.8276C146.17 67.5886 146.496 67.7955 146.389 68.0439C145.36 70.4325 141.669 70.0974 141.203 67.4831C141.135 67.0972 141.657 66.9477 141.789 67.3202Z" fill="white"/>
<path d="M127.404 67.8988C128.822 69.4543 131.292 69.5438 132.589 67.7453C132.768 67.4969 133.132 67.7066 133 67.9856C131.92 70.2848 128.125 70.5959 126.779 68.3808C126.548 68.0003 127.097 67.561 127.404 67.8988Z" fill="white"/>
<path d="M131.105 118.334C130.738 118 130.168 118.027 129.834 118.395C129.5 118.762 129.527 119.332 129.895 119.666L130.5 119L131.105 118.334ZM141 125.5H141.9C141.9 125.103 141.639 124.752 141.259 124.638L141 125.5ZM156.29 117.431C156.528 116.995 156.367 116.448 155.931 116.21C155.495 115.972 154.948 116.133 154.71 116.569L155.5 117L156.29 117.431ZM146.352 122.612C145.862 122.694 145.531 123.158 145.612 123.648C145.694 124.138 146.158 124.469 146.648 124.388L146.5 123.5L146.352 122.612ZM149.385 123.336C149.294 122.847 148.825 122.525 148.336 122.615C147.847 122.706 147.525 123.175 147.615 123.664L148.5 123.5L149.385 123.336ZM249.9 90C249.9 89.5029 249.497 89.1 249 89.1C248.503 89.1 248.1 89.5029 248.1 90H249H249.9ZM242 128.5L241.353 129.126L242 128.5ZM275 133L275.444 133.783C275.466 133.77 275.487 133.757 275.508 133.743L275 133ZM286.394 118.105C286.452 117.612 286.099 117.164 285.605 117.106C285.112 117.048 284.664 117.401 284.606 117.895L285.5 118L286.394 118.105ZM262.742 98.0099C263.023 97.6003 262.919 97.04 262.51 96.7584C262.1 96.4768 261.54 96.5805 261.258 96.9901L262 97.5L262.742 98.0099ZM255 109.5L254.715 110.354C255.175 110.507 255.673 110.269 255.843 109.816L255 109.5ZM252.919 115.396C253.414 115.441 253.851 115.076 253.896 114.581C253.941 114.086 253.576 113.649 253.081 113.604L253 114.5L252.919 115.396ZM301.5 238.5L301.174 239.339C301.582 239.498 302.046 239.339 302.272 238.963L301.5 238.5ZM292.5 235L292.826 234.161C292.757 234.134 292.685 234.116 292.612 234.107L292.5 235ZM290.5 237L289.797 237.562C289.845 237.621 289.899 237.674 289.96 237.72L290.5 237ZM293 240H293.9C293.9 239.903 293.884 239.807 293.854 239.715L293 240ZM285.303 258.57C285.618 258.955 286.185 259.011 286.57 258.697C286.955 258.382 287.011 257.815 286.697 257.43L286 258L285.303 258.57ZM291.21 250.553C291.516 250.16 291.445 249.595 291.053 249.29C290.66 248.984 290.095 249.055 289.79 249.447L290.5 250L291.21 250.553ZM287.253 264.365C287.731 264.502 288.229 264.225 288.365 263.747C288.502 263.269 288.225 262.771 287.747 262.635L287.5 263.5L287.253 264.365ZM292.831 253.846C293.022 253.387 292.805 252.86 292.346 252.669C291.887 252.478 291.36 252.695 291.169 253.154L292 253.5L292.831 253.846ZM289.684 269.843C290.149 270.017 290.668 269.781 290.843 269.316C291.017 268.851 290.781 268.332 290.316 268.157L290 269L289.684 269.843ZM295.312 256.888C295.526 256.44 295.337 255.903 294.888 255.688C294.44 255.474 293.903 255.663 293.688 256.112L294.5 256.5L295.312 256.888ZM290.5 271.5L291.327 271.145L290.5 271.5ZM300.5 252.5L299.98 251.765C299.839 251.865 299.729 252.005 299.664 252.166L300.5 252.5ZM250.312 134.222L250.685 133.403L250.312 134.222ZM291.208 272.097L291.103 271.204L291.208 272.097ZM382.869 272.997C383.366 272.997 383.769 272.594 383.769 272.097C383.769 271.6 383.366 271.197 382.869 271.197V272.097V272.997ZM130.5 119L129.895 119.666C130.843 120.528 132.503 121.881 134.438 123.173C136.362 124.459 138.616 125.724 140.741 126.362L141 125.5L141.259 124.638C139.384 124.076 137.304 122.924 135.437 121.677C133.58 120.436 131.99 119.138 131.105 118.334L130.5 119ZM141 125.5H140.1C140.1 128.203 140.88 132.419 141.919 136.468C142.96 140.522 144.297 144.543 145.467 146.857L146.27 146.45L147.073 146.044C145.992 143.907 144.694 140.037 143.662 136.02C142.63 131.997 141.9 127.964 141.9 125.5H141ZM155.5 117L154.71 116.569C153.783 118.269 150.776 121.875 146.352 122.612L146.5 123.5L146.648 124.388C151.824 123.525 155.217 119.398 156.29 117.431L155.5 117ZM148.5 123.5L147.615 123.664C148.462 128.236 150.965 136.566 154.802 142.79L155.568 142.317L156.334 141.845C152.648 135.865 150.205 127.764 149.385 123.336L148.5 123.5ZM249 90H248.1C248.1 90.5198 247.764 91.9569 246.508 94.2851C245.273 96.5743 243.191 99.6421 239.829 103.4L240.5 104L241.171 104.6C244.609 100.758 246.777 97.5757 248.092 95.1399C249.386 92.7431 249.9 90.9802 249.9 90H249ZM240.5 104L239.829 103.4C236.211 107.444 235.313 112.567 235.941 117.287C236.566 121.99 238.717 126.399 241.353 129.126L242 128.5L242.647 127.874C240.304 125.451 238.305 121.409 237.725 117.05C237.147 112.707 237.989 108.156 241.171 104.6L240.5 104ZM275 133L275.508 133.743C277.158 132.614 279.649 130.506 281.837 127.804C284.018 125.11 285.966 121.744 286.394 118.105L285.5 118L284.606 117.895C284.234 121.056 282.515 124.106 280.438 126.671C278.368 129.227 276.009 131.219 274.492 132.257L275 133ZM262 97.5L261.258 96.9901C260.333 98.3357 258.874 100.55 257.492 102.834C256.122 105.1 254.79 107.497 254.157 109.184L255 109.5L255.843 109.816C256.41 108.303 257.661 106.033 259.033 103.766C260.393 101.516 261.833 99.331 262.742 98.0099L262 97.5ZM255 109.5L255.285 108.646C252.6 107.751 250.247 109.081 249.431 110.878C249.017 111.787 248.979 112.885 249.619 113.809C250.249 114.718 251.393 115.258 252.919 115.396L253 114.5L253.081 113.604C251.857 113.492 251.314 113.095 251.099 112.785C250.896 112.49 250.858 112.088 251.069 111.622C251.503 110.669 252.9 109.749 254.715 110.354L255 109.5ZM314.884 225.306L314.275 224.643C312.276 226.476 309.223 229.281 306.518 231.879C305.167 233.178 303.896 234.431 302.884 235.488C301.899 236.519 301.089 237.436 300.728 238.037L301.5 238.5L302.272 238.963C302.511 238.564 303.174 237.79 304.185 236.732C305.171 235.701 306.421 234.468 307.765 233.177C310.453 230.595 313.491 227.803 315.492 225.969L314.884 225.306ZM301.5 238.5L301.826 237.661L292.826 234.161L292.5 235L292.174 235.839L301.174 239.339L301.5 238.5ZM292.5 235L292.612 234.107C292.234 234.06 291.785 234.035 291.344 234.063C290.919 234.089 290.419 234.169 289.992 234.385C289.534 234.618 289.071 235.07 289.05 235.795C289.033 236.414 289.356 237.011 289.797 237.562L290.5 237L291.203 236.438C290.844 235.989 290.851 235.815 290.85 235.846C290.849 235.883 290.832 235.939 290.799 235.983C290.773 236.018 290.761 236.013 290.807 235.99C290.915 235.936 291.131 235.88 291.456 235.859C291.765 235.84 292.099 235.857 292.388 235.893L292.5 235ZM290.5 237L289.96 237.72C290.252 237.939 290.735 238.352 291.186 238.845C291.651 239.353 292.006 239.866 292.146 240.285L293 240L293.854 239.715C293.594 238.934 293.033 238.197 292.514 237.63C291.982 237.048 291.414 236.561 291.04 236.28L290.5 237ZM293 240H292.1C292.1 240.38 291.976 240.861 291.698 241.462C291.423 242.056 291.023 242.712 290.531 243.428C290.041 244.143 289.477 244.893 288.881 245.679C288.29 246.46 287.667 247.277 287.079 248.103C285.914 249.74 284.819 251.504 284.329 253.258C283.825 255.06 283.949 256.915 285.303 258.57L286 258L286.697 257.43C285.801 256.335 285.675 255.127 286.062 253.742C286.463 252.309 287.398 250.76 288.546 249.147C289.114 248.348 289.718 247.555 290.316 246.766C290.91 245.982 291.498 245.201 292.016 244.447C292.532 243.694 292.995 242.944 293.331 242.218C293.665 241.498 293.9 240.745 293.9 240H293ZM290.5 250L289.79 249.447C288.544 251.049 286.874 254.276 285.953 257.232C285.494 258.706 285.191 260.204 285.266 261.445C285.341 262.685 285.837 263.961 287.253 264.365L287.5 263.5L287.747 262.635C287.413 262.539 287.118 262.253 287.062 261.336C287.007 260.421 287.235 259.169 287.672 257.768C288.542 254.974 290.123 251.951 291.21 250.553L290.5 250ZM292 253.5L291.169 253.154C289.932 256.123 288.395 259.705 287.686 262.732C287.333 264.241 287.159 265.715 287.388 266.953C287.628 268.246 288.325 269.333 289.684 269.843L290 269L290.316 268.157C289.675 267.917 289.31 267.442 289.158 266.625C288.997 265.754 289.104 264.571 289.439 263.143C290.105 260.295 291.568 256.877 292.831 253.846L292 253.5ZM294.5 256.5L293.688 256.112C292.759 258.055 291.441 261.145 290.504 264.117C290.036 265.601 289.655 267.081 289.47 268.388C289.29 269.654 289.27 270.914 289.673 271.855L290.5 271.5L291.327 271.145C291.13 270.686 291.08 269.851 291.252 268.64C291.418 267.471 291.768 266.095 292.221 264.658C293.126 261.788 294.408 258.778 295.312 256.888L294.5 256.5ZM300.5 252.5L301.02 253.235C304.457 250.803 309.599 246.865 314.13 243.186C316.396 241.346 318.517 239.565 320.2 238.064C321.855 236.589 323.164 235.319 323.732 234.523L323 234L322.268 233.477C321.836 234.081 320.687 235.219 319.003 236.72C317.348 238.196 315.25 239.958 312.995 241.789C308.485 245.451 303.376 249.363 299.98 251.765L300.5 252.5ZM242 128.5L241.353 129.126C243.235 131.073 246.202 133.34 249.939 135.041L250.312 134.222L250.685 133.403C247.157 131.796 244.375 129.662 242.647 127.874L242 128.5ZM250.312 134.222L249.48 134.566C249.582 134.813 249.66 135.283 249.67 135.962C249.68 136.615 249.626 137.376 249.525 138.144L250.418 138.262L251.31 138.379C251.419 137.548 251.481 136.697 251.47 135.935C251.459 135.198 251.379 134.449 251.144 133.879L250.312 134.222ZM250.312 134.222L249.939 135.041C254.763 137.239 260.912 138.511 267.683 136.889L267.474 136.014L267.264 135.139C260.962 136.648 255.225 135.471 250.685 133.403L250.312 134.222ZM267.474 136.014L267.683 136.889C270.206 136.285 272.804 135.281 275.444 133.783L275 133L274.556 132.217C272.059 133.635 269.617 134.575 267.264 135.139L267.474 136.014ZM267.474 136.014L266.799 135.418C266.019 136.302 266.058 137.307 266.296 138.093C266.517 138.818 266.967 139.53 267.16 139.885L267.951 139.455L268.742 139.025C268.458 138.504 268.168 138.062 268.019 137.57C267.887 137.137 267.926 136.861 268.148 136.61L267.474 136.014ZM290.5 271.5L289.673 271.855C289.798 272.146 289.976 272.446 290.246 272.67C290.543 272.917 290.915 273.038 291.312 272.991L291.208 272.097L291.103 271.204C291.149 271.198 291.208 271.201 291.27 271.22C291.331 271.239 291.373 271.266 291.395 271.284C291.415 271.301 291.414 271.306 291.398 271.282C291.382 271.259 291.358 271.216 291.327 271.145L290.5 271.5ZM291.208 272.097L291.312 272.991C291.901 272.923 292.365 272.507 292.685 272.152C293.04 271.758 293.398 271.231 293.755 270.626C294.473 269.412 295.264 267.746 296.091 265.849C297.744 262.053 299.598 257.178 301.336 252.834L300.5 252.5L299.664 252.166C297.908 256.555 296.079 261.367 294.44 265.13C293.621 267.012 292.865 268.595 292.205 269.711C291.874 270.272 291.586 270.681 291.348 270.946C291.074 271.25 290.995 271.216 291.103 271.204L291.208 272.097ZM291.208 272.097V272.997H382.869V272.097V271.197H291.208V272.097Z" fill="#001527"/>
<path d="M246.805 119.098C246.705 118.881 246.524 118.715 246.297 118.64C246.071 118.564 245.818 118.585 245.598 118.695C245.377 118.805 245.209 118.995 245.134 119.222C245.058 119.448 245.082 119.692 245.195 119.902C245.3 120.098 245.413 120.293 245.531 120.484C247.366 123.762 252.057 126.808 255.731 124.29C255.924 124.175 256.101 124.059 256.285 123.928C256.393 123.851 256.466 123.733 256.491 123.601C256.515 123.468 256.488 123.333 256.415 123.223C256.342 123.113 256.227 123.037 256.096 123.008C255.965 122.98 255.827 123.002 255.715 123.072C255.544 123.178 255.383 123.269 255.211 123.358C252.026 125.218 248.591 122.606 247.056 119.603C246.966 119.434 246.881 119.264 246.805 119.098Z" fill="black"/>
<path d="M273.364 140.73C268.469 140.51 253.54 140.475 244.432 145.228C245.315 164.037 243.826 213.122 231.428 264.671C230.364 269.097 226.373 272.172 221.821 272.172H-1.36035" stroke="#001527" stroke-width="1.8" stroke-linecap="round" stroke-linejoin="round"/>
<path d="M255.51 59.8768C255.298 59.7677 255.051 59.7477 254.825 59.8221C254.598 59.8963 254.409 60.0588 254.301 60.273C254.192 60.4872 254.173 60.7354 254.247 60.9622C254.321 61.1891 254.483 61.376 254.697 61.4826C255.377 61.8221 256.091 62.1739 256.787 62.5107C269.365 68.4975 283.004 73.6537 297.267 72.8917C298.05 72.8381 298.838 72.7617 299.617 72.6614C299.781 72.6402 299.93 72.5544 300.032 72.4233C300.134 72.2923 300.18 72.1267 300.16 71.9625C300.139 71.7983 300.055 71.6487 299.924 71.5462C299.794 71.4437 299.628 71.3965 299.464 71.4157C298.709 71.5039 297.946 71.569 297.187 71.612C283.35 72.1991 269.934 66.9937 257.569 60.9197C256.884 60.5782 256.181 60.2217 255.51 59.8768Z" fill="#001527"/>
<path d="M298.93 48.3605C298.996 48.2179 299.002 48.0537 298.949 47.9048C298.895 47.7558 298.786 47.6342 298.645 47.5661C298.503 47.498 298.34 47.4889 298.191 47.54C298.041 47.5911 297.916 47.6984 297.846 47.8388C297.709 48.1119 297.568 48.3885 297.426 48.6619C294.842 53.5838 291.815 58.2922 288.634 62.8646C288.456 63.1179 288.277 63.3725 288.1 63.6225C287.961 63.8171 287.907 64.0576 287.951 64.2923C287.995 64.527 288.133 64.7365 288.333 64.8737C288.533 65.0109 288.778 65.0641 289.013 65.0204C289.247 64.9767 289.452 64.8396 289.584 64.6406C289.755 64.3818 289.929 64.1184 290.1 63.8565C293.169 59.1299 296.062 54.2996 298.529 49.2125C298.665 48.9297 298.799 48.6435 298.93 48.3605Z" fill="#001527"/>
<path d="M272.327 55.7656C272.34 56.004 272.447 56.2273 272.625 56.3865C272.802 56.5457 273.037 56.6277 273.276 56.6145C273.515 56.6012 273.739 56.4939 273.898 56.316C274.057 56.1382 274.139 55.9044 274.125 55.6661C274.013 53.7332 273.983 51.7683 273.993 49.8071C274.362 35.8092 275.151 21.2634 279.922 8.2495C287.126 -5.58439 315.443 2.39638 308.743 19.5418L308.761 19.4843C306.756 24.9333 304.751 30.3824 302.746 35.8314C302.064 37.6849 301.382 39.5383 300.7 41.3918C300.648 41.5324 300.654 41.6879 300.717 41.8242C300.78 41.9605 300.894 42.0663 301.034 42.1184C301.175 42.1705 301.33 42.1647 301.466 42.1024C301.603 42.0401 301.709 41.9263 301.762 41.786C302.454 39.9364 303.147 38.0868 303.839 36.2372C305.875 30.7995 307.91 25.3619 309.946 19.9242L309.964 19.8667C317.128 1.47579 287.001 -7.99587 278.534 7.61193C273.47 21.2315 272.704 35.5731 272.227 49.7924C272.205 51.7808 272.224 53.7767 272.327 55.7656Z" fill="#001527"/>
<path d="M146.702 153.174C146.474 153.244 146.284 153.401 146.175 153.613C146.066 153.826 146.047 154.076 146.122 154.307C146.196 154.538 146.358 154.73 146.57 154.839C146.783 154.948 147.029 154.964 147.255 154.887C147.542 154.79 147.837 154.688 148.136 154.584C153.402 152.707 158.651 150.872 163.695 148.243C163.971 148.089 164.256 147.922 164.523 147.75C164.654 147.665 164.746 147.53 164.78 147.376C164.815 147.223 164.788 147.063 164.705 146.93C164.622 146.798 164.49 146.704 164.337 146.667C164.184 146.63 164.022 146.654 163.889 146.735C163.647 146.88 163.378 147.026 163.115 147.162C158.197 149.528 152.845 151.221 147.584 152.903C147.284 152.996 146.989 153.087 146.702 153.174Z" fill="#001527"/>
<path d="M321.004 216.409C320.854 216.223 320.638 216.106 320.4 216.085C320.162 216.065 319.922 216.142 319.736 216.299C319.549 216.456 319.431 216.679 319.41 216.917C319.39 217.154 319.468 217.388 319.625 217.567C319.806 217.773 319.998 217.986 320.185 218.189C323.625 221.785 327.356 225.195 332.065 227.188C332.329 227.291 332.6 227.387 332.869 227.472C333.005 227.515 333.154 227.501 333.283 227.436C333.411 227.37 333.509 227.258 333.555 227.123C333.6 226.988 333.59 226.84 333.528 226.71C333.465 226.58 333.355 226.479 333.221 226.43C332.98 226.343 332.737 226.245 332.499 226.14C328.22 224.122 324.649 220.614 321.507 217.02C321.337 216.818 321.164 216.609 321.004 216.409Z" fill="#001527"/>
<path d="M105.5 70C101 67 97.9444 62 99.5 55C101.5 46 100 42.5 93 37" stroke="#001527" stroke-width="1.8" stroke-linecap="round"/>
<path d="M116.281 62.0949C110.899 57.1463 107.891 49.8889 111.507 41.0283C116.157 29.636 114.909 24.6982 106.719 15.9043" stroke="#001527" stroke-width="1.8" stroke-linecap="round"/>
</g>
<defs>
<clipPath id="clip0_1_22758">
<rect width="375" height="276" fill="white"/>
</clipPath>
</defs>
</svg>
