<svg width="375" height="329" viewBox="0 0 375 329" fill="none" xmlns="http://www.w3.org/2000/svg">
<path d="M415 290.24H361.544C359.533 290.24 357.54 289.861 355.669 289.122L330.289 279.104C328.465 278.384 326.525 278.006 324.565 277.987L92.9481 275.806C89.8598 275.777 86.8292 276.643 84.2219 278.298L69.4256 287.691C66.8616 289.319 63.8872 290.184 60.8501 290.184H-40" stroke="#001527" stroke-width="1.8" stroke-linecap="round" stroke-linejoin="round"/>
<path d="M183.324 39.3331L172.191 37.4062C180.484 39.5695 183.158 45.6688 183.459 48.2227C184.21 123.938 185.622 276.54 185.261 281.227C184.901 285.914 179.102 289.189 176.248 290.24L186.194 288.211C193.24 286.773 198.274 280.538 198.194 273.347L195.765 53.9473C195.685 46.7131 190.453 40.5669 183.324 39.3331Z" fill="#001527"/>
<path d="M310.241 131.313C311.311 124.896 309.705 117.834 305.882 112.293C302.486 107.371 297.469 103.721 291.937 101.54C289.125 100.431 286.165 99.6921 283.163 99.3424C279.821 98.9532 277.152 99.8033 273.867 100.033C268.452 100.411 263.223 98.2978 257.96 96.9729C252.696 95.6481 246.625 95.2542 242.317 98.5554C241.227 99.3908 240.29 100.449 239.712 101.695C238.671 103.939 238.879 106.59 239.646 108.942C240.933 112.887 243.765 116.306 247.403 118.305C250.121 119.798 253.267 120.487 256.361 120.309C259.446 120.132 262.355 119.14 265.503 119.376C268.212 119.579 270.764 120.668 273.259 121.742C278.705 124.087 284.152 126.433 289.598 128.778C289.92 128.917 290.258 129.068 290.458 129.356C290.7 129.702 290.684 130.16 290.658 130.581C290.29 136.617 292.542 138.312 289.598 149C292.7 147.119 295.952 147.654 299.04 146.235C305.605 143.216 309.196 137.572 310.241 131.313Z" fill="#001527"/>
<path d="M134.275 244.884C134.428 245.041 134.565 245.225 134.69 245.413C135.322 246.365 135.613 247.436 135.993 248.515C136.048 248.672 136.117 248.842 136.247 248.924C136.749 249.24 137.959 247.879 138.315 247.588C139.023 247.007 139.727 246.421 140.428 245.83C141.014 245.335 141.629 244.863 142.186 244.327C142.6 243.929 142.869 243.574 143.445 243.423C143.796 243.332 144.187 243.347 144.525 243.544C144.863 243.741 145.135 244.14 145.15 244.562C145.158 244.802 145.087 245.028 144.993 245.232C144.526 246.236 143.549 246.909 142.775 247.573C141.936 248.294 141.068 248.974 140.242 249.715C138.94 250.882 136.311 253.734 134.531 251.63C133.901 250.886 133.617 249.868 133.355 248.896C133.091 247.894 132.034 245.487 132.812 244.647C133.068 244.37 133.496 244.368 133.84 244.549C133.999 244.633 134.143 244.749 134.275 244.884Z" fill="#FFCBBD"/>
<path d="M95.9306 271.104L94.3227 55.6409C94.2672 48.1977 100.046 42.0124 107.475 41.5621L168.77 37.8473C176.761 37.363 183.531 43.667 183.616 51.6727L186 275.817C186.088 284.048 179.09 290.577 170.885 289.921L108.814 284.955C101.578 284.377 95.9848 278.363 95.9306 271.104Z" fill="white"/>
<path d="M106.392 87.0194L130.217 87.0194M106.392 95.5461H166.333M148.757 132.502V198.302M124.42 237.963C131.48 234.207 152.222 228.739 159.122 246.976C165.432 263.652 119.011 268.158 118.11 252.384C117.595 243.371 120.814 239.88 124.42 237.963ZM183.616 51.6727L186 275.817C186.088 284.048 179.09 290.577 170.885 289.921L108.814 284.955C101.578 284.377 95.9848 278.363 95.9306 271.104L94.3227 55.6409C94.2672 48.1977 100.046 42.0124 107.475 41.5621L168.77 37.8473C176.761 37.363 183.531 43.667 183.616 51.6727Z" stroke="#001527" stroke-width="1.8" stroke-linecap="round" stroke-linejoin="round"/>
<path d="M131.223 253.098C131.102 252.1 130.138 249.236 130.04 246.129C130.036 245.998 130.058 245.867 130.105 245.745C130.152 245.623 130.222 245.511 130.312 245.416C130.403 245.321 130.511 245.245 130.63 245.193C130.75 245.14 130.879 245.111 131.01 245.109L132.969 245.071C133.107 245.068 133.243 245.094 133.37 245.147C133.497 245.2 133.612 245.278 133.706 245.378C133.801 245.478 133.874 245.596 133.921 245.725C133.967 245.855 133.986 245.992 133.976 246.129L133.977 251.388C133.975 251.418 133.982 251.447 133.996 251.473C134.011 251.498 134.033 251.518 134.06 251.531C134.087 251.543 134.117 251.547 134.146 251.541C134.175 251.536 134.201 251.521 134.222 251.5L143.725 242.035C143.916 241.846 144.144 241.698 144.396 241.601C144.647 241.504 144.915 241.461 145.184 241.474C145.453 241.487 145.716 241.556 145.957 241.677C146.198 241.797 146.411 241.966 146.582 242.174L147.835 243.691C147.96 243.842 148.052 244.016 148.107 244.203C148.162 244.391 148.178 244.587 148.154 244.781C148.13 244.975 148.067 245.162 147.969 245.331C147.87 245.499 147.738 245.646 147.58 245.761C147.58 245.761 136.885 253.732 135.21 254.717C133.712 255.597 133.029 255.575 132.347 255.202C131.649 254.82 131.345 254.095 131.223 253.098Z" fill="#FFCBBD"/>
<path d="M244.397 39.0342C260.847 37.0302 292.001 40.0212 285.02 68.0167C282.729 77.2027 268.102 70.3591 282.235 61.1696C290.815 55.5903 318.783 60.8808 322.407 95.1707" stroke="#001527" stroke-width="1.8" stroke-linecap="round" stroke-linejoin="round"/>
<path d="M194.5 173.998L217.5 180.998M194.5 192.998L214 200.998M262.5 175.622C262.5 178.998 261.5 181.498 261 183.998M290 185.498C287.296 177.836 284.633 166.437 287.337 164.184M290.271 149.626C302.44 141.063 314.608 161.344 284.863 164.499M296.581 152.33C297.031 153.232 297.302 155.485 294.778 157.288M246.555 132.05C247.606 131.148 250.34 129.526 252.864 130.247M267.286 132.05C269.389 132.2 273.956 133.312 275.399 136.557M259.174 134.754L254.216 147.373C255.418 148.275 258.363 149.807 260.526 148.725M249.543 156.242C248.901 161.056 259.705 164.499 266.123 158.809M248.163 117.969C239.847 135.395 225.895 178.931 269.76 173.998M317 277.998L312.2 247.169L337.889 238.468C340.593 249.134 344.803 270.018 343 282.998" stroke="#001527" stroke-width="1.8" stroke-linecap="round" stroke-linejoin="round"/>
<path d="M238.5 276.166V218.5L215.5 214.5C213.5 214 209.6 211.2 210 204C210.4 196.8 213.834 181.667 215.5 175C217 173.167 217.5 172 227.5 175C227.5 175 253.83 179.398 261.5 184C269 188.5 264 188.75 274.5 190.5C283.5 192 285.503 186.875 289 186C299 183.499 326.5 195.5 339.5 234.5C340.667 236.834 341.4 241.7 335 242.5C329.79 243.152 317.818 247.162 309.5 250.159L313 277L238.5 276.166Z" fill="#FFCBBD"/>
<ellipse cx="269.042" cy="140.939" rx="1.43457" ry="3.07422" fill="#001527"/>
<ellipse cx="249.094" cy="137.865" rx="1.43457" ry="3.07422" fill="#001527"/>
<path d="M148.5 160.5L143 158C139.667 152.666 132.5 150.5 128.5 149.5M148.5 179L139 175.5C132 174.5 128.5 173 121.5 169" stroke="#001527" stroke-width="2" stroke-linecap="round"/>
<circle cx="102" cy="154" r="30" fill="#FFCBBD"/>
<path d="M119.5 150.999C123.542 150.493 127.334 148.333 131.5 150.499L137.915 167.096C130.915 167.096 129.167 160.166 129.5 158.499C125.9 158.499 122.086 159.572 118.501 156.5C116.752 155.001 115.5 151.5 119.5 150.999Z" fill="white"/>
<path d="M133 151C128.834 148.833 123.542 150.493 119.5 150.999C115.5 151.5 116.752 155.001 118.501 156.499C122.086 159.572 125.9 158.499 129.5 158.499C129.167 160.166 130.915 167.096 137.915 167.096" stroke="black" stroke-width="2" stroke-linecap="round" stroke-linejoin="round"/>
</svg>
