<svg width="26" height="27" viewBox="0 0 26 27" fill="none" xmlns="http://www.w3.org/2000/svg">
<g clip-path="url(#clip0_1_19576)">
<path d="M23.1392 2.75436H20.6998V1.665C20.6998 1.11032 20.1158 0.675781 19.3708 0.675781C18.6248 0.675781 18.0403 1.11032 18.0403 1.665V2.75436H14.3304V1.665C14.3304 1.11032 13.7459 0.675781 12.9999 0.675781C12.2539 0.675781 11.6694 1.11032 11.6694 1.665V2.75436H7.96077V1.665C7.96077 1.11032 7.37643 0.675781 6.6303 0.675781C5.88417 0.675781 5.29983 1.11032 5.29983 1.665V2.75436H2.86198C2.43409 2.75483 2.02386 2.92501 1.72129 3.22757C1.41873 3.53013 1.24853 3.94035 1.24805 4.36824V23.7415C1.24854 24.1694 1.41874 24.5796 1.72131 24.8822C2.02387 25.1848 2.43409 25.355 2.86198 25.3555H23.1392C23.567 25.3549 23.977 25.1846 24.2793 24.882C24.5816 24.5794 24.7515 24.1693 24.7517 23.7415V4.36824C24.7515 3.94053 24.5816 3.53039 24.2792 3.22782C23.9769 2.92525 23.5669 2.75498 23.1392 2.75436ZM18.8529 1.67109C18.8778 1.61777 19.0647 1.48828 19.3709 1.48828C19.6762 1.48828 19.8626 1.61798 19.8874 1.67109V2.75436H18.8529V1.67109ZM12.4819 1.67155C12.5073 1.61808 12.6944 1.48828 12.9999 1.48828C13.3054 1.48828 13.4925 1.61808 13.5179 1.67155V2.75436H12.4819V1.67155ZM6.11243 1.67155C6.13782 1.61808 6.32485 1.48828 6.6304 1.48828C6.93595 1.48828 7.12298 1.61808 7.14837 1.67155V2.75436H6.11243V1.67155Z" fill="#EAE8E8"/>
<path d="M12.0925 10.4341V12.2578C12.0925 12.3656 12.0497 12.4689 11.9735 12.5451C11.8973 12.6213 11.794 12.6641 11.6863 12.6641H9.61947C9.51172 12.6641 9.40839 12.6213 9.33221 12.5451C9.25602 12.4689 9.21322 12.3656 9.21322 12.2578V10.4341C9.21322 10.3263 9.25602 10.223 9.33221 10.1468C9.40839 10.0706 9.51172 10.0278 9.61947 10.0278H11.6863C11.794 10.0278 11.8973 10.0706 11.9735 10.1468C12.0497 10.223 12.0925 10.3263 12.0925 10.4341ZM16.3817 10.0278H14.3149C14.2072 10.0278 14.1038 10.0706 14.0276 10.1468C13.9515 10.223 13.9087 10.3263 13.9087 10.4341V12.2578C13.9087 12.3656 13.9515 12.4689 14.0276 12.5451C14.1038 12.6213 14.2072 12.6641 14.3149 12.6641H16.3817C16.4894 12.6641 16.5928 12.6213 16.669 12.5451C16.7452 12.4689 16.788 12.3656 16.788 12.2578V10.4341C16.788 10.3263 16.7452 10.223 16.669 10.1468C16.5928 10.0706 16.4894 10.0278 16.3817 10.0278ZM6.99225 14.49H4.92383C4.81608 14.49 4.71275 14.5328 4.63657 14.609C4.56038 14.6852 4.51758 14.7885 4.51758 14.8963V16.72C4.51758 16.8278 4.56038 16.9311 4.63657 17.0073C4.71275 17.0835 4.81608 17.1263 4.92383 17.1263H6.9923C7.10004 17.1263 7.20338 17.0835 7.27956 17.0073C7.35575 16.9311 7.39855 16.8278 7.39855 16.72V14.8963C7.39855 14.7885 7.35575 14.6852 7.27956 14.609C7.20338 14.5328 7.09999 14.49 6.99225 14.49ZM11.6862 14.49H9.61942C9.51167 14.49 9.40834 14.5328 9.33216 14.609C9.25597 14.6852 9.21317 14.7885 9.21317 14.8963V16.72C9.21317 16.8278 9.25597 16.9311 9.33216 17.0073C9.40834 17.0835 9.51167 17.1263 9.61942 17.1263H11.6862C11.794 17.1263 11.8973 17.0835 11.9735 17.0073C12.0497 16.9311 12.0925 16.8278 12.0925 16.72V14.8963C12.0925 14.7885 12.0497 14.6852 11.9735 14.609C11.8973 14.5329 11.794 14.49 11.6863 14.49H11.6862ZM16.3817 14.49H14.3149C14.2071 14.49 14.1038 14.5328 14.0276 14.609C13.9514 14.6852 13.9086 14.7885 13.9086 14.8963V16.72C13.9086 16.8278 13.9514 16.9311 14.0276 17.0073C14.1038 17.0835 14.2071 17.1263 14.3149 17.1263H16.3817C16.4894 17.1263 16.5927 17.0835 16.6689 17.0073C16.7451 16.9311 16.7879 16.8278 16.7879 16.72V14.8963C16.7879 14.7885 16.7451 14.6852 16.6689 14.609C16.5928 14.5329 16.4894 14.49 16.3817 14.49H16.3817ZM6.9922 18.9537H4.92383C4.81608 18.9537 4.71275 18.9965 4.63657 19.0727C4.56038 19.1489 4.51758 19.2522 4.51758 19.36V21.1822C4.51758 21.29 4.56038 21.3933 4.63657 21.4695C4.71275 21.5457 4.81608 21.5885 4.92383 21.5885H6.9923C7.10004 21.5885 7.20338 21.5457 7.27956 21.4695C7.35575 21.3933 7.39855 21.29 7.39855 21.1822V19.36C7.39855 19.2523 7.35575 19.1489 7.27956 19.0727C7.20338 18.9966 7.10004 18.9538 6.9923 18.9538L6.9922 18.9537ZM11.6862 18.9537H9.61937C9.51162 18.9537 9.40829 18.9965 9.3321 19.0727C9.25592 19.1489 9.21312 19.2522 9.21312 19.36V21.1822C9.21312 21.29 9.25592 21.3933 9.3321 21.4695C9.40829 21.5457 9.51162 21.5885 9.61937 21.5885H11.6862C11.7939 21.5885 11.8972 21.5457 11.9734 21.4695C12.0496 21.3933 12.0924 21.29 12.0924 21.1822V19.36C12.0924 19.2523 12.0496 19.149 11.9735 19.0728C11.8973 18.9966 11.794 18.9538 11.6863 18.9538L11.6862 18.9537ZM6.9923 10.0278H4.92383C4.81608 10.0278 4.71275 10.0706 4.63657 10.1468C4.56038 10.223 4.51758 10.3263 4.51758 10.4341V12.2578C4.51758 12.3656 4.56038 12.4689 4.63657 12.5451C4.71275 12.6213 4.81608 12.6641 4.92383 12.6641H6.9923C7.10004 12.6641 7.20338 12.6213 7.27956 12.5451C7.35575 12.4689 7.39855 12.3656 7.39855 12.2578V10.4341C7.39855 10.3263 7.35575 10.223 7.27956 10.1468C7.20338 10.0706 7.10004 10.0278 6.9923 10.0278ZM21.0771 14.49H19.0103C18.9026 14.49 18.7993 14.5328 18.7231 14.609C18.6469 14.6852 18.6041 14.7885 18.6041 14.8963V16.72C18.6041 16.8278 18.6469 16.9311 18.7231 17.0073C18.7993 17.0835 18.9026 17.1263 19.0103 17.1263H21.0771C21.1849 17.1263 21.2882 17.0835 21.3644 17.0073C21.4406 16.9311 21.4834 16.8278 21.4834 16.72V14.8963C21.4834 14.7885 21.4406 14.6852 21.3644 14.609C21.2882 14.5328 21.1849 14.49 21.0771 14.49ZM16.3817 18.9537H14.3149C14.2072 18.9537 14.1038 18.9965 14.0276 19.0727C13.9515 19.1489 13.9087 19.2522 13.9087 19.36V21.1822C13.9087 21.29 13.9515 21.3933 14.0276 21.4695C14.1038 21.5457 14.2072 21.5885 14.3149 21.5885H16.3817C16.4894 21.5885 16.5928 21.5457 16.669 21.4695C16.7452 21.3933 16.788 21.29 16.788 21.1822V19.36C16.788 19.2523 16.7452 19.1489 16.669 19.0727C16.5928 18.9966 16.4894 18.9537 16.3817 18.9537Z" fill="#484868"/>
<path d="M6.99219 10.0278H6.48438C6.59212 10.0278 6.69545 10.0706 6.77164 10.1468C6.84782 10.223 6.89062 10.3263 6.89062 10.4341V12.2578C6.89062 12.3656 6.84782 12.4689 6.77164 12.5451C6.69545 12.6213 6.59212 12.6641 6.48438 12.6641H6.99219C7.09993 12.6641 7.20326 12.6213 7.27945 12.5451C7.35564 12.4689 7.39844 12.3656 7.39844 12.2578V10.4341C7.39844 10.3263 7.35564 10.223 7.27945 10.1468C7.20326 10.0706 7.09993 10.0278 6.99219 10.0278Z" fill="#3D3D54"/>
<path d="M11.6865 18.9539H11.1787C11.2865 18.9539 11.3898 18.9967 11.466 19.0728C11.5422 19.149 11.585 19.2524 11.585 19.3601V21.1824C11.585 21.2901 11.5422 21.3935 11.466 21.4697C11.3898 21.5458 11.2865 21.5886 11.1787 21.5886H11.6865C11.7943 21.5886 11.8976 21.5458 11.9738 21.4697C12.05 21.3935 12.0928 21.2901 12.0928 21.1824V19.3601C12.0928 19.2524 12.05 19.149 11.9738 19.0728C11.8976 18.9967 11.7943 18.9539 11.6865 18.9539Z" fill="#3D3D54"/>
<path d="M11.6865 14.49H11.1787C11.2865 14.49 11.3898 14.5328 11.466 14.609C11.5422 14.6852 11.585 14.7885 11.585 14.8962V16.72C11.585 16.8277 11.5422 16.9311 11.466 17.0073C11.3898 17.0834 11.2865 17.1262 11.1787 17.1262H11.6865C11.7943 17.1262 11.8976 17.0834 11.9738 17.0073C12.05 16.9311 12.0928 16.8277 12.0928 16.72V14.8962C12.0928 14.7885 12.05 14.6852 11.9738 14.609C11.8976 14.5328 11.7943 14.49 11.6865 14.49Z" fill="#3D3D54"/>
<path d="M6.99219 18.9539H6.48438C6.59212 18.9539 6.69545 18.9967 6.77164 19.0728C6.84782 19.149 6.89062 19.2524 6.89062 19.3601V21.1824C6.89062 21.2901 6.84782 21.3935 6.77164 21.4697C6.69545 21.5458 6.59212 21.5886 6.48438 21.5886H6.99219C7.09993 21.5886 7.20326 21.5458 7.27945 21.4697C7.35564 21.3935 7.39844 21.2901 7.39844 21.1824V19.3601C7.39844 19.2524 7.35564 19.149 7.27945 19.0728C7.20326 18.9967 7.09993 18.9539 6.99219 18.9539Z" fill="#3D3D54"/>
<path d="M6.99219 14.49H6.48438C6.59212 14.49 6.69545 14.5328 6.77164 14.609C6.84782 14.6852 6.89062 14.7885 6.89062 14.8962V16.72C6.89062 16.8277 6.84782 16.9311 6.77164 17.0073C6.69545 17.0834 6.59212 17.1262 6.48438 17.1262H6.99219C7.09993 17.1262 7.20326 17.0834 7.27945 17.0073C7.35564 16.9311 7.39844 16.8277 7.39844 16.72V14.8962C7.39844 14.7885 7.35564 14.6852 7.27945 14.609C7.20326 14.5328 7.09993 14.49 6.99219 14.49Z" fill="#3D3D54"/>
<path d="M16.3818 18.9539H15.874C15.9818 18.9539 16.0851 18.9967 16.1613 19.0728C16.2375 19.149 16.2803 19.2524 16.2803 19.3601V21.1824C16.2803 21.2901 16.2375 21.3935 16.1613 21.4697C16.0851 21.5458 15.9818 21.5886 15.874 21.5886H16.3818C16.4896 21.5886 16.5929 21.5458 16.6691 21.4697C16.7453 21.3935 16.7881 21.2901 16.7881 21.1824V19.3601C16.7881 19.2524 16.7453 19.149 16.6691 19.0728C16.5929 18.9967 16.4896 18.9539 16.3818 18.9539Z" fill="#3D3D54"/>
<path d="M16.3818 10.0278H15.874C15.9818 10.0278 16.0851 10.0706 16.1613 10.1468C16.2375 10.223 16.2803 10.3263 16.2803 10.4341V12.2578C16.2803 12.3656 16.2375 12.4689 16.1613 12.5451C16.0851 12.6213 15.9818 12.6641 15.874 12.6641H16.3818C16.4896 12.6641 16.5929 12.6213 16.6691 12.5451C16.7453 12.4689 16.7881 12.3656 16.7881 12.2578V10.4341C16.7881 10.3263 16.7453 10.223 16.6691 10.1468C16.5929 10.0706 16.4896 10.0278 16.3818 10.0278Z" fill="#3D3D54"/>
<path d="M11.6865 10.0278H11.1787C11.2865 10.0278 11.3898 10.0706 11.466 10.1468C11.5422 10.223 11.585 10.3263 11.585 10.4341V12.2578C11.585 12.3656 11.5422 12.4689 11.466 12.5451C11.3898 12.6213 11.2865 12.6641 11.1787 12.6641H11.6865C11.7943 12.6641 11.8976 12.6213 11.9738 12.5451C12.05 12.4689 12.0928 12.3656 12.0928 12.2578V10.4341C12.0928 10.3263 12.05 10.223 11.9738 10.1468C11.8976 10.0706 11.7943 10.0278 11.6865 10.0278Z" fill="#3D3D54"/>
<path d="M21.0771 14.49H20.5693C20.6771 14.49 20.7804 14.5328 20.8566 14.609C20.9328 14.6852 20.9756 14.7885 20.9756 14.8962V16.72C20.9756 16.8277 20.9328 16.9311 20.8566 17.0073C20.7804 17.0834 20.6771 17.1262 20.5693 17.1262H21.0771C21.1849 17.1262 21.2882 17.0834 21.3644 17.0073C21.4406 16.9311 21.4834 16.8277 21.4834 16.72V14.8962C21.4834 14.7885 21.4406 14.6852 21.3644 14.609C21.2882 14.5328 21.1849 14.49 21.0771 14.49Z" fill="#3D3D54"/>
<path d="M16.3818 14.49H15.874C15.9818 14.49 16.0851 14.5328 16.1613 14.609C16.2375 14.6852 16.2803 14.7885 16.2803 14.8962V16.72C16.2803 16.8277 16.2375 16.9311 16.1613 17.0073C16.0851 17.0834 15.9818 17.1262 15.874 17.1262H16.3818C16.4896 17.1262 16.5929 17.0834 16.6691 17.0073C16.7453 16.9311 16.7881 16.8277 16.7881 16.72V14.8962C16.7881 14.7885 16.7453 14.6852 16.6691 14.609C16.5929 14.5328 16.4896 14.49 16.3818 14.49Z" fill="#3D3D54"/>
<path d="M19.7867 12.5474C19.6796 12.5474 19.5768 12.5051 19.5007 12.4297L18.6659 11.6019C18.5899 11.526 18.5471 11.423 18.5469 11.3155C18.5466 11.2081 18.589 11.1049 18.6646 11.0286C18.7403 10.9523 18.8431 10.9091 18.9505 10.9084C19.0579 10.9077 19.1613 10.9496 19.2379 11.025L19.761 11.5433L20.8243 10.288C20.8939 10.2057 20.9934 10.1546 21.1007 10.1457C21.2081 10.1368 21.3146 10.1709 21.3968 10.2406C21.4791 10.3102 21.5302 10.4097 21.5391 10.517C21.548 10.6244 21.5139 10.7309 21.4443 10.8131L20.0969 12.4037C20.0607 12.4465 20.016 12.4813 19.9657 12.5059C19.9154 12.5306 19.8605 12.5445 19.8045 12.547C19.7985 12.5472 19.7926 12.5474 19.7867 12.5474Z" fill="#D22E2E"/>
<path d="M21.1983 24.0473C21.1606 24.0851 21.1158 24.115 21.0665 24.1355C21.0172 24.1559 20.9644 24.1664 20.911 24.1664H2.86198C2.43409 24.1659 2.02387 23.9957 1.72131 23.6932C1.41874 23.3906 1.24854 22.9804 1.24805 22.5525V23.7414C1.24854 24.1693 1.41874 24.5796 1.72131 24.8821C2.02387 25.1847 2.43409 25.3549 2.86198 25.3554H23.1392C23.567 25.3548 23.977 25.1845 24.2793 24.8819C24.5816 24.5793 24.7515 24.1692 24.7517 23.7414V20.3242C24.7517 20.4319 24.709 20.5352 24.6328 20.6114L21.1983 24.0473Z" fill="#D1C9C9"/>
<path d="M24.7519 20.3243V20.271H21.6807C21.4652 20.271 21.2585 20.3566 21.1061 20.509C20.9538 20.6613 20.8682 20.868 20.8682 21.0835V24.1665H20.9112C20.9645 24.1665 21.0174 24.156 21.0667 24.1355C21.116 24.1151 21.1608 24.0851 21.1985 24.0474L24.633 20.6114C24.7091 20.5353 24.7519 20.432 24.7519 20.3243Z" fill="#BCB3B3"/>
<path d="M23.1392 2.75439H18.8529V4.29215C18.8768 4.34547 19.0631 4.47593 19.3709 4.47593C19.4787 4.47593 19.582 4.51873 19.6582 4.59492C19.7344 4.6711 19.7772 4.77444 19.7772 4.88218C19.7772 4.98992 19.7344 5.09326 19.6582 5.16944C19.582 5.24563 19.4787 5.28843 19.3709 5.28843C18.6249 5.28843 18.0404 4.85329 18.0404 4.29774V2.75439H12.4819V4.29185C12.5062 4.34537 12.6927 4.47593 12.9999 4.47593C13.1076 4.47593 13.211 4.51873 13.2872 4.59492C13.3633 4.6711 13.4061 4.77444 13.4061 4.88218C13.4061 4.98992 13.3633 5.09326 13.2872 5.16944C13.211 5.24563 13.1076 5.28843 12.9999 5.28843C12.2539 5.28843 11.6694 4.85329 11.6694 4.29774V2.75439H6.11253V4.29185C6.13681 4.34537 6.32333 4.47593 6.6305 4.47593C6.73825 4.47593 6.84158 4.51873 6.91777 4.59492C6.99395 4.6711 7.03675 4.77444 7.03675 4.88218C7.03675 4.98992 6.99395 5.09326 6.91777 5.16944C6.84158 5.24563 6.73825 5.28843 6.6305 5.28843C5.88453 5.28843 5.30003 4.85329 5.30003 4.29774V2.75439H2.86198C2.43409 2.75486 2.02386 2.92505 1.72129 3.22761C1.41873 3.53016 1.24853 3.94039 1.24805 4.36827V7.83191H24.7517V4.36827C24.7515 3.94056 24.5816 3.53042 24.2792 3.22785C23.9769 2.92529 23.5669 2.75501 23.1392 2.75439Z" fill="#D22E2E"/>
<path d="M1.24805 7.83179H24.7517V8.46615H1.24805V7.83179Z" fill="#D1C9C9"/>
<path d="M13.406 4.88214C13.406 4.98989 13.3632 5.09322 13.287 5.16941C13.2108 5.24559 13.1075 5.28839 12.9998 5.28839C12.2537 5.28839 11.6693 4.85325 11.6693 4.2977V1.665C11.6693 1.11032 12.2537 0.675781 12.9998 0.675781C13.7458 0.675781 14.3302 1.11032 14.3302 1.665V2.75436H13.5177V1.67155C13.4923 1.61808 13.3052 1.48828 12.9998 1.48828C12.6943 1.48828 12.5072 1.61808 12.4818 1.67155V4.29186C12.5061 4.34539 12.6926 4.47595 12.9998 4.47595C13.1075 4.47595 13.2108 4.51874 13.287 4.59492C13.3632 4.67109 13.406 4.77441 13.406 4.88214ZM6.63027 4.47589C6.3232 4.47589 6.13668 4.34534 6.1123 4.29181V1.6715C6.1377 1.61803 6.32472 1.48823 6.63027 1.48823C6.93582 1.48823 7.12285 1.61803 7.14824 1.6715V2.75436H7.96074V1.665C7.96074 1.11032 7.3764 0.675781 6.63027 0.675781C5.88414 0.675781 5.2998 1.11032 5.2998 1.665V4.2977C5.2998 4.85325 5.8842 5.28839 6.63027 5.28839C6.73802 5.28839 6.84135 5.24559 6.91754 5.16941C6.99372 5.09322 7.03652 4.98989 7.03652 4.88214C7.03652 4.7744 6.99372 4.67107 6.91754 4.59488C6.84135 4.5187 6.73802 4.47589 6.63027 4.47589ZM19.3707 4.47589C19.0629 4.47589 18.8767 4.34544 18.8527 4.29212V1.67109C18.8776 1.61777 19.0645 1.48828 19.3707 1.48828C19.676 1.48828 19.8623 1.61798 19.8871 1.67109V2.75436H20.6996V1.665C20.6996 1.11032 20.1156 0.675781 19.3707 0.675781C18.6247 0.675781 18.0402 1.11032 18.0402 1.665V4.2977C18.0402 4.85325 18.6246 5.28839 19.3707 5.28839C19.4784 5.28839 19.5818 5.24559 19.6579 5.16941C19.7341 5.09322 19.7769 4.98989 19.7769 4.88214C19.7769 4.7744 19.7341 4.67107 19.6579 4.59488C19.5818 4.5187 19.4784 4.47589 19.3707 4.47589Z" fill="#484868"/>
<path d="M6.63259 4.12036C6.44618 4.12037 6.26632 4.18907 6.12737 4.31333C6.1816 4.37396 6.35857 4.47583 6.6301 4.47583C6.73785 4.47583 6.84118 4.51863 6.91736 4.59482C6.99355 4.671 7.03635 4.77434 7.03635 4.88208C7.03635 4.98982 6.99355 5.09316 6.91736 5.16934C6.84118 5.24553 6.73785 5.28833 6.6301 5.28833C6.38396 5.29058 6.14028 5.23918 5.91602 5.13771C5.96293 5.26908 6.04503 5.38502 6.15335 5.4729C6.26168 5.56078 6.39206 5.61721 6.53027 5.63603C6.66849 5.65484 6.80921 5.63533 6.93709 5.57961C7.06496 5.52389 7.17507 5.43411 7.2554 5.32007C7.33572 5.20604 7.38317 5.07212 7.39257 4.93295C7.40196 4.79378 7.37294 4.6547 7.30867 4.5309C7.2444 4.4071 7.14736 4.30334 7.02813 4.23094C6.9089 4.15854 6.77208 4.12029 6.63259 4.12036Z" fill="#AD1E1E"/>
<path d="M13.0004 4.12036C12.8147 4.12031 12.6354 4.18845 12.4966 4.31186C12.5493 4.37234 12.7269 4.47578 13.0004 4.47578C13.1081 4.47578 13.2115 4.51858 13.2876 4.59477C13.3638 4.67095 13.4066 4.77429 13.4066 4.88203C13.4066 4.98977 13.3638 5.0931 13.2876 5.16929C13.2115 5.24548 13.1081 5.28828 13.0004 5.28828C12.7531 5.29055 12.5083 5.23866 12.2832 5.13624C12.3298 5.26779 12.4117 5.38399 12.5199 5.47215C12.6281 5.5603 12.7585 5.61702 12.8967 5.63609C13.035 5.65517 13.1758 5.63588 13.3038 5.58032C13.4319 5.52476 13.5422 5.43508 13.6227 5.32107C13.7032 5.20707 13.7508 5.07313 13.7603 4.93389C13.7698 4.79465 13.7409 4.65547 13.6767 4.53156C13.6125 4.40765 13.5154 4.30379 13.3961 4.23131C13.2769 4.15884 13.14 4.12054 13.0004 4.12062V4.12036Z" fill="#AD1E1E"/>
<path d="M19.3707 4.12041C19.185 4.12035 19.0059 4.18842 18.8671 4.3117C18.9191 4.37193 19.0966 4.47583 19.3714 4.47583C19.4791 4.47583 19.5824 4.51863 19.6586 4.59482C19.7348 4.671 19.7776 4.77434 19.7776 4.88208C19.7776 4.98982 19.7348 5.09316 19.6586 5.16934C19.5824 5.24553 19.4791 5.28833 19.3714 5.28833C19.1238 5.29064 18.8787 5.23864 18.6533 5.13599C18.6999 5.26753 18.7818 5.38373 18.89 5.47188C18.9982 5.56003 19.1285 5.61675 19.2668 5.63583C19.405 5.65492 19.5459 5.63563 19.6739 5.58009C19.8019 5.52454 19.9122 5.43488 19.9927 5.32088C20.0733 5.20689 20.1209 5.07296 20.1304 4.93373C20.14 4.79449 20.1111 4.65532 20.0469 4.53141C19.9826 4.4075 19.8856 4.30362 19.7664 4.23113C19.6471 4.15863 19.5102 4.12037 19.3707 4.12041Z" fill="#AD1E1E"/>
</g>
<defs>
<clipPath id="clip0_1_19576">
<rect width="26" height="26" fill="white" transform="translate(0 0.015625)"/>
</clipPath>
</defs>
</svg>
