<svg width="26" height="27" viewBox="0 0 26 27" fill="none" xmlns="http://www.w3.org/2000/svg">
<g clip-path="url(#clip0_1_19602)">
<path d="M13 25.2031C19.731 25.2031 25.1875 19.7466 25.1875 13.0156C25.1875 6.28465 19.731 0.828125 13 0.828125C6.26903 0.828125 0.8125 6.28465 0.8125 13.0156C0.8125 19.7466 6.26903 25.2031 13 25.2031Z" fill="#C8CDED"/>
<path d="M23.7654 12.2031C23.7664 10.1893 23.2679 8.20678 22.3145 6.43302C21.3611 4.65926 19.9827 3.14968 18.3026 2.0395C15.5191 0.691145 12.3272 0.451456 9.3736 1.36901C6.42001 2.28656 3.92574 4.29273 2.39629 6.98091C0.866841 9.6691 0.416618 12.8382 1.13687 15.846C1.85712 18.8538 3.69396 21.4753 6.27514 23.1791C8.13341 24.0758 10.1888 24.4862 12.249 24.3718C14.3091 24.2575 16.3065 23.6222 18.0541 22.5255C19.8018 21.4288 21.2425 19.9064 22.2414 18.1011C23.2403 16.2957 23.7647 14.2663 23.7654 12.2031Z" fill="#E2E7F6"/>
<path d="M13 21.1406C17.4873 21.1406 21.125 17.5029 21.125 13.0156C21.125 8.52831 17.4873 4.89062 13 4.89062C8.51269 4.89062 4.875 8.52831 4.875 13.0156C4.875 17.5029 8.51269 21.1406 13 21.1406Z" fill="#F7FAFD"/>
<path d="M6.5 12.2031C8.07056 12.2031 9.34375 10.9299 9.34375 9.35938C9.34375 7.78882 8.07056 6.51562 6.5 6.51562C4.92944 6.51562 3.65625 7.78882 3.65625 9.35938C3.65625 10.9299 4.92944 12.2031 6.5 12.2031Z" fill="#F6B940"/>
<path d="M8.7996 9.00077C8.79975 8.58588 8.70888 8.17601 8.5334 7.80006C8.35792 7.42411 8.1021 7.09123 7.78398 6.82489C7.1619 6.51191 6.4466 6.43806 5.7737 6.61736C5.1008 6.79665 4.51707 7.21662 4.1332 7.79764C3.74933 8.37866 3.59199 9.08034 3.69102 9.76964C3.79005 10.4589 4.13856 11.0879 4.67048 11.5374C5.10389 11.7583 5.58677 11.8641 6.07284 11.8448C6.5589 11.8254 7.03185 11.6816 7.44634 11.4269C7.86082 11.1723 8.20295 10.8155 8.43991 10.3906C8.67687 9.9658 8.80073 9.48722 8.7996 9.00077Z" fill="#FAD85D"/>
<path d="M12.1875 8.14062C13.7581 8.14062 15.0312 6.86743 15.0312 5.29688C15.0312 3.72632 13.7581 2.45312 12.1875 2.45312C10.6169 2.45312 9.34375 3.72632 9.34375 5.29688C9.34375 6.86743 10.6169 8.14062 12.1875 8.14062Z" fill="#B52F28"/>
<path d="M14.5123 5.01262C14.5125 4.55237 14.4008 4.09898 14.1869 3.69148C13.973 3.28398 13.6632 2.9346 13.2842 2.67343C12.636 2.40363 11.9109 2.38315 11.2486 2.61593C10.5862 2.84871 10.0333 3.3183 9.69643 3.93429C9.35954 4.55028 9.26242 5.26912 9.42379 5.95242C9.58515 6.63572 9.99359 7.23517 10.5705 7.63537C11.0026 7.81605 11.4728 7.88717 11.9391 7.84241C12.4054 7.79765 12.8534 7.63839 13.2433 7.37879C13.6332 7.11919 13.953 6.76729 14.1741 6.35435C14.3953 5.94142 14.5111 5.48024 14.5111 5.01181L14.5123 5.01262Z" fill="#D23F34"/>
<path d="M3.65625 15.4531H10.1562V17.0781H3.65625V15.4531Z" fill="#4D8C28"/>
<path d="M3.65625 15.4531H9.34375V16.2656H3.65625V15.4531Z" fill="#559B2D"/>
<path d="M6.09375 17.0781L4.46875 18.7031L6.09375 20.3281L9.34375 17.0781H6.09375Z" fill="#4D8C28"/>
<path d="M5.6875 19.9219L8.53125 17.0781H6.09375L4.46875 18.7031L5.6875 19.9219Z" fill="#559B2D"/>
<path d="M12.1875 6.51562C12.8606 6.51562 13.4062 5.96997 13.4062 5.29688C13.4062 4.62378 12.8606 4.07812 12.1875 4.07812C11.5144 4.07812 10.9688 4.62378 10.9688 5.29688C10.9688 5.96997 11.5144 6.51562 12.1875 6.51562Z" fill="#A72B25"/>
<path d="M6.5 10.5781C7.1731 10.5781 7.71875 10.0325 7.71875 9.35938C7.71875 8.68628 7.1731 8.14062 6.5 8.14062C5.8269 8.14062 5.28125 8.68628 5.28125 9.35938C5.28125 10.0325 5.8269 10.5781 6.5 10.5781Z" fill="#F6B940"/>
<path d="M12.2785 22.3594H14.7326C15.6185 22.3588 16.4928 22.1574 17.2897 21.7704C18.0866 21.3834 18.7855 20.8209 19.3338 20.125C19.5954 19.7931 19.8315 19.475 20.0309 19.2033L22.089 16.4229C22.9125 15.3123 23.2806 13.9292 23.118 12.5562C22.9538 11.222 22.306 9.99438 21.2974 9.10575C20.2887 8.21713 18.9893 7.72922 17.645 7.73442H17.3099C16.9738 7.73439 16.6409 7.80057 16.3304 7.92918C16.0199 8.05778 15.7377 8.24629 15.5 8.48395L15.3964 8.58754C15.1558 8.82812 14.8579 9.00345 14.5307 9.09698C13.8351 9.29569 13.2133 9.6945 12.7426 10.2438C12.2719 10.7931 11.973 11.4687 11.8832 12.1865C11.8155 12.7335 11.871 13.2887 12.0457 13.8115L12.0721 13.8903C12.2361 14.3826 12.2945 14.904 12.2434 15.4204C12.1923 15.9368 12.0329 16.4366 11.7755 16.8872L10.9683 18.2969L10.4487 19.2065C10.3065 19.4553 10.2165 19.7305 10.1843 20.0153C10.152 20.3001 10.1783 20.5884 10.2613 20.8627C10.3444 21.137 10.4825 21.3915 10.6673 21.6105C10.8521 21.8296 11.0796 22.0087 11.336 22.1368C11.6285 22.2833 11.9512 22.3596 12.2785 22.3594Z" fill="#F3A748"/>
<path d="M20.8921 8.78453C19.9477 8.10067 18.8113 7.73308 17.6453 7.73438H17.3102C16.974 7.73435 16.6412 7.80053 16.3307 7.92914C16.0202 8.05774 15.738 8.24626 15.5003 8.48391L15.3967 8.5875C15.1561 8.82808 14.8582 9.00341 14.531 9.09694C14.0523 9.23372 13.6063 9.46597 13.2198 9.7797C12.8333 10.0934 12.5142 10.4822 12.2819 10.9225C12.0496 11.3628 11.9089 11.8455 11.8681 12.3417C11.8273 12.8379 11.8874 13.3371 12.0448 13.8094L12.0712 13.8883C12.2352 14.3806 12.2936 14.9019 12.2425 15.4183C12.1914 15.9347 12.032 16.4346 11.7746 16.8852L10.9686 18.2969L10.449 19.2065C10.2944 19.4767 10.2018 19.7779 10.178 20.0884C10.1542 20.3988 10.1997 20.7106 10.3113 21.0013C10.5503 21.093 10.804 21.1402 11.06 21.1406H13.5142C14.4001 21.14 15.2743 20.9386 16.0712 20.5516C16.8681 20.1646 17.567 19.6021 18.1153 18.9063C18.377 18.5743 18.613 18.2563 18.8125 17.9845L20.8705 15.2041C21.5598 14.2771 21.9339 13.1535 21.9377 11.9983C21.9416 10.843 21.5751 9.71699 20.8921 8.78535V8.78453Z" fill="#F6B940"/>
<path d="M16.2939 7.94644L22.9646 14.6171C23.0514 14.297 23.1086 13.9697 23.1356 13.6392L17.2344 7.73804C16.9106 7.74743 16.5914 7.81815 16.2939 7.94644Z" fill="#D5883E"/>
<path d="M15.0837 8.83765C14.914 8.9512 14.7279 9.03819 14.532 9.09562C14.4467 9.11999 14.3671 9.15655 14.2842 9.18662L21.8469 16.7498L22.0907 16.4248C22.1719 16.3122 22.2491 16.1952 22.3231 16.0774L15.0837 8.83765Z" fill="#D5883E"/>
<path d="M12.4658 10.6186L20.4645 18.6173L20.952 17.9571L12.9895 9.99463C12.7925 10.1827 12.6169 10.392 12.4658 10.6186Z" fill="#D5883E"/>
<path d="M11.8627 12.522C11.847 12.9586 11.9092 13.3946 12.0464 13.8094L12.0691 13.8772L18.8535 20.6616C19.0246 20.4927 19.1853 20.3135 19.3345 20.1249C19.3544 20.0993 19.3715 20.0762 19.3914 20.051L11.8627 12.522Z" fill="#D5883E"/>
<path d="M16.8825 21.9411C17.1494 21.8353 17.4082 21.7101 17.6568 21.5665L12.1245 16.0342C12.0471 16.3189 11.9358 16.5934 11.793 16.8516L16.8825 21.9411Z" fill="#D5883E"/>
<path d="M11.0303 18.1899L10.969 18.2968L10.6123 18.9208L14.0508 22.3593H14.7333C14.8816 22.3593 15.0278 22.3451 15.1745 22.3341L11.0303 18.1899Z" fill="#D5883E"/>
<path d="M2.84375 13.8281H9.34375V15.4531H2.84375V13.8281Z" fill="#4D8C28"/>
<path d="M2.84375 13.8281H8.53125V14.6406H2.84375V13.8281Z" fill="#559B2D"/>
<path d="M16.2939 7.94644L21.7458 13.3983C21.8326 13.0783 21.8899 12.751 21.9169 12.4205L17.2344 7.73804C16.9106 7.74743 16.5914 7.81815 16.2939 7.94644Z" fill="#F3A748"/>
<path d="M15.0847 8.83765C14.915 8.9512 14.7289 9.03819 14.533 9.09562C14.4477 9.11999 14.368 9.15655 14.2852 9.18662L20.6292 15.531L20.8729 15.206C20.9542 15.0935 21.0313 14.9765 21.1053 14.8587L15.0847 8.83765Z" fill="#F3A748"/>
<path d="M19.7346 16.7386L12.9909 9.99487C12.7937 10.1832 12.618 10.3928 12.4668 10.6197L19.2459 17.3988L19.7346 16.7386Z" fill="#F3A748"/>
<path d="M11.8627 12.522C11.847 12.9586 11.9092 13.3946 12.0464 13.8094L12.0691 13.8772L17.6347 19.4428C17.8059 19.274 17.9665 19.0947 18.1157 18.9062C18.1356 18.8806 18.1527 18.8574 18.1726 18.8323L11.8627 12.522Z" fill="#F3A748"/>
<path d="M11.793 16.8516L15.6637 20.7223C15.9306 20.6165 16.1894 20.4913 16.438 20.3477L12.1245 16.0342C12.0471 16.3189 11.9358 16.5934 11.793 16.8516Z" fill="#F3A748"/>
<path d="M11.793 16.8516L15.6637 20.7223C15.9306 20.6165 16.1894 20.4913 16.438 20.3477L12.1245 16.0342C12.0471 16.3189 11.9358 16.5934 11.793 16.8516Z" fill="#F3A748"/>
<path d="M11.0303 18.1899L10.969 18.2968L10.6123 18.9208L12.8321 21.1405H13.5146C13.6628 21.1405 13.8091 21.1263 13.9557 21.1153L11.0303 18.1899Z" fill="#F3A748"/>
</g>
<defs>
<clipPath id="clip0_1_19602">
<rect width="26" height="26" fill="white" transform="translate(0 0.015625)"/>
</clipPath>
</defs>
</svg>
