<svg width="46" height="60" viewBox="0 0 46 60" fill="none" xmlns="http://www.w3.org/2000/svg">
<g style="mix-blend-mode:multiply">
<path d="M46.0002 26.1647C46.0002 42.2548 32.1311 55.117 26.9487 59.3718C25.8628 60.2521 24.2834 60.2032 23.2716 59.2496L23.1236 59.1273C21.9637 58.0514 21.939 56.2663 23.0495 55.1415C26.6032 51.6447 30.9465 44.9691 30.9465 39.3693C30.9465 34.7722 17.0527 34.4787 17.0527 21.861C17.0527 14.4029 23.8639 8.24072 30.9465 8.24072C39.7813 8.24072 46.0002 16.2613 46.0002 26.1647Z" fill="#E9FFE4"/>
</g>
<g style="mix-blend-mode:multiply">
<path d="M28.0837 17.386C28.0837 32.987 14.6341 45.458 9.59979 49.5661C8.53863 50.422 7.00858 50.3731 6.02146 49.4683L5.89807 49.3461C4.76287 48.319 4.7382 46.5584 5.82404 45.4825C9.27897 42.0835 13.4743 35.6035 13.4743 30.1749C13.4743 25.7245 0 25.4311 0 13.2046C0 5.96653 6.58906 0 13.4743 0C22.0376 0 28.0837 7.77604 28.0837 17.386Z" fill="#E9FFE4"/>
</g>
</svg>
