<svg width="375" height="422" viewBox="0 0 375 422" fill="none" xmlns="http://www.w3.org/2000/svg">
<path d="M0 267C0 211.772 44.7715 167 100 167H187.5H275C330.228 167 375 122.228 375 67V0.5V422H0V267Z" fill="url(#paint0_linear_3_94)"/>
<g clip-path="url(#clip0_3_94)">
<path d="M378.244 188C378.244 188 358.058 236.09 358.058 256.87C358.058 277.649 350.247 335.437 350.247 335.437L348.1 333.458C348.1 333.458 352.715 247.964 351.725 231.934C350.736 215.904 366.766 204.228 378.244 188Z" fill="#B9F4CA"/>
<path d="M378.245 214.717C378.245 214.717 374.683 217.487 375.079 224.81C375.474 232.132 369.141 257.213 367.756 262.088C366.371 266.963 350.767 319.878 350.767 319.878C350.767 319.878 353.111 283.586 353.705 278.045C354.299 272.504 361.819 221.841 378.245 214.717Z" fill="#AAE8BC"/>
<path d="M349.352 328.313C349.352 328.313 352.939 287.15 345.505 260.433C338.071 233.716 314.125 207.535 314.125 207.535C314.125 207.535 338.863 268.151 339.852 273.297C340.842 278.442 346.779 328.313 346.779 328.313H349.352Z" fill="#B9F4CA"/>
<path d="M346.779 328.313C346.779 328.313 339.37 269.305 329.815 251.907C320.26 234.508 320.062 228.373 319.666 226.196C319.27 224.019 314.125 207.535 314.125 207.535C314.125 207.535 340.248 242.184 344.206 275.947C348.164 309.711 346.779 328.313 346.779 328.313Z" fill="#AAE8BC"/>
<path d="M349.352 345.508C349.352 345.508 349.747 304.369 357.861 282.204C365.975 260.039 377.652 235.301 382.203 232.728C386.755 230.155 389.13 233.718 397.64 224.812C406.149 215.907 373.496 262.09 373.496 262.09C373.496 262.09 360.593 293.119 356.555 322.888C352.518 352.657 349.352 345.508 349.352 345.508Z" fill="#B9F4CA"/>
<path d="M388.733 256.871C388.733 256.871 375.523 259.84 371.738 267.756C367.953 275.672 354.713 296.159 352.319 312.283C349.925 328.408 350.262 349.342 350.262 349.342C350.262 349.342 360.632 301.399 369.834 286.952C379.036 272.505 388.733 256.871 388.733 256.871Z" fill="#B9F4CA"/>
<path d="M305.022 282.201C304.626 284.378 309.771 290.117 310.563 299.814C311.355 309.512 326.791 320.396 332.53 327.916C338.269 335.437 344.998 353.644 344.998 353.644H348.014C348.014 353.644 351.726 333.26 335.894 313.668C320.062 294.075 305.022 282.201 305.022 282.201Z" fill="#AAE8BC"/>
<path d="M349.747 353.644C349.747 353.644 352.776 334.249 348.392 322.573C344.008 310.897 324.812 291.502 321.843 289.326C318.875 287.149 305.021 282.201 305.021 282.201C305.021 282.201 329.363 315.053 331.342 317.032C333.321 319.011 346.185 353.644 346.185 353.644H349.747Z" fill="#B9F4CA"/>
<path d="M314.125 251.923C314.125 251.923 324.02 251.131 329.759 260.433C335.498 269.734 341.831 284.874 344.107 297.638C346.383 310.403 345.196 323.761 345.196 323.761C345.196 323.761 339.654 299.518 338.071 296.352C336.488 293.185 319.171 255.881 314.125 251.923Z" fill="#B9F4CA"/>
<path d="M342.029 320.396C342.029 320.396 325.01 293.679 322.635 279.034C320.26 264.39 314.125 251.922 314.125 251.922C314.125 251.922 321.786 254.297 324.289 258.453C326.791 262.609 341.429 301.376 342.029 306.938C342.629 312.501 342.029 320.396 342.029 320.396Z" fill="#AAE8BC"/>
<path d="M388.734 256.871C390.768 255.628 388.109 272.885 381.808 276.859C359.841 290.712 354.944 343.481 355.142 351.199L350.189 350.082C350.189 350.082 356.674 276.463 388.734 256.871Z" fill="#AAE8BC"/>
<path d="M397.639 224.809C397.639 224.809 399.222 234.11 391.108 243.016C382.994 251.921 368.691 274.69 366.568 282.2C364.445 289.71 350.986 346.103 350.986 346.103L350.246 335.436C350.246 335.436 348.559 285.762 397.639 224.809Z" fill="#AAE8BC"/>
<path d="M339.034 351.73H348.825H357.497C359.614 351.73 361.502 353.058 362.184 355.062C364.845 362.89 368.758 375.409 369.339 381.291C370.101 389.01 370.777 398.198 369.255 415.422C368.95 418.869 366.635 421.826 363.248 422.533C356.252 423.992 345.383 424.937 333.631 422.519C330.078 421.789 327.563 418.705 327.248 415.092C325.763 398.08 326.435 388.961 327.193 381.291C327.774 375.409 331.686 362.89 334.348 355.062C335.029 353.058 336.918 351.73 339.034 351.73Z" fill="#FDF3E0" stroke="#001527" stroke-width="1.8" stroke-linecap="round"/>
<path d="M348.32 350.8C343.839 350.797 339.354 351.004 334.877 350.68C333.389 350.572 333.165 350.229 333.214 348.334C333.256 346.682 333.672 346.105 335.007 346.119C343.834 346.214 352.66 346.323 361.486 346.463C363.092 346.488 363.504 347.047 363.475 348.773C363.448 350.354 363.049 350.781 361.353 350.791C357.009 350.818 352.664 350.8 348.32 350.8Z" fill="#FDF3E0" stroke="#001527" stroke-width="1.8"/>
<path d="M10.8103 198C10.8103 198 30.9963 246.09 30.9963 266.87C30.9963 287.649 38.8082 345.437 38.8082 345.437L40.9551 343.458C40.9551 343.458 36.3396 257.964 37.3292 241.934C38.3186 225.904 22.2886 214.228 10.8103 198Z" fill="#B9F4CA"/>
<path d="M10.8098 224.717C10.8098 224.717 14.372 227.487 13.9761 234.81C13.5803 242.132 19.9132 267.213 21.2985 272.088C22.6838 276.963 38.2881 329.878 38.2881 329.878C38.2881 329.878 35.9432 293.586 35.3496 288.045C34.7558 282.504 27.2355 231.841 10.8098 224.717Z" fill="#AAE8BC"/>
<path d="M39.7032 338.313C39.7032 338.313 36.1154 297.15 43.5495 270.433C50.9837 243.716 74.9297 217.535 74.9297 217.535C74.9297 217.535 50.192 278.151 49.2024 283.297C48.213 288.442 42.2759 338.313 42.2759 338.313H39.7032Z" fill="#B9F4CA"/>
<path d="M42.2759 338.313C42.2759 338.313 49.6844 279.305 59.2396 261.907C68.7948 244.508 68.9926 238.373 69.3884 236.196C69.7842 234.019 74.9297 217.535 74.9297 217.535C74.9297 217.535 48.8067 252.184 44.8486 285.947C40.8906 319.711 42.2759 338.313 42.2759 338.313Z" fill="#AAE8BC"/>
<path d="M39.7031 355.508C39.7031 355.508 39.3073 314.369 31.1933 292.204C23.0793 270.039 11.4031 245.301 6.85148 242.728C2.29981 240.155 -0.0750656 243.718 -8.58487 234.812C-17.0947 225.907 15.5591 272.09 15.5591 272.09C15.5591 272.09 28.4618 303.119 32.4993 332.888C36.5367 362.657 39.7031 355.508 39.7031 355.508Z" fill="#B9F4CA"/>
<path d="M0.321941 266.871C0.321941 266.871 13.5318 269.84 17.3167 277.756C21.1016 285.672 34.3415 306.159 36.7358 322.283C39.1301 338.408 38.7922 359.342 38.7922 359.342C38.7922 359.342 28.423 311.399 19.2211 296.952C10.0192 282.505 0.321941 266.871 0.321941 266.871Z" fill="#B9F4CA"/>
<path d="M84.033 292.201C84.4288 294.378 79.2834 300.117 78.4917 309.814C77.7001 319.512 62.2638 330.396 56.5247 337.916C50.7855 345.437 44.0569 363.644 44.0569 363.644H41.0407C41.0407 363.644 37.3283 343.26 53.1603 323.668C68.9923 304.075 84.033 292.201 84.033 292.201Z" fill="#AAE8BC"/>
<path d="M39.3074 363.644C39.3074 363.644 36.2784 344.249 40.6625 332.573C45.0466 320.897 64.243 301.502 67.2116 299.326C70.1801 297.149 84.0332 292.201 84.0332 292.201C84.0332 292.201 59.6914 325.053 57.7123 327.032C55.7332 329.011 42.8697 363.644 42.8697 363.644H39.3074Z" fill="#B9F4CA"/>
<path d="M74.9297 261.923C74.9297 261.923 65.0346 261.131 59.2955 270.433C53.5564 279.734 47.2235 294.874 44.9476 307.638C42.6717 320.403 43.8591 333.761 43.8591 333.761C43.8591 333.761 49.4004 309.518 50.9837 306.352C52.5668 303.185 69.8832 265.881 74.9297 261.923Z" fill="#B9F4CA"/>
<path d="M47.0255 330.396C47.0255 330.396 64.045 303.679 66.4199 289.034C68.7946 274.39 74.9297 261.922 74.9297 261.922C74.9297 261.922 67.2683 264.297 64.7661 268.453C62.2639 272.609 47.6256 311.376 47.0255 316.938C46.4254 322.501 47.0255 330.396 47.0255 330.396Z" fill="#AAE8BC"/>
<path d="M0.320427 266.871C-1.71299 265.628 0.945786 282.885 7.24698 286.859C29.2141 300.712 34.1104 353.481 33.9125 361.199L38.8652 360.082C38.8652 360.082 32.3804 286.463 0.320427 266.871Z" fill="#AAE8BC"/>
<path d="M-8.58384 234.809C-8.58384 234.809 -10.1671 244.11 -2.0531 253.016C6.06089 261.921 20.3632 284.69 22.4867 292.2C24.6102 299.71 38.0685 356.103 38.0685 356.103L38.8085 345.436C38.8082 345.436 40.4957 295.762 -8.58384 234.809Z" fill="#AAE8BC"/>
<path d="M50.0204 361.73H40.23H31.5574C29.4408 361.73 27.5522 363.058 26.8709 365.062C24.2094 372.89 20.2971 385.409 19.7161 391.291C18.9537 399.01 18.2777 408.198 19.7997 425.422C20.1042 428.869 22.4193 431.826 25.8063 432.533C32.8031 433.992 43.6713 434.937 55.4236 432.519C58.9763 431.789 61.4919 428.705 61.8071 425.092C63.2914 408.08 62.6192 398.961 61.8617 391.291C61.2807 385.409 57.3684 372.89 54.7069 365.062C54.0256 363.058 52.137 361.73 50.0204 361.73Z" fill="#FDF3E0" stroke="#001527" stroke-width="1.8" stroke-linecap="round"/>
<path d="M40.7345 360.8C45.2153 360.797 49.7007 361.004 54.1773 360.68C55.6661 360.572 55.8893 360.229 55.8407 358.334C55.7984 356.682 55.3825 356.105 54.0475 356.119C45.2211 356.214 36.3949 356.323 27.5691 356.463C25.9629 356.488 25.5505 357.047 25.5799 358.773C25.6067 360.354 26.0055 360.781 27.7022 360.791C32.0461 360.818 36.3904 360.8 40.7345 360.8Z" fill="#FDF3E0" stroke="#001527" stroke-width="1.8"/>
<path d="M396.846 379.09H-11.8025L-64.0664 430.844H434.334L396.846 379.09Z" fill="url(#paint1_linear_3_94)" stroke="#001527" stroke-width="1.8" stroke-miterlimit="10" stroke-linecap="round" stroke-linejoin="round"/>
<path d="M388.585 386.68H-16.4971L-14.5589 383.906H386.647L388.585 386.68ZM393.856 394.222H-21.7692L-23.8502 397.2H395.938L393.856 394.222ZM402.999 407.303H-30.9113L-35.4814 411.15H406.526L402.999 407.303Z" fill="#E1FFDF"/>
<path d="M317.428 428.583H312.727L295.726 379.969H299.905L317.428 428.583ZM265.685 379.969H261.505L273.244 429.582H277.945L265.685 379.969ZM231.463 379.969H227.284L231.762 425.582H236.462L231.463 379.969ZM197.242 379.969H193.063L193.278 425.582H197.979L197.242 379.969ZM163.021 379.969H158.841L154.795 425.582H159.495L163.021 379.969ZM128.8 379.969H124.62L111.312 428.582H116.013L128.8 379.969ZM94.5787 379.969H90.3992L72.8291 428.583H77.5295L94.5787 379.969Z" fill="#E1FFDF"/>
<path d="M351.29 429.582H355.99L328.315 379.969H324.136L351.29 429.582Z" fill="#E1FFDF"/>
<path d="M382.29 429.582H386.99L359.315 379.969H355.136L382.29 429.582Z" fill="#E1FFDF"/>
<path d="M61.9415 379.969H66.121L35.5803 429.583H30.8799L61.9415 379.969Z" fill="#E1FFDF"/>
<path d="M31.9415 379.969H36.121L-5.41969 429.583H-10.1201L31.9415 379.969Z" fill="#E1FFDF"/>
<path d="M188.064 203.22C188.064 203.22 186.312 197.558 173.776 200.928C161.241 204.298 155.311 224.92 152.749 228.021C150.189 231.121 144.527 240.152 148.301 249.048C152.075 257.944 158.276 260.639 163.398 263.874C168.519 267.11 172.159 269.67 172.429 270.075C172.698 270.479 159.085 268.996 158.141 274.792C157.198 280.588 161.241 283.823 161.241 283.823C161.241 283.823 156.928 283.958 154.098 287.732C151.267 291.506 152.21 294.471 159.894 295.685C167.577 296.898 195.612 295.685 195.612 295.685V275.601C195.612 275.601 215.696 269.266 223.783 262.392C231.871 255.517 234.971 249.856 232.14 243.252C229.309 236.647 220.009 220.608 217.448 215.755C214.887 210.903 210.439 202.95 201.948 201.333C193.456 199.715 189.951 201.467 188.064 203.22Z" fill="#001527" stroke="#001527" stroke-width="1.8" stroke-miterlimit="10" stroke-linecap="round" stroke-linejoin="round"/>
<path d="M173.244 287.757C173.244 287.757 151.267 292.481 145.516 296.179C139.765 299.875 110.257 341.741 109.23 342.562C108.203 343.384 100.604 359.815 111.695 364.745C138.5 371.5 135.5 355 135.5 355L150.856 332.123C150.856 332.123 154.348 359.44 155.375 364.985C156.402 370.531 151.678 379.363 151.678 379.363H240.408C240.408 379.363 237.327 362.726 238.148 359.645C238.97 356.565 243.078 334.177 243.078 334.177L256.634 353.484L283.746 347.733C283.746 347.733 249.445 303.368 244.926 298.233C240.408 293.098 239.381 292.893 231.37 290.634C223.36 288.374 207.545 286.32 207.545 286.32L173.244 287.757Z" fill="#92E3A9"/>
<path d="M107 358L115.035 378.18H140.519L134.653 359L107 358Z" fill="#92E3A9"/>
<path d="M179.842 272.905C179.842 272.905 174.854 274.118 174.72 276.41C174.585 278.701 174.989 280.453 174.989 280.453C174.989 280.453 170.272 287.867 171.35 290.562C172.428 293.258 181.593 301.48 193.051 302.154C204.508 302.828 213.269 294.336 214.347 290.562C215.425 286.788 211.921 283.419 211.921 282.475C211.921 281.531 212.46 277.353 211.651 275.87C210.842 274.387 207.877 271.827 205.182 271.018C202.486 270.209 181.055 272.096 179.842 272.905Z" fill="#92E3A9"/>
<path d="M178.629 264.684C178.629 264.684 179.033 276.545 179.303 277.354C179.572 278.163 185.948 284.694 191.299 285.711C195.112 286.434 199.656 284.632 202.487 281.667C205.317 278.702 205.856 275.602 205.856 275.602L204.643 264.954L178.629 264.684Z" fill="white"/>
<path d="M179.5 278C179.231 277.192 179.5 264.954 179.5 264.954L205.5 264.955L205 276" stroke="#001527" stroke-width="1.8" stroke-miterlimit="10" stroke-linecap="round" stroke-linejoin="round"/>
<path d="M167.441 243.252C167.441 243.252 164.61 240.825 162.319 242.308C160.027 243.791 160.701 249.587 163.262 252.282C165.823 254.978 168.923 253.765 168.923 253.765L167.441 243.252Z" fill="white" stroke="#001527" stroke-width="1.8" stroke-miterlimit="10" stroke-linecap="round" stroke-linejoin="round"/>
<path d="M213.084 243.252C213.084 243.252 215.915 240.825 218.206 242.308C220.498 243.791 219.824 249.587 217.263 252.282C214.702 254.978 211.602 253.765 211.602 253.765L213.084 243.252Z" fill="white" stroke="#001527" stroke-width="1.8" stroke-miterlimit="10" stroke-linecap="round" stroke-linejoin="round"/>
<path d="M188.704 210.678C188.704 210.678 188.704 216.116 178.993 225.632C169.282 235.148 166.369 236.896 166.369 236.896L167.146 244.665C167.146 244.665 168.7 257.483 171.613 260.202C174.526 262.921 182.295 271.854 190.452 273.214C198.609 274.574 205.988 267.387 209.484 262.338C212.98 257.288 214.534 250.879 214.534 247.966C214.534 245.053 211.427 229.127 211.427 229.127C211.427 229.127 203.27 224.66 197.055 221.553C190.84 218.447 188.704 210.678 188.704 210.678Z" fill="white" stroke="#001527" stroke-width="1.8" stroke-miterlimit="10" stroke-linecap="round" stroke-linejoin="round"/>
<path d="M193.559 236.43V240.702C193.559 240.702 197.933 242.829 197.738 245.353C197.544 247.878 195.501 247.5 193.171 247.694" stroke="#001527" stroke-width="1.8" stroke-miterlimit="10" stroke-linecap="round" stroke-linejoin="round"/>
<path d="M184 254C184 254 187.5 259 195.5 257.5" stroke="#001527" stroke-width="1.8" stroke-miterlimit="10" stroke-linecap="round" stroke-linejoin="round"/>
<path d="M184.067 236.241C184.067 237.686 183.009 238.857 181.705 238.857C180.401 238.857 179.344 237.686 179.344 236.241C179.344 234.797 180.401 233.625 181.705 233.625C183.009 233.625 184.067 234.796 184.067 236.241Z" fill="#001527"/>
<path d="M180.894 236.577C181.342 236.577 181.705 236.214 181.705 235.766C181.705 235.318 181.342 234.955 180.894 234.955C180.446 234.955 180.083 235.318 180.083 235.766C180.083 236.214 180.446 236.577 180.894 236.577Z" fill="white"/>
<path d="M178.543 234.101C178.837 232.644 180.108 231.549 181.633 231.549C182.835 231.549 183.88 232.231 184.412 233.234" stroke="#001527" stroke-width="1.8" stroke-miterlimit="10" stroke-linecap="round" stroke-linejoin="round"/>
<path d="M202.16 234.497C202.16 235.941 201.103 237.112 199.799 237.112C198.495 237.112 197.438 235.941 197.438 234.497C197.438 233.052 198.495 231.881 199.799 231.881C201.103 231.881 202.16 233.052 202.16 234.497Z" fill="#001527"/>
<path d="M198.622 234.72C199.07 234.72 199.433 234.357 199.433 233.909C199.433 233.461 199.07 233.098 198.622 233.098C198.174 233.098 197.811 233.461 197.811 233.909C197.811 234.357 198.174 234.72 198.622 234.72Z" fill="white"/>
<path d="M196.637 232.355C196.931 230.898 198.203 229.803 199.727 229.803C200.929 229.803 201.974 230.485 202.506 231.488" stroke="#001527" stroke-width="1.8" stroke-miterlimit="10" stroke-linecap="round" stroke-linejoin="round"/>
<path d="M185.237 227.349C185.237 227.349 183.638 226.477 181.677 226.768C179.715 227.059 174.12 231.709 174.41 232.145C174.701 232.581 181.168 229.094 182.548 228.876C183.929 228.657 185.309 228.876 185.237 227.349Z" fill="#001527"/>
<path d="M195.453 224.603C195.453 224.603 197.051 223.731 199.013 224.022C200.975 224.313 206.57 228.963 206.279 229.399C205.989 229.835 199.522 226.347 198.142 226.129C196.761 225.911 195.38 226.129 195.453 224.603Z" fill="#001527"/>
<path d="M256.325 357.954C256.325 357.954 258.419 368.703 259.396 368.982C260.373 369.261 265.12 364.515 265.818 362.002C266.516 359.49 266.935 357.954 264.003 357.256C261.072 356.558 256.325 357.954 256.325 357.954Z" fill="#001527" stroke="#001527" stroke-width="1.8" stroke-miterlimit="10" stroke-linecap="round" stroke-linejoin="round"/>
<path d="M247.146 330.131C247.146 330.131 240.576 329.744 237.999 327.683C235.422 325.622 232.846 323.56 231.299 325.622C229.753 327.683 232.458 331.161 234.263 332.321C236.066 333.481 239.932 334.641 239.932 334.641L248.306 333.095C248.306 333.095 248.564 330.517 247.146 330.131Z" fill="white" stroke="#001527" stroke-width="1.8" stroke-miterlimit="10" stroke-linecap="round" stroke-linejoin="round"/>
<path d="M229.7 316.247C228.22 313.049 223.061 307.506 221.564 305.933C216.541 302.438 212.541 307.439 213.411 311.209C213.979 313.305 216.041 320.591 218.006 323.516C220.314 326.95 224.171 325.204 224.171 325.204L226.982 325.312L228.349 322.852C228.349 322.852 231.438 320.001 229.7 316.247Z" fill="white" stroke="#001527" stroke-width="1.8" stroke-miterlimit="10" stroke-linecap="round" stroke-linejoin="round"/>
<path d="M227.889 323.322C227.889 323.322 244.051 349.412 244.191 349.925C244.332 350.437 244.059 353.104 242.76 353.687C241.462 354.27 239.918 353.365 239.265 352.993C238.612 352.622 224.97 324.965 224.97 324.965L227.889 323.322Z" fill="white" stroke="#001527" stroke-width="1.8" stroke-miterlimit="10" stroke-linecap="round" stroke-linejoin="round"/>
<path d="M262.993 347.008C262.993 347.008 256.809 340.567 254.232 335.929C251.655 331.291 248.821 329.616 247.146 330.131C245.471 330.646 245.471 332.192 240.962 333.223C233.694 334.884 230.397 341.339 230.397 341.339C230.397 342.628 230.268 344.432 231.686 345.333C233.103 346.235 234.134 348.039 235.551 350.229C236.968 352.419 237.226 354.094 239.545 356.285C241.864 358.475 240.576 360.278 244.312 360.536C248.048 360.793 249.079 358.088 249.079 358.088C249.079 358.088 253.975 360.665 257.067 361.18C260.159 361.695 265.168 360.946 265.168 360.946C265.168 360.946 265.441 355.254 264.797 351.26C264.153 347.266 262.993 347.008 262.993 347.008Z" fill="white" stroke="#001527" stroke-width="1.8" stroke-miterlimit="10" stroke-linecap="round" stroke-linejoin="round"/>
<path d="M234.004 348.039C234.004 348.039 233.489 346.107 235.164 344.947C236.839 343.788 247.532 339.15 248.82 337.861" stroke="#001527" stroke-width="1.8" stroke-miterlimit="10" stroke-linecap="round" stroke-linejoin="round"/>
<path d="M237.096 352.934C237.096 352.934 236.71 351.259 238.385 350.614C240.06 349.97 248.048 346.749 250.109 345.203" stroke="#001527" stroke-width="1.8" stroke-miterlimit="10" stroke-linecap="round" stroke-linejoin="round"/>
<path d="M240.575 357.443C240.575 357.443 239.931 355.64 242.121 354.48C244.312 353.321 249.465 351.903 251.913 350.486" stroke="#001527" stroke-width="1.8" stroke-miterlimit="10" stroke-linecap="round" stroke-linejoin="round"/>
<path d="M249.079 358.088C249.079 358.088 246.631 359.247 245.085 358.603" stroke="#001527" stroke-width="1.8" stroke-miterlimit="10" stroke-linecap="round" stroke-linejoin="round"/>
<path d="M261.49 344.134C261.49 344.134 272.798 341.482 279.359 342.04C285.92 342.598 290.247 349.439 291.364 355.302C292.481 361.165 292.341 363.817 289.13 365.911C285.92 368.005 272.798 368.703 267.353 369.262C261.909 369.82 259.396 368.982 259.396 368.982C259.396 368.982 264.841 362.421 265.12 357.815C265.399 353.208 263.165 346.787 261.49 344.134Z" fill="#92E3A9"/>
<path d="M269.5 342.501C263.141 342.461 261.49 344.134 261.49 344.134C263.165 346.787 265.399 353.208 265.12 357.815C264.841 362.421 259.396 368.982 259.396 368.982C259.396 368.982 261.909 369.82 267.353 369.262C272.798 368.703 291.5 368.5 291.5 361.5" stroke="#001527" stroke-width="1.8" stroke-miterlimit="10" stroke-linecap="round" stroke-linejoin="round"/>
<path d="M110 353.478L111.549 386.661C111.549 387.853 116.228 388.819 122 388.819C127.772 388.819 132.451 387.853 132.451 386.661L134 353.478H110Z" fill="white" stroke="#001527" stroke-width="1.8" stroke-miterlimit="10" stroke-linecap="round" stroke-linejoin="round"/>
<path d="M134 353.479C134 354.847 128.627 355.957 122 355.957C115.373 355.957 110 354.848 110 353.479C110 352.11 115.373 351 122 351C128.627 351 134 352.11 134 353.479Z" fill="white" stroke="#001527" stroke-width="1.8" stroke-miterlimit="10" stroke-linecap="round" stroke-linejoin="round"/>
<path fill-rule="evenodd" clip-rule="evenodd" d="M258.419 387.59C258.987 386.939 259.283 386.271 259.283 385.59C259.283 378.962 231.301 373.59 196.783 373.59C162.265 373.59 134.283 378.962 134.283 385.59C134.283 386.271 134.579 386.939 135.147 387.59C135.17 387.616 135.193 387.641 135.216 387.667M258.419 387.59C258.397 387.616 258.374 387.641 258.35 387.667L258.419 387.59Z" fill="white"/>
<path d="M255.719 391.136C256.533 389.831 257.659 388.447 258.35 387.667C253.227 393.304 227.612 397.59 196.783 397.59C165.955 397.59 140.339 393.304 135.216 387.667C135.924 388.465 137.086 389.897 137.905 391.228C138.584 392.332 139.494 393.377 140.721 393.797C162.364 401.199 217.221 405.067 252.729 393.768C254.021 393.357 255 392.286 255.719 391.136Z" fill="#051C30"/>
<path d="M258.419 387.59C248.283 370.09 135.147 375.09 135.147 387.59C135.17 387.616 135.193 387.641 135.216 387.667C140.339 393.304 165.955 397.59 196.783 397.59C227.612 397.59 253.227 393.304 258.35 387.667C258.374 387.641 258.397 387.616 258.419 387.59Z" fill="white"/>
<path d="M259.283 385.59C259.283 378.962 231.301 373.59 196.783 373.59C162.265 373.59 134.283 378.962 134.283 385.59C134.283 386.271 134.579 386.939 135.147 387.59M259.283 385.59C259.283 386.271 258.987 386.939 258.419 387.59M259.283 385.59C259.283 386.298 258.964 386.992 258.35 387.667M135.147 387.59C135.147 375.09 248.283 370.09 258.419 387.59M135.147 387.59C135.17 387.616 135.193 387.641 135.216 387.667M258.419 387.59C258.397 387.616 258.374 387.641 258.35 387.667M258.35 387.667C257.659 388.447 256.533 389.831 255.719 391.136M258.35 387.667C253.227 393.304 227.612 397.59 196.783 397.59C165.955 397.59 140.339 393.304 135.216 387.667M255.719 391.136C255 392.286 254.021 393.357 252.729 393.768M255.719 391.136V391.136C255.004 392.28 254.014 393.359 252.729 393.768V393.768M252.729 393.768C217.221 405.067 162.364 401.199 140.721 393.797M140.721 393.797C139.494 393.377 138.584 392.332 137.905 391.228M140.721 393.797V393.797C139.497 393.378 138.582 392.33 137.905 391.228V391.228M137.905 391.228C137.086 389.897 135.924 388.465 135.216 387.667" stroke="#001527" stroke-width="1.8" stroke-miterlimit="10" stroke-linecap="round" stroke-linejoin="round"/>
<path d="M172.956 376.29C172.406 370.239 223.533 367.833 223.533 376.29C223.533 384.747 173.736 384.867 172.956 376.29Z" fill="#E2CCA9" stroke="#001527" stroke-width="1.8" stroke-linecap="round"/>
<path d="M168.35 373.888C167.8 367.836 218.927 365.431 218.927 373.888C218.927 382.345 169.13 382.464 168.35 373.888Z" fill="#F9E4C2" stroke="#001527" stroke-width="1.8" stroke-linecap="round"/>
<path d="M168.283 375.09C168.283 377.023 161.344 378.59 152.783 378.59C144.223 378.59 137.283 377.023 137.283 375.09C136.95 379.423 137.783 388.99 143.783 392.59C146.95 394.09 154.983 396.19 161.783 392.59C167.783 388.99 168.617 379.423 168.283 375.09Z" fill="white"/>
<path d="M152.783 378.59C161.344 378.59 168.283 377.023 168.283 375.09C168.283 373.157 161.344 371.59 152.783 371.59C144.223 371.59 137.283 373.157 137.283 375.09C137.283 377.023 144.223 378.59 152.783 378.59Z" fill="white"/>
<path d="M168.283 375.09C168.283 377.023 161.344 378.59 152.783 378.59C144.223 378.59 137.283 377.023 137.283 375.09M168.283 375.09C168.283 373.157 161.344 371.59 152.783 371.59C144.223 371.59 137.283 373.157 137.283 375.09M168.283 375.09C168.617 379.423 167.783 388.99 161.783 392.59C154.983 396.19 146.95 394.09 143.783 392.59C137.783 388.99 136.95 379.423 137.283 375.09" stroke="#001527" stroke-width="1.8"/>
<path d="M165.499 376.251C161.095 377.48 160.755 377.788 152.746 377.788C144.746 377.788 140.258 376.401 139.766 376.07C139.532 375.086 147.266 374.344 152.746 374.344C157.737 374.344 167.68 375.426 165.499 376.251Z" fill="#CEF0C9"/>
<path d="M224.346 381.09C224.346 383.023 217.406 384.59 208.846 384.59C200.285 384.59 193.346 383.023 193.346 381.09C193.346 379.157 200.285 377.59 208.846 377.59C217.406 377.59 224.346 379.157 224.346 381.09Z" fill="white"/>
<path d="M224.346 381.09C224.346 383.023 217.406 384.59 208.846 384.59C200.285 384.59 193.346 383.023 193.346 381.09C193.013 385.423 193.846 394.99 199.846 398.59C203.013 400.09 211.046 402.19 217.846 398.59C223.846 394.99 224.679 385.423 224.346 381.09Z" fill="white"/>
<path d="M224.346 381.09C224.346 383.023 217.406 384.59 208.846 384.59C200.285 384.59 193.346 383.023 193.346 381.09M224.346 381.09C224.346 379.157 217.406 377.59 208.846 377.59C200.285 377.59 193.346 379.157 193.346 381.09M224.346 381.09C224.679 385.423 223.846 394.99 217.846 398.59C211.046 402.19 203.013 400.09 199.846 398.59C193.846 394.99 193.013 385.423 193.346 381.09" stroke="#001527" stroke-width="1.8"/>
<path d="M191.346 380.09C191.346 382.023 184.406 383.59 175.846 383.59C167.285 383.59 160.346 382.023 160.346 380.09C160.346 378.157 167.285 376.59 175.846 376.59C184.406 376.59 191.346 378.157 191.346 380.09Z" fill="white"/>
<path d="M191.346 380.09C191.346 382.023 184.406 383.59 175.846 383.59C167.285 383.59 160.346 382.023 160.346 380.09C160.013 384.423 160.846 393.99 166.846 397.59C170.013 399.09 178.046 401.19 184.846 397.59C190.846 393.99 191.679 384.423 191.346 380.09Z" fill="white"/>
<path d="M191.346 380.09C191.346 382.023 184.406 383.59 175.846 383.59C167.285 383.59 160.346 382.023 160.346 380.09M191.346 380.09C191.346 378.157 184.406 376.59 175.846 376.59C167.285 376.59 160.346 378.157 160.346 380.09M191.346 380.09C191.679 384.423 190.846 393.99 184.846 397.59C178.046 401.19 170.013 399.09 166.846 397.59C160.846 393.99 160.013 384.423 160.346 380.09" stroke="#001527" stroke-width="1.8"/>
<path d="M188.561 381.169C185.899 382.177 183.817 382.706 175.809 382.706C167.809 382.706 163.32 381.319 162.828 380.988C162.594 380.004 170.328 379.262 175.809 379.262C180.799 379.262 190.743 380.344 188.561 381.169Z" fill="#838F28"/>
<path d="M221.561 382.183C218.899 383.191 216.817 383.719 208.809 383.719C200.809 383.719 196.32 382.333 195.828 382.002C195.594 381.018 203.328 380.275 208.809 380.275C213.799 380.275 223.743 381.357 221.561 382.183Z" fill="#FF5C16"/>
<path d="M256.219 376.244C256.219 378.262 249.084 379.898 240.283 379.898C231.482 379.898 224.348 378.262 224.348 376.244C224.348 374.226 231.482 372.59 240.283 372.59C249.084 372.59 256.219 374.226 256.219 376.244Z" fill="white"/>
<path d="M256.219 376.244C256.219 378.262 249.084 379.898 240.283 379.898C231.482 379.898 224.348 378.262 224.348 376.244C224.005 380.768 224.862 390.756 231.03 394.515C236.283 395.59 244.783 395.59 249.536 394.515C255.705 390.756 256.561 380.768 256.219 376.244Z" fill="white"/>
<path d="M256.219 376.244C256.219 378.262 249.084 379.898 240.283 379.898C231.482 379.898 224.348 378.262 224.348 376.244M256.219 376.244C256.219 374.226 249.084 372.59 240.283 372.59C231.482 372.59 224.348 374.226 224.348 376.244M256.219 376.244C256.561 380.768 255.705 390.756 249.536 394.515C244.783 395.59 236.283 395.59 231.03 394.515C224.862 390.756 224.005 380.768 224.348 376.244" stroke="#001527" stroke-width="1.8"/>
<path d="M253.55 377.29C250.804 378.039 248.254 379.262 240.246 379.262C232.246 379.262 227.56 377.621 227.068 377.29C226.833 376.306 234.765 375.818 240.246 375.818C245.236 375.818 256.265 376.55 253.55 377.29Z" fill="#FFCBBD"/>
<path d="M255.719 391.136C256.533 389.831 257.659 388.447 258.35 387.667C253.227 393.304 227.612 397.59 196.783 397.59C165.955 397.59 140.339 393.304 135.216 387.667C135.924 388.465 137.086 389.897 137.905 391.228C138.584 392.332 139.494 393.377 140.721 393.797C162.364 401.199 217.221 405.067 252.729 393.768C254.021 393.357 255 392.286 255.719 391.136Z" fill="#051C30"/>
<path d="M134.283 385.59C134.283 386.271 134.579 386.939 135.147 387.59C135.17 387.616 135.193 387.641 135.216 387.667M258.35 387.667C258.374 387.641 258.397 387.616 258.419 387.59C258.987 386.939 259.283 386.271 259.283 385.59C259.283 386.298 258.964 386.992 258.35 387.667ZM258.35 387.667C257.659 388.447 256.533 389.831 255.719 391.136M258.35 387.667C253.227 393.304 227.612 397.59 196.783 397.59C165.955 397.59 140.339 393.304 135.216 387.667M255.719 391.136C255 392.286 254.021 393.357 252.729 393.768M255.719 391.136V391.136C255.004 392.28 254.014 393.359 252.729 393.768V393.768M252.729 393.768C217.221 405.067 162.364 401.199 140.721 393.797M140.721 393.797C139.494 393.377 138.584 392.332 137.905 391.228M140.721 393.797V393.797C139.497 393.378 138.582 392.33 137.905 391.228V391.228M137.905 391.228C137.086 389.897 135.924 388.465 135.216 387.667" stroke="#001527" stroke-width="1.8" stroke-miterlimit="10" stroke-linecap="round" stroke-linejoin="round"/>
</g>
<defs>
<linearGradient id="paint0_linear_3_94" x1="187.5" y1="422" x2="187.5" y2="-201.5" gradientUnits="userSpaceOnUse">
<stop stop-color="#DAFFD9"/>
<stop offset="1" stop-color="white"/>
</linearGradient>
<linearGradient id="paint1_linear_3_94" x1="185.134" y1="379.09" x2="185.134" y2="430.844" gradientUnits="userSpaceOnUse">
<stop stop-color="#AFE5AD"/>
<stop offset="1" stop-color="#E2FFE1"/>
</linearGradient>
<clipPath id="clip0_3_94">
<path d="M1 268C1 212.772 45.7715 168 101 168H375V422H1V268Z" fill="white"/>
</clipPath>
</defs>
</svg>
