<svg width="375" height="351" viewBox="0 0 375 351" fill="none" xmlns="http://www.w3.org/2000/svg">
<g clip-path="url(#clip0_197_2)">
<path d="M0 196C0 140.772 44.7715 96 100 96H187.5H275C330.228 96 375 51.228 375 -4V-70.5V351H0V196Z" fill="url(#paint0_linear_197_2)"/>
<mask id="mask0_197_2" style="mask-type:luminance" maskUnits="userSpaceOnUse" x="1" y="97" width="374" height="254">
<path d="M1 197C1 141.772 45.7715 97 101 97H375V351H1V197Z" fill="white"/>
</mask>
<g mask="url(#mask0_197_2)">
<path d="M378.244 117C378.244 117 358.058 165.09 358.058 185.87C358.058 206.649 350.247 264.437 350.247 264.437L348.1 262.458C348.1 262.458 352.715 176.964 351.725 160.934C350.736 144.904 366.766 133.228 378.244 117Z" fill="#B9F4CA"/>
<path d="M378.245 143.717C378.245 143.717 374.683 146.487 375.079 153.81C375.474 161.132 369.141 186.213 367.756 191.088C366.371 195.963 350.767 248.878 350.767 248.878C350.767 248.878 353.111 212.586 353.705 207.045C354.299 201.504 361.819 150.841 378.245 143.717Z" fill="#AAE8BC"/>
<path d="M349.352 257.313C349.352 257.313 352.939 216.15 345.505 189.433C338.071 162.716 314.125 136.535 314.125 136.535C314.125 136.535 338.863 197.151 339.852 202.297C340.842 207.442 346.779 257.313 346.779 257.313H349.352Z" fill="#B9F4CA"/>
<path d="M346.779 257.313C346.779 257.313 339.37 198.305 329.815 180.907C320.26 163.508 320.062 157.373 319.666 155.196C319.27 153.019 314.125 136.535 314.125 136.535C314.125 136.535 340.248 171.184 344.206 204.947C348.164 238.711 346.779 257.313 346.779 257.313Z" fill="#AAE8BC"/>
<path d="M349.352 274.508C349.352 274.508 349.747 233.369 357.861 211.204C365.975 189.039 377.652 164.301 382.203 161.728C386.755 159.155 389.13 162.718 397.64 153.812C406.149 144.907 373.496 191.09 373.496 191.09C373.496 191.09 360.593 222.119 356.555 251.888C352.518 281.657 349.352 274.508 349.352 274.508Z" fill="#B9F4CA"/>
<path d="M388.733 185.871C388.733 185.871 375.523 188.84 371.738 196.756C367.953 204.672 354.713 225.159 352.319 241.283C349.925 257.408 350.262 278.342 350.262 278.342C350.262 278.342 360.632 230.399 369.834 215.952C379.036 201.505 388.733 185.871 388.733 185.871Z" fill="#B9F4CA"/>
<path d="M305.022 211.201C304.626 213.378 309.771 219.117 310.563 228.814C311.355 238.512 326.791 249.396 332.53 256.916C338.269 264.437 344.998 282.644 344.998 282.644H348.014C348.014 282.644 351.726 262.26 335.894 242.668C320.062 223.075 305.022 211.201 305.022 211.201Z" fill="#AAE8BC"/>
<path d="M349.747 282.644C349.747 282.644 352.776 263.249 348.392 251.573C344.008 239.897 324.812 220.502 321.843 218.326C318.875 216.149 305.021 211.201 305.021 211.201C305.021 211.201 329.363 244.053 331.342 246.032C333.321 248.011 346.185 282.644 346.185 282.644H349.747Z" fill="#B9F4CA"/>
<path d="M314.125 180.923C314.125 180.923 324.02 180.131 329.759 189.433C335.498 198.734 341.831 213.874 344.107 226.638C346.383 239.403 345.196 252.761 345.196 252.761C345.196 252.761 339.654 228.518 338.071 225.352C336.488 222.185 319.171 184.881 314.125 180.923Z" fill="#B9F4CA"/>
<path d="M342.029 249.396C342.029 249.396 325.01 222.679 322.635 208.034C320.26 193.39 314.125 180.922 314.125 180.922C314.125 180.922 321.786 183.297 324.289 187.453C326.791 191.609 341.429 230.376 342.029 235.938C342.629 241.501 342.029 249.396 342.029 249.396Z" fill="#AAE8BC"/>
<path d="M388.734 185.871C390.768 184.628 388.109 201.885 381.808 205.859C359.841 219.712 354.944 272.481 355.142 280.199L350.189 279.082C350.189 279.082 356.674 205.463 388.734 185.871Z" fill="#AAE8BC"/>
<path d="M397.639 153.809C397.639 153.809 399.222 163.11 391.108 172.016C382.994 180.921 368.691 203.69 366.568 211.2C364.445 218.71 350.986 275.103 350.986 275.103L350.246 264.436C350.246 264.436 348.559 214.762 397.639 153.809Z" fill="#AAE8BC"/>
<path d="M339.034 280.73H348.825H357.497C359.614 280.73 361.502 282.058 362.184 284.062C364.845 291.89 368.758 304.409 369.339 310.291C370.101 318.01 370.777 327.198 369.255 344.422C368.95 347.869 366.635 350.826 363.248 351.533C356.252 352.992 345.383 353.937 333.631 351.519C330.078 350.789 327.563 347.705 327.248 344.092C325.763 327.08 326.435 317.961 327.193 310.291C327.774 304.409 331.686 291.89 334.348 284.062C335.029 282.058 336.918 280.73 339.034 280.73Z" fill="#FDF3E0" stroke="#001527" stroke-width="1.8" stroke-linecap="round"/>
<path d="M348.32 279.8C343.839 279.797 339.354 280.004 334.877 279.68C333.389 279.572 333.165 279.229 333.214 277.334C333.256 275.682 333.672 275.105 335.007 275.119C343.834 275.214 352.66 275.323 361.486 275.463C363.092 275.488 363.504 276.047 363.475 277.773C363.448 279.354 363.049 279.781 361.353 279.791C357.009 279.818 352.664 279.8 348.32 279.8Z" fill="#FDF3E0" stroke="#001527" stroke-width="1.8"/>
<path d="M10.8105 127C10.8105 127 30.9965 175.09 30.9965 195.87C30.9965 216.649 38.8084 274.437 38.8084 274.437L40.9553 272.458C40.9553 272.458 36.3398 186.964 37.3294 170.934C38.3188 154.904 22.2888 143.228 10.8105 127Z" fill="#B9F4CA"/>
<path d="M10.8096 153.717C10.8096 153.717 14.3718 156.487 13.9759 163.81C13.5801 171.132 19.913 196.213 21.2983 201.088C22.6836 205.963 38.2879 258.878 38.2879 258.878C38.2879 258.878 35.943 222.586 35.3494 217.045C34.7556 211.504 27.2353 160.841 10.8096 153.717Z" fill="#AAE8BC"/>
<path d="M39.7034 267.313C39.7034 267.313 36.1156 226.15 43.5497 199.433C50.9839 172.716 74.9299 146.535 74.9299 146.535C74.9299 146.535 50.1922 207.151 49.2026 212.297C48.2132 217.442 42.2761 267.313 42.2761 267.313H39.7034Z" fill="#B9F4CA"/>
<path d="M42.2759 267.313C42.2759 267.313 49.6844 208.305 59.2396 190.907C68.7948 173.508 68.9926 167.373 69.3884 165.196C69.7842 163.019 74.9297 146.535 74.9297 146.535C74.9297 146.535 48.8067 181.184 44.8486 214.947C40.8906 248.711 42.2759 267.313 42.2759 267.313Z" fill="#AAE8BC"/>
<path d="M39.703 284.508C39.703 284.508 39.3072 243.369 31.1932 221.204C23.0792 199.039 11.403 174.301 6.85135 171.728C2.29968 169.155 -0.0751959 172.718 -8.585 163.812C-17.0948 154.907 15.559 201.09 15.559 201.09C15.559 201.09 28.4617 232.119 32.4992 261.888C36.5366 291.657 39.703 284.508 39.703 284.508Z" fill="#B9F4CA"/>
<path d="M0.322266 195.871C0.322266 195.871 13.5321 198.84 17.317 206.756C21.1019 214.672 34.3418 235.159 36.7361 251.283C39.1304 267.408 38.7925 288.342 38.7925 288.342C38.7925 288.342 28.4233 240.399 19.2214 225.952C10.0195 211.505 0.322266 195.871 0.322266 195.871Z" fill="#B9F4CA"/>
<path d="M84.0328 221.201C84.4286 223.378 79.2832 229.117 78.4915 238.814C77.6999 248.512 62.2636 259.396 56.5245 266.916C50.7853 274.437 44.0567 292.644 44.0567 292.644H41.0405C41.0405 292.644 37.3281 272.26 53.1601 252.668C68.9921 233.075 84.0328 221.201 84.0328 221.201Z" fill="#AAE8BC"/>
<path d="M39.3076 292.644C39.3076 292.644 36.2786 273.249 40.6627 261.573C45.0468 249.897 64.2432 230.502 67.2118 228.326C70.1803 226.149 84.0334 221.201 84.0334 221.201C84.0334 221.201 59.6916 254.053 57.7125 256.032C55.7334 258.011 42.8699 292.644 42.8699 292.644H39.3076Z" fill="#B9F4CA"/>
<path d="M74.93 190.923C74.93 190.923 65.0349 190.131 59.2958 199.433C53.5567 208.734 47.2238 223.874 44.9479 236.638C42.672 249.403 43.8594 262.761 43.8594 262.761C43.8594 262.761 49.4007 238.518 50.984 235.352C52.5671 232.185 69.8835 194.881 74.93 190.923Z" fill="#B9F4CA"/>
<path d="M47.0255 259.396C47.0255 259.396 64.045 232.679 66.4199 218.034C68.7946 203.39 74.9297 190.922 74.9297 190.922C74.9297 190.922 67.2683 193.297 64.7661 197.453C62.2639 201.609 47.6256 240.376 47.0255 245.938C46.4254 251.501 47.0255 259.396 47.0255 259.396Z" fill="#AAE8BC"/>
<path d="M0.320429 195.871C-1.71299 194.628 0.945788 211.885 7.24698 215.859C29.2141 229.712 34.1104 282.481 33.9125 290.199L38.8652 289.082C38.8652 289.082 32.3804 215.463 0.320429 195.871Z" fill="#AAE8BC"/>
<path d="M-8.58423 163.809C-8.58423 163.809 -10.1675 173.11 -2.05349 182.016C6.0605 190.921 20.3628 213.69 22.4863 221.2C24.6098 228.71 38.0681 285.103 38.0681 285.103L38.8081 274.436C38.8081 274.436 40.4953 224.762 -8.58423 163.809Z" fill="#AAE8BC"/>
<path d="M50.0207 290.73H40.2303H31.5577C29.4411 290.73 27.5525 292.058 26.8712 294.062C24.2097 301.89 20.2974 314.409 19.7164 320.291C18.954 328.01 18.278 337.198 19.8 354.422C20.1045 357.869 22.4196 360.826 25.8066 361.533C32.8034 362.992 43.6716 363.937 55.4239 361.519C58.9766 360.789 61.4922 357.705 61.8074 354.092C63.2917 337.08 62.6195 327.961 61.862 320.291C61.281 314.409 57.3687 301.89 54.7072 294.062C54.0259 292.058 52.1373 290.73 50.0207 290.73Z" fill="#FDF3E0" stroke="#001527" stroke-width="1.8" stroke-linecap="round"/>
<path d="M40.7342 289.8C45.215 289.797 49.7004 290.004 54.177 289.68C55.6658 289.572 55.889 289.229 55.8404 287.334C55.7981 285.682 55.3822 285.105 54.0472 285.119C45.2208 285.214 36.3946 285.323 27.5688 285.463C25.9626 285.488 25.5502 286.047 25.5796 287.773C25.6064 289.354 26.0052 289.781 27.7019 289.791C32.0458 289.818 36.3901 289.8 40.7342 289.8Z" fill="#FDF3E0" stroke="#001527" stroke-width="1.8"/>
<path d="M396.846 308.09H-11.8025L-64.0664 359.844H434.334L396.846 308.09Z" fill="url(#paint1_linear_197_2)" stroke="#001527" stroke-width="1.8" stroke-miterlimit="10" stroke-linecap="round" stroke-linejoin="round"/>
<path d="M388.585 315.68H-16.4971L-14.5589 312.906H386.647L388.585 315.68ZM393.856 323.222H-21.7692L-23.8502 326.2H395.938L393.856 323.222ZM402.999 336.303H-30.9113L-35.4814 340.15H406.526L402.999 336.303Z" fill="#E1FFDF"/>
<path d="M317.428 357.583H312.727L295.726 308.969H299.905L317.428 357.583ZM265.685 308.969H261.505L273.244 358.582H277.945L265.685 308.969ZM231.463 308.969H227.284L231.762 354.582H236.462L231.463 308.969ZM197.242 308.969H193.063L193.278 354.582H197.979L197.242 308.969ZM163.021 308.969H158.841L154.795 354.582H159.495L163.021 308.969ZM128.8 308.969H124.62L111.312 357.582H116.013L128.8 308.969ZM94.5787 308.969H90.3992L72.8291 357.583H77.5295L94.5787 308.969Z" fill="#E1FFDF"/>
<path d="M351.29 358.582H355.99L328.315 308.969H324.136L351.29 358.582Z" fill="#E1FFDF"/>
<path d="M382.29 358.582H386.99L359.315 308.969H355.136L382.29 358.582Z" fill="#E1FFDF"/>
<path d="M61.9415 308.969H66.121L35.5803 358.583H30.8799L61.9415 308.969Z" fill="#E1FFDF"/>
<path d="M31.9415 308.969H36.121L-5.41971 358.583H-10.1201L31.9415 308.969Z" fill="#E1FFDF"/>
<path d="M188.064 132.22C188.064 132.22 186.312 126.558 173.776 129.928C161.241 133.298 155.311 153.92 152.749 157.021C150.189 160.121 144.527 169.152 148.301 178.048C152.075 186.944 158.276 189.639 163.398 192.874C168.519 196.11 172.159 198.67 172.429 199.075C172.698 199.479 159.085 197.996 158.141 203.792C157.198 209.588 161.241 212.823 161.241 212.823C161.241 212.823 156.928 212.958 154.098 216.732C151.267 220.506 152.21 223.471 159.894 224.685C167.577 225.898 195.612 224.685 195.612 224.685V204.601C195.612 204.601 215.696 198.266 223.783 191.392C231.871 184.517 234.971 178.856 232.14 172.252C229.309 165.647 220.009 149.608 217.448 144.755C214.887 139.903 210.439 131.95 201.948 130.333C193.456 128.715 189.951 130.467 188.064 132.22Z" fill="#001527" stroke="#001527" stroke-width="1.8" stroke-miterlimit="10" stroke-linecap="round" stroke-linejoin="round"/>
<path d="M173.244 216.757C173.244 216.757 151.267 221.481 145.516 225.179C139.765 228.875 110.257 270.741 109.23 271.562C108.203 272.384 100.604 288.815 111.695 293.745C138.5 300.5 135.5 284 135.5 284L150.856 261.123C150.856 261.123 154.348 288.44 155.375 293.985C156.402 299.531 151.678 308.363 151.678 308.363H240.408C240.408 308.363 237.327 291.726 238.148 288.645C238.97 285.565 243.078 263.177 243.078 263.177L256.634 282.484L283.746 276.733C283.746 276.733 249.445 232.368 244.926 227.233C240.408 222.098 239.381 221.893 231.37 219.634C223.36 217.374 207.545 215.32 207.545 215.32L173.244 216.757Z" fill="#92E3A9"/>
<path d="M107 287L115.035 307.18H140.519L134.653 288L107 287Z" fill="#92E3A9"/>
<path d="M179.842 201.905C179.842 201.905 174.854 203.118 174.72 205.41C174.585 207.701 174.989 209.453 174.989 209.453C174.989 209.453 170.272 216.867 171.35 219.562C172.428 222.258 181.593 230.48 193.051 231.154C204.508 231.828 213.269 223.336 214.347 219.562C215.425 215.788 211.921 212.419 211.921 211.475C211.921 210.531 212.46 206.353 211.651 204.87C210.842 203.387 207.877 200.827 205.182 200.018C202.486 199.209 181.055 201.096 179.842 201.905Z" fill="#92E3A9"/>
<path d="M178.629 193.684C178.629 193.684 179.033 205.545 179.303 206.354C179.572 207.163 185.948 213.694 191.299 214.711C195.112 215.434 199.656 213.632 202.487 210.667C205.317 207.702 205.856 204.602 205.856 204.602L204.643 193.954L178.629 193.684Z" fill="white"/>
<path d="M179.5 207C179.231 206.192 179.5 193.954 179.5 193.954L205.5 193.955L205 205" stroke="#001527" stroke-width="1.8" stroke-miterlimit="10" stroke-linecap="round" stroke-linejoin="round"/>
<path d="M167.441 172.252C167.441 172.252 164.61 169.825 162.319 171.308C160.027 172.791 160.701 178.587 163.262 181.282C165.823 183.978 168.923 182.765 168.923 182.765L167.441 172.252Z" fill="white" stroke="#001527" stroke-width="1.8" stroke-miterlimit="10" stroke-linecap="round" stroke-linejoin="round"/>
<path d="M213.084 172.252C213.084 172.252 215.915 169.825 218.206 171.308C220.498 172.791 219.824 178.587 217.263 181.282C214.702 183.978 211.602 182.765 211.602 182.765L213.084 172.252Z" fill="white" stroke="#001527" stroke-width="1.8" stroke-miterlimit="10" stroke-linecap="round" stroke-linejoin="round"/>
<path d="M188.704 139.678C188.704 139.678 188.704 145.116 178.993 154.632C169.282 164.148 166.369 165.896 166.369 165.896L167.146 173.665C167.146 173.665 168.7 186.483 171.613 189.202C174.526 191.921 182.295 200.854 190.452 202.214C198.609 203.574 205.988 196.387 209.484 191.338C212.98 186.288 214.534 179.879 214.534 176.966C214.534 174.053 211.427 158.127 211.427 158.127C211.427 158.127 203.27 153.66 197.055 150.553C190.84 147.447 188.704 139.678 188.704 139.678Z" fill="white" stroke="#001527" stroke-width="1.8" stroke-miterlimit="10" stroke-linecap="round" stroke-linejoin="round"/>
<path d="M193.559 165.43V169.702C193.559 169.702 197.933 171.829 197.738 174.353C197.544 176.878 195.501 176.5 193.171 176.694" stroke="#001527" stroke-width="1.8" stroke-miterlimit="10" stroke-linecap="round" stroke-linejoin="round"/>
<path d="M184 183C184 183 187.5 188 195.5 186.5" stroke="#001527" stroke-width="1.8" stroke-miterlimit="10" stroke-linecap="round" stroke-linejoin="round"/>
<path d="M184.067 165.241C184.067 166.686 183.009 167.857 181.705 167.857C180.401 167.857 179.344 166.686 179.344 165.241C179.344 163.797 180.401 162.625 181.705 162.625C183.009 162.625 184.067 163.796 184.067 165.241Z" fill="#001527"/>
<path d="M180.894 165.577C181.342 165.577 181.705 165.214 181.705 164.766C181.705 164.318 181.342 163.955 180.894 163.955C180.446 163.955 180.083 164.318 180.083 164.766C180.083 165.214 180.446 165.577 180.894 165.577Z" fill="white"/>
<path d="M178.543 163.101C178.837 161.644 180.108 160.549 181.633 160.549C182.835 160.549 183.88 161.231 184.412 162.234" stroke="#001527" stroke-width="1.8" stroke-miterlimit="10" stroke-linecap="round" stroke-linejoin="round"/>
<path d="M202.16 163.497C202.16 164.941 201.102 166.112 199.798 166.112C198.494 166.112 197.438 164.941 197.438 163.497C197.438 162.052 198.494 160.881 199.798 160.881C201.102 160.881 202.16 162.052 202.16 163.497Z" fill="#001527"/>
<path d="M198.622 163.72C199.07 163.72 199.433 163.357 199.433 162.909C199.433 162.461 199.07 162.098 198.622 162.098C198.174 162.098 197.811 162.461 197.811 162.909C197.811 163.357 198.174 163.72 198.622 163.72Z" fill="white"/>
<path d="M196.637 161.355C196.931 159.898 198.203 158.803 199.727 158.803C200.929 158.803 201.974 159.485 202.506 160.488" stroke="#001527" stroke-width="1.8" stroke-miterlimit="10" stroke-linecap="round" stroke-linejoin="round"/>
<path d="M185.237 156.349C185.237 156.349 183.638 155.477 181.677 155.768C179.715 156.059 174.12 160.709 174.41 161.145C174.701 161.581 181.168 158.094 182.548 157.876C183.929 157.657 185.309 157.876 185.237 156.349Z" fill="#001527"/>
<path d="M195.453 153.603C195.453 153.603 197.051 152.731 199.013 153.022C200.975 153.313 206.57 157.963 206.279 158.399C205.989 158.835 199.522 155.347 198.142 155.129C196.761 154.911 195.38 155.129 195.453 153.603Z" fill="#001527"/>
<path d="M256.325 286.954C256.325 286.954 258.419 297.703 259.396 297.982C260.373 298.261 265.12 293.515 265.818 291.002C266.516 288.49 266.935 286.954 264.003 286.256C261.072 285.558 256.325 286.954 256.325 286.954Z" fill="#001527" stroke="#001527" stroke-width="1.8" stroke-miterlimit="10" stroke-linecap="round" stroke-linejoin="round"/>
<path d="M247.146 259.131C247.146 259.131 240.576 258.744 237.999 256.683C235.422 254.622 232.846 252.56 231.299 254.622C229.753 256.683 232.458 260.161 234.263 261.321C236.066 262.481 239.932 263.641 239.932 263.641L248.306 262.095C248.306 262.095 248.564 259.517 247.146 259.131Z" fill="white" stroke="#001527" stroke-width="1.8" stroke-miterlimit="10" stroke-linecap="round" stroke-linejoin="round"/>
<path d="M229.7 245.247C228.22 242.049 223.061 236.506 221.564 234.933C216.541 231.438 212.541 236.439 213.411 240.209C213.979 242.305 216.041 249.591 218.006 252.516C220.314 255.95 224.171 254.204 224.171 254.204L226.982 254.312L228.349 251.852C228.349 251.852 231.438 249.001 229.7 245.247Z" fill="white" stroke="#001527" stroke-width="1.8" stroke-miterlimit="10" stroke-linecap="round" stroke-linejoin="round"/>
<path d="M227.889 252.322C227.889 252.322 244.051 278.412 244.191 278.925C244.332 279.437 244.059 282.104 242.76 282.687C241.462 283.27 239.918 282.365 239.265 281.993C238.612 281.622 224.97 253.965 224.97 253.965L227.889 252.322Z" fill="white" stroke="#001527" stroke-width="1.8" stroke-miterlimit="10" stroke-linecap="round" stroke-linejoin="round"/>
<path d="M262.993 276.008C262.993 276.008 256.809 269.567 254.232 264.929C251.655 260.291 248.821 258.616 247.146 259.131C245.471 259.646 245.471 261.192 240.962 262.223C233.694 263.884 230.397 270.339 230.397 270.339C230.397 271.628 230.268 273.432 231.686 274.333C233.103 275.235 234.134 277.039 235.551 279.229C236.968 281.419 237.226 283.094 239.545 285.285C241.864 287.475 240.576 289.278 244.312 289.536C248.048 289.793 249.079 287.088 249.079 287.088C249.079 287.088 253.975 289.665 257.067 290.18C260.159 290.695 265.168 289.946 265.168 289.946C265.168 289.946 265.441 284.254 264.797 280.26C264.153 276.266 262.993 276.008 262.993 276.008Z" fill="white" stroke="#001527" stroke-width="1.8" stroke-miterlimit="10" stroke-linecap="round" stroke-linejoin="round"/>
<path d="M234.004 277.039C234.004 277.039 233.489 275.107 235.164 273.947C236.839 272.788 247.532 268.15 248.82 266.861" stroke="#001527" stroke-width="1.8" stroke-miterlimit="10" stroke-linecap="round" stroke-linejoin="round"/>
<path d="M237.096 281.934C237.096 281.934 236.71 280.259 238.385 279.614C240.06 278.97 248.048 275.749 250.109 274.203" stroke="#001527" stroke-width="1.8" stroke-miterlimit="10" stroke-linecap="round" stroke-linejoin="round"/>
<path d="M240.575 286.443C240.575 286.443 239.931 284.64 242.121 283.48C244.312 282.321 249.465 280.903 251.913 279.486" stroke="#001527" stroke-width="1.8" stroke-miterlimit="10" stroke-linecap="round" stroke-linejoin="round"/>
<path d="M249.079 287.088C249.079 287.088 246.631 288.247 245.085 287.603" stroke="#001527" stroke-width="1.8" stroke-miterlimit="10" stroke-linecap="round" stroke-linejoin="round"/>
<path d="M261.49 273.134C261.49 273.134 272.798 270.482 279.359 271.04C285.92 271.598 290.248 278.439 291.365 284.302C292.482 290.165 292.341 292.817 289.13 294.911C285.92 297.005 272.798 297.703 267.353 298.262C261.909 298.82 259.396 297.982 259.396 297.982C259.396 297.982 264.841 291.421 265.12 286.815C265.399 282.208 263.165 275.787 261.49 273.134Z" fill="#92E3A9"/>
<path d="M269.5 271.501C263.141 271.461 261.49 273.134 261.49 273.134C263.165 275.787 265.399 282.208 265.12 286.815C264.841 291.421 259.396 297.982 259.396 297.982C259.396 297.982 261.909 298.82 267.353 298.262C272.798 297.703 291.5 297.5 291.5 290.5" stroke="#001527" stroke-width="1.8" stroke-miterlimit="10" stroke-linecap="round" stroke-linejoin="round"/>
<path d="M110 282.478L111.549 315.661C111.549 316.853 116.228 317.819 122 317.819C127.772 317.819 132.451 316.853 132.451 315.661L134 282.478H110Z" fill="white" stroke="#001527" stroke-width="1.8" stroke-miterlimit="10" stroke-linecap="round" stroke-linejoin="round"/>
<path d="M134 282.479C134 283.847 128.627 284.957 122 284.957C115.373 284.957 110 283.848 110 282.479C110 281.11 115.373 280 122 280C128.627 280 134 281.11 134 282.479Z" fill="white" stroke="#001527" stroke-width="1.8" stroke-miterlimit="10" stroke-linecap="round" stroke-linejoin="round"/>
<path fill-rule="evenodd" clip-rule="evenodd" d="M258.419 316.59C258.987 315.939 259.283 315.271 259.283 314.59C259.283 307.962 231.301 302.59 196.783 302.59C162.265 302.59 134.283 307.962 134.283 314.59C134.283 315.271 134.579 315.939 135.147 316.59C135.17 316.616 135.193 316.641 135.216 316.667M258.419 316.59C258.397 316.616 258.374 316.641 258.35 316.667L258.419 316.59Z" fill="white"/>
<path d="M255.719 320.136C256.533 318.831 257.659 317.447 258.35 316.667C253.227 322.304 227.612 326.59 196.783 326.59C165.955 326.59 140.339 322.304 135.216 316.667C135.924 317.465 137.086 318.897 137.905 320.228C138.584 321.332 139.494 322.377 140.721 322.797C162.364 330.199 217.221 334.067 252.729 322.768C254.021 322.357 255 321.286 255.719 320.136Z" fill="#051C30"/>
<path d="M258.419 316.59C248.283 299.09 135.147 304.09 135.147 316.59C135.17 316.616 135.193 316.641 135.216 316.667C140.339 322.304 165.955 326.59 196.783 326.59C227.612 326.59 253.227 322.304 258.35 316.667C258.374 316.641 258.397 316.616 258.419 316.59Z" fill="white"/>
<path d="M259.283 314.59C259.283 307.962 231.301 302.59 196.783 302.59C162.265 302.59 134.283 307.962 134.283 314.59C134.283 315.271 134.579 315.939 135.147 316.59M259.283 314.59C259.283 315.271 258.987 315.939 258.419 316.59M259.283 314.59C259.283 315.298 258.964 315.992 258.35 316.667M135.147 316.59C135.147 304.09 248.283 299.09 258.419 316.59M135.147 316.59C135.17 316.616 135.193 316.641 135.216 316.667M258.419 316.59C258.397 316.616 258.374 316.641 258.35 316.667M258.35 316.667C257.659 317.447 256.533 318.831 255.719 320.136M258.35 316.667C253.227 322.304 227.612 326.59 196.783 326.59C165.955 326.59 140.339 322.304 135.216 316.667M135.216 316.667C135.924 317.465 137.086 318.897 137.905 320.228M255.719 320.136C255 321.286 254.021 322.357 252.729 322.768M255.719 320.136C255.004 321.28 254.014 322.359 252.729 322.768M252.729 322.768C217.221 334.067 162.364 330.199 140.721 322.797M140.721 322.797C139.494 322.377 138.584 321.332 137.905 320.228M140.721 322.797C139.497 322.378 138.582 321.33 137.905 320.228" stroke="#001527" stroke-width="1.8" stroke-miterlimit="10" stroke-linecap="round" stroke-linejoin="round"/>
<path d="M172.956 305.29C172.406 299.239 223.533 296.833 223.533 305.29C223.533 313.747 173.736 313.867 172.956 305.29Z" fill="#E2CCA9" stroke="#001527" stroke-width="1.8" stroke-linecap="round"/>
<path d="M168.35 302.888C167.8 296.836 218.927 294.431 218.927 302.888C218.927 311.345 169.13 311.464 168.35 302.888Z" fill="#F9E4C2" stroke="#001527" stroke-width="1.8" stroke-linecap="round"/>
<path d="M168.283 304.09C168.283 306.023 161.344 307.59 152.783 307.59C144.223 307.59 137.283 306.023 137.283 304.09C136.95 308.423 137.783 317.99 143.783 321.59C146.95 323.09 154.983 325.19 161.783 321.59C167.783 317.99 168.617 308.423 168.283 304.09Z" fill="white"/>
<path d="M152.783 307.59C161.344 307.59 168.283 306.023 168.283 304.09C168.283 302.157 161.344 300.59 152.783 300.59C144.223 300.59 137.283 302.157 137.283 304.09C137.283 306.023 144.223 307.59 152.783 307.59Z" fill="white"/>
<path d="M168.283 304.09C168.283 306.023 161.344 307.59 152.783 307.59C144.223 307.59 137.283 306.023 137.283 304.09M168.283 304.09C168.283 302.157 161.344 300.59 152.783 300.59C144.223 300.59 137.283 302.157 137.283 304.09M168.283 304.09C168.617 308.423 167.783 317.99 161.783 321.59C154.983 325.19 146.95 323.09 143.783 321.59C137.783 317.99 136.95 308.423 137.283 304.09" stroke="#001527" stroke-width="1.8"/>
<path d="M165.499 305.251C161.095 306.48 160.755 306.788 152.746 306.788C144.746 306.788 140.258 305.401 139.766 305.07C139.532 304.086 147.266 303.344 152.746 303.344C157.737 303.344 167.68 304.426 165.499 305.251Z" fill="#CEF0C9"/>
<path d="M224.346 310.09C224.346 312.023 217.406 313.59 208.846 313.59C200.285 313.59 193.346 312.023 193.346 310.09C193.346 308.157 200.285 306.59 208.846 306.59C217.406 306.59 224.346 308.157 224.346 310.09Z" fill="white"/>
<path d="M224.346 310.09C224.346 312.023 217.406 313.59 208.846 313.59C200.285 313.59 193.346 312.023 193.346 310.09C193.013 314.423 193.846 323.99 199.846 327.59C203.013 329.09 211.046 331.19 217.846 327.59C223.846 323.99 224.679 314.423 224.346 310.09Z" fill="white"/>
<path d="M224.346 310.09C224.346 312.023 217.406 313.59 208.846 313.59C200.285 313.59 193.346 312.023 193.346 310.09M224.346 310.09C224.346 308.157 217.406 306.59 208.846 306.59C200.285 306.59 193.346 308.157 193.346 310.09M224.346 310.09C224.679 314.423 223.846 323.99 217.846 327.59C211.046 331.19 203.013 329.09 199.846 327.59C193.846 323.99 193.013 314.423 193.346 310.09" stroke="#001527" stroke-width="1.8"/>
<path d="M191.346 309.09C191.346 311.023 184.406 312.59 175.846 312.59C167.285 312.59 160.346 311.023 160.346 309.09C160.346 307.157 167.285 305.59 175.846 305.59C184.406 305.59 191.346 307.157 191.346 309.09Z" fill="white"/>
<path d="M191.346 309.09C191.346 311.023 184.406 312.59 175.846 312.59C167.285 312.59 160.346 311.023 160.346 309.09C160.013 313.423 160.846 322.99 166.846 326.59C170.013 328.09 178.046 330.19 184.846 326.59C190.846 322.99 191.679 313.423 191.346 309.09Z" fill="white"/>
<path d="M191.346 309.09C191.346 311.023 184.406 312.59 175.846 312.59C167.285 312.59 160.346 311.023 160.346 309.09M191.346 309.09C191.346 307.157 184.406 305.59 175.846 305.59C167.285 305.59 160.346 307.157 160.346 309.09M191.346 309.09C191.679 313.423 190.846 322.99 184.846 326.59C178.046 330.19 170.013 328.09 166.846 326.59C160.846 322.99 160.013 313.423 160.346 309.09" stroke="#001527" stroke-width="1.8"/>
<path d="M188.561 310.169C185.899 311.177 183.817 311.706 175.809 311.706C167.809 311.706 163.32 310.319 162.828 309.988C162.594 309.004 170.328 308.262 175.809 308.262C180.799 308.262 190.743 309.344 188.561 310.169Z" fill="#838F28"/>
<path d="M221.561 311.183C218.899 312.191 216.817 312.719 208.809 312.719C200.809 312.719 196.32 311.333 195.828 311.002C195.594 310.018 203.328 309.275 208.809 309.275C213.799 309.275 223.743 310.357 221.561 311.183Z" fill="#FF5C16"/>
<path d="M256.219 305.244C256.219 307.262 249.084 308.898 240.283 308.898C231.482 308.898 224.348 307.262 224.348 305.244C224.348 303.226 231.482 301.59 240.283 301.59C249.084 301.59 256.219 303.226 256.219 305.244Z" fill="white"/>
<path d="M256.219 305.244C256.219 307.262 249.084 308.898 240.283 308.898C231.482 308.898 224.348 307.262 224.348 305.244C224.005 309.768 224.862 319.756 231.03 323.515C236.283 324.59 244.783 324.59 249.536 323.515C255.705 319.756 256.561 309.768 256.219 305.244Z" fill="white"/>
<path d="M256.219 305.244C256.219 307.262 249.084 308.898 240.283 308.898C231.482 308.898 224.348 307.262 224.348 305.244M256.219 305.244C256.219 303.226 249.084 301.59 240.283 301.59C231.482 301.59 224.348 303.226 224.348 305.244M256.219 305.244C256.561 309.768 255.705 319.756 249.536 323.515C244.783 324.59 236.283 324.59 231.03 323.515C224.862 319.756 224.005 309.768 224.348 305.244" stroke="#001527" stroke-width="1.8"/>
<path d="M253.55 306.29C250.804 307.039 248.254 308.262 240.246 308.262C232.246 308.262 227.56 306.621 227.068 306.29C226.833 305.306 234.765 304.818 240.246 304.818C245.236 304.818 256.265 305.55 253.55 306.29Z" fill="#FFCBBD"/>
<path d="M255.719 320.136C256.533 318.831 257.659 317.447 258.35 316.667C253.227 322.304 227.612 326.59 196.783 326.59C165.955 326.59 140.339 322.304 135.216 316.667C135.924 317.465 137.086 318.897 137.905 320.228C138.584 321.332 139.494 322.377 140.721 322.797C162.364 330.199 217.221 334.067 252.729 322.768C254.021 322.357 255 321.286 255.719 320.136Z" fill="#051C30"/>
<path d="M134.283 314.59C134.283 315.271 134.579 315.939 135.147 316.59C135.17 316.616 135.193 316.641 135.216 316.667M135.216 316.667C140.339 322.304 165.955 326.59 196.783 326.59C227.612 326.59 253.227 322.304 258.35 316.667M135.216 316.667C135.924 317.465 137.086 318.897 137.905 320.228M258.35 316.667C258.374 316.641 258.397 316.616 258.419 316.59C258.987 315.939 259.283 315.271 259.283 314.59C259.283 315.298 258.964 315.992 258.35 316.667ZM258.35 316.667C257.659 317.447 256.533 318.831 255.719 320.136M255.719 320.136C255 321.286 254.021 322.357 252.729 322.768M255.719 320.136C255.004 321.28 254.014 322.359 252.729 322.768M252.729 322.768C217.221 334.067 162.364 330.199 140.721 322.797M140.721 322.797C139.494 322.377 138.584 321.332 137.905 320.228M140.721 322.797C139.497 322.378 138.582 321.33 137.905 320.228" stroke="#001527" stroke-width="1.8" stroke-miterlimit="10" stroke-linecap="round" stroke-linejoin="round"/>
</g>
</g>
<defs>
<linearGradient id="paint0_linear_197_2" x1="187.5" y1="351" x2="187.5" y2="-272.5" gradientUnits="userSpaceOnUse">
<stop stop-color="#DAFFD9"/>
<stop offset="1" stop-color="white"/>
</linearGradient>
<linearGradient id="paint1_linear_197_2" x1="185.134" y1="308.09" x2="185.134" y2="359.844" gradientUnits="userSpaceOnUse">
<stop stop-color="#AFE5AD"/>
<stop offset="1" stop-color="#E2FFE1"/>
</linearGradient>
<clipPath id="clip0_197_2">
<rect width="375" height="351" fill="white"/>
</clipPath>
</defs>
</svg>
