<svg width="374" height="254" viewBox="0 0 374 254" fill="none" xmlns="http://www.w3.org/2000/svg">
<g clip-path="url(#clip0_1_22609)">
<path d="M377.244 20C377.244 20 357.058 68.09 357.058 88.8697C357.058 109.649 349.247 167.437 349.247 167.437L347.1 165.458C347.1 165.458 351.715 79.9641 350.725 63.934C349.736 47.904 365.766 36.2278 377.244 20Z" fill="#B9F4CA"/>
<path d="M377.245 46.7168C377.245 46.7168 373.683 49.4874 374.079 56.8097C374.474 64.1321 368.141 89.2133 366.756 94.088C365.371 98.9628 349.767 151.878 349.767 151.878C349.767 151.878 352.111 115.586 352.705 110.045C353.299 104.504 360.819 53.8413 377.245 46.7168Z" fill="#AAE8BC"/>
<path d="M348.352 160.313C348.352 160.313 351.939 119.15 344.505 92.4331C337.071 65.7163 313.125 39.5352 313.125 39.5352C313.125 39.5352 337.863 100.151 338.852 105.297C339.842 110.442 345.779 160.313 345.779 160.313H348.352Z" fill="#B9F4CA"/>
<path d="M345.779 160.313C345.779 160.313 338.37 101.305 328.815 83.9066C319.26 66.508 319.062 60.373 318.666 58.1961C318.27 56.0192 313.125 39.5352 313.125 39.5352C313.125 39.5352 339.248 74.1841 343.206 107.947C347.164 141.711 345.779 160.313 345.779 160.313Z" fill="#AAE8BC"/>
<path d="M348.352 177.508C348.352 177.508 348.747 136.369 356.861 114.204C364.975 92.0385 376.652 67.3009 381.203 64.7282C385.755 62.1554 388.13 65.7176 396.64 56.8121C405.149 47.9065 372.496 94.0905 372.496 94.0905C372.496 94.0905 359.593 125.119 355.555 154.888C351.518 184.657 348.352 177.508 348.352 177.508Z" fill="#B9F4CA"/>
<path d="M387.733 88.8711C387.733 88.8711 374.523 91.8396 370.738 99.7557C366.953 107.672 353.713 128.159 351.319 144.283C348.925 160.408 349.262 181.342 349.262 181.342C349.262 181.342 359.632 133.399 368.834 118.952C378.036 104.505 387.733 88.8711 387.733 88.8711Z" fill="#B9F4CA"/>
<path d="M304.022 114.201C303.626 116.378 308.771 122.117 309.563 131.814C310.355 141.512 325.791 152.396 331.53 159.916C337.269 167.437 343.998 185.644 343.998 185.644H347.014C347.014 185.644 350.726 165.26 334.894 145.668C319.062 126.075 304.022 114.201 304.022 114.201Z" fill="#AAE8BC"/>
<path d="M348.747 185.644C348.747 185.644 351.776 166.249 347.392 154.573C343.008 142.897 323.812 123.502 320.843 121.326C317.875 119.149 304.021 114.201 304.021 114.201C304.021 114.201 328.363 147.053 330.342 149.032C332.321 151.011 345.185 185.644 345.185 185.644H348.747Z" fill="#B9F4CA"/>
<path d="M313.125 83.923C313.125 83.923 323.02 83.1314 328.759 92.4328C334.498 101.734 340.831 116.874 343.107 129.638C345.383 142.403 344.196 155.761 344.196 155.761C344.196 155.761 338.654 131.518 337.071 128.352C335.488 125.185 318.171 87.8811 313.125 83.923Z" fill="#B9F4CA"/>
<path d="M341.029 152.396C341.029 152.396 324.01 125.679 321.635 111.034C319.26 96.3897 313.125 83.9219 313.125 83.9219C313.125 83.9219 320.786 86.2968 323.289 90.4526C325.791 94.6086 340.429 133.376 341.029 138.938C341.629 144.501 341.029 152.396 341.029 152.396Z" fill="#AAE8BC"/>
<path d="M387.734 88.8705C389.768 87.6278 387.109 104.885 380.808 108.859C358.841 122.712 353.944 175.481 354.142 183.199L349.189 182.082C349.189 182.082 355.674 108.463 387.734 88.8705Z" fill="#AAE8BC"/>
<path d="M396.639 56.8086C396.639 56.8086 398.222 66.11 390.108 75.0155C381.994 83.9211 367.691 106.69 365.568 114.2C363.445 121.71 349.986 178.103 349.986 178.103L349.246 167.436C349.246 167.436 347.559 117.762 396.639 56.8086Z" fill="#AAE8BC"/>
<path d="M338.034 183.73H347.825H356.497C358.614 183.73 360.502 185.058 361.184 187.062C363.845 194.89 367.758 207.409 368.339 213.291C369.101 221.01 369.777 230.198 368.255 247.422C367.95 250.869 365.635 253.826 362.248 254.533C355.252 255.992 344.383 256.937 332.631 254.519C329.078 253.789 326.563 250.705 326.248 247.092C324.763 230.08 325.435 220.961 326.193 213.291C326.774 207.409 330.686 194.89 333.348 187.062C334.029 185.058 335.918 183.73 338.034 183.73Z" fill="#FDF3E0" stroke="#001527" stroke-width="1.8" stroke-linecap="round"/>
<path d="M347.32 182.8C342.839 182.797 338.354 183.004 333.877 182.68C332.389 182.572 332.165 182.229 332.214 180.334C332.256 178.682 332.672 178.105 334.007 178.119C342.834 178.214 351.66 178.323 360.486 178.463C362.092 178.488 362.504 179.047 362.475 180.773C362.448 182.354 362.049 182.781 360.353 182.791C356.009 182.818 351.664 182.8 347.32 182.8Z" fill="#FDF3E0" stroke="#001527" stroke-width="1.8"/>
<path d="M9.81034 30C9.81034 30 29.9963 78.09 29.9963 98.8697C29.9963 119.649 37.8082 177.437 37.8082 177.437L39.9551 175.458C39.9551 175.458 35.3396 89.9641 36.3292 73.934C37.3186 57.904 21.2886 46.2278 9.81034 30Z" fill="#B9F4CA"/>
<path d="M9.80976 56.7168C9.80976 56.7168 13.372 59.4874 12.9761 66.8097C12.5803 74.1321 18.9132 99.2133 20.2985 104.088C21.6838 108.963 37.2881 161.878 37.2881 161.878C37.2881 161.878 34.9432 125.586 34.3496 120.045C33.7558 114.504 26.2355 63.8413 9.80976 56.7168Z" fill="#AAE8BC"/>
<path d="M38.7032 170.313C38.7032 170.313 35.1154 129.15 42.5495 102.433C49.9837 75.7163 73.9297 49.5352 73.9297 49.5352C73.9297 49.5352 49.192 110.151 48.2024 115.297C47.213 120.442 41.2759 170.313 41.2759 170.313H38.7032Z" fill="#B9F4CA"/>
<path d="M41.2759 170.313C41.2759 170.313 48.6844 111.305 58.2396 93.9066C67.7948 76.508 67.9926 70.373 68.3884 68.1961C68.7842 66.0192 73.9297 49.5352 73.9297 49.5352C73.9297 49.5352 47.8067 84.1841 43.8486 117.947C39.8906 151.711 41.2759 170.313 41.2759 170.313Z" fill="#AAE8BC"/>
<path d="M38.7031 187.508C38.7031 187.508 38.3073 146.369 30.1933 124.204C22.0793 102.039 10.4031 77.3009 5.85148 74.7282C1.29981 72.1554 -1.07507 75.7176 -9.58487 66.8121C-18.0947 57.9065 14.5591 104.09 14.5591 104.09C14.5591 104.09 27.4618 135.119 31.4993 164.888C35.5367 194.657 38.7031 187.508 38.7031 187.508Z" fill="#B9F4CA"/>
<path d="M-0.678059 98.8711C-0.678059 98.8711 12.5318 101.84 16.3167 109.756C20.1016 117.672 33.3415 138.159 35.7358 154.283C38.1301 170.408 37.7922 191.342 37.7922 191.342C37.7922 191.342 27.423 143.399 18.2211 128.952C9.01918 114.505 -0.678059 98.8711 -0.678059 98.8711Z" fill="#B9F4CA"/>
<path d="M83.033 124.201C83.4288 126.378 78.2834 132.117 77.4917 141.814C76.7001 151.512 61.2638 162.396 55.5247 169.916C49.7855 177.437 43.0569 195.644 43.0569 195.644H40.0407C40.0407 195.644 36.3283 175.26 52.1603 155.668C67.9923 136.075 83.033 124.201 83.033 124.201Z" fill="#AAE8BC"/>
<path d="M38.3074 195.644C38.3074 195.644 35.2784 176.249 39.6625 164.573C44.0466 152.897 63.243 133.502 66.2116 131.326C69.1801 129.149 83.0332 124.201 83.0332 124.201C83.0332 124.201 58.6914 157.053 56.7123 159.032C54.7332 161.011 41.8697 195.644 41.8697 195.644H38.3074Z" fill="#B9F4CA"/>
<path d="M73.9297 93.923C73.9297 93.923 64.0346 93.1314 58.2955 102.433C52.5564 111.734 46.2235 126.874 43.9476 139.638C41.6717 152.403 42.8591 165.761 42.8591 165.761C42.8591 165.761 48.4004 141.518 49.9837 138.352C51.5668 135.185 68.8832 97.8811 73.9297 93.923Z" fill="#B9F4CA"/>
<path d="M46.0255 162.396C46.0255 162.396 63.045 135.679 65.4199 121.034C67.7946 106.39 73.9297 93.9219 73.9297 93.9219C73.9297 93.9219 66.2683 96.2968 63.7661 100.453C61.2639 104.609 46.6256 143.376 46.0255 148.938C45.4254 154.501 46.0255 162.396 46.0255 162.396Z" fill="#AAE8BC"/>
<path d="M-0.679573 98.8705C-2.71299 97.6278 -0.0542145 114.885 6.24698 118.859C28.2141 132.712 33.1104 185.481 32.9125 193.199L37.8652 192.082C37.8652 192.082 31.3804 118.463 -0.679573 98.8705Z" fill="#AAE8BC"/>
<path d="M-9.58384 66.8086C-9.58384 66.8086 -11.1671 76.11 -3.0531 85.0155C5.06089 93.9211 19.3632 116.69 21.4867 124.2C23.6102 131.71 37.0685 188.103 37.0685 188.103L37.8085 177.436C37.8082 177.436 39.4957 127.762 -9.58384 66.8086Z" fill="#AAE8BC"/>
<path d="M49.0204 193.73H39.23H30.5574C28.4408 193.73 26.5522 195.058 25.8709 197.062C23.2094 204.89 19.2971 217.409 18.7161 223.291C17.9537 231.01 17.2777 240.198 18.7997 257.422C19.1042 260.869 21.4193 263.826 24.8063 264.533C31.8031 265.992 42.6713 266.937 54.4236 264.519C57.9763 263.789 60.4919 260.705 60.8071 257.092C62.2914 240.08 61.6192 230.961 60.8617 223.291C60.2807 217.409 56.3684 204.89 53.7069 197.062C53.0256 195.058 51.137 193.73 49.0204 193.73Z" fill="#FDF3E0" stroke="#001527" stroke-width="1.8" stroke-linecap="round"/>
<path d="M39.7345 192.8C44.2153 192.797 48.7007 193.004 53.1773 192.68C54.6661 192.572 54.8893 192.229 54.8407 190.334C54.7984 188.682 54.3825 188.105 53.0475 188.119C44.2211 188.214 35.3949 188.323 26.5691 188.463C24.9629 188.488 24.5505 189.047 24.5799 190.773C24.6067 192.354 25.0055 192.781 26.7022 192.791C31.0461 192.818 35.3904 192.8 39.7345 192.8Z" fill="#FDF3E0" stroke="#001527" stroke-width="1.8"/>
<path d="M395.846 211.09H-12.8025L-65.0664 262.844H433.334L395.846 211.09Z" fill="url(#paint0_linear_1_22609)" stroke="#001527" stroke-width="1.8" stroke-miterlimit="10" stroke-linecap="round" stroke-linejoin="round"/>
<path d="M387.585 218.68H-17.4971L-15.5589 215.906H385.647L387.585 218.68ZM392.856 226.222H-22.7692L-24.8502 229.2H394.938L392.856 226.222ZM401.999 239.303H-31.9113L-36.4814 243.15H405.526L401.999 239.303Z" fill="#E1FFDF"/>
<path d="M316.428 260.583H311.727L294.726 211.969H298.905L316.428 260.583ZM264.685 211.969H260.505L272.244 261.582H276.945L264.685 211.969ZM230.463 211.969H226.284L230.762 257.582H235.462L230.463 211.969ZM196.242 211.969H192.063L192.278 257.582H196.979L196.242 211.969ZM162.021 211.969H157.841L153.795 257.582H158.495L162.021 211.969ZM127.8 211.969H123.62L110.312 260.582H115.013L127.8 211.969ZM93.5787 211.969H89.3992L71.8291 260.583H76.5295L93.5787 211.969Z" fill="#E1FFDF"/>
<path d="M350.29 261.582H354.99L327.315 211.969H323.136L350.29 261.582Z" fill="#E1FFDF"/>
<path d="M381.29 261.582H385.99L358.315 211.969H354.136L381.29 261.582Z" fill="#E1FFDF"/>
<path d="M60.9415 211.969H65.121L34.5803 261.583H29.8799L60.9415 211.969Z" fill="#E1FFDF"/>
<path d="M30.9415 211.969H35.121L-6.41969 261.583H-11.1201L30.9415 211.969Z" fill="#E1FFDF"/>
<path d="M187.064 35.2195C187.064 35.2195 185.312 29.5582 172.776 32.9283C160.241 36.2979 154.311 56.9205 151.749 60.0206C149.189 63.1208 143.527 72.1517 147.301 81.0477C151.075 89.9437 157.276 92.6393 162.398 95.8745C167.519 99.1096 171.159 101.67 171.429 102.075C171.698 102.479 158.085 100.996 157.141 106.792C156.198 112.588 160.241 115.823 160.241 115.823C160.241 115.823 155.928 115.958 153.098 119.732C150.267 123.506 151.21 126.471 158.894 127.685C166.577 128.898 194.612 127.685 194.612 127.685V107.601C194.612 107.601 214.696 101.266 222.783 94.3916C230.871 87.5174 233.971 81.8561 231.14 75.2519C228.309 68.6471 219.009 52.6075 216.448 47.7551C213.887 42.9026 209.439 34.9501 200.948 33.3328C192.456 31.7149 188.951 33.4672 187.064 35.2195Z" fill="#001527" stroke="#001527" stroke-width="1.8" stroke-miterlimit="10" stroke-linecap="round" stroke-linejoin="round"/>
<path d="M172.244 119.757C172.244 119.757 150.267 124.481 144.516 128.179C138.765 131.875 109.257 173.741 108.23 174.562C107.203 175.384 99.6038 191.815 110.695 196.745C137.5 203.5 134.5 187 134.5 187L149.856 164.123C149.856 164.123 153.348 191.44 154.375 196.985C155.402 202.531 150.678 211.363 150.678 211.363H239.408C239.408 211.363 236.327 194.726 237.148 191.645C237.97 188.565 242.078 166.177 242.078 166.177L255.634 185.484L282.746 179.733C282.746 179.733 248.445 135.368 243.926 130.233C239.408 125.098 238.381 124.893 230.37 122.634C222.36 120.374 206.545 118.32 206.545 118.32L172.244 119.757Z" fill="#92E3A9"/>
<path d="M106 190L114.035 210.18H139.519L133.653 191L106 190Z" fill="#92E3A9"/>
<path d="M178.842 104.905C178.842 104.905 173.854 106.118 173.72 108.41C173.585 110.701 173.989 112.453 173.989 112.453C173.989 112.453 169.272 119.867 170.35 122.562C171.428 125.258 180.593 133.48 192.051 134.154C203.508 134.828 212.269 126.336 213.347 122.562C214.425 118.788 210.921 115.419 210.921 114.475C210.921 113.531 211.46 109.353 210.651 107.87C209.842 106.387 206.877 103.827 204.182 103.018C201.486 102.209 180.055 104.096 178.842 104.905Z" fill="#92E3A9"/>
<path d="M177.629 96.6836C177.629 96.6836 178.033 108.545 178.303 109.354C178.572 110.163 184.948 116.694 190.299 117.711C194.112 118.434 198.656 116.632 201.487 113.667C204.317 110.702 204.856 107.602 204.856 107.602L203.643 96.9536L177.629 96.6836Z" fill="white"/>
<path d="M178.5 110C178.23 109.192 178.5 96.9541 178.5 96.9541L204.5 96.9546L204 108" stroke="#001527" stroke-width="1.8" stroke-miterlimit="10" stroke-linecap="round" stroke-linejoin="round"/>
<path d="M166.441 75.2515C166.441 75.2515 163.61 72.8253 161.319 74.3081C159.027 75.791 159.701 81.5868 162.262 84.2825C164.823 86.9781 167.923 85.7653 167.923 85.7653L166.441 75.2515Z" fill="white" stroke="#001527" stroke-width="1.8" stroke-miterlimit="10" stroke-linecap="round" stroke-linejoin="round"/>
<path d="M212.084 75.2515C212.084 75.2515 214.915 72.8253 217.206 74.3081C219.498 75.791 218.824 81.5868 216.263 84.2825C213.702 86.9781 210.602 85.7653 210.602 85.7653L212.084 75.2515Z" fill="white" stroke="#001527" stroke-width="1.8" stroke-miterlimit="10" stroke-linecap="round" stroke-linejoin="round"/>
<path d="M187.704 42.6777C187.704 42.6777 187.704 48.1155 177.993 57.632C168.282 67.1484 165.369 68.8964 165.369 68.8964L166.146 76.6648C166.146 76.6648 167.7 89.4828 170.613 92.2017C173.526 94.9206 181.295 103.854 189.452 105.214C197.609 106.574 204.988 99.3875 208.484 94.3379C211.98 89.2884 213.534 82.8791 213.534 79.9664C213.534 77.0531 210.427 61.1274 210.427 61.1274C210.427 61.1274 202.27 56.6605 196.055 53.5528C189.84 50.4467 187.704 42.6777 187.704 42.6777Z" fill="white" stroke="#001527" stroke-width="1.8" stroke-miterlimit="10" stroke-linecap="round" stroke-linejoin="round"/>
<path d="M192.559 68.4297V72.7022C192.559 72.7022 196.933 74.8289 196.738 77.3534C196.544 79.8785 194.501 79.4997 192.171 79.6935" stroke="#001527" stroke-width="1.8" stroke-miterlimit="10" stroke-linecap="round" stroke-linejoin="round"/>
<path d="M183 86C183 86 186.5 91 194.5 89.5" stroke="#001527" stroke-width="1.8" stroke-miterlimit="10" stroke-linecap="round" stroke-linejoin="round"/>
<path d="M183.067 68.2408C183.067 69.6853 182.009 70.8565 180.705 70.8565C179.401 70.8565 178.344 69.6853 178.344 68.2408C178.344 66.7963 179.401 65.625 180.705 65.625C182.009 65.6245 183.067 66.7957 183.067 68.2408Z" fill="#001527"/>
<path d="M179.894 68.5772C180.342 68.5772 180.705 68.2141 180.705 67.7662C180.705 67.3182 180.342 66.9551 179.894 66.9551C179.446 66.9551 179.083 67.3182 179.083 67.7662C179.083 68.2141 179.446 68.5772 179.894 68.5772Z" fill="white"/>
<path d="M177.543 66.1014C177.837 64.6445 179.108 63.5488 180.633 63.5488C181.835 63.5488 182.88 64.2308 183.412 65.2336" stroke="#001527" stroke-width="1.8" stroke-miterlimit="10" stroke-linecap="round" stroke-linejoin="round"/>
<path d="M201.16 66.4966C201.16 67.9411 200.103 69.1124 198.799 69.1124C197.495 69.1124 196.438 67.9411 196.438 66.4966C196.438 65.0521 197.495 63.8809 198.799 63.8809C200.103 63.8809 201.16 65.0521 201.16 66.4966Z" fill="#001527"/>
<path d="M197.622 66.7198C198.07 66.7198 198.433 66.3567 198.433 65.9087C198.433 65.4608 198.07 65.0977 197.622 65.0977C197.174 65.0977 196.811 65.4608 196.811 65.9087C196.811 66.3567 197.174 66.7198 197.622 66.7198Z" fill="white"/>
<path d="M195.637 64.3553C195.931 62.8984 197.203 61.8027 198.727 61.8027C199.929 61.8027 200.974 62.4848 201.506 63.4875" stroke="#001527" stroke-width="1.8" stroke-miterlimit="10" stroke-linecap="round" stroke-linejoin="round"/>
<path d="M184.237 59.3495C184.237 59.3495 182.638 58.4774 180.677 58.7684C178.715 59.059 173.12 63.7094 173.41 64.1452C173.701 64.581 180.168 61.0937 181.548 60.8755C182.929 60.6574 184.309 60.8755 184.237 59.3495Z" fill="#001527"/>
<path d="M194.453 56.6034C194.453 56.6034 196.051 55.7313 198.013 56.0224C199.975 56.3129 205.57 60.9634 205.279 61.3991C204.989 61.8349 198.522 58.347 197.142 58.1294C195.761 57.9113 194.38 58.1289 194.453 56.6034Z" fill="#001527"/>
<path d="M255.325 189.954C255.325 189.954 257.419 200.703 258.396 200.982C259.373 201.261 264.12 196.515 264.818 194.002C265.516 191.49 265.935 189.954 263.003 189.256C260.072 188.558 255.325 189.954 255.325 189.954Z" fill="#001527" stroke="#001527" stroke-width="1.8" stroke-miterlimit="10" stroke-linecap="round" stroke-linejoin="round"/>
<path d="M246.146 162.131C246.146 162.131 239.576 161.744 236.999 159.683C234.422 157.622 231.846 155.56 230.299 157.622C228.753 159.683 231.458 163.161 233.263 164.321C235.066 165.481 238.932 166.641 238.932 166.641L247.306 165.095C247.306 165.095 247.564 162.517 246.146 162.131Z" fill="white" stroke="#001527" stroke-width="1.8" stroke-miterlimit="10" stroke-linecap="round" stroke-linejoin="round"/>
<path d="M228.7 148.247C227.22 145.049 222.061 139.506 220.564 137.933C215.541 134.438 211.541 139.439 212.411 143.209C212.979 145.305 215.041 152.591 217.006 155.516C219.314 158.95 223.171 157.204 223.171 157.204L225.982 157.312L227.349 154.852C227.349 154.852 230.438 152.001 228.7 148.247Z" fill="white" stroke="#001527" stroke-width="1.8" stroke-miterlimit="10" stroke-linecap="round" stroke-linejoin="round"/>
<path d="M226.889 155.322C226.889 155.322 243.051 181.412 243.191 181.925C243.332 182.437 243.059 185.104 241.76 185.687C240.462 186.27 238.918 185.365 238.265 184.993C237.612 184.622 223.97 156.965 223.97 156.965L226.889 155.322Z" fill="white" stroke="#001527" stroke-width="1.8" stroke-miterlimit="10" stroke-linecap="round" stroke-linejoin="round"/>
<path d="M261.993 179.008C261.993 179.008 255.809 172.567 253.232 167.929C250.655 163.291 247.821 161.616 246.146 162.131C244.471 162.646 244.471 164.192 239.962 165.223C232.694 166.884 229.397 173.339 229.397 173.339C229.397 174.628 229.268 176.432 230.686 177.333C232.103 178.235 233.134 180.039 234.551 182.229C235.968 184.419 236.226 186.094 238.545 188.285C240.864 190.475 239.576 192.278 243.312 192.536C247.048 192.793 248.079 190.088 248.079 190.088C248.079 190.088 252.975 192.665 256.067 193.18C259.159 193.695 264.168 192.946 264.168 192.946C264.168 192.946 264.441 187.254 263.797 183.26C263.153 179.266 261.993 179.008 261.993 179.008Z" fill="white" stroke="#001527" stroke-width="1.8" stroke-miterlimit="10" stroke-linecap="round" stroke-linejoin="round"/>
<path d="M233.004 180.039C233.004 180.039 232.489 178.107 234.164 176.947C235.839 175.788 246.532 171.15 247.82 169.861" stroke="#001527" stroke-width="1.8" stroke-miterlimit="10" stroke-linecap="round" stroke-linejoin="round"/>
<path d="M236.096 184.934C236.096 184.934 235.71 183.259 237.385 182.614C239.06 181.97 247.048 178.749 249.109 177.203" stroke="#001527" stroke-width="1.8" stroke-miterlimit="10" stroke-linecap="round" stroke-linejoin="round"/>
<path d="M239.575 189.443C239.575 189.443 238.931 187.64 241.121 186.48C243.312 185.321 248.465 183.903 250.913 182.486" stroke="#001527" stroke-width="1.8" stroke-miterlimit="10" stroke-linecap="round" stroke-linejoin="round"/>
<path d="M248.079 190.088C248.079 190.088 245.631 191.247 244.085 190.603" stroke="#001527" stroke-width="1.8" stroke-miterlimit="10" stroke-linecap="round" stroke-linejoin="round"/>
<path d="M260.49 176.134C260.49 176.134 271.798 173.482 278.359 174.04C284.92 174.598 289.247 181.439 290.364 187.302C291.481 193.165 291.341 195.817 288.13 197.911C284.92 200.005 271.798 200.703 266.353 201.262C260.909 201.82 258.396 200.982 258.396 200.982C258.396 200.982 263.841 194.421 264.12 189.815C264.399 185.208 262.165 178.787 260.49 176.134Z" fill="#92E3A9"/>
<path d="M268.5 174.501C262.141 174.461 260.49 176.134 260.49 176.134C262.165 178.787 264.399 185.208 264.12 189.815C263.841 194.421 258.396 200.982 258.396 200.982C258.396 200.982 260.909 201.82 266.353 201.261C271.798 200.703 290.5 200.5 290.5 193.5" stroke="#001527" stroke-width="1.8" stroke-miterlimit="10" stroke-linecap="round" stroke-linejoin="round"/>
<path d="M109 185.479L110.549 218.661C110.549 219.853 115.228 220.819 121 220.819C126.772 220.819 131.451 219.853 131.451 218.661L133 185.479H109Z" fill="white" stroke="#001527" stroke-width="1.8" stroke-miterlimit="10" stroke-linecap="round" stroke-linejoin="round"/>
<path d="M133 185.479C133 186.847 127.627 187.957 121 187.957C114.373 187.957 109 186.848 109 185.479C109 184.11 114.373 183 121 183C127.627 183 133 184.11 133 185.479Z" fill="white" stroke="#001527" stroke-width="1.8" stroke-miterlimit="10" stroke-linecap="round" stroke-linejoin="round"/>
<path fill-rule="evenodd" clip-rule="evenodd" d="M257.419 219.59C257.987 218.939 258.283 218.271 258.283 217.59C258.283 210.962 230.301 205.59 195.783 205.59C161.265 205.59 133.283 210.962 133.283 217.59C133.283 218.271 133.579 218.939 134.147 219.59C134.17 219.616 134.193 219.641 134.216 219.667M257.419 219.59C257.397 219.616 257.374 219.641 257.35 219.667L257.419 219.59Z" fill="white"/>
<path d="M254.719 223.136C255.533 221.831 256.659 220.447 257.35 219.667C252.227 225.304 226.612 229.59 195.783 229.59C164.955 229.59 139.339 225.304 134.216 219.667C134.924 220.465 136.086 221.897 136.905 223.228C137.584 224.332 138.494 225.377 139.721 225.797C161.364 233.199 216.221 237.067 251.729 225.768C253.021 225.357 254 224.286 254.719 223.136Z" fill="#051C30"/>
<path d="M257.419 219.59C247.283 202.09 134.147 207.09 134.147 219.59C134.17 219.616 134.193 219.641 134.216 219.667C139.339 225.304 164.955 229.59 195.783 229.59C226.612 229.59 252.227 225.304 257.35 219.667C257.374 219.641 257.397 219.616 257.419 219.59Z" fill="white"/>
<path d="M258.283 217.59C258.283 210.962 230.301 205.59 195.783 205.59C161.265 205.59 133.283 210.962 133.283 217.59C133.283 218.271 133.579 218.939 134.147 219.59M258.283 217.59C258.283 218.271 257.987 218.939 257.419 219.59M258.283 217.59C258.283 218.298 257.964 218.992 257.35 219.667M134.147 219.59C134.147 207.09 247.283 202.09 257.419 219.59M134.147 219.59C134.17 219.616 134.193 219.641 134.216 219.667M257.419 219.59C257.397 219.616 257.374 219.641 257.35 219.667M257.35 219.667C256.659 220.447 255.533 221.831 254.719 223.136M257.35 219.667C252.227 225.304 226.612 229.59 195.783 229.59C164.955 229.59 139.339 225.304 134.216 219.667M254.719 223.136C254 224.286 253.021 225.357 251.729 225.768M254.719 223.136V223.136C254.004 224.28 253.014 225.359 251.729 225.768V225.768M251.729 225.768C216.221 237.067 161.364 233.199 139.721 225.797M139.721 225.797C138.494 225.377 137.584 224.332 136.905 223.228M139.721 225.797V225.797C138.497 225.378 137.582 224.33 136.905 223.228V223.228M136.905 223.228C136.086 221.897 134.924 220.465 134.216 219.667" stroke="#001527" stroke-width="1.8" stroke-miterlimit="10" stroke-linecap="round" stroke-linejoin="round"/>
<path d="M171.956 208.29C171.406 202.239 222.533 199.833 222.533 208.29C222.533 216.747 172.736 216.867 171.956 208.29Z" fill="#E2CCA9" stroke="#001527" stroke-width="1.8" stroke-linecap="round"/>
<path d="M167.35 205.888C166.8 199.836 217.927 197.431 217.927 205.888C217.927 214.345 168.13 214.464 167.35 205.888Z" fill="#F9E4C2" stroke="#001527" stroke-width="1.8" stroke-linecap="round"/>
<path d="M167.283 207.09C167.283 209.023 160.344 210.59 151.783 210.59C143.223 210.59 136.283 209.023 136.283 207.09C135.95 211.423 136.783 220.99 142.783 224.59C145.95 226.09 153.983 228.19 160.783 224.59C166.783 220.99 167.617 211.423 167.283 207.09Z" fill="white"/>
<path d="M151.783 210.59C160.344 210.59 167.283 209.023 167.283 207.09C167.283 205.157 160.344 203.59 151.783 203.59C143.223 203.59 136.283 205.157 136.283 207.09C136.283 209.023 143.223 210.59 151.783 210.59Z" fill="white"/>
<path d="M167.283 207.09C167.283 209.023 160.344 210.59 151.783 210.59C143.223 210.59 136.283 209.023 136.283 207.09M167.283 207.09C167.283 205.157 160.344 203.59 151.783 203.59C143.223 203.59 136.283 205.157 136.283 207.09M167.283 207.09C167.617 211.423 166.783 220.99 160.783 224.59C153.983 228.19 145.95 226.09 142.783 224.59C136.783 220.99 135.95 211.423 136.283 207.09" stroke="#001527" stroke-width="1.8"/>
<path d="M164.499 208.251C160.095 209.48 159.755 209.788 151.746 209.788C143.746 209.788 139.258 208.401 138.766 208.07C138.532 207.086 146.266 206.344 151.746 206.344C156.737 206.344 166.68 207.426 164.499 208.251Z" fill="#CEF0C9"/>
<path d="M223.346 213.09C223.346 215.023 216.406 216.59 207.846 216.59C199.285 216.59 192.346 215.023 192.346 213.09C192.346 211.157 199.285 209.59 207.846 209.59C216.406 209.59 223.346 211.157 223.346 213.09Z" fill="white"/>
<path d="M223.346 213.09C223.346 215.023 216.406 216.59 207.846 216.59C199.285 216.59 192.346 215.023 192.346 213.09C192.013 217.423 192.846 226.99 198.846 230.59C202.013 232.09 210.046 234.19 216.846 230.59C222.846 226.99 223.679 217.423 223.346 213.09Z" fill="white"/>
<path d="M223.346 213.09C223.346 215.023 216.406 216.59 207.846 216.59C199.285 216.59 192.346 215.023 192.346 213.09M223.346 213.09C223.346 211.157 216.406 209.59 207.846 209.59C199.285 209.59 192.346 211.157 192.346 213.09M223.346 213.09C223.679 217.423 222.846 226.99 216.846 230.59C210.046 234.19 202.013 232.09 198.846 230.59C192.846 226.99 192.013 217.423 192.346 213.09" stroke="#001527" stroke-width="1.8"/>
<path d="M190.346 212.09C190.346 214.023 183.406 215.59 174.846 215.59C166.285 215.59 159.346 214.023 159.346 212.09C159.346 210.157 166.285 208.59 174.846 208.59C183.406 208.59 190.346 210.157 190.346 212.09Z" fill="white"/>
<path d="M190.346 212.09C190.346 214.023 183.406 215.59 174.846 215.59C166.285 215.59 159.346 214.023 159.346 212.09C159.013 216.423 159.846 225.99 165.846 229.59C169.013 231.09 177.046 233.19 183.846 229.59C189.846 225.99 190.679 216.423 190.346 212.09Z" fill="white"/>
<path d="M190.346 212.09C190.346 214.023 183.406 215.59 174.846 215.59C166.285 215.59 159.346 214.023 159.346 212.09M190.346 212.09C190.346 210.157 183.406 208.59 174.846 208.59C166.285 208.59 159.346 210.157 159.346 212.09M190.346 212.09C190.679 216.423 189.846 225.99 183.846 229.59C177.046 233.19 169.013 231.09 165.846 229.59C159.846 225.99 159.013 216.423 159.346 212.09" stroke="#001527" stroke-width="1.8"/>
<path d="M187.561 213.169C184.899 214.177 182.817 214.706 174.809 214.706C166.809 214.706 162.32 213.319 161.828 212.988C161.594 212.004 169.328 211.262 174.809 211.262C179.799 211.262 189.743 212.344 187.561 213.169Z" fill="#838F28"/>
<path d="M220.561 214.183C217.899 215.191 215.817 215.719 207.809 215.719C199.809 215.719 195.32 214.333 194.828 214.002C194.594 213.018 202.328 212.275 207.809 212.275C212.799 212.275 222.743 213.357 220.561 214.183Z" fill="#FF5C16"/>
<path d="M255.219 208.244C255.219 210.262 248.084 211.898 239.283 211.898C230.482 211.898 223.348 210.262 223.348 208.244C223.348 206.226 230.482 204.59 239.283 204.59C248.084 204.59 255.219 206.226 255.219 208.244Z" fill="white"/>
<path d="M255.219 208.244C255.219 210.262 248.084 211.898 239.283 211.898C230.482 211.898 223.348 210.262 223.348 208.244C223.005 212.768 223.862 222.756 230.03 226.515C235.283 227.59 243.783 227.59 248.536 226.515C254.705 222.756 255.561 212.768 255.219 208.244Z" fill="white"/>
<path d="M255.219 208.244C255.219 210.262 248.084 211.898 239.283 211.898C230.482 211.898 223.348 210.262 223.348 208.244M255.219 208.244C255.219 206.226 248.084 204.59 239.283 204.59C230.482 204.59 223.348 206.226 223.348 208.244M255.219 208.244C255.561 212.768 254.705 222.756 248.536 226.515C243.783 227.59 235.283 227.59 230.03 226.515C223.862 222.756 223.005 212.768 223.348 208.244" stroke="#001527" stroke-width="1.8"/>
<path d="M252.55 209.29C249.804 210.039 247.254 211.262 239.246 211.262C231.246 211.262 226.56 209.621 226.068 209.29C225.833 208.306 233.765 207.818 239.246 207.818C244.236 207.818 255.265 208.55 252.55 209.29Z" fill="#FFCBBD"/>
<path d="M254.719 223.136C255.533 221.831 256.659 220.447 257.35 219.667C252.227 225.304 226.612 229.59 195.783 229.59C164.955 229.59 139.339 225.304 134.216 219.667C134.924 220.465 136.086 221.897 136.905 223.228C137.584 224.332 138.494 225.377 139.721 225.797C161.364 233.199 216.221 237.067 251.729 225.768C253.021 225.357 254 224.286 254.719 223.136Z" fill="#051C30"/>
<path d="M133.283 217.59C133.283 218.271 133.579 218.939 134.147 219.59C134.17 219.616 134.193 219.641 134.216 219.667M257.35 219.667C257.374 219.641 257.397 219.616 257.419 219.59C257.987 218.939 258.283 218.271 258.283 217.59C258.283 218.298 257.964 218.992 257.35 219.667ZM257.35 219.667C256.659 220.447 255.533 221.831 254.719 223.136M257.35 219.667C252.227 225.304 226.612 229.59 195.783 229.59C164.955 229.59 139.339 225.304 134.216 219.667M254.719 223.136C254 224.286 253.021 225.357 251.729 225.768M254.719 223.136V223.136C254.004 224.28 253.014 225.359 251.729 225.768V225.768M251.729 225.768C216.221 237.067 161.364 233.199 139.721 225.797M139.721 225.797C138.494 225.377 137.584 224.332 136.905 223.228M139.721 225.797V225.797C138.497 225.378 137.582 224.33 136.905 223.228V223.228M136.905 223.228C136.086 221.897 134.924 220.465 134.216 219.667" stroke="#001527" stroke-width="1.8" stroke-miterlimit="10" stroke-linecap="round" stroke-linejoin="round"/>
</g>
<defs>
<linearGradient id="paint0_linear_1_22609" x1="184.134" y1="211.09" x2="184.134" y2="262.844" gradientUnits="userSpaceOnUse">
<stop stop-color="#AFE5AD"/>
<stop offset="1" stop-color="#E2FFE1"/>
</linearGradient>
<clipPath id="clip0_1_22609">
<path d="M0 100C0 44.7715 44.7715 0 100 0H374V254H0V100Z" fill="white"/>
</clipPath>
</defs>
</svg>
