<svg width="9" height="8" viewBox="0 0 9 8" fill="none" xmlns="http://www.w3.org/2000/svg">
<path d="M7.6582 0.400391C7.77536 0.400391 7.88785 0.44647 7.9707 0.529297C8.05355 0.612147 8.10057 0.724629 8.10059 0.841797C8.10059 0.958981 8.05356 1.07144 7.9707 1.1543L1.6543 7.4707C1.6133 7.51177 1.56436 7.54421 1.51074 7.56641C1.48387 7.57752 1.45612 7.58619 1.42773 7.5918L1.3418 7.59961C1.25447 7.59961 1.1693 7.57388 1.09668 7.52539C1.02401 7.47685 0.967039 7.40789 0.933594 7.32715C0.900241 7.24654 0.891236 7.15783 0.908203 7.07227C0.925255 6.98656 0.967505 6.90749 1.0293 6.8457L7.3457 0.529297C7.42855 0.446451 7.54104 0.400408 7.6582 0.400391Z" fill="white" stroke="white" stroke-width="0.2"/>
<path d="M1.3418 0.400391C1.45896 0.400391 1.57144 0.446464 1.6543 0.529297L7.9707 6.8457C8.03251 6.90749 8.07474 6.98655 8.0918 7.07227C8.10877 7.15785 8.09977 7.24653 8.06641 7.32715C8.03296 7.40789 7.97599 7.47685 7.90332 7.52539C7.83069 7.57386 7.74552 7.59963 7.6582 7.59961C7.60021 7.59966 7.54284 7.58858 7.48926 7.56641C7.43562 7.5442 7.38671 7.51179 7.3457 7.4707L1.0293 1.1543C0.946464 1.07144 0.900391 0.958959 0.900391 0.841797C0.900403 0.724629 0.946446 0.612148 1.0293 0.529297C1.11215 0.446446 1.22463 0.400403 1.3418 0.400391Z" fill="white" stroke="white" stroke-width="0.2"/>
</svg>
