<svg width="12" height="12" viewBox="0 0 12 12" fill="none" xmlns="http://www.w3.org/2000/svg">
<path fill-rule="evenodd" clip-rule="evenodd" d="M6 12C2.68682 12 0 9.31318 0 6C0 2.68682 2.68682 0 6 0C9.31318 0 12 2.68682 12 6C12 9.31318 9.31318 12 6 12ZM5.1745 7.05572L8.77507 3.4552C8.89965 3.33057 9.10422 3.33184 9.22758 3.4552L9.63586 3.86348C9.75921 3.98683 9.75921 4.19268 9.63586 4.31598L5.40709 8.5448C5.33145 8.62044 5.2252 8.6502 5.12565 8.6331C5.05753 8.62455 4.99181 8.59465 4.9405 8.54339L2.36452 5.9674C2.2414 5.84428 2.23994 5.63948 2.36452 5.51485L2.7728 5.10657C2.89743 4.98198 3.10072 4.98198 3.22535 5.10657L5.1745 7.05572Z" fill="white"/>
</svg>
