<svg width="8" height="8" viewBox="0 0 8 8" fill="none" xmlns="http://www.w3.org/2000/svg">
<path d="M0.675427 7.68436C0.604263 7.68438 0.534693 7.66328 0.475518 7.62375C0.416343 7.58421 0.370221 7.52801 0.342986 7.46226C0.31575 7.39651 0.308626 7.32415 0.322513 7.25435C0.3364 7.18454 0.370675 7.12043 0.421003 7.07011L7.06944 0.420917C7.13692 0.353432 7.22844 0.315519 7.32386 0.315519C7.41929 0.315519 7.51081 0.353432 7.57829 0.420917C7.64577 0.488402 7.68367 0.579932 7.68367 0.675371C7.68367 0.770809 7.64577 0.862339 7.57829 0.929825L0.929852 7.57901C0.896472 7.61247 0.856811 7.63899 0.813149 7.65707C0.769487 7.67515 0.722684 7.68443 0.675427 7.68436Z" fill="white"/>
<path d="M7.32388 7.68436C7.27662 7.68443 7.22982 7.67515 7.18616 7.65707C7.14249 7.63899 7.10283 7.61247 7.06945 7.57901L0.421017 0.929825C0.353539 0.862339 0.31563 0.770809 0.31563 0.675371C0.31563 0.579932 0.353539 0.488402 0.421017 0.420917C0.488494 0.353432 0.580014 0.315519 0.675442 0.315519C0.77087 0.315519 0.862389 0.353432 0.929867 0.420917L7.5783 7.07011C7.62863 7.12043 7.66291 7.18454 7.67679 7.25435C7.69068 7.32415 7.68355 7.39651 7.65632 7.46226C7.62908 7.52801 7.58296 7.58421 7.52379 7.62375C7.46461 7.66328 7.39504 7.68438 7.32388 7.68436Z" fill="white"/>
<path d="M7.68367 0.675371C7.68367 0.603797 7.66247 0.53465 7.62333 0.47597L7.57829 0.420917C7.51081 0.353432 7.41929 0.315519 7.32386 0.315519C7.22846 0.315537 7.13779 0.354016 7.07033 0.421485L4 3.49113L0.929867 0.420917C0.862389 0.353432 0.77087 0.315519 0.675442 0.315519C0.580014 0.315519 0.488494 0.353432 0.421017 0.420917L0.376662 0.47597C0.337559 0.534636 0.31564 0.603825 0.31563 0.675371C0.31563 0.770809 0.353539 0.862339 0.421017 0.929825L3.49119 4L0.42189 7.07068L0.35816 7.15497C0.341599 7.18598 0.329447 7.21949 0.322513 7.25435L0.318072 7.35955C0.321501 7.39469 0.329327 7.42928 0.342986 7.46226C0.370221 7.52801 0.416343 7.58421 0.475518 7.62375C0.534693 7.66328 0.604263 7.68438 0.675427 7.68436C0.722684 7.68443 0.769487 7.67515 0.813149 7.65707C0.835069 7.64799 0.856608 7.6369 0.87622 7.62375L0.929852 7.57901L4 4.50887L7.06945 7.57901C7.10283 7.61247 7.14249 7.63899 7.18616 7.65707C7.22982 7.67515 7.27662 7.68443 7.32388 7.68436C7.35956 7.68437 7.39529 7.67925 7.42906 7.66898L7.52379 7.62375C7.55331 7.60397 7.58049 7.58001 7.60278 7.55281L7.65632 7.46226C7.66998 7.42929 7.67849 7.39469 7.68192 7.35955L7.67679 7.25435C7.66985 7.21947 7.65841 7.186 7.64184 7.15497L7.5783 7.07011L4.50881 4L7.57829 0.929825C7.64577 0.862339 7.68367 0.770809 7.68367 0.675371ZM7.99954 0.675405C7.99954 0.854601 7.92888 1.02672 7.80219 1.15343L4.95594 4L7.80219 6.84657C7.89669 6.94105 7.96113 7.06194 7.98721 7.19301C8.01322 7.324 7.99926 7.46027 7.94815 7.58365C7.89698 7.70691 7.81036 7.81278 7.6994 7.88692C7.58836 7.96099 7.45769 8.00002 7.32422 8C7.23563 8.00005 7.14808 7.98246 7.06621 7.9486C6.98419 7.91464 6.90897 7.86544 6.84624 7.80262L4 4.95605L1.15375 7.80262C1.09117 7.86528 1.0166 7.91465 0.93481 7.9486C0.893725 7.96561 0.850762 7.97907 0.807351 7.98766L0.67578 8C0.542307 8 0.41162 7.96101 0.300598 7.88692C0.189617 7.81277 0.10301 7.70693 0.051847 7.58365C0.000744279 7.46028 -0.0132128 7.32399 0.012787 7.19301C0.0388594 7.06196 0.10333 6.94105 0.197808 6.84657L3.04405 4L0.197808 1.15343C0.0711526 1.02673 0.000452196 0.85457 0.000452196 0.675405C0.000464734 0.496234 0.0711341 0.324076 0.197808 0.197379C0.324485 0.0706874 0.496634 2.15801e-05 0.67578 0C0.854925 0 1.02706 0.0707084 1.15375 0.197379L4 3.04395L6.84624 0.197379C6.97292 0.0706843 7.14507 1.80822e-05 7.32422 0C7.50336 0 7.6755 0.0707043 7.80219 0.197379C7.92887 0.324077 7.99953 0.496226 7.99954 0.675405Z" fill="white"/>
</svg>
